%TF.GenerationSoftware,KiCad,Pcbnew,7.0.9*%
%TF.CreationDate,2024-11-09T18:38:01+13:00*%
%TF.ProjectId,ADSR Envelope,41445352-2045-46e7-9665-6c6f70652e6b,rev?*%
%TF.SameCoordinates,Original*%
%TF.FileFunction,Drillmap*%
%TF.FilePolarity,Positive*%
%FSLAX45Y45*%
G04 Gerber Fmt 4.5, Leading zero omitted, Abs format (unit mm)*
G04 Created by KiCad (PCBNEW 7.0.9) date 2024-11-09 18:38:01*
%MOMM*%
%LPD*%
G01*
G04 APERTURE LIST*
%ADD10C,0.100000*%
%ADD11C,0.200000*%
%ADD12C,0.120000*%
%ADD13C,0.170000*%
%ADD14C,0.400000*%
G04 APERTURE END LIST*
D10*
X10900000Y-4530000D02*
X17980000Y-4530000D01*
X17980000Y-4530000D02*
X17980000Y-14530000D01*
X17980000Y-14530000D02*
X10900000Y-14530000D01*
X10900000Y-14530000D02*
X10900000Y-4530000D01*
D11*
D10*
X10955000Y-9555000D02*
X10995000Y-9595000D01*
X10995000Y-9555000D02*
X10955000Y-9595000D01*
X10980000Y-4600000D02*
X11020000Y-4640000D01*
X11020000Y-4600000D02*
X10980000Y-4640000D01*
X10980000Y-5535050D02*
X11020000Y-5575050D01*
X11020000Y-5535050D02*
X10980000Y-5575050D01*
X10980000Y-6394950D02*
X11020000Y-6434950D01*
X11020000Y-6394950D02*
X10980000Y-6434950D01*
X10980000Y-7330000D02*
X11020000Y-7370000D01*
X11020000Y-7330000D02*
X10980000Y-7370000D01*
X10980000Y-8380000D02*
X11020000Y-8420000D01*
X11020000Y-8380000D02*
X10980000Y-8420000D01*
X10980000Y-11705000D02*
X11020000Y-11745000D01*
X11020000Y-11705000D02*
X10980000Y-11745000D01*
X10980000Y-12505000D02*
X11020000Y-12545000D01*
X11020000Y-12505000D02*
X10980000Y-12545000D01*
X10980000Y-13405000D02*
X11020000Y-13445000D01*
X11020000Y-13405000D02*
X10980000Y-13445000D01*
X11005000Y-14405000D02*
X11045000Y-14445000D01*
X11045000Y-14405000D02*
X11005000Y-14445000D01*
X11170000Y-9480000D02*
X11210000Y-9520000D01*
X11210000Y-9480000D02*
X11170000Y-9520000D01*
X11290000Y-9980000D02*
X11330000Y-10020000D01*
X11330000Y-9980000D02*
X11290000Y-10020000D01*
X11290000Y-12710000D02*
X11330000Y-12750000D01*
X11330000Y-12710000D02*
X11290000Y-12750000D01*
X11330000Y-12020000D02*
X11370000Y-12060000D01*
X11370000Y-12020000D02*
X11330000Y-12060000D01*
X11330000Y-12130000D02*
X11370000Y-12170000D01*
X11370000Y-12130000D02*
X11330000Y-12170000D01*
X11420000Y-9480000D02*
X11460000Y-9520000D01*
X11460000Y-9480000D02*
X11420000Y-9520000D01*
X11500000Y-10720000D02*
X11540000Y-10760000D01*
X11540000Y-10720000D02*
X11500000Y-10760000D01*
X11500000Y-10940000D02*
X11540000Y-10980000D01*
X11540000Y-10940000D02*
X11500000Y-10980000D01*
X11520000Y-10440000D02*
X11560000Y-10480000D01*
X11560000Y-10440000D02*
X11520000Y-10480000D01*
X11563281Y-10270263D02*
X11603281Y-10310263D01*
X11603281Y-10270263D02*
X11563281Y-10310263D01*
X11680000Y-9480000D02*
X11720000Y-9520000D01*
X11720000Y-9480000D02*
X11680000Y-9520000D01*
X11700000Y-10840000D02*
X11740000Y-10880000D01*
X11740000Y-10840000D02*
X11700000Y-10880000D01*
X11700000Y-11040000D02*
X11740000Y-11080000D01*
X11740000Y-11040000D02*
X11700000Y-11080000D01*
X11700000Y-12850000D02*
X11740000Y-12890000D01*
X11740000Y-12850000D02*
X11700000Y-12890000D01*
X11810000Y-11570000D02*
X11850000Y-11610000D01*
X11850000Y-11570000D02*
X11810000Y-11610000D01*
X11810000Y-12850000D02*
X11850000Y-12890000D01*
X11850000Y-12850000D02*
X11810000Y-12890000D01*
X11855000Y-14405000D02*
X11895000Y-14445000D01*
X11895000Y-14405000D02*
X11855000Y-14445000D01*
X11880000Y-4605000D02*
X11920000Y-4645000D01*
X11920000Y-4605000D02*
X11880000Y-4645000D01*
X11900000Y-12030000D02*
X11940000Y-12070000D01*
X11940000Y-12030000D02*
X11900000Y-12070000D01*
X11910061Y-12389294D02*
X11950061Y-12429294D01*
X11950061Y-12389294D02*
X11910061Y-12429294D01*
X11960000Y-9480000D02*
X12000000Y-9520000D01*
X12000000Y-9480000D02*
X11960000Y-9520000D01*
X12040000Y-6440000D02*
X12080000Y-6480000D01*
X12080000Y-6440000D02*
X12040000Y-6480000D01*
X12096434Y-10922125D02*
X12136434Y-10962125D01*
X12136434Y-10922125D02*
X12096434Y-10962125D01*
X12100000Y-10000000D02*
X12140000Y-10040000D01*
X12140000Y-10000000D02*
X12100000Y-10040000D01*
X12200000Y-7360000D02*
X12240000Y-7400000D01*
X12240000Y-7360000D02*
X12200000Y-7400000D01*
X12240000Y-9480000D02*
X12280000Y-9520000D01*
X12280000Y-9480000D02*
X12240000Y-9520000D01*
X12240000Y-12050000D02*
X12280000Y-12090000D01*
X12280000Y-12050000D02*
X12240000Y-12090000D01*
X12240000Y-12430000D02*
X12280000Y-12470000D01*
X12280000Y-12430000D02*
X12240000Y-12470000D01*
X12300000Y-6180000D02*
X12340000Y-6220000D01*
X12340000Y-6180000D02*
X12300000Y-6220000D01*
X12308770Y-8268770D02*
X12348770Y-8308770D01*
X12348770Y-8268770D02*
X12308770Y-8308770D01*
X12310000Y-8530000D02*
X12350000Y-8570000D01*
X12350000Y-8530000D02*
X12310000Y-8570000D01*
X12320000Y-10890000D02*
X12360000Y-10930000D01*
X12360000Y-10890000D02*
X12320000Y-10930000D01*
X12330000Y-12280000D02*
X12370000Y-12320000D01*
X12370000Y-12280000D02*
X12330000Y-12320000D01*
X12340000Y-11340000D02*
X12380000Y-11380000D01*
X12380000Y-11340000D02*
X12340000Y-11380000D01*
X12400000Y-9910000D02*
X12440000Y-9950000D01*
X12440000Y-9910000D02*
X12400000Y-9950000D01*
X12410000Y-8530000D02*
X12450000Y-8570000D01*
X12450000Y-8530000D02*
X12410000Y-8570000D01*
X12430000Y-9280000D02*
X12470000Y-9320000D01*
X12470000Y-9280000D02*
X12430000Y-9320000D01*
X12440000Y-6450000D02*
X12480000Y-6490000D01*
X12480000Y-6450000D02*
X12440000Y-6490000D01*
X12460000Y-7960000D02*
X12500000Y-8000000D01*
X12500000Y-7960000D02*
X12460000Y-8000000D01*
X12510000Y-11130000D02*
X12550000Y-11170000D01*
X12550000Y-11130000D02*
X12510000Y-11170000D01*
X12520000Y-12710000D02*
X12560000Y-12750000D01*
X12560000Y-12710000D02*
X12520000Y-12750000D01*
X12540000Y-9480000D02*
X12580000Y-9520000D01*
X12580000Y-9480000D02*
X12540000Y-9520000D01*
X12570000Y-10900000D02*
X12610000Y-10940000D01*
X12610000Y-10900000D02*
X12570000Y-10940000D01*
X12610000Y-10260000D02*
X12650000Y-10300000D01*
X12650000Y-10260000D02*
X12610000Y-10300000D01*
X12638190Y-11460746D02*
X12678190Y-11500746D01*
X12678190Y-11460746D02*
X12638190Y-11500746D01*
X12640000Y-5440000D02*
X12680000Y-5480000D01*
X12680000Y-5440000D02*
X12640000Y-5480000D01*
X12660000Y-12710000D02*
X12700000Y-12750000D01*
X12700000Y-12710000D02*
X12660000Y-12750000D01*
X12670000Y-13070000D02*
X12710000Y-13110000D01*
X12710000Y-13070000D02*
X12670000Y-13110000D01*
X12680000Y-7540000D02*
X12720000Y-7580000D01*
X12720000Y-7540000D02*
X12680000Y-7580000D01*
X12680000Y-7720000D02*
X12720000Y-7760000D01*
X12720000Y-7720000D02*
X12680000Y-7760000D01*
X12680000Y-8120000D02*
X12720000Y-8160000D01*
X12720000Y-8120000D02*
X12680000Y-8160000D01*
X12682970Y-7919431D02*
X12722970Y-7959431D01*
X12722970Y-7919431D02*
X12682970Y-7959431D01*
X12700000Y-6205000D02*
X12740000Y-6245000D01*
X12740000Y-6205000D02*
X12700000Y-6245000D01*
X12740000Y-5220000D02*
X12780000Y-5260000D01*
X12780000Y-5220000D02*
X12740000Y-5260000D01*
X12740000Y-12270000D02*
X12780000Y-12310000D01*
X12780000Y-12270000D02*
X12740000Y-12310000D01*
X12750000Y-12640000D02*
X12790000Y-12680000D01*
X12790000Y-12640000D02*
X12750000Y-12680000D01*
X12760000Y-11650000D02*
X12800000Y-11690000D01*
X12800000Y-11650000D02*
X12760000Y-11690000D01*
X12800000Y-9490000D02*
X12840000Y-9530000D01*
X12840000Y-9490000D02*
X12800000Y-9530000D01*
X12850000Y-10630000D02*
X12890000Y-10670000D01*
X12890000Y-10630000D02*
X12850000Y-10670000D01*
X12860000Y-12620000D02*
X12900000Y-12660000D01*
X12900000Y-12620000D02*
X12860000Y-12660000D01*
X12900000Y-8400000D02*
X12940000Y-8440000D01*
X12940000Y-8400000D02*
X12900000Y-8440000D01*
X12900000Y-8500000D02*
X12940000Y-8540000D01*
X12940000Y-8500000D02*
X12900000Y-8540000D01*
X12980000Y-14405000D02*
X13020000Y-14445000D01*
X13020000Y-14405000D02*
X12980000Y-14445000D01*
X13069121Y-6725463D02*
X13109121Y-6765463D01*
X13109121Y-6725463D02*
X13069121Y-6765463D01*
X13080000Y-7150000D02*
X13120000Y-7190000D01*
X13120000Y-7150000D02*
X13080000Y-7190000D01*
X13120000Y-11580000D02*
X13160000Y-11620000D01*
X13160000Y-11580000D02*
X13120000Y-11620000D01*
X13130000Y-9480000D02*
X13170000Y-9520000D01*
X13170000Y-9480000D02*
X13130000Y-9520000D01*
X13180000Y-12140000D02*
X13220000Y-12180000D01*
X13220000Y-12140000D02*
X13180000Y-12180000D01*
X13270000Y-5270000D02*
X13310000Y-5310000D01*
X13310000Y-5270000D02*
X13270000Y-5310000D01*
X13400000Y-10480000D02*
X13440000Y-10520000D01*
X13440000Y-10480000D02*
X13400000Y-10520000D01*
X13405000Y-8905000D02*
X13445000Y-8945000D01*
X13445000Y-8905000D02*
X13405000Y-8945000D01*
X13490000Y-4820000D02*
X13530000Y-4860000D01*
X13530000Y-4820000D02*
X13490000Y-4860000D01*
X13500000Y-11420000D02*
X13540000Y-11460000D01*
X13540000Y-11420000D02*
X13500000Y-11460000D01*
X13510000Y-5950000D02*
X13550000Y-5990000D01*
X13550000Y-5950000D02*
X13510000Y-5990000D01*
X13510000Y-6260000D02*
X13550000Y-6300000D01*
X13550000Y-6260000D02*
X13510000Y-6300000D01*
X13520000Y-7960000D02*
X13560000Y-8000000D01*
X13560000Y-7960000D02*
X13520000Y-8000000D01*
X13540000Y-7280000D02*
X13580000Y-7320000D01*
X13580000Y-7280000D02*
X13540000Y-7320000D01*
X13690000Y-12270000D02*
X13730000Y-12310000D01*
X13730000Y-12270000D02*
X13690000Y-12310000D01*
X13718175Y-11601016D02*
X13758175Y-11641016D01*
X13758175Y-11601016D02*
X13718175Y-11641016D01*
X13720000Y-11840000D02*
X13760000Y-11880000D01*
X13760000Y-11840000D02*
X13720000Y-11880000D01*
X13740000Y-6210000D02*
X13780000Y-6250000D01*
X13780000Y-6210000D02*
X13740000Y-6250000D01*
X13750000Y-6720000D02*
X13790000Y-6760000D01*
X13790000Y-6720000D02*
X13750000Y-6760000D01*
X13760000Y-7960000D02*
X13800000Y-8000000D01*
X13800000Y-7960000D02*
X13760000Y-8000000D01*
X13770000Y-5360000D02*
X13810000Y-5400000D01*
X13810000Y-5360000D02*
X13770000Y-5400000D01*
X13860000Y-7280000D02*
X13900000Y-7320000D01*
X13900000Y-7280000D02*
X13860000Y-7320000D01*
X13870000Y-5950000D02*
X13910000Y-5990000D01*
X13910000Y-5950000D02*
X13870000Y-5990000D01*
X13920000Y-4820000D02*
X13960000Y-4860000D01*
X13960000Y-4820000D02*
X13920000Y-4860000D01*
X13950000Y-6990000D02*
X13990000Y-7030000D01*
X13990000Y-6990000D02*
X13950000Y-7030000D01*
X13960000Y-7920000D02*
X14000000Y-7960000D01*
X14000000Y-7920000D02*
X13960000Y-7960000D01*
X13980000Y-7580000D02*
X14020000Y-7620000D01*
X14020000Y-7580000D02*
X13980000Y-7620000D01*
X13980000Y-7760000D02*
X14020000Y-7800000D01*
X14020000Y-7760000D02*
X13980000Y-7800000D01*
X13980000Y-8120000D02*
X14020000Y-8160000D01*
X14020000Y-8120000D02*
X13980000Y-8160000D01*
X13990000Y-6290000D02*
X14030000Y-6330000D01*
X14030000Y-6290000D02*
X13990000Y-6330000D01*
X14030000Y-8305000D02*
X14070000Y-8345000D01*
X14070000Y-8305000D02*
X14030000Y-8345000D01*
X14080000Y-8530000D02*
X14120000Y-8570000D01*
X14120000Y-8530000D02*
X14080000Y-8570000D01*
X14105000Y-14405000D02*
X14145000Y-14445000D01*
X14145000Y-14405000D02*
X14105000Y-14445000D01*
X14120000Y-7380000D02*
X14160000Y-7420000D01*
X14160000Y-7380000D02*
X14120000Y-7420000D01*
X14120000Y-11720000D02*
X14160000Y-11760000D01*
X14160000Y-11720000D02*
X14120000Y-11760000D01*
X14120000Y-12760000D02*
X14160000Y-12800000D01*
X14160000Y-12760000D02*
X14120000Y-12800000D01*
X14150000Y-5990000D02*
X14190000Y-6030000D01*
X14190000Y-5990000D02*
X14150000Y-6030000D01*
X14170000Y-5020000D02*
X14210000Y-5060000D01*
X14210000Y-5020000D02*
X14170000Y-5060000D01*
X14180000Y-8530000D02*
X14220000Y-8570000D01*
X14220000Y-8530000D02*
X14180000Y-8570000D01*
X14240000Y-11720000D02*
X14280000Y-11760000D01*
X14280000Y-11720000D02*
X14240000Y-11760000D01*
X14240000Y-12760000D02*
X14280000Y-12800000D01*
X14280000Y-12760000D02*
X14240000Y-12800000D01*
X14290000Y-6940000D02*
X14330000Y-6980000D01*
X14330000Y-6940000D02*
X14290000Y-6980000D01*
X14320000Y-7120000D02*
X14360000Y-7160000D01*
X14360000Y-7120000D02*
X14320000Y-7160000D01*
X14360000Y-7400000D02*
X14400000Y-7440000D01*
X14400000Y-7400000D02*
X14360000Y-7440000D01*
X14360000Y-11720000D02*
X14400000Y-11760000D01*
X14400000Y-11720000D02*
X14360000Y-11760000D01*
X14360000Y-12760000D02*
X14400000Y-12800000D01*
X14400000Y-12760000D02*
X14360000Y-12800000D01*
X14380000Y-6000000D02*
X14420000Y-6040000D01*
X14420000Y-6000000D02*
X14380000Y-6040000D01*
X14380000Y-7960000D02*
X14420000Y-8000000D01*
X14420000Y-7960000D02*
X14380000Y-8000000D01*
X14480000Y-11720000D02*
X14520000Y-11760000D01*
X14520000Y-11720000D02*
X14480000Y-11760000D01*
X14480000Y-12760000D02*
X14520000Y-12800000D01*
X14520000Y-12760000D02*
X14480000Y-12800000D01*
X14500000Y-8520000D02*
X14540000Y-8560000D01*
X14540000Y-8520000D02*
X14500000Y-8560000D01*
X14530000Y-6770000D02*
X14570000Y-6810000D01*
X14570000Y-6770000D02*
X14530000Y-6810000D01*
X14550000Y-5690000D02*
X14590000Y-5730000D01*
X14590000Y-5690000D02*
X14550000Y-5730000D01*
X14560000Y-11490000D02*
X14600000Y-11530000D01*
X14600000Y-11490000D02*
X14560000Y-11530000D01*
X14590000Y-4770000D02*
X14630000Y-4810000D01*
X14630000Y-4770000D02*
X14590000Y-4810000D01*
X14640000Y-8580000D02*
X14680000Y-8620000D01*
X14680000Y-8580000D02*
X14640000Y-8620000D01*
X14690000Y-5050000D02*
X14730000Y-5090000D01*
X14730000Y-5050000D02*
X14690000Y-5090000D01*
X14690000Y-5930000D02*
X14730000Y-5970000D01*
X14730000Y-5930000D02*
X14690000Y-5970000D01*
X14700000Y-5190000D02*
X14740000Y-5230000D01*
X14740000Y-5190000D02*
X14700000Y-5230000D01*
X14700000Y-6170000D02*
X14740000Y-6210000D01*
X14740000Y-6170000D02*
X14700000Y-6210000D01*
X14705000Y-4580000D02*
X14745000Y-4620000D01*
X14745000Y-4580000D02*
X14705000Y-4620000D01*
X14780000Y-7580000D02*
X14820000Y-7620000D01*
X14820000Y-7580000D02*
X14780000Y-7620000D01*
X14780000Y-7760000D02*
X14820000Y-7800000D01*
X14820000Y-7760000D02*
X14780000Y-7800000D01*
X14780000Y-7940000D02*
X14820000Y-7980000D01*
X14820000Y-7940000D02*
X14780000Y-7980000D01*
X14780000Y-8140000D02*
X14820000Y-8180000D01*
X14820000Y-8140000D02*
X14780000Y-8180000D01*
X14810000Y-7020000D02*
X14850000Y-7060000D01*
X14850000Y-7020000D02*
X14810000Y-7060000D01*
X14880000Y-11290000D02*
X14920000Y-11330000D01*
X14920000Y-11290000D02*
X14880000Y-11330000D01*
X15180000Y-6660000D02*
X15220000Y-6700000D01*
X15220000Y-6660000D02*
X15180000Y-6700000D01*
X15200000Y-7170000D02*
X15240000Y-7210000D01*
X15240000Y-7170000D02*
X15200000Y-7210000D01*
X15200000Y-7300000D02*
X15240000Y-7340000D01*
X15240000Y-7300000D02*
X15200000Y-7340000D01*
X15250000Y-6030000D02*
X15290000Y-6070000D01*
X15290000Y-6030000D02*
X15250000Y-6070000D01*
X15250000Y-6320000D02*
X15290000Y-6360000D01*
X15290000Y-6320000D02*
X15250000Y-6360000D01*
X15260000Y-12860000D02*
X15300000Y-12900000D01*
X15300000Y-12860000D02*
X15260000Y-12900000D01*
X15360000Y-5710000D02*
X15400000Y-5750000D01*
X15400000Y-5710000D02*
X15360000Y-5750000D01*
X15380000Y-11670000D02*
X15420000Y-11710000D01*
X15420000Y-11670000D02*
X15380000Y-11710000D01*
X15430000Y-11160000D02*
X15470000Y-11200000D01*
X15470000Y-11160000D02*
X15430000Y-11200000D01*
X15450000Y-6800000D02*
X15490000Y-6840000D01*
X15490000Y-6800000D02*
X15450000Y-6840000D01*
X15490000Y-11670000D02*
X15530000Y-11710000D01*
X15530000Y-11670000D02*
X15490000Y-11710000D01*
X15540000Y-8000000D02*
X15580000Y-8040000D01*
X15580000Y-8000000D02*
X15540000Y-8040000D01*
X15555000Y-14405000D02*
X15595000Y-14445000D01*
X15595000Y-14405000D02*
X15555000Y-14445000D01*
X15580000Y-12830000D02*
X15620000Y-12870000D01*
X15620000Y-12830000D02*
X15580000Y-12870000D01*
X15640000Y-5670000D02*
X15680000Y-5710000D01*
X15680000Y-5670000D02*
X15640000Y-5710000D01*
X15650000Y-7290000D02*
X15690000Y-7330000D01*
X15690000Y-7290000D02*
X15650000Y-7330000D01*
X15655000Y-4580000D02*
X15695000Y-4620000D01*
X15695000Y-4580000D02*
X15655000Y-4620000D01*
X15660000Y-5950000D02*
X15700000Y-5990000D01*
X15700000Y-5950000D02*
X15660000Y-5990000D01*
X15680000Y-6350000D02*
X15720000Y-6390000D01*
X15720000Y-6350000D02*
X15680000Y-6390000D01*
X15750000Y-6550000D02*
X15790000Y-6590000D01*
X15790000Y-6550000D02*
X15750000Y-6590000D01*
X15778854Y-7419657D02*
X15818854Y-7459657D01*
X15818854Y-7419657D02*
X15778854Y-7459657D01*
X15780000Y-10440000D02*
X15820000Y-10480000D01*
X15820000Y-10440000D02*
X15780000Y-10480000D01*
X15820000Y-10350000D02*
X15860000Y-10390000D01*
X15860000Y-10350000D02*
X15820000Y-10390000D01*
X15860000Y-6160000D02*
X15900000Y-6200000D01*
X15900000Y-6160000D02*
X15860000Y-6200000D01*
X15980000Y-5370000D02*
X16020000Y-5410000D01*
X16020000Y-5370000D02*
X15980000Y-5410000D01*
X16020000Y-7080000D02*
X16060000Y-7120000D01*
X16060000Y-7080000D02*
X16020000Y-7120000D01*
X16020000Y-7920000D02*
X16060000Y-7960000D01*
X16060000Y-7920000D02*
X16020000Y-7960000D01*
X16060000Y-7600000D02*
X16100000Y-7640000D01*
X16100000Y-7600000D02*
X16060000Y-7640000D01*
X16060000Y-7760000D02*
X16100000Y-7800000D01*
X16100000Y-7760000D02*
X16060000Y-7800000D01*
X16060000Y-8140000D02*
X16100000Y-8180000D01*
X16100000Y-8140000D02*
X16060000Y-8180000D01*
X16180000Y-5730000D02*
X16220000Y-5770000D01*
X16220000Y-5730000D02*
X16180000Y-5770000D01*
X16320000Y-6490000D02*
X16360000Y-6530000D01*
X16360000Y-6490000D02*
X16320000Y-6530000D01*
X16367204Y-6998366D02*
X16407204Y-7038366D01*
X16407204Y-6998366D02*
X16367204Y-7038366D01*
X16390000Y-9330000D02*
X16430000Y-9370000D01*
X16430000Y-9330000D02*
X16390000Y-9370000D01*
X16489646Y-5138882D02*
X16529646Y-5178882D01*
X16529646Y-5138882D02*
X16489646Y-5178882D01*
X16490000Y-8970000D02*
X16530000Y-9010000D01*
X16530000Y-8970000D02*
X16490000Y-9010000D01*
X16505000Y-14405000D02*
X16545000Y-14445000D01*
X16545000Y-14405000D02*
X16505000Y-14445000D01*
X16650000Y-5740000D02*
X16690000Y-5780000D01*
X16690000Y-5740000D02*
X16650000Y-5780000D01*
X16680000Y-10480000D02*
X16720000Y-10520000D01*
X16720000Y-10480000D02*
X16680000Y-10520000D01*
X16680000Y-10580000D02*
X16720000Y-10620000D01*
X16720000Y-10580000D02*
X16680000Y-10620000D01*
X16880000Y-4580000D02*
X16920000Y-4620000D01*
X16920000Y-4580000D02*
X16880000Y-4620000D01*
X16960000Y-5120000D02*
X17000000Y-5160000D01*
X17000000Y-5120000D02*
X16960000Y-5160000D01*
X17030000Y-5960000D02*
X17070000Y-6000000D01*
X17070000Y-5960000D02*
X17030000Y-6000000D01*
X17200000Y-7480000D02*
X17240000Y-7520000D01*
X17240000Y-7480000D02*
X17200000Y-7520000D01*
X17200000Y-7700000D02*
X17240000Y-7740000D01*
X17240000Y-7700000D02*
X17200000Y-7740000D01*
X17280000Y-8880000D02*
X17320000Y-8920000D01*
X17320000Y-8880000D02*
X17280000Y-8920000D01*
X17470000Y-7480000D02*
X17510000Y-7520000D01*
X17510000Y-7480000D02*
X17470000Y-7520000D01*
X17470000Y-7710000D02*
X17510000Y-7750000D01*
X17510000Y-7710000D02*
X17470000Y-7750000D01*
X17600000Y-5390000D02*
X17640000Y-5430000D01*
X17640000Y-5390000D02*
X17600000Y-5430000D01*
X17880000Y-4580000D02*
X17920000Y-4620000D01*
X17920000Y-4580000D02*
X17880000Y-4620000D01*
X17880000Y-5055000D02*
X17920000Y-5095000D01*
X17920000Y-5055000D02*
X17880000Y-5095000D01*
X17880000Y-5955000D02*
X17920000Y-5995000D01*
X17920000Y-5955000D02*
X17880000Y-5995000D01*
X17880000Y-6905000D02*
X17920000Y-6945000D01*
X17920000Y-6905000D02*
X17880000Y-6945000D01*
X17880000Y-7855000D02*
X17920000Y-7895000D01*
X17920000Y-7855000D02*
X17880000Y-7895000D01*
X17880000Y-8905000D02*
X17920000Y-8945000D01*
X17920000Y-8905000D02*
X17880000Y-8945000D01*
X17880000Y-9805000D02*
X17920000Y-9845000D01*
X17920000Y-9805000D02*
X17880000Y-9845000D01*
X17880000Y-10730000D02*
X17920000Y-10770000D01*
X17920000Y-10730000D02*
X17880000Y-10770000D01*
X17880000Y-11680000D02*
X17920000Y-11720000D01*
X17920000Y-11680000D02*
X17880000Y-11720000D01*
X17880000Y-12555000D02*
X17920000Y-12595000D01*
X17920000Y-12555000D02*
X17880000Y-12595000D01*
X17880000Y-13480000D02*
X17920000Y-13520000D01*
X17920000Y-13480000D02*
X17880000Y-13520000D01*
X17880000Y-14405000D02*
X17920000Y-14445000D01*
X17920000Y-14405000D02*
X17880000Y-14445000D01*
X11735000Y-5220000D02*
G75*
G03*
X11735000Y-5220000I-25000J0D01*
G01*
X11665000Y-5245000D02*
X11755000Y-5245000D01*
X11755000Y-5245000D02*
G75*
G03*
X11755000Y-5195000I0J25000D01*
G01*
X11755000Y-5195000D02*
X11665000Y-5195000D01*
X11665000Y-5195000D02*
G75*
G03*
X11665000Y-5245000I0J-25000D01*
G01*
X11735000Y-6030000D02*
G75*
G03*
X11735000Y-6030000I-25000J0D01*
G01*
X11755000Y-6005000D02*
X11665000Y-6005000D01*
X11665000Y-6005000D02*
G75*
G03*
X11665000Y-6055000I0J-25000D01*
G01*
X11665000Y-6055000D02*
X11755000Y-6055000D01*
X11755000Y-6055000D02*
G75*
G03*
X11755000Y-6005000I0J25000D01*
G01*
X11735000Y-6720000D02*
G75*
G03*
X11735000Y-6720000I-25000J0D01*
G01*
X11665000Y-6745000D02*
X11755000Y-6745000D01*
X11755000Y-6745000D02*
G75*
G03*
X11755000Y-6695000I0J25000D01*
G01*
X11755000Y-6695000D02*
X11665000Y-6695000D01*
X11665000Y-6695000D02*
G75*
G03*
X11665000Y-6745000I0J-25000D01*
G01*
X11735000Y-7530000D02*
G75*
G03*
X11735000Y-7530000I-25000J0D01*
G01*
X11755000Y-7505000D02*
X11665000Y-7505000D01*
X11665000Y-7505000D02*
G75*
G03*
X11665000Y-7555000I0J-25000D01*
G01*
X11665000Y-7555000D02*
X11755000Y-7555000D01*
X11755000Y-7555000D02*
G75*
G03*
X11755000Y-7505000I0J25000D01*
G01*
X12205000Y-5450000D02*
G75*
G03*
X12205000Y-5450000I-25000J0D01*
G01*
X12205000Y-5495000D02*
X12205000Y-5405000D01*
X12205000Y-5405000D02*
G75*
G03*
X12155000Y-5405000I-25000J0D01*
G01*
X12155000Y-5405000D02*
X12155000Y-5495000D01*
X12155000Y-5495000D02*
G75*
G03*
X12205000Y-5495000I25000J0D01*
G01*
X12205000Y-6950000D02*
G75*
G03*
X12205000Y-6950000I-25000J0D01*
G01*
X12205000Y-6995000D02*
X12205000Y-6905000D01*
X12205000Y-6905000D02*
G75*
G03*
X12155000Y-6905000I-25000J0D01*
G01*
X12155000Y-6905000D02*
X12155000Y-6995000D01*
X12155000Y-6995000D02*
G75*
G03*
X12205000Y-6995000I25000J0D01*
G01*
X12592000Y-5035000D02*
X12592000Y-5115000D01*
X12552000Y-5075000D02*
X12632000Y-5075000D01*
X12846000Y-4781000D02*
X12846000Y-4861000D01*
X12806000Y-4821000D02*
X12886000Y-4821000D01*
X13100000Y-5035000D02*
X13100000Y-5115000D01*
X13060000Y-5075000D02*
X13140000Y-5075000D01*
X11147856Y-10999856D02*
X11147856Y-10929144D01*
X11077144Y-10929144D01*
X11077144Y-10999856D01*
X11147856Y-10999856D01*
X11147856Y-11253856D02*
X11147856Y-11183144D01*
X11077144Y-11183144D01*
X11077144Y-11253856D01*
X11147856Y-11253856D01*
X11147856Y-11507856D02*
X11147856Y-11437144D01*
X11077144Y-11437144D01*
X11077144Y-11507856D01*
X11147856Y-11507856D01*
X17260356Y-6227356D02*
X17260356Y-6156644D01*
X17189644Y-6156644D01*
X17189644Y-6227356D01*
X17260356Y-6227356D01*
X17260356Y-6481356D02*
X17260356Y-6410644D01*
X17189644Y-6410644D01*
X17189644Y-6481356D01*
X17260356Y-6481356D01*
X17260356Y-6735356D02*
X17260356Y-6664644D01*
X17189644Y-6664644D01*
X17189644Y-6735356D01*
X17260356Y-6735356D01*
X17260356Y-6989356D02*
X17260356Y-6918644D01*
X17189644Y-6918644D01*
X17189644Y-6989356D01*
X17260356Y-6989356D01*
X17260356Y-7243356D02*
X17260356Y-7172644D01*
X17189644Y-7172644D01*
X17189644Y-7243356D01*
X17260356Y-7243356D01*
X17514356Y-6227356D02*
X17514356Y-6156644D01*
X17443644Y-6156644D01*
X17443644Y-6227356D01*
X17514356Y-6227356D01*
X17514356Y-6481356D02*
X17514356Y-6410644D01*
X17443644Y-6410644D01*
X17443644Y-6481356D01*
X17514356Y-6481356D01*
X17514356Y-6735356D02*
X17514356Y-6664644D01*
X17443644Y-6664644D01*
X17443644Y-6735356D01*
X17514356Y-6735356D01*
X17514356Y-6989356D02*
X17514356Y-6918644D01*
X17443644Y-6918644D01*
X17443644Y-6989356D01*
X17514356Y-6989356D01*
X17514356Y-7243356D02*
X17514356Y-7172644D01*
X17443644Y-7172644D01*
X17443644Y-7243356D01*
X17514356Y-7243356D01*
D12*
X11525000Y-8312000D02*
X11585000Y-8252000D01*
X11525000Y-8192000D01*
X11465000Y-8252000D01*
X11525000Y-8312000D01*
X11525000Y-14162000D02*
X11585000Y-14102000D01*
X11525000Y-14042000D01*
X11465000Y-14102000D01*
X11525000Y-14162000D01*
X11875000Y-14162000D02*
X11935000Y-14102000D01*
X11875000Y-14042000D01*
X11815000Y-14102000D01*
X11875000Y-14162000D01*
X13305000Y-8299000D02*
X13365000Y-8239000D01*
X13305000Y-8179000D01*
X13245000Y-8239000D01*
X13305000Y-8299000D01*
X13305000Y-14149000D02*
X13365000Y-14089000D01*
X13305000Y-14029000D01*
X13245000Y-14089000D01*
X13305000Y-14149000D01*
X13655000Y-14149000D02*
X13715000Y-14089000D01*
X13655000Y-14029000D01*
X13595000Y-14089000D01*
X13655000Y-14149000D01*
X15145000Y-8312000D02*
X15205000Y-8252000D01*
X15145000Y-8192000D01*
X15085000Y-8252000D01*
X15145000Y-8312000D01*
X15145000Y-14162000D02*
X15205000Y-14102000D01*
X15145000Y-14042000D01*
X15085000Y-14102000D01*
X15145000Y-14162000D01*
X15495000Y-14162000D02*
X15555000Y-14102000D01*
X15495000Y-14042000D01*
X15435000Y-14102000D01*
X15495000Y-14162000D01*
X17025000Y-8312000D02*
X17085000Y-8252000D01*
X17025000Y-8192000D01*
X16965000Y-8252000D01*
X17025000Y-8312000D01*
X17025000Y-14162000D02*
X17085000Y-14102000D01*
X17025000Y-14042000D01*
X16965000Y-14102000D01*
X17025000Y-14162000D01*
X17375000Y-14162000D02*
X17435000Y-14102000D01*
X17375000Y-14042000D01*
X17315000Y-14102000D01*
X17375000Y-14162000D01*
D13*
X11195000Y-8702000D02*
X11365000Y-8872000D01*
X11365000Y-8702000D02*
X11195000Y-8872000D01*
X11365000Y-8787000D02*
G75*
G03*
X11365000Y-8787000I-85000J0D01*
G01*
X11195000Y-13482000D02*
X11365000Y-13652000D01*
X11365000Y-13482000D02*
X11195000Y-13652000D01*
X11365000Y-13567000D02*
G75*
G03*
X11365000Y-13567000I-85000J0D01*
G01*
X12035000Y-8582000D02*
X12205000Y-8752000D01*
X12205000Y-8582000D02*
X12035000Y-8752000D01*
X12205000Y-8667000D02*
G75*
G03*
X12205000Y-8667000I-85000J0D01*
G01*
X12035000Y-13602000D02*
X12205000Y-13772000D01*
X12205000Y-13602000D02*
X12035000Y-13772000D01*
X12205000Y-13687000D02*
G75*
G03*
X12205000Y-13687000I-85000J0D01*
G01*
X12975000Y-8689000D02*
X13145000Y-8859000D01*
X13145000Y-8689000D02*
X12975000Y-8859000D01*
X13145000Y-8774000D02*
G75*
G03*
X13145000Y-8774000I-85000J0D01*
G01*
X12975000Y-13469000D02*
X13145000Y-13639000D01*
X13145000Y-13469000D02*
X12975000Y-13639000D01*
X13145000Y-13554000D02*
G75*
G03*
X13145000Y-13554000I-85000J0D01*
G01*
X13815000Y-8569000D02*
X13985000Y-8739000D01*
X13985000Y-8569000D02*
X13815000Y-8739000D01*
X13985000Y-8654000D02*
G75*
G03*
X13985000Y-8654000I-85000J0D01*
G01*
X13815000Y-13589000D02*
X13985000Y-13759000D01*
X13985000Y-13589000D02*
X13815000Y-13759000D01*
X13985000Y-13674000D02*
G75*
G03*
X13985000Y-13674000I-85000J0D01*
G01*
X14815000Y-8702000D02*
X14985000Y-8872000D01*
X14985000Y-8702000D02*
X14815000Y-8872000D01*
X14985000Y-8787000D02*
G75*
G03*
X14985000Y-8787000I-85000J0D01*
G01*
X14815000Y-13482000D02*
X14985000Y-13652000D01*
X14985000Y-13482000D02*
X14815000Y-13652000D01*
X14985000Y-13567000D02*
G75*
G03*
X14985000Y-13567000I-85000J0D01*
G01*
X15655000Y-8582000D02*
X15825000Y-8752000D01*
X15825000Y-8582000D02*
X15655000Y-8752000D01*
X15825000Y-8667000D02*
G75*
G03*
X15825000Y-8667000I-85000J0D01*
G01*
X15655000Y-13602000D02*
X15825000Y-13772000D01*
X15825000Y-13602000D02*
X15655000Y-13772000D01*
X15825000Y-13687000D02*
G75*
G03*
X15825000Y-13687000I-85000J0D01*
G01*
X16695000Y-8702000D02*
X16865000Y-8872000D01*
X16865000Y-8702000D02*
X16695000Y-8872000D01*
X16865000Y-8787000D02*
G75*
G03*
X16865000Y-8787000I-85000J0D01*
G01*
X16695000Y-13482000D02*
X16865000Y-13652000D01*
X16865000Y-13482000D02*
X16695000Y-13652000D01*
X16865000Y-13567000D02*
G75*
G03*
X16865000Y-13567000I-85000J0D01*
G01*
X17535000Y-8582000D02*
X17705000Y-8752000D01*
X17705000Y-8582000D02*
X17535000Y-8752000D01*
X17705000Y-8667000D02*
G75*
G03*
X17705000Y-8667000I-85000J0D01*
G01*
X17535000Y-13602000D02*
X17705000Y-13772000D01*
X17705000Y-13602000D02*
X17535000Y-13772000D01*
X17705000Y-13687000D02*
G75*
G03*
X17705000Y-13687000I-85000J0D01*
G01*
D14*
X16075000Y-12700000D02*
X16475000Y-13100000D01*
X16475000Y-12700000D02*
X16075000Y-13100000D01*
X16275000Y-12700000D02*
X16275000Y-13100000D01*
X16075000Y-12900000D02*
X16475000Y-12900000D01*
D11*
X11155777Y-14846484D02*
X11155777Y-14646484D01*
X11155777Y-14646484D02*
X11203396Y-14646484D01*
X11203396Y-14646484D02*
X11231967Y-14656008D01*
X11231967Y-14656008D02*
X11251015Y-14675055D01*
X11251015Y-14675055D02*
X11260539Y-14694103D01*
X11260539Y-14694103D02*
X11270062Y-14732198D01*
X11270062Y-14732198D02*
X11270062Y-14760769D01*
X11270062Y-14760769D02*
X11260539Y-14798865D01*
X11260539Y-14798865D02*
X11251015Y-14817912D01*
X11251015Y-14817912D02*
X11231967Y-14836960D01*
X11231967Y-14836960D02*
X11203396Y-14846484D01*
X11203396Y-14846484D02*
X11155777Y-14846484D01*
X11355777Y-14846484D02*
X11355777Y-14713150D01*
X11355777Y-14751246D02*
X11365301Y-14732198D01*
X11365301Y-14732198D02*
X11374824Y-14722674D01*
X11374824Y-14722674D02*
X11393872Y-14713150D01*
X11393872Y-14713150D02*
X11412920Y-14713150D01*
X11479586Y-14846484D02*
X11479586Y-14713150D01*
X11479586Y-14646484D02*
X11470062Y-14656008D01*
X11470062Y-14656008D02*
X11479586Y-14665531D01*
X11479586Y-14665531D02*
X11489110Y-14656008D01*
X11489110Y-14656008D02*
X11479586Y-14646484D01*
X11479586Y-14646484D02*
X11479586Y-14665531D01*
X11603396Y-14846484D02*
X11584348Y-14836960D01*
X11584348Y-14836960D02*
X11574824Y-14817912D01*
X11574824Y-14817912D02*
X11574824Y-14646484D01*
X11708158Y-14846484D02*
X11689110Y-14836960D01*
X11689110Y-14836960D02*
X11679586Y-14817912D01*
X11679586Y-14817912D02*
X11679586Y-14646484D01*
X11936729Y-14846484D02*
X11936729Y-14646484D01*
X11936729Y-14646484D02*
X12003396Y-14789341D01*
X12003396Y-14789341D02*
X12070062Y-14646484D01*
X12070062Y-14646484D02*
X12070062Y-14846484D01*
X12251015Y-14846484D02*
X12251015Y-14741722D01*
X12251015Y-14741722D02*
X12241491Y-14722674D01*
X12241491Y-14722674D02*
X12222443Y-14713150D01*
X12222443Y-14713150D02*
X12184348Y-14713150D01*
X12184348Y-14713150D02*
X12165301Y-14722674D01*
X12251015Y-14836960D02*
X12231967Y-14846484D01*
X12231967Y-14846484D02*
X12184348Y-14846484D01*
X12184348Y-14846484D02*
X12165301Y-14836960D01*
X12165301Y-14836960D02*
X12155777Y-14817912D01*
X12155777Y-14817912D02*
X12155777Y-14798865D01*
X12155777Y-14798865D02*
X12165301Y-14779817D01*
X12165301Y-14779817D02*
X12184348Y-14770293D01*
X12184348Y-14770293D02*
X12231967Y-14770293D01*
X12231967Y-14770293D02*
X12251015Y-14760769D01*
X12346253Y-14713150D02*
X12346253Y-14913150D01*
X12346253Y-14722674D02*
X12365301Y-14713150D01*
X12365301Y-14713150D02*
X12403396Y-14713150D01*
X12403396Y-14713150D02*
X12422443Y-14722674D01*
X12422443Y-14722674D02*
X12431967Y-14732198D01*
X12431967Y-14732198D02*
X12441491Y-14751246D01*
X12441491Y-14751246D02*
X12441491Y-14808388D01*
X12441491Y-14808388D02*
X12431967Y-14827436D01*
X12431967Y-14827436D02*
X12422443Y-14836960D01*
X12422443Y-14836960D02*
X12403396Y-14846484D01*
X12403396Y-14846484D02*
X12365301Y-14846484D01*
X12365301Y-14846484D02*
X12346253Y-14836960D01*
X12527205Y-14827436D02*
X12536729Y-14836960D01*
X12536729Y-14836960D02*
X12527205Y-14846484D01*
X12527205Y-14846484D02*
X12517682Y-14836960D01*
X12517682Y-14836960D02*
X12527205Y-14827436D01*
X12527205Y-14827436D02*
X12527205Y-14846484D01*
X12527205Y-14722674D02*
X12536729Y-14732198D01*
X12536729Y-14732198D02*
X12527205Y-14741722D01*
X12527205Y-14741722D02*
X12517682Y-14732198D01*
X12517682Y-14732198D02*
X12527205Y-14722674D01*
X12527205Y-14722674D02*
X12527205Y-14741722D01*
D10*
X10855000Y-15155000D02*
X10895000Y-15195000D01*
X10895000Y-15155000D02*
X10855000Y-15195000D01*
D11*
X11193872Y-15066484D02*
X11212920Y-15066484D01*
X11212920Y-15066484D02*
X11231967Y-15076008D01*
X11231967Y-15076008D02*
X11241491Y-15085531D01*
X11241491Y-15085531D02*
X11251015Y-15104579D01*
X11251015Y-15104579D02*
X11260539Y-15142674D01*
X11260539Y-15142674D02*
X11260539Y-15190293D01*
X11260539Y-15190293D02*
X11251015Y-15228388D01*
X11251015Y-15228388D02*
X11241491Y-15247436D01*
X11241491Y-15247436D02*
X11231967Y-15256960D01*
X11231967Y-15256960D02*
X11212920Y-15266484D01*
X11212920Y-15266484D02*
X11193872Y-15266484D01*
X11193872Y-15266484D02*
X11174824Y-15256960D01*
X11174824Y-15256960D02*
X11165301Y-15247436D01*
X11165301Y-15247436D02*
X11155777Y-15228388D01*
X11155777Y-15228388D02*
X11146253Y-15190293D01*
X11146253Y-15190293D02*
X11146253Y-15142674D01*
X11146253Y-15142674D02*
X11155777Y-15104579D01*
X11155777Y-15104579D02*
X11165301Y-15085531D01*
X11165301Y-15085531D02*
X11174824Y-15076008D01*
X11174824Y-15076008D02*
X11193872Y-15066484D01*
X11346253Y-15247436D02*
X11355777Y-15256960D01*
X11355777Y-15256960D02*
X11346253Y-15266484D01*
X11346253Y-15266484D02*
X11336729Y-15256960D01*
X11336729Y-15256960D02*
X11346253Y-15247436D01*
X11346253Y-15247436D02*
X11346253Y-15266484D01*
X11527205Y-15133150D02*
X11527205Y-15266484D01*
X11479586Y-15056960D02*
X11431967Y-15199817D01*
X11431967Y-15199817D02*
X11555777Y-15199817D01*
X11670062Y-15066484D02*
X11689110Y-15066484D01*
X11689110Y-15066484D02*
X11708158Y-15076008D01*
X11708158Y-15076008D02*
X11717682Y-15085531D01*
X11717682Y-15085531D02*
X11727205Y-15104579D01*
X11727205Y-15104579D02*
X11736729Y-15142674D01*
X11736729Y-15142674D02*
X11736729Y-15190293D01*
X11736729Y-15190293D02*
X11727205Y-15228388D01*
X11727205Y-15228388D02*
X11717682Y-15247436D01*
X11717682Y-15247436D02*
X11708158Y-15256960D01*
X11708158Y-15256960D02*
X11689110Y-15266484D01*
X11689110Y-15266484D02*
X11670062Y-15266484D01*
X11670062Y-15266484D02*
X11651015Y-15256960D01*
X11651015Y-15256960D02*
X11641491Y-15247436D01*
X11641491Y-15247436D02*
X11631967Y-15228388D01*
X11631967Y-15228388D02*
X11622443Y-15190293D01*
X11622443Y-15190293D02*
X11622443Y-15142674D01*
X11622443Y-15142674D02*
X11631967Y-15104579D01*
X11631967Y-15104579D02*
X11641491Y-15085531D01*
X11641491Y-15085531D02*
X11651015Y-15076008D01*
X11651015Y-15076008D02*
X11670062Y-15066484D01*
X11860539Y-15066484D02*
X11879586Y-15066484D01*
X11879586Y-15066484D02*
X11898634Y-15076008D01*
X11898634Y-15076008D02*
X11908158Y-15085531D01*
X11908158Y-15085531D02*
X11917682Y-15104579D01*
X11917682Y-15104579D02*
X11927205Y-15142674D01*
X11927205Y-15142674D02*
X11927205Y-15190293D01*
X11927205Y-15190293D02*
X11917682Y-15228388D01*
X11917682Y-15228388D02*
X11908158Y-15247436D01*
X11908158Y-15247436D02*
X11898634Y-15256960D01*
X11898634Y-15256960D02*
X11879586Y-15266484D01*
X11879586Y-15266484D02*
X11860539Y-15266484D01*
X11860539Y-15266484D02*
X11841491Y-15256960D01*
X11841491Y-15256960D02*
X11831967Y-15247436D01*
X11831967Y-15247436D02*
X11822443Y-15228388D01*
X11822443Y-15228388D02*
X11812920Y-15190293D01*
X11812920Y-15190293D02*
X11812920Y-15142674D01*
X11812920Y-15142674D02*
X11822443Y-15104579D01*
X11822443Y-15104579D02*
X11831967Y-15085531D01*
X11831967Y-15085531D02*
X11841491Y-15076008D01*
X11841491Y-15076008D02*
X11860539Y-15066484D01*
X12012920Y-15266484D02*
X12012920Y-15133150D01*
X12012920Y-15152198D02*
X12022443Y-15142674D01*
X12022443Y-15142674D02*
X12041491Y-15133150D01*
X12041491Y-15133150D02*
X12070063Y-15133150D01*
X12070063Y-15133150D02*
X12089110Y-15142674D01*
X12089110Y-15142674D02*
X12098634Y-15161722D01*
X12098634Y-15161722D02*
X12098634Y-15266484D01*
X12098634Y-15161722D02*
X12108158Y-15142674D01*
X12108158Y-15142674D02*
X12127205Y-15133150D01*
X12127205Y-15133150D02*
X12155777Y-15133150D01*
X12155777Y-15133150D02*
X12174824Y-15142674D01*
X12174824Y-15142674D02*
X12184348Y-15161722D01*
X12184348Y-15161722D02*
X12184348Y-15266484D01*
X12279586Y-15266484D02*
X12279586Y-15133150D01*
X12279586Y-15152198D02*
X12289110Y-15142674D01*
X12289110Y-15142674D02*
X12308158Y-15133150D01*
X12308158Y-15133150D02*
X12336729Y-15133150D01*
X12336729Y-15133150D02*
X12355777Y-15142674D01*
X12355777Y-15142674D02*
X12365301Y-15161722D01*
X12365301Y-15161722D02*
X12365301Y-15266484D01*
X12365301Y-15161722D02*
X12374824Y-15142674D01*
X12374824Y-15142674D02*
X12393872Y-15133150D01*
X12393872Y-15133150D02*
X12422443Y-15133150D01*
X12422443Y-15133150D02*
X12441491Y-15142674D01*
X12441491Y-15142674D02*
X12451015Y-15161722D01*
X12451015Y-15161722D02*
X12451015Y-15266484D01*
X12841491Y-15056960D02*
X12670063Y-15314103D01*
X13098634Y-15066484D02*
X13117682Y-15066484D01*
X13117682Y-15066484D02*
X13136729Y-15076008D01*
X13136729Y-15076008D02*
X13146253Y-15085531D01*
X13146253Y-15085531D02*
X13155777Y-15104579D01*
X13155777Y-15104579D02*
X13165301Y-15142674D01*
X13165301Y-15142674D02*
X13165301Y-15190293D01*
X13165301Y-15190293D02*
X13155777Y-15228388D01*
X13155777Y-15228388D02*
X13146253Y-15247436D01*
X13146253Y-15247436D02*
X13136729Y-15256960D01*
X13136729Y-15256960D02*
X13117682Y-15266484D01*
X13117682Y-15266484D02*
X13098634Y-15266484D01*
X13098634Y-15266484D02*
X13079586Y-15256960D01*
X13079586Y-15256960D02*
X13070063Y-15247436D01*
X13070063Y-15247436D02*
X13060539Y-15228388D01*
X13060539Y-15228388D02*
X13051015Y-15190293D01*
X13051015Y-15190293D02*
X13051015Y-15142674D01*
X13051015Y-15142674D02*
X13060539Y-15104579D01*
X13060539Y-15104579D02*
X13070063Y-15085531D01*
X13070063Y-15085531D02*
X13079586Y-15076008D01*
X13079586Y-15076008D02*
X13098634Y-15066484D01*
X13251015Y-15247436D02*
X13260539Y-15256960D01*
X13260539Y-15256960D02*
X13251015Y-15266484D01*
X13251015Y-15266484D02*
X13241491Y-15256960D01*
X13241491Y-15256960D02*
X13251015Y-15247436D01*
X13251015Y-15247436D02*
X13251015Y-15266484D01*
X13384348Y-15066484D02*
X13403396Y-15066484D01*
X13403396Y-15066484D02*
X13422444Y-15076008D01*
X13422444Y-15076008D02*
X13431967Y-15085531D01*
X13431967Y-15085531D02*
X13441491Y-15104579D01*
X13441491Y-15104579D02*
X13451015Y-15142674D01*
X13451015Y-15142674D02*
X13451015Y-15190293D01*
X13451015Y-15190293D02*
X13441491Y-15228388D01*
X13441491Y-15228388D02*
X13431967Y-15247436D01*
X13431967Y-15247436D02*
X13422444Y-15256960D01*
X13422444Y-15256960D02*
X13403396Y-15266484D01*
X13403396Y-15266484D02*
X13384348Y-15266484D01*
X13384348Y-15266484D02*
X13365301Y-15256960D01*
X13365301Y-15256960D02*
X13355777Y-15247436D01*
X13355777Y-15247436D02*
X13346253Y-15228388D01*
X13346253Y-15228388D02*
X13336729Y-15190293D01*
X13336729Y-15190293D02*
X13336729Y-15142674D01*
X13336729Y-15142674D02*
X13346253Y-15104579D01*
X13346253Y-15104579D02*
X13355777Y-15085531D01*
X13355777Y-15085531D02*
X13365301Y-15076008D01*
X13365301Y-15076008D02*
X13384348Y-15066484D01*
X13641491Y-15266484D02*
X13527206Y-15266484D01*
X13584348Y-15266484D02*
X13584348Y-15066484D01*
X13584348Y-15066484D02*
X13565301Y-15095055D01*
X13565301Y-15095055D02*
X13546253Y-15114103D01*
X13546253Y-15114103D02*
X13527206Y-15123627D01*
X13822444Y-15066484D02*
X13727206Y-15066484D01*
X13727206Y-15066484D02*
X13717682Y-15161722D01*
X13717682Y-15161722D02*
X13727206Y-15152198D01*
X13727206Y-15152198D02*
X13746253Y-15142674D01*
X13746253Y-15142674D02*
X13793872Y-15142674D01*
X13793872Y-15142674D02*
X13812920Y-15152198D01*
X13812920Y-15152198D02*
X13822444Y-15161722D01*
X13822444Y-15161722D02*
X13831967Y-15180769D01*
X13831967Y-15180769D02*
X13831967Y-15228388D01*
X13831967Y-15228388D02*
X13822444Y-15247436D01*
X13822444Y-15247436D02*
X13812920Y-15256960D01*
X13812920Y-15256960D02*
X13793872Y-15266484D01*
X13793872Y-15266484D02*
X13746253Y-15266484D01*
X13746253Y-15266484D02*
X13727206Y-15256960D01*
X13727206Y-15256960D02*
X13717682Y-15247436D01*
X13898634Y-15066484D02*
X14031967Y-15066484D01*
X14031967Y-15066484D02*
X13946253Y-15266484D01*
X14098634Y-15066484D02*
X14098634Y-15104579D01*
X14174825Y-15066484D02*
X14174825Y-15104579D01*
X14470063Y-15342674D02*
X14460539Y-15333150D01*
X14460539Y-15333150D02*
X14441491Y-15304579D01*
X14441491Y-15304579D02*
X14431968Y-15285531D01*
X14431968Y-15285531D02*
X14422444Y-15256960D01*
X14422444Y-15256960D02*
X14412920Y-15209341D01*
X14412920Y-15209341D02*
X14412920Y-15171246D01*
X14412920Y-15171246D02*
X14422444Y-15123627D01*
X14422444Y-15123627D02*
X14431968Y-15095055D01*
X14431968Y-15095055D02*
X14441491Y-15076008D01*
X14441491Y-15076008D02*
X14460539Y-15047436D01*
X14460539Y-15047436D02*
X14470063Y-15037912D01*
X14536729Y-15085531D02*
X14546253Y-15076008D01*
X14546253Y-15076008D02*
X14565301Y-15066484D01*
X14565301Y-15066484D02*
X14612920Y-15066484D01*
X14612920Y-15066484D02*
X14631968Y-15076008D01*
X14631968Y-15076008D02*
X14641491Y-15085531D01*
X14641491Y-15085531D02*
X14651015Y-15104579D01*
X14651015Y-15104579D02*
X14651015Y-15123627D01*
X14651015Y-15123627D02*
X14641491Y-15152198D01*
X14641491Y-15152198D02*
X14527206Y-15266484D01*
X14527206Y-15266484D02*
X14651015Y-15266484D01*
X14774825Y-15066484D02*
X14793872Y-15066484D01*
X14793872Y-15066484D02*
X14812920Y-15076008D01*
X14812920Y-15076008D02*
X14822444Y-15085531D01*
X14822444Y-15085531D02*
X14831968Y-15104579D01*
X14831968Y-15104579D02*
X14841491Y-15142674D01*
X14841491Y-15142674D02*
X14841491Y-15190293D01*
X14841491Y-15190293D02*
X14831968Y-15228388D01*
X14831968Y-15228388D02*
X14822444Y-15247436D01*
X14822444Y-15247436D02*
X14812920Y-15256960D01*
X14812920Y-15256960D02*
X14793872Y-15266484D01*
X14793872Y-15266484D02*
X14774825Y-15266484D01*
X14774825Y-15266484D02*
X14755777Y-15256960D01*
X14755777Y-15256960D02*
X14746253Y-15247436D01*
X14746253Y-15247436D02*
X14736729Y-15228388D01*
X14736729Y-15228388D02*
X14727206Y-15190293D01*
X14727206Y-15190293D02*
X14727206Y-15142674D01*
X14727206Y-15142674D02*
X14736729Y-15104579D01*
X14736729Y-15104579D02*
X14746253Y-15085531D01*
X14746253Y-15085531D02*
X14755777Y-15076008D01*
X14755777Y-15076008D02*
X14774825Y-15066484D01*
X15031968Y-15266484D02*
X14917682Y-15266484D01*
X14974825Y-15266484D02*
X14974825Y-15066484D01*
X14974825Y-15066484D02*
X14955777Y-15095055D01*
X14955777Y-15095055D02*
X14936729Y-15114103D01*
X14936729Y-15114103D02*
X14917682Y-15123627D01*
X15270063Y-15266484D02*
X15270063Y-15066484D01*
X15355777Y-15266484D02*
X15355777Y-15161722D01*
X15355777Y-15161722D02*
X15346253Y-15142674D01*
X15346253Y-15142674D02*
X15327206Y-15133150D01*
X15327206Y-15133150D02*
X15298634Y-15133150D01*
X15298634Y-15133150D02*
X15279587Y-15142674D01*
X15279587Y-15142674D02*
X15270063Y-15152198D01*
X15479587Y-15266484D02*
X15460539Y-15256960D01*
X15460539Y-15256960D02*
X15451015Y-15247436D01*
X15451015Y-15247436D02*
X15441491Y-15228388D01*
X15441491Y-15228388D02*
X15441491Y-15171246D01*
X15441491Y-15171246D02*
X15451015Y-15152198D01*
X15451015Y-15152198D02*
X15460539Y-15142674D01*
X15460539Y-15142674D02*
X15479587Y-15133150D01*
X15479587Y-15133150D02*
X15508158Y-15133150D01*
X15508158Y-15133150D02*
X15527206Y-15142674D01*
X15527206Y-15142674D02*
X15536730Y-15152198D01*
X15536730Y-15152198D02*
X15546253Y-15171246D01*
X15546253Y-15171246D02*
X15546253Y-15228388D01*
X15546253Y-15228388D02*
X15536730Y-15247436D01*
X15536730Y-15247436D02*
X15527206Y-15256960D01*
X15527206Y-15256960D02*
X15508158Y-15266484D01*
X15508158Y-15266484D02*
X15479587Y-15266484D01*
X15660539Y-15266484D02*
X15641491Y-15256960D01*
X15641491Y-15256960D02*
X15631968Y-15237912D01*
X15631968Y-15237912D02*
X15631968Y-15066484D01*
X15812920Y-15256960D02*
X15793872Y-15266484D01*
X15793872Y-15266484D02*
X15755777Y-15266484D01*
X15755777Y-15266484D02*
X15736730Y-15256960D01*
X15736730Y-15256960D02*
X15727206Y-15237912D01*
X15727206Y-15237912D02*
X15727206Y-15161722D01*
X15727206Y-15161722D02*
X15736730Y-15142674D01*
X15736730Y-15142674D02*
X15755777Y-15133150D01*
X15755777Y-15133150D02*
X15793872Y-15133150D01*
X15793872Y-15133150D02*
X15812920Y-15142674D01*
X15812920Y-15142674D02*
X15822444Y-15161722D01*
X15822444Y-15161722D02*
X15822444Y-15180769D01*
X15822444Y-15180769D02*
X15727206Y-15199817D01*
X15898634Y-15256960D02*
X15917682Y-15266484D01*
X15917682Y-15266484D02*
X15955777Y-15266484D01*
X15955777Y-15266484D02*
X15974825Y-15256960D01*
X15974825Y-15256960D02*
X15984349Y-15237912D01*
X15984349Y-15237912D02*
X15984349Y-15228388D01*
X15984349Y-15228388D02*
X15974825Y-15209341D01*
X15974825Y-15209341D02*
X15955777Y-15199817D01*
X15955777Y-15199817D02*
X15927206Y-15199817D01*
X15927206Y-15199817D02*
X15908158Y-15190293D01*
X15908158Y-15190293D02*
X15898634Y-15171246D01*
X15898634Y-15171246D02*
X15898634Y-15161722D01*
X15898634Y-15161722D02*
X15908158Y-15142674D01*
X15908158Y-15142674D02*
X15927206Y-15133150D01*
X15927206Y-15133150D02*
X15955777Y-15133150D01*
X15955777Y-15133150D02*
X15974825Y-15142674D01*
X16051015Y-15342674D02*
X16060539Y-15333150D01*
X16060539Y-15333150D02*
X16079587Y-15304579D01*
X16079587Y-15304579D02*
X16089111Y-15285531D01*
X16089111Y-15285531D02*
X16098634Y-15256960D01*
X16098634Y-15256960D02*
X16108158Y-15209341D01*
X16108158Y-15209341D02*
X16108158Y-15171246D01*
X16108158Y-15171246D02*
X16098634Y-15123627D01*
X16098634Y-15123627D02*
X16089111Y-15095055D01*
X16089111Y-15095055D02*
X16079587Y-15076008D01*
X16079587Y-15076008D02*
X16060539Y-15047436D01*
X16060539Y-15047436D02*
X16051015Y-15037912D01*
D10*
X10895000Y-15439000D02*
G75*
G03*
X10895000Y-15439000I-25000J0D01*
G01*
D11*
X11193872Y-15330484D02*
X11212920Y-15330484D01*
X11212920Y-15330484D02*
X11231967Y-15340008D01*
X11231967Y-15340008D02*
X11241491Y-15349531D01*
X11241491Y-15349531D02*
X11251015Y-15368579D01*
X11251015Y-15368579D02*
X11260539Y-15406674D01*
X11260539Y-15406674D02*
X11260539Y-15454293D01*
X11260539Y-15454293D02*
X11251015Y-15492388D01*
X11251015Y-15492388D02*
X11241491Y-15511436D01*
X11241491Y-15511436D02*
X11231967Y-15520960D01*
X11231967Y-15520960D02*
X11212920Y-15530484D01*
X11212920Y-15530484D02*
X11193872Y-15530484D01*
X11193872Y-15530484D02*
X11174824Y-15520960D01*
X11174824Y-15520960D02*
X11165301Y-15511436D01*
X11165301Y-15511436D02*
X11155777Y-15492388D01*
X11155777Y-15492388D02*
X11146253Y-15454293D01*
X11146253Y-15454293D02*
X11146253Y-15406674D01*
X11146253Y-15406674D02*
X11155777Y-15368579D01*
X11155777Y-15368579D02*
X11165301Y-15349531D01*
X11165301Y-15349531D02*
X11174824Y-15340008D01*
X11174824Y-15340008D02*
X11193872Y-15330484D01*
X11346253Y-15511436D02*
X11355777Y-15520960D01*
X11355777Y-15520960D02*
X11346253Y-15530484D01*
X11346253Y-15530484D02*
X11336729Y-15520960D01*
X11336729Y-15520960D02*
X11346253Y-15511436D01*
X11346253Y-15511436D02*
X11346253Y-15530484D01*
X11536729Y-15330484D02*
X11441491Y-15330484D01*
X11441491Y-15330484D02*
X11431967Y-15425722D01*
X11431967Y-15425722D02*
X11441491Y-15416198D01*
X11441491Y-15416198D02*
X11460539Y-15406674D01*
X11460539Y-15406674D02*
X11508158Y-15406674D01*
X11508158Y-15406674D02*
X11527205Y-15416198D01*
X11527205Y-15416198D02*
X11536729Y-15425722D01*
X11536729Y-15425722D02*
X11546253Y-15444769D01*
X11546253Y-15444769D02*
X11546253Y-15492388D01*
X11546253Y-15492388D02*
X11536729Y-15511436D01*
X11536729Y-15511436D02*
X11527205Y-15520960D01*
X11527205Y-15520960D02*
X11508158Y-15530484D01*
X11508158Y-15530484D02*
X11460539Y-15530484D01*
X11460539Y-15530484D02*
X11441491Y-15520960D01*
X11441491Y-15520960D02*
X11431967Y-15511436D01*
X11670062Y-15330484D02*
X11689110Y-15330484D01*
X11689110Y-15330484D02*
X11708158Y-15340008D01*
X11708158Y-15340008D02*
X11717682Y-15349531D01*
X11717682Y-15349531D02*
X11727205Y-15368579D01*
X11727205Y-15368579D02*
X11736729Y-15406674D01*
X11736729Y-15406674D02*
X11736729Y-15454293D01*
X11736729Y-15454293D02*
X11727205Y-15492388D01*
X11727205Y-15492388D02*
X11717682Y-15511436D01*
X11717682Y-15511436D02*
X11708158Y-15520960D01*
X11708158Y-15520960D02*
X11689110Y-15530484D01*
X11689110Y-15530484D02*
X11670062Y-15530484D01*
X11670062Y-15530484D02*
X11651015Y-15520960D01*
X11651015Y-15520960D02*
X11641491Y-15511436D01*
X11641491Y-15511436D02*
X11631967Y-15492388D01*
X11631967Y-15492388D02*
X11622443Y-15454293D01*
X11622443Y-15454293D02*
X11622443Y-15406674D01*
X11622443Y-15406674D02*
X11631967Y-15368579D01*
X11631967Y-15368579D02*
X11641491Y-15349531D01*
X11641491Y-15349531D02*
X11651015Y-15340008D01*
X11651015Y-15340008D02*
X11670062Y-15330484D01*
X11860539Y-15330484D02*
X11879586Y-15330484D01*
X11879586Y-15330484D02*
X11898634Y-15340008D01*
X11898634Y-15340008D02*
X11908158Y-15349531D01*
X11908158Y-15349531D02*
X11917682Y-15368579D01*
X11917682Y-15368579D02*
X11927205Y-15406674D01*
X11927205Y-15406674D02*
X11927205Y-15454293D01*
X11927205Y-15454293D02*
X11917682Y-15492388D01*
X11917682Y-15492388D02*
X11908158Y-15511436D01*
X11908158Y-15511436D02*
X11898634Y-15520960D01*
X11898634Y-15520960D02*
X11879586Y-15530484D01*
X11879586Y-15530484D02*
X11860539Y-15530484D01*
X11860539Y-15530484D02*
X11841491Y-15520960D01*
X11841491Y-15520960D02*
X11831967Y-15511436D01*
X11831967Y-15511436D02*
X11822443Y-15492388D01*
X11822443Y-15492388D02*
X11812920Y-15454293D01*
X11812920Y-15454293D02*
X11812920Y-15406674D01*
X11812920Y-15406674D02*
X11822443Y-15368579D01*
X11822443Y-15368579D02*
X11831967Y-15349531D01*
X11831967Y-15349531D02*
X11841491Y-15340008D01*
X11841491Y-15340008D02*
X11860539Y-15330484D01*
X12012920Y-15530484D02*
X12012920Y-15397150D01*
X12012920Y-15416198D02*
X12022443Y-15406674D01*
X12022443Y-15406674D02*
X12041491Y-15397150D01*
X12041491Y-15397150D02*
X12070063Y-15397150D01*
X12070063Y-15397150D02*
X12089110Y-15406674D01*
X12089110Y-15406674D02*
X12098634Y-15425722D01*
X12098634Y-15425722D02*
X12098634Y-15530484D01*
X12098634Y-15425722D02*
X12108158Y-15406674D01*
X12108158Y-15406674D02*
X12127205Y-15397150D01*
X12127205Y-15397150D02*
X12155777Y-15397150D01*
X12155777Y-15397150D02*
X12174824Y-15406674D01*
X12174824Y-15406674D02*
X12184348Y-15425722D01*
X12184348Y-15425722D02*
X12184348Y-15530484D01*
X12279586Y-15530484D02*
X12279586Y-15397150D01*
X12279586Y-15416198D02*
X12289110Y-15406674D01*
X12289110Y-15406674D02*
X12308158Y-15397150D01*
X12308158Y-15397150D02*
X12336729Y-15397150D01*
X12336729Y-15397150D02*
X12355777Y-15406674D01*
X12355777Y-15406674D02*
X12365301Y-15425722D01*
X12365301Y-15425722D02*
X12365301Y-15530484D01*
X12365301Y-15425722D02*
X12374824Y-15406674D01*
X12374824Y-15406674D02*
X12393872Y-15397150D01*
X12393872Y-15397150D02*
X12422443Y-15397150D01*
X12422443Y-15397150D02*
X12441491Y-15406674D01*
X12441491Y-15406674D02*
X12451015Y-15425722D01*
X12451015Y-15425722D02*
X12451015Y-15530484D01*
X12841491Y-15320960D02*
X12670063Y-15578103D01*
X13098634Y-15330484D02*
X13117682Y-15330484D01*
X13117682Y-15330484D02*
X13136729Y-15340008D01*
X13136729Y-15340008D02*
X13146253Y-15349531D01*
X13146253Y-15349531D02*
X13155777Y-15368579D01*
X13155777Y-15368579D02*
X13165301Y-15406674D01*
X13165301Y-15406674D02*
X13165301Y-15454293D01*
X13165301Y-15454293D02*
X13155777Y-15492388D01*
X13155777Y-15492388D02*
X13146253Y-15511436D01*
X13146253Y-15511436D02*
X13136729Y-15520960D01*
X13136729Y-15520960D02*
X13117682Y-15530484D01*
X13117682Y-15530484D02*
X13098634Y-15530484D01*
X13098634Y-15530484D02*
X13079586Y-15520960D01*
X13079586Y-15520960D02*
X13070063Y-15511436D01*
X13070063Y-15511436D02*
X13060539Y-15492388D01*
X13060539Y-15492388D02*
X13051015Y-15454293D01*
X13051015Y-15454293D02*
X13051015Y-15406674D01*
X13051015Y-15406674D02*
X13060539Y-15368579D01*
X13060539Y-15368579D02*
X13070063Y-15349531D01*
X13070063Y-15349531D02*
X13079586Y-15340008D01*
X13079586Y-15340008D02*
X13098634Y-15330484D01*
X13251015Y-15511436D02*
X13260539Y-15520960D01*
X13260539Y-15520960D02*
X13251015Y-15530484D01*
X13251015Y-15530484D02*
X13241491Y-15520960D01*
X13241491Y-15520960D02*
X13251015Y-15511436D01*
X13251015Y-15511436D02*
X13251015Y-15530484D01*
X13384348Y-15330484D02*
X13403396Y-15330484D01*
X13403396Y-15330484D02*
X13422444Y-15340008D01*
X13422444Y-15340008D02*
X13431967Y-15349531D01*
X13431967Y-15349531D02*
X13441491Y-15368579D01*
X13441491Y-15368579D02*
X13451015Y-15406674D01*
X13451015Y-15406674D02*
X13451015Y-15454293D01*
X13451015Y-15454293D02*
X13441491Y-15492388D01*
X13441491Y-15492388D02*
X13431967Y-15511436D01*
X13431967Y-15511436D02*
X13422444Y-15520960D01*
X13422444Y-15520960D02*
X13403396Y-15530484D01*
X13403396Y-15530484D02*
X13384348Y-15530484D01*
X13384348Y-15530484D02*
X13365301Y-15520960D01*
X13365301Y-15520960D02*
X13355777Y-15511436D01*
X13355777Y-15511436D02*
X13346253Y-15492388D01*
X13346253Y-15492388D02*
X13336729Y-15454293D01*
X13336729Y-15454293D02*
X13336729Y-15406674D01*
X13336729Y-15406674D02*
X13346253Y-15368579D01*
X13346253Y-15368579D02*
X13355777Y-15349531D01*
X13355777Y-15349531D02*
X13365301Y-15340008D01*
X13365301Y-15340008D02*
X13384348Y-15330484D01*
X13641491Y-15530484D02*
X13527206Y-15530484D01*
X13584348Y-15530484D02*
X13584348Y-15330484D01*
X13584348Y-15330484D02*
X13565301Y-15359055D01*
X13565301Y-15359055D02*
X13546253Y-15378103D01*
X13546253Y-15378103D02*
X13527206Y-15387627D01*
X13736729Y-15530484D02*
X13774825Y-15530484D01*
X13774825Y-15530484D02*
X13793872Y-15520960D01*
X13793872Y-15520960D02*
X13803396Y-15511436D01*
X13803396Y-15511436D02*
X13822444Y-15482865D01*
X13822444Y-15482865D02*
X13831967Y-15444769D01*
X13831967Y-15444769D02*
X13831967Y-15368579D01*
X13831967Y-15368579D02*
X13822444Y-15349531D01*
X13822444Y-15349531D02*
X13812920Y-15340008D01*
X13812920Y-15340008D02*
X13793872Y-15330484D01*
X13793872Y-15330484D02*
X13755777Y-15330484D01*
X13755777Y-15330484D02*
X13736729Y-15340008D01*
X13736729Y-15340008D02*
X13727206Y-15349531D01*
X13727206Y-15349531D02*
X13717682Y-15368579D01*
X13717682Y-15368579D02*
X13717682Y-15416198D01*
X13717682Y-15416198D02*
X13727206Y-15435246D01*
X13727206Y-15435246D02*
X13736729Y-15444769D01*
X13736729Y-15444769D02*
X13755777Y-15454293D01*
X13755777Y-15454293D02*
X13793872Y-15454293D01*
X13793872Y-15454293D02*
X13812920Y-15444769D01*
X13812920Y-15444769D02*
X13822444Y-15435246D01*
X13822444Y-15435246D02*
X13831967Y-15416198D01*
X13898634Y-15330484D02*
X14031967Y-15330484D01*
X14031967Y-15330484D02*
X13946253Y-15530484D01*
X14098634Y-15330484D02*
X14098634Y-15368579D01*
X14174825Y-15330484D02*
X14174825Y-15368579D01*
X14470063Y-15606674D02*
X14460539Y-15597150D01*
X14460539Y-15597150D02*
X14441491Y-15568579D01*
X14441491Y-15568579D02*
X14431968Y-15549531D01*
X14431968Y-15549531D02*
X14422444Y-15520960D01*
X14422444Y-15520960D02*
X14412920Y-15473341D01*
X14412920Y-15473341D02*
X14412920Y-15435246D01*
X14412920Y-15435246D02*
X14422444Y-15387627D01*
X14422444Y-15387627D02*
X14431968Y-15359055D01*
X14431968Y-15359055D02*
X14441491Y-15340008D01*
X14441491Y-15340008D02*
X14460539Y-15311436D01*
X14460539Y-15311436D02*
X14470063Y-15301912D01*
X14584348Y-15330484D02*
X14603396Y-15330484D01*
X14603396Y-15330484D02*
X14622444Y-15340008D01*
X14622444Y-15340008D02*
X14631968Y-15349531D01*
X14631968Y-15349531D02*
X14641491Y-15368579D01*
X14641491Y-15368579D02*
X14651015Y-15406674D01*
X14651015Y-15406674D02*
X14651015Y-15454293D01*
X14651015Y-15454293D02*
X14641491Y-15492388D01*
X14641491Y-15492388D02*
X14631968Y-15511436D01*
X14631968Y-15511436D02*
X14622444Y-15520960D01*
X14622444Y-15520960D02*
X14603396Y-15530484D01*
X14603396Y-15530484D02*
X14584348Y-15530484D01*
X14584348Y-15530484D02*
X14565301Y-15520960D01*
X14565301Y-15520960D02*
X14555777Y-15511436D01*
X14555777Y-15511436D02*
X14546253Y-15492388D01*
X14546253Y-15492388D02*
X14536729Y-15454293D01*
X14536729Y-15454293D02*
X14536729Y-15406674D01*
X14536729Y-15406674D02*
X14546253Y-15368579D01*
X14546253Y-15368579D02*
X14555777Y-15349531D01*
X14555777Y-15349531D02*
X14565301Y-15340008D01*
X14565301Y-15340008D02*
X14584348Y-15330484D01*
X14889110Y-15530484D02*
X14889110Y-15330484D01*
X14974825Y-15530484D02*
X14974825Y-15425722D01*
X14974825Y-15425722D02*
X14965301Y-15406674D01*
X14965301Y-15406674D02*
X14946253Y-15397150D01*
X14946253Y-15397150D02*
X14917682Y-15397150D01*
X14917682Y-15397150D02*
X14898634Y-15406674D01*
X14898634Y-15406674D02*
X14889110Y-15416198D01*
X15098634Y-15530484D02*
X15079587Y-15520960D01*
X15079587Y-15520960D02*
X15070063Y-15511436D01*
X15070063Y-15511436D02*
X15060539Y-15492388D01*
X15060539Y-15492388D02*
X15060539Y-15435246D01*
X15060539Y-15435246D02*
X15070063Y-15416198D01*
X15070063Y-15416198D02*
X15079587Y-15406674D01*
X15079587Y-15406674D02*
X15098634Y-15397150D01*
X15098634Y-15397150D02*
X15127206Y-15397150D01*
X15127206Y-15397150D02*
X15146253Y-15406674D01*
X15146253Y-15406674D02*
X15155777Y-15416198D01*
X15155777Y-15416198D02*
X15165301Y-15435246D01*
X15165301Y-15435246D02*
X15165301Y-15492388D01*
X15165301Y-15492388D02*
X15155777Y-15511436D01*
X15155777Y-15511436D02*
X15146253Y-15520960D01*
X15146253Y-15520960D02*
X15127206Y-15530484D01*
X15127206Y-15530484D02*
X15098634Y-15530484D01*
X15279587Y-15530484D02*
X15260539Y-15520960D01*
X15260539Y-15520960D02*
X15251015Y-15501912D01*
X15251015Y-15501912D02*
X15251015Y-15330484D01*
X15431968Y-15520960D02*
X15412920Y-15530484D01*
X15412920Y-15530484D02*
X15374825Y-15530484D01*
X15374825Y-15530484D02*
X15355777Y-15520960D01*
X15355777Y-15520960D02*
X15346253Y-15501912D01*
X15346253Y-15501912D02*
X15346253Y-15425722D01*
X15346253Y-15425722D02*
X15355777Y-15406674D01*
X15355777Y-15406674D02*
X15374825Y-15397150D01*
X15374825Y-15397150D02*
X15412920Y-15397150D01*
X15412920Y-15397150D02*
X15431968Y-15406674D01*
X15431968Y-15406674D02*
X15441491Y-15425722D01*
X15441491Y-15425722D02*
X15441491Y-15444769D01*
X15441491Y-15444769D02*
X15346253Y-15463817D01*
X15517682Y-15520960D02*
X15536730Y-15530484D01*
X15536730Y-15530484D02*
X15574825Y-15530484D01*
X15574825Y-15530484D02*
X15593872Y-15520960D01*
X15593872Y-15520960D02*
X15603396Y-15501912D01*
X15603396Y-15501912D02*
X15603396Y-15492388D01*
X15603396Y-15492388D02*
X15593872Y-15473341D01*
X15593872Y-15473341D02*
X15574825Y-15463817D01*
X15574825Y-15463817D02*
X15546253Y-15463817D01*
X15546253Y-15463817D02*
X15527206Y-15454293D01*
X15527206Y-15454293D02*
X15517682Y-15435246D01*
X15517682Y-15435246D02*
X15517682Y-15425722D01*
X15517682Y-15425722D02*
X15527206Y-15406674D01*
X15527206Y-15406674D02*
X15546253Y-15397150D01*
X15546253Y-15397150D02*
X15574825Y-15397150D01*
X15574825Y-15397150D02*
X15593872Y-15406674D01*
X15841492Y-15454293D02*
X15993873Y-15454293D01*
X15917682Y-15530484D02*
X15917682Y-15378103D01*
X16327206Y-15330484D02*
X16289111Y-15330484D01*
X16289111Y-15330484D02*
X16270063Y-15340008D01*
X16270063Y-15340008D02*
X16260539Y-15349531D01*
X16260539Y-15349531D02*
X16241492Y-15378103D01*
X16241492Y-15378103D02*
X16231968Y-15416198D01*
X16231968Y-15416198D02*
X16231968Y-15492388D01*
X16231968Y-15492388D02*
X16241492Y-15511436D01*
X16241492Y-15511436D02*
X16251015Y-15520960D01*
X16251015Y-15520960D02*
X16270063Y-15530484D01*
X16270063Y-15530484D02*
X16308158Y-15530484D01*
X16308158Y-15530484D02*
X16327206Y-15520960D01*
X16327206Y-15520960D02*
X16336730Y-15511436D01*
X16336730Y-15511436D02*
X16346253Y-15492388D01*
X16346253Y-15492388D02*
X16346253Y-15444769D01*
X16346253Y-15444769D02*
X16336730Y-15425722D01*
X16336730Y-15425722D02*
X16327206Y-15416198D01*
X16327206Y-15416198D02*
X16308158Y-15406674D01*
X16308158Y-15406674D02*
X16270063Y-15406674D01*
X16270063Y-15406674D02*
X16251015Y-15416198D01*
X16251015Y-15416198D02*
X16241492Y-15425722D01*
X16241492Y-15425722D02*
X16231968Y-15444769D01*
X16574825Y-15520960D02*
X16593873Y-15530484D01*
X16593873Y-15530484D02*
X16631968Y-15530484D01*
X16631968Y-15530484D02*
X16651015Y-15520960D01*
X16651015Y-15520960D02*
X16660539Y-15501912D01*
X16660539Y-15501912D02*
X16660539Y-15492388D01*
X16660539Y-15492388D02*
X16651015Y-15473341D01*
X16651015Y-15473341D02*
X16631968Y-15463817D01*
X16631968Y-15463817D02*
X16603396Y-15463817D01*
X16603396Y-15463817D02*
X16584349Y-15454293D01*
X16584349Y-15454293D02*
X16574825Y-15435246D01*
X16574825Y-15435246D02*
X16574825Y-15425722D01*
X16574825Y-15425722D02*
X16584349Y-15406674D01*
X16584349Y-15406674D02*
X16603396Y-15397150D01*
X16603396Y-15397150D02*
X16631968Y-15397150D01*
X16631968Y-15397150D02*
X16651015Y-15406674D01*
X16774825Y-15530484D02*
X16755777Y-15520960D01*
X16755777Y-15520960D02*
X16746254Y-15501912D01*
X16746254Y-15501912D02*
X16746254Y-15330484D01*
X16879587Y-15530484D02*
X16860539Y-15520960D01*
X16860539Y-15520960D02*
X16851016Y-15511436D01*
X16851016Y-15511436D02*
X16841492Y-15492388D01*
X16841492Y-15492388D02*
X16841492Y-15435246D01*
X16841492Y-15435246D02*
X16851016Y-15416198D01*
X16851016Y-15416198D02*
X16860539Y-15406674D01*
X16860539Y-15406674D02*
X16879587Y-15397150D01*
X16879587Y-15397150D02*
X16908158Y-15397150D01*
X16908158Y-15397150D02*
X16927206Y-15406674D01*
X16927206Y-15406674D02*
X16936730Y-15416198D01*
X16936730Y-15416198D02*
X16946254Y-15435246D01*
X16946254Y-15435246D02*
X16946254Y-15492388D01*
X16946254Y-15492388D02*
X16936730Y-15511436D01*
X16936730Y-15511436D02*
X16927206Y-15520960D01*
X16927206Y-15520960D02*
X16908158Y-15530484D01*
X16908158Y-15530484D02*
X16879587Y-15530484D01*
X17003397Y-15397150D02*
X17079587Y-15397150D01*
X17031968Y-15330484D02*
X17031968Y-15501912D01*
X17031968Y-15501912D02*
X17041492Y-15520960D01*
X17041492Y-15520960D02*
X17060539Y-15530484D01*
X17060539Y-15530484D02*
X17079587Y-15530484D01*
X17136730Y-15520960D02*
X17155777Y-15530484D01*
X17155777Y-15530484D02*
X17193873Y-15530484D01*
X17193873Y-15530484D02*
X17212920Y-15520960D01*
X17212920Y-15520960D02*
X17222444Y-15501912D01*
X17222444Y-15501912D02*
X17222444Y-15492388D01*
X17222444Y-15492388D02*
X17212920Y-15473341D01*
X17212920Y-15473341D02*
X17193873Y-15463817D01*
X17193873Y-15463817D02*
X17165301Y-15463817D01*
X17165301Y-15463817D02*
X17146254Y-15454293D01*
X17146254Y-15454293D02*
X17136730Y-15435246D01*
X17136730Y-15435246D02*
X17136730Y-15425722D01*
X17136730Y-15425722D02*
X17146254Y-15406674D01*
X17146254Y-15406674D02*
X17165301Y-15397150D01*
X17165301Y-15397150D02*
X17193873Y-15397150D01*
X17193873Y-15397150D02*
X17212920Y-15406674D01*
X17289111Y-15606674D02*
X17298635Y-15597150D01*
X17298635Y-15597150D02*
X17317682Y-15568579D01*
X17317682Y-15568579D02*
X17327206Y-15549531D01*
X17327206Y-15549531D02*
X17336730Y-15520960D01*
X17336730Y-15520960D02*
X17346254Y-15473341D01*
X17346254Y-15473341D02*
X17346254Y-15435246D01*
X17346254Y-15435246D02*
X17336730Y-15387627D01*
X17336730Y-15387627D02*
X17327206Y-15359055D01*
X17327206Y-15359055D02*
X17317682Y-15340008D01*
X17317682Y-15340008D02*
X17298635Y-15311436D01*
X17298635Y-15311436D02*
X17289111Y-15301912D01*
D10*
X10855000Y-15663000D02*
X10855000Y-15743000D01*
X10815000Y-15703000D02*
X10895000Y-15703000D01*
D11*
X11193872Y-15594484D02*
X11212920Y-15594484D01*
X11212920Y-15594484D02*
X11231967Y-15604008D01*
X11231967Y-15604008D02*
X11241491Y-15613531D01*
X11241491Y-15613531D02*
X11251015Y-15632579D01*
X11251015Y-15632579D02*
X11260539Y-15670674D01*
X11260539Y-15670674D02*
X11260539Y-15718293D01*
X11260539Y-15718293D02*
X11251015Y-15756388D01*
X11251015Y-15756388D02*
X11241491Y-15775436D01*
X11241491Y-15775436D02*
X11231967Y-15784960D01*
X11231967Y-15784960D02*
X11212920Y-15794484D01*
X11212920Y-15794484D02*
X11193872Y-15794484D01*
X11193872Y-15794484D02*
X11174824Y-15784960D01*
X11174824Y-15784960D02*
X11165301Y-15775436D01*
X11165301Y-15775436D02*
X11155777Y-15756388D01*
X11155777Y-15756388D02*
X11146253Y-15718293D01*
X11146253Y-15718293D02*
X11146253Y-15670674D01*
X11146253Y-15670674D02*
X11155777Y-15632579D01*
X11155777Y-15632579D02*
X11165301Y-15613531D01*
X11165301Y-15613531D02*
X11174824Y-15604008D01*
X11174824Y-15604008D02*
X11193872Y-15594484D01*
X11346253Y-15775436D02*
X11355777Y-15784960D01*
X11355777Y-15784960D02*
X11346253Y-15794484D01*
X11346253Y-15794484D02*
X11336729Y-15784960D01*
X11336729Y-15784960D02*
X11346253Y-15775436D01*
X11346253Y-15775436D02*
X11346253Y-15794484D01*
X11470062Y-15680198D02*
X11451015Y-15670674D01*
X11451015Y-15670674D02*
X11441491Y-15661150D01*
X11441491Y-15661150D02*
X11431967Y-15642103D01*
X11431967Y-15642103D02*
X11431967Y-15632579D01*
X11431967Y-15632579D02*
X11441491Y-15613531D01*
X11441491Y-15613531D02*
X11451015Y-15604008D01*
X11451015Y-15604008D02*
X11470062Y-15594484D01*
X11470062Y-15594484D02*
X11508158Y-15594484D01*
X11508158Y-15594484D02*
X11527205Y-15604008D01*
X11527205Y-15604008D02*
X11536729Y-15613531D01*
X11536729Y-15613531D02*
X11546253Y-15632579D01*
X11546253Y-15632579D02*
X11546253Y-15642103D01*
X11546253Y-15642103D02*
X11536729Y-15661150D01*
X11536729Y-15661150D02*
X11527205Y-15670674D01*
X11527205Y-15670674D02*
X11508158Y-15680198D01*
X11508158Y-15680198D02*
X11470062Y-15680198D01*
X11470062Y-15680198D02*
X11451015Y-15689722D01*
X11451015Y-15689722D02*
X11441491Y-15699246D01*
X11441491Y-15699246D02*
X11431967Y-15718293D01*
X11431967Y-15718293D02*
X11431967Y-15756388D01*
X11431967Y-15756388D02*
X11441491Y-15775436D01*
X11441491Y-15775436D02*
X11451015Y-15784960D01*
X11451015Y-15784960D02*
X11470062Y-15794484D01*
X11470062Y-15794484D02*
X11508158Y-15794484D01*
X11508158Y-15794484D02*
X11527205Y-15784960D01*
X11527205Y-15784960D02*
X11536729Y-15775436D01*
X11536729Y-15775436D02*
X11546253Y-15756388D01*
X11546253Y-15756388D02*
X11546253Y-15718293D01*
X11546253Y-15718293D02*
X11536729Y-15699246D01*
X11536729Y-15699246D02*
X11527205Y-15689722D01*
X11527205Y-15689722D02*
X11508158Y-15680198D01*
X11670062Y-15594484D02*
X11689110Y-15594484D01*
X11689110Y-15594484D02*
X11708158Y-15604008D01*
X11708158Y-15604008D02*
X11717682Y-15613531D01*
X11717682Y-15613531D02*
X11727205Y-15632579D01*
X11727205Y-15632579D02*
X11736729Y-15670674D01*
X11736729Y-15670674D02*
X11736729Y-15718293D01*
X11736729Y-15718293D02*
X11727205Y-15756388D01*
X11727205Y-15756388D02*
X11717682Y-15775436D01*
X11717682Y-15775436D02*
X11708158Y-15784960D01*
X11708158Y-15784960D02*
X11689110Y-15794484D01*
X11689110Y-15794484D02*
X11670062Y-15794484D01*
X11670062Y-15794484D02*
X11651015Y-15784960D01*
X11651015Y-15784960D02*
X11641491Y-15775436D01*
X11641491Y-15775436D02*
X11631967Y-15756388D01*
X11631967Y-15756388D02*
X11622443Y-15718293D01*
X11622443Y-15718293D02*
X11622443Y-15670674D01*
X11622443Y-15670674D02*
X11631967Y-15632579D01*
X11631967Y-15632579D02*
X11641491Y-15613531D01*
X11641491Y-15613531D02*
X11651015Y-15604008D01*
X11651015Y-15604008D02*
X11670062Y-15594484D01*
X11860539Y-15594484D02*
X11879586Y-15594484D01*
X11879586Y-15594484D02*
X11898634Y-15604008D01*
X11898634Y-15604008D02*
X11908158Y-15613531D01*
X11908158Y-15613531D02*
X11917682Y-15632579D01*
X11917682Y-15632579D02*
X11927205Y-15670674D01*
X11927205Y-15670674D02*
X11927205Y-15718293D01*
X11927205Y-15718293D02*
X11917682Y-15756388D01*
X11917682Y-15756388D02*
X11908158Y-15775436D01*
X11908158Y-15775436D02*
X11898634Y-15784960D01*
X11898634Y-15784960D02*
X11879586Y-15794484D01*
X11879586Y-15794484D02*
X11860539Y-15794484D01*
X11860539Y-15794484D02*
X11841491Y-15784960D01*
X11841491Y-15784960D02*
X11831967Y-15775436D01*
X11831967Y-15775436D02*
X11822443Y-15756388D01*
X11822443Y-15756388D02*
X11812920Y-15718293D01*
X11812920Y-15718293D02*
X11812920Y-15670674D01*
X11812920Y-15670674D02*
X11822443Y-15632579D01*
X11822443Y-15632579D02*
X11831967Y-15613531D01*
X11831967Y-15613531D02*
X11841491Y-15604008D01*
X11841491Y-15604008D02*
X11860539Y-15594484D01*
X12012920Y-15794484D02*
X12012920Y-15661150D01*
X12012920Y-15680198D02*
X12022443Y-15670674D01*
X12022443Y-15670674D02*
X12041491Y-15661150D01*
X12041491Y-15661150D02*
X12070063Y-15661150D01*
X12070063Y-15661150D02*
X12089110Y-15670674D01*
X12089110Y-15670674D02*
X12098634Y-15689722D01*
X12098634Y-15689722D02*
X12098634Y-15794484D01*
X12098634Y-15689722D02*
X12108158Y-15670674D01*
X12108158Y-15670674D02*
X12127205Y-15661150D01*
X12127205Y-15661150D02*
X12155777Y-15661150D01*
X12155777Y-15661150D02*
X12174824Y-15670674D01*
X12174824Y-15670674D02*
X12184348Y-15689722D01*
X12184348Y-15689722D02*
X12184348Y-15794484D01*
X12279586Y-15794484D02*
X12279586Y-15661150D01*
X12279586Y-15680198D02*
X12289110Y-15670674D01*
X12289110Y-15670674D02*
X12308158Y-15661150D01*
X12308158Y-15661150D02*
X12336729Y-15661150D01*
X12336729Y-15661150D02*
X12355777Y-15670674D01*
X12355777Y-15670674D02*
X12365301Y-15689722D01*
X12365301Y-15689722D02*
X12365301Y-15794484D01*
X12365301Y-15689722D02*
X12374824Y-15670674D01*
X12374824Y-15670674D02*
X12393872Y-15661150D01*
X12393872Y-15661150D02*
X12422443Y-15661150D01*
X12422443Y-15661150D02*
X12441491Y-15670674D01*
X12441491Y-15670674D02*
X12451015Y-15689722D01*
X12451015Y-15689722D02*
X12451015Y-15794484D01*
X12841491Y-15584960D02*
X12670063Y-15842103D01*
X13098634Y-15594484D02*
X13117682Y-15594484D01*
X13117682Y-15594484D02*
X13136729Y-15604008D01*
X13136729Y-15604008D02*
X13146253Y-15613531D01*
X13146253Y-15613531D02*
X13155777Y-15632579D01*
X13155777Y-15632579D02*
X13165301Y-15670674D01*
X13165301Y-15670674D02*
X13165301Y-15718293D01*
X13165301Y-15718293D02*
X13155777Y-15756388D01*
X13155777Y-15756388D02*
X13146253Y-15775436D01*
X13146253Y-15775436D02*
X13136729Y-15784960D01*
X13136729Y-15784960D02*
X13117682Y-15794484D01*
X13117682Y-15794484D02*
X13098634Y-15794484D01*
X13098634Y-15794484D02*
X13079586Y-15784960D01*
X13079586Y-15784960D02*
X13070063Y-15775436D01*
X13070063Y-15775436D02*
X13060539Y-15756388D01*
X13060539Y-15756388D02*
X13051015Y-15718293D01*
X13051015Y-15718293D02*
X13051015Y-15670674D01*
X13051015Y-15670674D02*
X13060539Y-15632579D01*
X13060539Y-15632579D02*
X13070063Y-15613531D01*
X13070063Y-15613531D02*
X13079586Y-15604008D01*
X13079586Y-15604008D02*
X13098634Y-15594484D01*
X13251015Y-15775436D02*
X13260539Y-15784960D01*
X13260539Y-15784960D02*
X13251015Y-15794484D01*
X13251015Y-15794484D02*
X13241491Y-15784960D01*
X13241491Y-15784960D02*
X13251015Y-15775436D01*
X13251015Y-15775436D02*
X13251015Y-15794484D01*
X13384348Y-15594484D02*
X13403396Y-15594484D01*
X13403396Y-15594484D02*
X13422444Y-15604008D01*
X13422444Y-15604008D02*
X13431967Y-15613531D01*
X13431967Y-15613531D02*
X13441491Y-15632579D01*
X13441491Y-15632579D02*
X13451015Y-15670674D01*
X13451015Y-15670674D02*
X13451015Y-15718293D01*
X13451015Y-15718293D02*
X13441491Y-15756388D01*
X13441491Y-15756388D02*
X13431967Y-15775436D01*
X13431967Y-15775436D02*
X13422444Y-15784960D01*
X13422444Y-15784960D02*
X13403396Y-15794484D01*
X13403396Y-15794484D02*
X13384348Y-15794484D01*
X13384348Y-15794484D02*
X13365301Y-15784960D01*
X13365301Y-15784960D02*
X13355777Y-15775436D01*
X13355777Y-15775436D02*
X13346253Y-15756388D01*
X13346253Y-15756388D02*
X13336729Y-15718293D01*
X13336729Y-15718293D02*
X13336729Y-15670674D01*
X13336729Y-15670674D02*
X13346253Y-15632579D01*
X13346253Y-15632579D02*
X13355777Y-15613531D01*
X13355777Y-15613531D02*
X13365301Y-15604008D01*
X13365301Y-15604008D02*
X13384348Y-15594484D01*
X13517682Y-15594484D02*
X13641491Y-15594484D01*
X13641491Y-15594484D02*
X13574825Y-15670674D01*
X13574825Y-15670674D02*
X13603396Y-15670674D01*
X13603396Y-15670674D02*
X13622444Y-15680198D01*
X13622444Y-15680198D02*
X13631967Y-15689722D01*
X13631967Y-15689722D02*
X13641491Y-15708769D01*
X13641491Y-15708769D02*
X13641491Y-15756388D01*
X13641491Y-15756388D02*
X13631967Y-15775436D01*
X13631967Y-15775436D02*
X13622444Y-15784960D01*
X13622444Y-15784960D02*
X13603396Y-15794484D01*
X13603396Y-15794484D02*
X13546253Y-15794484D01*
X13546253Y-15794484D02*
X13527206Y-15784960D01*
X13527206Y-15784960D02*
X13517682Y-15775436D01*
X13831967Y-15794484D02*
X13717682Y-15794484D01*
X13774825Y-15794484D02*
X13774825Y-15594484D01*
X13774825Y-15594484D02*
X13755777Y-15623055D01*
X13755777Y-15623055D02*
X13736729Y-15642103D01*
X13736729Y-15642103D02*
X13717682Y-15651627D01*
X14012920Y-15594484D02*
X13917682Y-15594484D01*
X13917682Y-15594484D02*
X13908158Y-15689722D01*
X13908158Y-15689722D02*
X13917682Y-15680198D01*
X13917682Y-15680198D02*
X13936729Y-15670674D01*
X13936729Y-15670674D02*
X13984348Y-15670674D01*
X13984348Y-15670674D02*
X14003396Y-15680198D01*
X14003396Y-15680198D02*
X14012920Y-15689722D01*
X14012920Y-15689722D02*
X14022444Y-15708769D01*
X14022444Y-15708769D02*
X14022444Y-15756388D01*
X14022444Y-15756388D02*
X14012920Y-15775436D01*
X14012920Y-15775436D02*
X14003396Y-15784960D01*
X14003396Y-15784960D02*
X13984348Y-15794484D01*
X13984348Y-15794484D02*
X13936729Y-15794484D01*
X13936729Y-15794484D02*
X13917682Y-15784960D01*
X13917682Y-15784960D02*
X13908158Y-15775436D01*
X14098634Y-15594484D02*
X14098634Y-15632579D01*
X14174825Y-15594484D02*
X14174825Y-15632579D01*
X14470063Y-15870674D02*
X14460539Y-15861150D01*
X14460539Y-15861150D02*
X14441491Y-15832579D01*
X14441491Y-15832579D02*
X14431968Y-15813531D01*
X14431968Y-15813531D02*
X14422444Y-15784960D01*
X14422444Y-15784960D02*
X14412920Y-15737341D01*
X14412920Y-15737341D02*
X14412920Y-15699246D01*
X14412920Y-15699246D02*
X14422444Y-15651627D01*
X14422444Y-15651627D02*
X14431968Y-15623055D01*
X14431968Y-15623055D02*
X14441491Y-15604008D01*
X14441491Y-15604008D02*
X14460539Y-15575436D01*
X14460539Y-15575436D02*
X14470063Y-15565912D01*
X14527206Y-15594484D02*
X14651015Y-15594484D01*
X14651015Y-15594484D02*
X14584348Y-15670674D01*
X14584348Y-15670674D02*
X14612920Y-15670674D01*
X14612920Y-15670674D02*
X14631968Y-15680198D01*
X14631968Y-15680198D02*
X14641491Y-15689722D01*
X14641491Y-15689722D02*
X14651015Y-15708769D01*
X14651015Y-15708769D02*
X14651015Y-15756388D01*
X14651015Y-15756388D02*
X14641491Y-15775436D01*
X14641491Y-15775436D02*
X14631968Y-15784960D01*
X14631968Y-15784960D02*
X14612920Y-15794484D01*
X14612920Y-15794484D02*
X14555777Y-15794484D01*
X14555777Y-15794484D02*
X14536729Y-15784960D01*
X14536729Y-15784960D02*
X14527206Y-15775436D01*
X14889110Y-15794484D02*
X14889110Y-15594484D01*
X14974825Y-15794484D02*
X14974825Y-15689722D01*
X14974825Y-15689722D02*
X14965301Y-15670674D01*
X14965301Y-15670674D02*
X14946253Y-15661150D01*
X14946253Y-15661150D02*
X14917682Y-15661150D01*
X14917682Y-15661150D02*
X14898634Y-15670674D01*
X14898634Y-15670674D02*
X14889110Y-15680198D01*
X15098634Y-15794484D02*
X15079587Y-15784960D01*
X15079587Y-15784960D02*
X15070063Y-15775436D01*
X15070063Y-15775436D02*
X15060539Y-15756388D01*
X15060539Y-15756388D02*
X15060539Y-15699246D01*
X15060539Y-15699246D02*
X15070063Y-15680198D01*
X15070063Y-15680198D02*
X15079587Y-15670674D01*
X15079587Y-15670674D02*
X15098634Y-15661150D01*
X15098634Y-15661150D02*
X15127206Y-15661150D01*
X15127206Y-15661150D02*
X15146253Y-15670674D01*
X15146253Y-15670674D02*
X15155777Y-15680198D01*
X15155777Y-15680198D02*
X15165301Y-15699246D01*
X15165301Y-15699246D02*
X15165301Y-15756388D01*
X15165301Y-15756388D02*
X15155777Y-15775436D01*
X15155777Y-15775436D02*
X15146253Y-15784960D01*
X15146253Y-15784960D02*
X15127206Y-15794484D01*
X15127206Y-15794484D02*
X15098634Y-15794484D01*
X15279587Y-15794484D02*
X15260539Y-15784960D01*
X15260539Y-15784960D02*
X15251015Y-15765912D01*
X15251015Y-15765912D02*
X15251015Y-15594484D01*
X15431968Y-15784960D02*
X15412920Y-15794484D01*
X15412920Y-15794484D02*
X15374825Y-15794484D01*
X15374825Y-15794484D02*
X15355777Y-15784960D01*
X15355777Y-15784960D02*
X15346253Y-15765912D01*
X15346253Y-15765912D02*
X15346253Y-15689722D01*
X15346253Y-15689722D02*
X15355777Y-15670674D01*
X15355777Y-15670674D02*
X15374825Y-15661150D01*
X15374825Y-15661150D02*
X15412920Y-15661150D01*
X15412920Y-15661150D02*
X15431968Y-15670674D01*
X15431968Y-15670674D02*
X15441491Y-15689722D01*
X15441491Y-15689722D02*
X15441491Y-15708769D01*
X15441491Y-15708769D02*
X15346253Y-15727817D01*
X15517682Y-15784960D02*
X15536730Y-15794484D01*
X15536730Y-15794484D02*
X15574825Y-15794484D01*
X15574825Y-15794484D02*
X15593872Y-15784960D01*
X15593872Y-15784960D02*
X15603396Y-15765912D01*
X15603396Y-15765912D02*
X15603396Y-15756388D01*
X15603396Y-15756388D02*
X15593872Y-15737341D01*
X15593872Y-15737341D02*
X15574825Y-15727817D01*
X15574825Y-15727817D02*
X15546253Y-15727817D01*
X15546253Y-15727817D02*
X15527206Y-15718293D01*
X15527206Y-15718293D02*
X15517682Y-15699246D01*
X15517682Y-15699246D02*
X15517682Y-15689722D01*
X15517682Y-15689722D02*
X15527206Y-15670674D01*
X15527206Y-15670674D02*
X15546253Y-15661150D01*
X15546253Y-15661150D02*
X15574825Y-15661150D01*
X15574825Y-15661150D02*
X15593872Y-15670674D01*
X15670063Y-15870674D02*
X15679587Y-15861150D01*
X15679587Y-15861150D02*
X15698634Y-15832579D01*
X15698634Y-15832579D02*
X15708158Y-15813531D01*
X15708158Y-15813531D02*
X15717682Y-15784960D01*
X15717682Y-15784960D02*
X15727206Y-15737341D01*
X15727206Y-15737341D02*
X15727206Y-15699246D01*
X15727206Y-15699246D02*
X15717682Y-15651627D01*
X15717682Y-15651627D02*
X15708158Y-15623055D01*
X15708158Y-15623055D02*
X15698634Y-15604008D01*
X15698634Y-15604008D02*
X15679587Y-15575436D01*
X15679587Y-15575436D02*
X15670063Y-15565912D01*
D10*
X10880356Y-16002356D02*
X10880356Y-15931644D01*
X10809644Y-15931644D01*
X10809644Y-16002356D01*
X10880356Y-16002356D01*
D11*
X11260539Y-16058484D02*
X11146253Y-16058484D01*
X11203396Y-16058484D02*
X11203396Y-15858484D01*
X11203396Y-15858484D02*
X11184348Y-15887055D01*
X11184348Y-15887055D02*
X11165301Y-15906103D01*
X11165301Y-15906103D02*
X11146253Y-15915627D01*
X11346253Y-16039436D02*
X11355777Y-16048960D01*
X11355777Y-16048960D02*
X11346253Y-16058484D01*
X11346253Y-16058484D02*
X11336729Y-16048960D01*
X11336729Y-16048960D02*
X11346253Y-16039436D01*
X11346253Y-16039436D02*
X11346253Y-16058484D01*
X11479586Y-15858484D02*
X11498634Y-15858484D01*
X11498634Y-15858484D02*
X11517682Y-15868008D01*
X11517682Y-15868008D02*
X11527205Y-15877531D01*
X11527205Y-15877531D02*
X11536729Y-15896579D01*
X11536729Y-15896579D02*
X11546253Y-15934674D01*
X11546253Y-15934674D02*
X11546253Y-15982293D01*
X11546253Y-15982293D02*
X11536729Y-16020388D01*
X11536729Y-16020388D02*
X11527205Y-16039436D01*
X11527205Y-16039436D02*
X11517682Y-16048960D01*
X11517682Y-16048960D02*
X11498634Y-16058484D01*
X11498634Y-16058484D02*
X11479586Y-16058484D01*
X11479586Y-16058484D02*
X11460539Y-16048960D01*
X11460539Y-16048960D02*
X11451015Y-16039436D01*
X11451015Y-16039436D02*
X11441491Y-16020388D01*
X11441491Y-16020388D02*
X11431967Y-15982293D01*
X11431967Y-15982293D02*
X11431967Y-15934674D01*
X11431967Y-15934674D02*
X11441491Y-15896579D01*
X11441491Y-15896579D02*
X11451015Y-15877531D01*
X11451015Y-15877531D02*
X11460539Y-15868008D01*
X11460539Y-15868008D02*
X11479586Y-15858484D01*
X11670062Y-15858484D02*
X11689110Y-15858484D01*
X11689110Y-15858484D02*
X11708158Y-15868008D01*
X11708158Y-15868008D02*
X11717682Y-15877531D01*
X11717682Y-15877531D02*
X11727205Y-15896579D01*
X11727205Y-15896579D02*
X11736729Y-15934674D01*
X11736729Y-15934674D02*
X11736729Y-15982293D01*
X11736729Y-15982293D02*
X11727205Y-16020388D01*
X11727205Y-16020388D02*
X11717682Y-16039436D01*
X11717682Y-16039436D02*
X11708158Y-16048960D01*
X11708158Y-16048960D02*
X11689110Y-16058484D01*
X11689110Y-16058484D02*
X11670062Y-16058484D01*
X11670062Y-16058484D02*
X11651015Y-16048960D01*
X11651015Y-16048960D02*
X11641491Y-16039436D01*
X11641491Y-16039436D02*
X11631967Y-16020388D01*
X11631967Y-16020388D02*
X11622443Y-15982293D01*
X11622443Y-15982293D02*
X11622443Y-15934674D01*
X11622443Y-15934674D02*
X11631967Y-15896579D01*
X11631967Y-15896579D02*
X11641491Y-15877531D01*
X11641491Y-15877531D02*
X11651015Y-15868008D01*
X11651015Y-15868008D02*
X11670062Y-15858484D01*
X11860539Y-15858484D02*
X11879586Y-15858484D01*
X11879586Y-15858484D02*
X11898634Y-15868008D01*
X11898634Y-15868008D02*
X11908158Y-15877531D01*
X11908158Y-15877531D02*
X11917682Y-15896579D01*
X11917682Y-15896579D02*
X11927205Y-15934674D01*
X11927205Y-15934674D02*
X11927205Y-15982293D01*
X11927205Y-15982293D02*
X11917682Y-16020388D01*
X11917682Y-16020388D02*
X11908158Y-16039436D01*
X11908158Y-16039436D02*
X11898634Y-16048960D01*
X11898634Y-16048960D02*
X11879586Y-16058484D01*
X11879586Y-16058484D02*
X11860539Y-16058484D01*
X11860539Y-16058484D02*
X11841491Y-16048960D01*
X11841491Y-16048960D02*
X11831967Y-16039436D01*
X11831967Y-16039436D02*
X11822443Y-16020388D01*
X11822443Y-16020388D02*
X11812920Y-15982293D01*
X11812920Y-15982293D02*
X11812920Y-15934674D01*
X11812920Y-15934674D02*
X11822443Y-15896579D01*
X11822443Y-15896579D02*
X11831967Y-15877531D01*
X11831967Y-15877531D02*
X11841491Y-15868008D01*
X11841491Y-15868008D02*
X11860539Y-15858484D01*
X12012920Y-16058484D02*
X12012920Y-15925150D01*
X12012920Y-15944198D02*
X12022443Y-15934674D01*
X12022443Y-15934674D02*
X12041491Y-15925150D01*
X12041491Y-15925150D02*
X12070063Y-15925150D01*
X12070063Y-15925150D02*
X12089110Y-15934674D01*
X12089110Y-15934674D02*
X12098634Y-15953722D01*
X12098634Y-15953722D02*
X12098634Y-16058484D01*
X12098634Y-15953722D02*
X12108158Y-15934674D01*
X12108158Y-15934674D02*
X12127205Y-15925150D01*
X12127205Y-15925150D02*
X12155777Y-15925150D01*
X12155777Y-15925150D02*
X12174824Y-15934674D01*
X12174824Y-15934674D02*
X12184348Y-15953722D01*
X12184348Y-15953722D02*
X12184348Y-16058484D01*
X12279586Y-16058484D02*
X12279586Y-15925150D01*
X12279586Y-15944198D02*
X12289110Y-15934674D01*
X12289110Y-15934674D02*
X12308158Y-15925150D01*
X12308158Y-15925150D02*
X12336729Y-15925150D01*
X12336729Y-15925150D02*
X12355777Y-15934674D01*
X12355777Y-15934674D02*
X12365301Y-15953722D01*
X12365301Y-15953722D02*
X12365301Y-16058484D01*
X12365301Y-15953722D02*
X12374824Y-15934674D01*
X12374824Y-15934674D02*
X12393872Y-15925150D01*
X12393872Y-15925150D02*
X12422443Y-15925150D01*
X12422443Y-15925150D02*
X12441491Y-15934674D01*
X12441491Y-15934674D02*
X12451015Y-15953722D01*
X12451015Y-15953722D02*
X12451015Y-16058484D01*
X12841491Y-15848960D02*
X12670063Y-16106103D01*
X13098634Y-15858484D02*
X13117682Y-15858484D01*
X13117682Y-15858484D02*
X13136729Y-15868008D01*
X13136729Y-15868008D02*
X13146253Y-15877531D01*
X13146253Y-15877531D02*
X13155777Y-15896579D01*
X13155777Y-15896579D02*
X13165301Y-15934674D01*
X13165301Y-15934674D02*
X13165301Y-15982293D01*
X13165301Y-15982293D02*
X13155777Y-16020388D01*
X13155777Y-16020388D02*
X13146253Y-16039436D01*
X13146253Y-16039436D02*
X13136729Y-16048960D01*
X13136729Y-16048960D02*
X13117682Y-16058484D01*
X13117682Y-16058484D02*
X13098634Y-16058484D01*
X13098634Y-16058484D02*
X13079586Y-16048960D01*
X13079586Y-16048960D02*
X13070063Y-16039436D01*
X13070063Y-16039436D02*
X13060539Y-16020388D01*
X13060539Y-16020388D02*
X13051015Y-15982293D01*
X13051015Y-15982293D02*
X13051015Y-15934674D01*
X13051015Y-15934674D02*
X13060539Y-15896579D01*
X13060539Y-15896579D02*
X13070063Y-15877531D01*
X13070063Y-15877531D02*
X13079586Y-15868008D01*
X13079586Y-15868008D02*
X13098634Y-15858484D01*
X13251015Y-16039436D02*
X13260539Y-16048960D01*
X13260539Y-16048960D02*
X13251015Y-16058484D01*
X13251015Y-16058484D02*
X13241491Y-16048960D01*
X13241491Y-16048960D02*
X13251015Y-16039436D01*
X13251015Y-16039436D02*
X13251015Y-16058484D01*
X13384348Y-15858484D02*
X13403396Y-15858484D01*
X13403396Y-15858484D02*
X13422444Y-15868008D01*
X13422444Y-15868008D02*
X13431967Y-15877531D01*
X13431967Y-15877531D02*
X13441491Y-15896579D01*
X13441491Y-15896579D02*
X13451015Y-15934674D01*
X13451015Y-15934674D02*
X13451015Y-15982293D01*
X13451015Y-15982293D02*
X13441491Y-16020388D01*
X13441491Y-16020388D02*
X13431967Y-16039436D01*
X13431967Y-16039436D02*
X13422444Y-16048960D01*
X13422444Y-16048960D02*
X13403396Y-16058484D01*
X13403396Y-16058484D02*
X13384348Y-16058484D01*
X13384348Y-16058484D02*
X13365301Y-16048960D01*
X13365301Y-16048960D02*
X13355777Y-16039436D01*
X13355777Y-16039436D02*
X13346253Y-16020388D01*
X13346253Y-16020388D02*
X13336729Y-15982293D01*
X13336729Y-15982293D02*
X13336729Y-15934674D01*
X13336729Y-15934674D02*
X13346253Y-15896579D01*
X13346253Y-15896579D02*
X13355777Y-15877531D01*
X13355777Y-15877531D02*
X13365301Y-15868008D01*
X13365301Y-15868008D02*
X13384348Y-15858484D01*
X13517682Y-15858484D02*
X13641491Y-15858484D01*
X13641491Y-15858484D02*
X13574825Y-15934674D01*
X13574825Y-15934674D02*
X13603396Y-15934674D01*
X13603396Y-15934674D02*
X13622444Y-15944198D01*
X13622444Y-15944198D02*
X13631967Y-15953722D01*
X13631967Y-15953722D02*
X13641491Y-15972769D01*
X13641491Y-15972769D02*
X13641491Y-16020388D01*
X13641491Y-16020388D02*
X13631967Y-16039436D01*
X13631967Y-16039436D02*
X13622444Y-16048960D01*
X13622444Y-16048960D02*
X13603396Y-16058484D01*
X13603396Y-16058484D02*
X13546253Y-16058484D01*
X13546253Y-16058484D02*
X13527206Y-16048960D01*
X13527206Y-16048960D02*
X13517682Y-16039436D01*
X13736729Y-16058484D02*
X13774825Y-16058484D01*
X13774825Y-16058484D02*
X13793872Y-16048960D01*
X13793872Y-16048960D02*
X13803396Y-16039436D01*
X13803396Y-16039436D02*
X13822444Y-16010865D01*
X13822444Y-16010865D02*
X13831967Y-15972769D01*
X13831967Y-15972769D02*
X13831967Y-15896579D01*
X13831967Y-15896579D02*
X13822444Y-15877531D01*
X13822444Y-15877531D02*
X13812920Y-15868008D01*
X13812920Y-15868008D02*
X13793872Y-15858484D01*
X13793872Y-15858484D02*
X13755777Y-15858484D01*
X13755777Y-15858484D02*
X13736729Y-15868008D01*
X13736729Y-15868008D02*
X13727206Y-15877531D01*
X13727206Y-15877531D02*
X13717682Y-15896579D01*
X13717682Y-15896579D02*
X13717682Y-15944198D01*
X13717682Y-15944198D02*
X13727206Y-15963246D01*
X13727206Y-15963246D02*
X13736729Y-15972769D01*
X13736729Y-15972769D02*
X13755777Y-15982293D01*
X13755777Y-15982293D02*
X13793872Y-15982293D01*
X13793872Y-15982293D02*
X13812920Y-15972769D01*
X13812920Y-15972769D02*
X13822444Y-15963246D01*
X13822444Y-15963246D02*
X13831967Y-15944198D01*
X14003396Y-15925150D02*
X14003396Y-16058484D01*
X13955777Y-15848960D02*
X13908158Y-15991817D01*
X13908158Y-15991817D02*
X14031967Y-15991817D01*
X14098634Y-15858484D02*
X14098634Y-15896579D01*
X14174825Y-15858484D02*
X14174825Y-15896579D01*
X14470063Y-16134674D02*
X14460539Y-16125150D01*
X14460539Y-16125150D02*
X14441491Y-16096579D01*
X14441491Y-16096579D02*
X14431968Y-16077531D01*
X14431968Y-16077531D02*
X14422444Y-16048960D01*
X14422444Y-16048960D02*
X14412920Y-16001341D01*
X14412920Y-16001341D02*
X14412920Y-15963246D01*
X14412920Y-15963246D02*
X14422444Y-15915627D01*
X14422444Y-15915627D02*
X14431968Y-15887055D01*
X14431968Y-15887055D02*
X14441491Y-15868008D01*
X14441491Y-15868008D02*
X14460539Y-15839436D01*
X14460539Y-15839436D02*
X14470063Y-15829912D01*
X14651015Y-16058484D02*
X14536729Y-16058484D01*
X14593872Y-16058484D02*
X14593872Y-15858484D01*
X14593872Y-15858484D02*
X14574825Y-15887055D01*
X14574825Y-15887055D02*
X14555777Y-15906103D01*
X14555777Y-15906103D02*
X14536729Y-15915627D01*
X14717682Y-15858484D02*
X14841491Y-15858484D01*
X14841491Y-15858484D02*
X14774825Y-15934674D01*
X14774825Y-15934674D02*
X14803396Y-15934674D01*
X14803396Y-15934674D02*
X14822444Y-15944198D01*
X14822444Y-15944198D02*
X14831968Y-15953722D01*
X14831968Y-15953722D02*
X14841491Y-15972769D01*
X14841491Y-15972769D02*
X14841491Y-16020388D01*
X14841491Y-16020388D02*
X14831968Y-16039436D01*
X14831968Y-16039436D02*
X14822444Y-16048960D01*
X14822444Y-16048960D02*
X14803396Y-16058484D01*
X14803396Y-16058484D02*
X14746253Y-16058484D01*
X14746253Y-16058484D02*
X14727206Y-16048960D01*
X14727206Y-16048960D02*
X14717682Y-16039436D01*
X15079587Y-16058484D02*
X15079587Y-15858484D01*
X15165301Y-16058484D02*
X15165301Y-15953722D01*
X15165301Y-15953722D02*
X15155777Y-15934674D01*
X15155777Y-15934674D02*
X15136730Y-15925150D01*
X15136730Y-15925150D02*
X15108158Y-15925150D01*
X15108158Y-15925150D02*
X15089110Y-15934674D01*
X15089110Y-15934674D02*
X15079587Y-15944198D01*
X15289110Y-16058484D02*
X15270063Y-16048960D01*
X15270063Y-16048960D02*
X15260539Y-16039436D01*
X15260539Y-16039436D02*
X15251015Y-16020388D01*
X15251015Y-16020388D02*
X15251015Y-15963246D01*
X15251015Y-15963246D02*
X15260539Y-15944198D01*
X15260539Y-15944198D02*
X15270063Y-15934674D01*
X15270063Y-15934674D02*
X15289110Y-15925150D01*
X15289110Y-15925150D02*
X15317682Y-15925150D01*
X15317682Y-15925150D02*
X15336730Y-15934674D01*
X15336730Y-15934674D02*
X15346253Y-15944198D01*
X15346253Y-15944198D02*
X15355777Y-15963246D01*
X15355777Y-15963246D02*
X15355777Y-16020388D01*
X15355777Y-16020388D02*
X15346253Y-16039436D01*
X15346253Y-16039436D02*
X15336730Y-16048960D01*
X15336730Y-16048960D02*
X15317682Y-16058484D01*
X15317682Y-16058484D02*
X15289110Y-16058484D01*
X15470063Y-16058484D02*
X15451015Y-16048960D01*
X15451015Y-16048960D02*
X15441491Y-16029912D01*
X15441491Y-16029912D02*
X15441491Y-15858484D01*
X15622444Y-16048960D02*
X15603396Y-16058484D01*
X15603396Y-16058484D02*
X15565301Y-16058484D01*
X15565301Y-16058484D02*
X15546253Y-16048960D01*
X15546253Y-16048960D02*
X15536730Y-16029912D01*
X15536730Y-16029912D02*
X15536730Y-15953722D01*
X15536730Y-15953722D02*
X15546253Y-15934674D01*
X15546253Y-15934674D02*
X15565301Y-15925150D01*
X15565301Y-15925150D02*
X15603396Y-15925150D01*
X15603396Y-15925150D02*
X15622444Y-15934674D01*
X15622444Y-15934674D02*
X15631968Y-15953722D01*
X15631968Y-15953722D02*
X15631968Y-15972769D01*
X15631968Y-15972769D02*
X15536730Y-15991817D01*
X15708158Y-16048960D02*
X15727206Y-16058484D01*
X15727206Y-16058484D02*
X15765301Y-16058484D01*
X15765301Y-16058484D02*
X15784349Y-16048960D01*
X15784349Y-16048960D02*
X15793872Y-16029912D01*
X15793872Y-16029912D02*
X15793872Y-16020388D01*
X15793872Y-16020388D02*
X15784349Y-16001341D01*
X15784349Y-16001341D02*
X15765301Y-15991817D01*
X15765301Y-15991817D02*
X15736730Y-15991817D01*
X15736730Y-15991817D02*
X15717682Y-15982293D01*
X15717682Y-15982293D02*
X15708158Y-15963246D01*
X15708158Y-15963246D02*
X15708158Y-15953722D01*
X15708158Y-15953722D02*
X15717682Y-15934674D01*
X15717682Y-15934674D02*
X15736730Y-15925150D01*
X15736730Y-15925150D02*
X15765301Y-15925150D01*
X15765301Y-15925150D02*
X15784349Y-15934674D01*
X15860539Y-16134674D02*
X15870063Y-16125150D01*
X15870063Y-16125150D02*
X15889111Y-16096579D01*
X15889111Y-16096579D02*
X15898634Y-16077531D01*
X15898634Y-16077531D02*
X15908158Y-16048960D01*
X15908158Y-16048960D02*
X15917682Y-16001341D01*
X15917682Y-16001341D02*
X15917682Y-15963246D01*
X15917682Y-15963246D02*
X15908158Y-15915627D01*
X15908158Y-15915627D02*
X15898634Y-15887055D01*
X15898634Y-15887055D02*
X15889111Y-15868008D01*
X15889111Y-15868008D02*
X15870063Y-15839436D01*
X15870063Y-15839436D02*
X15860539Y-15829912D01*
D12*
X10835000Y-16291000D02*
X10895000Y-16231000D01*
X10835000Y-16171000D01*
X10775000Y-16231000D01*
X10835000Y-16291000D01*
D11*
X11260539Y-16322484D02*
X11146253Y-16322484D01*
X11203396Y-16322484D02*
X11203396Y-16122484D01*
X11203396Y-16122484D02*
X11184348Y-16151055D01*
X11184348Y-16151055D02*
X11165301Y-16170103D01*
X11165301Y-16170103D02*
X11146253Y-16179627D01*
X11346253Y-16303436D02*
X11355777Y-16312960D01*
X11355777Y-16312960D02*
X11346253Y-16322484D01*
X11346253Y-16322484D02*
X11336729Y-16312960D01*
X11336729Y-16312960D02*
X11346253Y-16303436D01*
X11346253Y-16303436D02*
X11346253Y-16322484D01*
X11431967Y-16141531D02*
X11441491Y-16132008D01*
X11441491Y-16132008D02*
X11460539Y-16122484D01*
X11460539Y-16122484D02*
X11508158Y-16122484D01*
X11508158Y-16122484D02*
X11527205Y-16132008D01*
X11527205Y-16132008D02*
X11536729Y-16141531D01*
X11536729Y-16141531D02*
X11546253Y-16160579D01*
X11546253Y-16160579D02*
X11546253Y-16179627D01*
X11546253Y-16179627D02*
X11536729Y-16208198D01*
X11536729Y-16208198D02*
X11422443Y-16322484D01*
X11422443Y-16322484D02*
X11546253Y-16322484D01*
X11670062Y-16122484D02*
X11689110Y-16122484D01*
X11689110Y-16122484D02*
X11708158Y-16132008D01*
X11708158Y-16132008D02*
X11717682Y-16141531D01*
X11717682Y-16141531D02*
X11727205Y-16160579D01*
X11727205Y-16160579D02*
X11736729Y-16198674D01*
X11736729Y-16198674D02*
X11736729Y-16246293D01*
X11736729Y-16246293D02*
X11727205Y-16284388D01*
X11727205Y-16284388D02*
X11717682Y-16303436D01*
X11717682Y-16303436D02*
X11708158Y-16312960D01*
X11708158Y-16312960D02*
X11689110Y-16322484D01*
X11689110Y-16322484D02*
X11670062Y-16322484D01*
X11670062Y-16322484D02*
X11651015Y-16312960D01*
X11651015Y-16312960D02*
X11641491Y-16303436D01*
X11641491Y-16303436D02*
X11631967Y-16284388D01*
X11631967Y-16284388D02*
X11622443Y-16246293D01*
X11622443Y-16246293D02*
X11622443Y-16198674D01*
X11622443Y-16198674D02*
X11631967Y-16160579D01*
X11631967Y-16160579D02*
X11641491Y-16141531D01*
X11641491Y-16141531D02*
X11651015Y-16132008D01*
X11651015Y-16132008D02*
X11670062Y-16122484D01*
X11860539Y-16122484D02*
X11879586Y-16122484D01*
X11879586Y-16122484D02*
X11898634Y-16132008D01*
X11898634Y-16132008D02*
X11908158Y-16141531D01*
X11908158Y-16141531D02*
X11917682Y-16160579D01*
X11917682Y-16160579D02*
X11927205Y-16198674D01*
X11927205Y-16198674D02*
X11927205Y-16246293D01*
X11927205Y-16246293D02*
X11917682Y-16284388D01*
X11917682Y-16284388D02*
X11908158Y-16303436D01*
X11908158Y-16303436D02*
X11898634Y-16312960D01*
X11898634Y-16312960D02*
X11879586Y-16322484D01*
X11879586Y-16322484D02*
X11860539Y-16322484D01*
X11860539Y-16322484D02*
X11841491Y-16312960D01*
X11841491Y-16312960D02*
X11831967Y-16303436D01*
X11831967Y-16303436D02*
X11822443Y-16284388D01*
X11822443Y-16284388D02*
X11812920Y-16246293D01*
X11812920Y-16246293D02*
X11812920Y-16198674D01*
X11812920Y-16198674D02*
X11822443Y-16160579D01*
X11822443Y-16160579D02*
X11831967Y-16141531D01*
X11831967Y-16141531D02*
X11841491Y-16132008D01*
X11841491Y-16132008D02*
X11860539Y-16122484D01*
X12012920Y-16322484D02*
X12012920Y-16189150D01*
X12012920Y-16208198D02*
X12022443Y-16198674D01*
X12022443Y-16198674D02*
X12041491Y-16189150D01*
X12041491Y-16189150D02*
X12070063Y-16189150D01*
X12070063Y-16189150D02*
X12089110Y-16198674D01*
X12089110Y-16198674D02*
X12098634Y-16217722D01*
X12098634Y-16217722D02*
X12098634Y-16322484D01*
X12098634Y-16217722D02*
X12108158Y-16198674D01*
X12108158Y-16198674D02*
X12127205Y-16189150D01*
X12127205Y-16189150D02*
X12155777Y-16189150D01*
X12155777Y-16189150D02*
X12174824Y-16198674D01*
X12174824Y-16198674D02*
X12184348Y-16217722D01*
X12184348Y-16217722D02*
X12184348Y-16322484D01*
X12279586Y-16322484D02*
X12279586Y-16189150D01*
X12279586Y-16208198D02*
X12289110Y-16198674D01*
X12289110Y-16198674D02*
X12308158Y-16189150D01*
X12308158Y-16189150D02*
X12336729Y-16189150D01*
X12336729Y-16189150D02*
X12355777Y-16198674D01*
X12355777Y-16198674D02*
X12365301Y-16217722D01*
X12365301Y-16217722D02*
X12365301Y-16322484D01*
X12365301Y-16217722D02*
X12374824Y-16198674D01*
X12374824Y-16198674D02*
X12393872Y-16189150D01*
X12393872Y-16189150D02*
X12422443Y-16189150D01*
X12422443Y-16189150D02*
X12441491Y-16198674D01*
X12441491Y-16198674D02*
X12451015Y-16217722D01*
X12451015Y-16217722D02*
X12451015Y-16322484D01*
X12841491Y-16112960D02*
X12670063Y-16370103D01*
X13098634Y-16122484D02*
X13117682Y-16122484D01*
X13117682Y-16122484D02*
X13136729Y-16132008D01*
X13136729Y-16132008D02*
X13146253Y-16141531D01*
X13146253Y-16141531D02*
X13155777Y-16160579D01*
X13155777Y-16160579D02*
X13165301Y-16198674D01*
X13165301Y-16198674D02*
X13165301Y-16246293D01*
X13165301Y-16246293D02*
X13155777Y-16284388D01*
X13155777Y-16284388D02*
X13146253Y-16303436D01*
X13146253Y-16303436D02*
X13136729Y-16312960D01*
X13136729Y-16312960D02*
X13117682Y-16322484D01*
X13117682Y-16322484D02*
X13098634Y-16322484D01*
X13098634Y-16322484D02*
X13079586Y-16312960D01*
X13079586Y-16312960D02*
X13070063Y-16303436D01*
X13070063Y-16303436D02*
X13060539Y-16284388D01*
X13060539Y-16284388D02*
X13051015Y-16246293D01*
X13051015Y-16246293D02*
X13051015Y-16198674D01*
X13051015Y-16198674D02*
X13060539Y-16160579D01*
X13060539Y-16160579D02*
X13070063Y-16141531D01*
X13070063Y-16141531D02*
X13079586Y-16132008D01*
X13079586Y-16132008D02*
X13098634Y-16122484D01*
X13251015Y-16303436D02*
X13260539Y-16312960D01*
X13260539Y-16312960D02*
X13251015Y-16322484D01*
X13251015Y-16322484D02*
X13241491Y-16312960D01*
X13241491Y-16312960D02*
X13251015Y-16303436D01*
X13251015Y-16303436D02*
X13251015Y-16322484D01*
X13384348Y-16122484D02*
X13403396Y-16122484D01*
X13403396Y-16122484D02*
X13422444Y-16132008D01*
X13422444Y-16132008D02*
X13431967Y-16141531D01*
X13431967Y-16141531D02*
X13441491Y-16160579D01*
X13441491Y-16160579D02*
X13451015Y-16198674D01*
X13451015Y-16198674D02*
X13451015Y-16246293D01*
X13451015Y-16246293D02*
X13441491Y-16284388D01*
X13441491Y-16284388D02*
X13431967Y-16303436D01*
X13431967Y-16303436D02*
X13422444Y-16312960D01*
X13422444Y-16312960D02*
X13403396Y-16322484D01*
X13403396Y-16322484D02*
X13384348Y-16322484D01*
X13384348Y-16322484D02*
X13365301Y-16312960D01*
X13365301Y-16312960D02*
X13355777Y-16303436D01*
X13355777Y-16303436D02*
X13346253Y-16284388D01*
X13346253Y-16284388D02*
X13336729Y-16246293D01*
X13336729Y-16246293D02*
X13336729Y-16198674D01*
X13336729Y-16198674D02*
X13346253Y-16160579D01*
X13346253Y-16160579D02*
X13355777Y-16141531D01*
X13355777Y-16141531D02*
X13365301Y-16132008D01*
X13365301Y-16132008D02*
X13384348Y-16122484D01*
X13622444Y-16189150D02*
X13622444Y-16322484D01*
X13574825Y-16112960D02*
X13527206Y-16255817D01*
X13527206Y-16255817D02*
X13651015Y-16255817D01*
X13708158Y-16122484D02*
X13841491Y-16122484D01*
X13841491Y-16122484D02*
X13755777Y-16322484D01*
X13908158Y-16141531D02*
X13917682Y-16132008D01*
X13917682Y-16132008D02*
X13936729Y-16122484D01*
X13936729Y-16122484D02*
X13984348Y-16122484D01*
X13984348Y-16122484D02*
X14003396Y-16132008D01*
X14003396Y-16132008D02*
X14012920Y-16141531D01*
X14012920Y-16141531D02*
X14022444Y-16160579D01*
X14022444Y-16160579D02*
X14022444Y-16179627D01*
X14022444Y-16179627D02*
X14012920Y-16208198D01*
X14012920Y-16208198D02*
X13898634Y-16322484D01*
X13898634Y-16322484D02*
X14022444Y-16322484D01*
X14098634Y-16122484D02*
X14098634Y-16160579D01*
X14174825Y-16122484D02*
X14174825Y-16160579D01*
X14470063Y-16398674D02*
X14460539Y-16389150D01*
X14460539Y-16389150D02*
X14441491Y-16360579D01*
X14441491Y-16360579D02*
X14431968Y-16341531D01*
X14431968Y-16341531D02*
X14422444Y-16312960D01*
X14422444Y-16312960D02*
X14412920Y-16265341D01*
X14412920Y-16265341D02*
X14412920Y-16227246D01*
X14412920Y-16227246D02*
X14422444Y-16179627D01*
X14422444Y-16179627D02*
X14431968Y-16151055D01*
X14431968Y-16151055D02*
X14441491Y-16132008D01*
X14441491Y-16132008D02*
X14460539Y-16103436D01*
X14460539Y-16103436D02*
X14470063Y-16093912D01*
X14651015Y-16322484D02*
X14536729Y-16322484D01*
X14593872Y-16322484D02*
X14593872Y-16122484D01*
X14593872Y-16122484D02*
X14574825Y-16151055D01*
X14574825Y-16151055D02*
X14555777Y-16170103D01*
X14555777Y-16170103D02*
X14536729Y-16179627D01*
X14727206Y-16141531D02*
X14736729Y-16132008D01*
X14736729Y-16132008D02*
X14755777Y-16122484D01*
X14755777Y-16122484D02*
X14803396Y-16122484D01*
X14803396Y-16122484D02*
X14822444Y-16132008D01*
X14822444Y-16132008D02*
X14831968Y-16141531D01*
X14831968Y-16141531D02*
X14841491Y-16160579D01*
X14841491Y-16160579D02*
X14841491Y-16179627D01*
X14841491Y-16179627D02*
X14831968Y-16208198D01*
X14831968Y-16208198D02*
X14717682Y-16322484D01*
X14717682Y-16322484D02*
X14841491Y-16322484D01*
X15079587Y-16322484D02*
X15079587Y-16122484D01*
X15165301Y-16322484D02*
X15165301Y-16217722D01*
X15165301Y-16217722D02*
X15155777Y-16198674D01*
X15155777Y-16198674D02*
X15136730Y-16189150D01*
X15136730Y-16189150D02*
X15108158Y-16189150D01*
X15108158Y-16189150D02*
X15089110Y-16198674D01*
X15089110Y-16198674D02*
X15079587Y-16208198D01*
X15289110Y-16322484D02*
X15270063Y-16312960D01*
X15270063Y-16312960D02*
X15260539Y-16303436D01*
X15260539Y-16303436D02*
X15251015Y-16284388D01*
X15251015Y-16284388D02*
X15251015Y-16227246D01*
X15251015Y-16227246D02*
X15260539Y-16208198D01*
X15260539Y-16208198D02*
X15270063Y-16198674D01*
X15270063Y-16198674D02*
X15289110Y-16189150D01*
X15289110Y-16189150D02*
X15317682Y-16189150D01*
X15317682Y-16189150D02*
X15336730Y-16198674D01*
X15336730Y-16198674D02*
X15346253Y-16208198D01*
X15346253Y-16208198D02*
X15355777Y-16227246D01*
X15355777Y-16227246D02*
X15355777Y-16284388D01*
X15355777Y-16284388D02*
X15346253Y-16303436D01*
X15346253Y-16303436D02*
X15336730Y-16312960D01*
X15336730Y-16312960D02*
X15317682Y-16322484D01*
X15317682Y-16322484D02*
X15289110Y-16322484D01*
X15470063Y-16322484D02*
X15451015Y-16312960D01*
X15451015Y-16312960D02*
X15441491Y-16293912D01*
X15441491Y-16293912D02*
X15441491Y-16122484D01*
X15622444Y-16312960D02*
X15603396Y-16322484D01*
X15603396Y-16322484D02*
X15565301Y-16322484D01*
X15565301Y-16322484D02*
X15546253Y-16312960D01*
X15546253Y-16312960D02*
X15536730Y-16293912D01*
X15536730Y-16293912D02*
X15536730Y-16217722D01*
X15536730Y-16217722D02*
X15546253Y-16198674D01*
X15546253Y-16198674D02*
X15565301Y-16189150D01*
X15565301Y-16189150D02*
X15603396Y-16189150D01*
X15603396Y-16189150D02*
X15622444Y-16198674D01*
X15622444Y-16198674D02*
X15631968Y-16217722D01*
X15631968Y-16217722D02*
X15631968Y-16236769D01*
X15631968Y-16236769D02*
X15536730Y-16255817D01*
X15708158Y-16312960D02*
X15727206Y-16322484D01*
X15727206Y-16322484D02*
X15765301Y-16322484D01*
X15765301Y-16322484D02*
X15784349Y-16312960D01*
X15784349Y-16312960D02*
X15793872Y-16293912D01*
X15793872Y-16293912D02*
X15793872Y-16284388D01*
X15793872Y-16284388D02*
X15784349Y-16265341D01*
X15784349Y-16265341D02*
X15765301Y-16255817D01*
X15765301Y-16255817D02*
X15736730Y-16255817D01*
X15736730Y-16255817D02*
X15717682Y-16246293D01*
X15717682Y-16246293D02*
X15708158Y-16227246D01*
X15708158Y-16227246D02*
X15708158Y-16217722D01*
X15708158Y-16217722D02*
X15717682Y-16198674D01*
X15717682Y-16198674D02*
X15736730Y-16189150D01*
X15736730Y-16189150D02*
X15765301Y-16189150D01*
X15765301Y-16189150D02*
X15784349Y-16198674D01*
X15860539Y-16398674D02*
X15870063Y-16389150D01*
X15870063Y-16389150D02*
X15889111Y-16360579D01*
X15889111Y-16360579D02*
X15898634Y-16341531D01*
X15898634Y-16341531D02*
X15908158Y-16312960D01*
X15908158Y-16312960D02*
X15917682Y-16265341D01*
X15917682Y-16265341D02*
X15917682Y-16227246D01*
X15917682Y-16227246D02*
X15908158Y-16179627D01*
X15908158Y-16179627D02*
X15898634Y-16151055D01*
X15898634Y-16151055D02*
X15889111Y-16132008D01*
X15889111Y-16132008D02*
X15870063Y-16103436D01*
X15870063Y-16103436D02*
X15860539Y-16093912D01*
D13*
X10725000Y-16410000D02*
X10895000Y-16580000D01*
X10895000Y-16410000D02*
X10725000Y-16580000D01*
X10895000Y-16495000D02*
G75*
G03*
X10895000Y-16495000I-85000J0D01*
G01*
D11*
X11260539Y-16586484D02*
X11146253Y-16586484D01*
X11203396Y-16586484D02*
X11203396Y-16386484D01*
X11203396Y-16386484D02*
X11184348Y-16415055D01*
X11184348Y-16415055D02*
X11165301Y-16434103D01*
X11165301Y-16434103D02*
X11146253Y-16443627D01*
X11346253Y-16567436D02*
X11355777Y-16576960D01*
X11355777Y-16576960D02*
X11346253Y-16586484D01*
X11346253Y-16586484D02*
X11336729Y-16576960D01*
X11336729Y-16576960D02*
X11346253Y-16567436D01*
X11346253Y-16567436D02*
X11346253Y-16586484D01*
X11422443Y-16386484D02*
X11555777Y-16386484D01*
X11555777Y-16386484D02*
X11470062Y-16586484D01*
X11670062Y-16386484D02*
X11689110Y-16386484D01*
X11689110Y-16386484D02*
X11708158Y-16396008D01*
X11708158Y-16396008D02*
X11717682Y-16405531D01*
X11717682Y-16405531D02*
X11727205Y-16424579D01*
X11727205Y-16424579D02*
X11736729Y-16462674D01*
X11736729Y-16462674D02*
X11736729Y-16510293D01*
X11736729Y-16510293D02*
X11727205Y-16548388D01*
X11727205Y-16548388D02*
X11717682Y-16567436D01*
X11717682Y-16567436D02*
X11708158Y-16576960D01*
X11708158Y-16576960D02*
X11689110Y-16586484D01*
X11689110Y-16586484D02*
X11670062Y-16586484D01*
X11670062Y-16586484D02*
X11651015Y-16576960D01*
X11651015Y-16576960D02*
X11641491Y-16567436D01*
X11641491Y-16567436D02*
X11631967Y-16548388D01*
X11631967Y-16548388D02*
X11622443Y-16510293D01*
X11622443Y-16510293D02*
X11622443Y-16462674D01*
X11622443Y-16462674D02*
X11631967Y-16424579D01*
X11631967Y-16424579D02*
X11641491Y-16405531D01*
X11641491Y-16405531D02*
X11651015Y-16396008D01*
X11651015Y-16396008D02*
X11670062Y-16386484D01*
X11860539Y-16386484D02*
X11879586Y-16386484D01*
X11879586Y-16386484D02*
X11898634Y-16396008D01*
X11898634Y-16396008D02*
X11908158Y-16405531D01*
X11908158Y-16405531D02*
X11917682Y-16424579D01*
X11917682Y-16424579D02*
X11927205Y-16462674D01*
X11927205Y-16462674D02*
X11927205Y-16510293D01*
X11927205Y-16510293D02*
X11917682Y-16548388D01*
X11917682Y-16548388D02*
X11908158Y-16567436D01*
X11908158Y-16567436D02*
X11898634Y-16576960D01*
X11898634Y-16576960D02*
X11879586Y-16586484D01*
X11879586Y-16586484D02*
X11860539Y-16586484D01*
X11860539Y-16586484D02*
X11841491Y-16576960D01*
X11841491Y-16576960D02*
X11831967Y-16567436D01*
X11831967Y-16567436D02*
X11822443Y-16548388D01*
X11822443Y-16548388D02*
X11812920Y-16510293D01*
X11812920Y-16510293D02*
X11812920Y-16462674D01*
X11812920Y-16462674D02*
X11822443Y-16424579D01*
X11822443Y-16424579D02*
X11831967Y-16405531D01*
X11831967Y-16405531D02*
X11841491Y-16396008D01*
X11841491Y-16396008D02*
X11860539Y-16386484D01*
X12012920Y-16586484D02*
X12012920Y-16453150D01*
X12012920Y-16472198D02*
X12022443Y-16462674D01*
X12022443Y-16462674D02*
X12041491Y-16453150D01*
X12041491Y-16453150D02*
X12070063Y-16453150D01*
X12070063Y-16453150D02*
X12089110Y-16462674D01*
X12089110Y-16462674D02*
X12098634Y-16481722D01*
X12098634Y-16481722D02*
X12098634Y-16586484D01*
X12098634Y-16481722D02*
X12108158Y-16462674D01*
X12108158Y-16462674D02*
X12127205Y-16453150D01*
X12127205Y-16453150D02*
X12155777Y-16453150D01*
X12155777Y-16453150D02*
X12174824Y-16462674D01*
X12174824Y-16462674D02*
X12184348Y-16481722D01*
X12184348Y-16481722D02*
X12184348Y-16586484D01*
X12279586Y-16586484D02*
X12279586Y-16453150D01*
X12279586Y-16472198D02*
X12289110Y-16462674D01*
X12289110Y-16462674D02*
X12308158Y-16453150D01*
X12308158Y-16453150D02*
X12336729Y-16453150D01*
X12336729Y-16453150D02*
X12355777Y-16462674D01*
X12355777Y-16462674D02*
X12365301Y-16481722D01*
X12365301Y-16481722D02*
X12365301Y-16586484D01*
X12365301Y-16481722D02*
X12374824Y-16462674D01*
X12374824Y-16462674D02*
X12393872Y-16453150D01*
X12393872Y-16453150D02*
X12422443Y-16453150D01*
X12422443Y-16453150D02*
X12441491Y-16462674D01*
X12441491Y-16462674D02*
X12451015Y-16481722D01*
X12451015Y-16481722D02*
X12451015Y-16586484D01*
X12841491Y-16376960D02*
X12670063Y-16634103D01*
X13098634Y-16386484D02*
X13117682Y-16386484D01*
X13117682Y-16386484D02*
X13136729Y-16396008D01*
X13136729Y-16396008D02*
X13146253Y-16405531D01*
X13146253Y-16405531D02*
X13155777Y-16424579D01*
X13155777Y-16424579D02*
X13165301Y-16462674D01*
X13165301Y-16462674D02*
X13165301Y-16510293D01*
X13165301Y-16510293D02*
X13155777Y-16548388D01*
X13155777Y-16548388D02*
X13146253Y-16567436D01*
X13146253Y-16567436D02*
X13136729Y-16576960D01*
X13136729Y-16576960D02*
X13117682Y-16586484D01*
X13117682Y-16586484D02*
X13098634Y-16586484D01*
X13098634Y-16586484D02*
X13079586Y-16576960D01*
X13079586Y-16576960D02*
X13070063Y-16567436D01*
X13070063Y-16567436D02*
X13060539Y-16548388D01*
X13060539Y-16548388D02*
X13051015Y-16510293D01*
X13051015Y-16510293D02*
X13051015Y-16462674D01*
X13051015Y-16462674D02*
X13060539Y-16424579D01*
X13060539Y-16424579D02*
X13070063Y-16405531D01*
X13070063Y-16405531D02*
X13079586Y-16396008D01*
X13079586Y-16396008D02*
X13098634Y-16386484D01*
X13251015Y-16567436D02*
X13260539Y-16576960D01*
X13260539Y-16576960D02*
X13251015Y-16586484D01*
X13251015Y-16586484D02*
X13241491Y-16576960D01*
X13241491Y-16576960D02*
X13251015Y-16567436D01*
X13251015Y-16567436D02*
X13251015Y-16586484D01*
X13384348Y-16386484D02*
X13403396Y-16386484D01*
X13403396Y-16386484D02*
X13422444Y-16396008D01*
X13422444Y-16396008D02*
X13431967Y-16405531D01*
X13431967Y-16405531D02*
X13441491Y-16424579D01*
X13441491Y-16424579D02*
X13451015Y-16462674D01*
X13451015Y-16462674D02*
X13451015Y-16510293D01*
X13451015Y-16510293D02*
X13441491Y-16548388D01*
X13441491Y-16548388D02*
X13431967Y-16567436D01*
X13431967Y-16567436D02*
X13422444Y-16576960D01*
X13422444Y-16576960D02*
X13403396Y-16586484D01*
X13403396Y-16586484D02*
X13384348Y-16586484D01*
X13384348Y-16586484D02*
X13365301Y-16576960D01*
X13365301Y-16576960D02*
X13355777Y-16567436D01*
X13355777Y-16567436D02*
X13346253Y-16548388D01*
X13346253Y-16548388D02*
X13336729Y-16510293D01*
X13336729Y-16510293D02*
X13336729Y-16462674D01*
X13336729Y-16462674D02*
X13346253Y-16424579D01*
X13346253Y-16424579D02*
X13355777Y-16405531D01*
X13355777Y-16405531D02*
X13365301Y-16396008D01*
X13365301Y-16396008D02*
X13384348Y-16386484D01*
X13622444Y-16386484D02*
X13584348Y-16386484D01*
X13584348Y-16386484D02*
X13565301Y-16396008D01*
X13565301Y-16396008D02*
X13555777Y-16405531D01*
X13555777Y-16405531D02*
X13536729Y-16434103D01*
X13536729Y-16434103D02*
X13527206Y-16472198D01*
X13527206Y-16472198D02*
X13527206Y-16548388D01*
X13527206Y-16548388D02*
X13536729Y-16567436D01*
X13536729Y-16567436D02*
X13546253Y-16576960D01*
X13546253Y-16576960D02*
X13565301Y-16586484D01*
X13565301Y-16586484D02*
X13603396Y-16586484D01*
X13603396Y-16586484D02*
X13622444Y-16576960D01*
X13622444Y-16576960D02*
X13631967Y-16567436D01*
X13631967Y-16567436D02*
X13641491Y-16548388D01*
X13641491Y-16548388D02*
X13641491Y-16500769D01*
X13641491Y-16500769D02*
X13631967Y-16481722D01*
X13631967Y-16481722D02*
X13622444Y-16472198D01*
X13622444Y-16472198D02*
X13603396Y-16462674D01*
X13603396Y-16462674D02*
X13565301Y-16462674D01*
X13565301Y-16462674D02*
X13546253Y-16472198D01*
X13546253Y-16472198D02*
X13536729Y-16481722D01*
X13536729Y-16481722D02*
X13527206Y-16500769D01*
X13812920Y-16386484D02*
X13774825Y-16386484D01*
X13774825Y-16386484D02*
X13755777Y-16396008D01*
X13755777Y-16396008D02*
X13746253Y-16405531D01*
X13746253Y-16405531D02*
X13727206Y-16434103D01*
X13727206Y-16434103D02*
X13717682Y-16472198D01*
X13717682Y-16472198D02*
X13717682Y-16548388D01*
X13717682Y-16548388D02*
X13727206Y-16567436D01*
X13727206Y-16567436D02*
X13736729Y-16576960D01*
X13736729Y-16576960D02*
X13755777Y-16586484D01*
X13755777Y-16586484D02*
X13793872Y-16586484D01*
X13793872Y-16586484D02*
X13812920Y-16576960D01*
X13812920Y-16576960D02*
X13822444Y-16567436D01*
X13822444Y-16567436D02*
X13831967Y-16548388D01*
X13831967Y-16548388D02*
X13831967Y-16500769D01*
X13831967Y-16500769D02*
X13822444Y-16481722D01*
X13822444Y-16481722D02*
X13812920Y-16472198D01*
X13812920Y-16472198D02*
X13793872Y-16462674D01*
X13793872Y-16462674D02*
X13755777Y-16462674D01*
X13755777Y-16462674D02*
X13736729Y-16472198D01*
X13736729Y-16472198D02*
X13727206Y-16481722D01*
X13727206Y-16481722D02*
X13717682Y-16500769D01*
X13927206Y-16586484D02*
X13965301Y-16586484D01*
X13965301Y-16586484D02*
X13984348Y-16576960D01*
X13984348Y-16576960D02*
X13993872Y-16567436D01*
X13993872Y-16567436D02*
X14012920Y-16538865D01*
X14012920Y-16538865D02*
X14022444Y-16500769D01*
X14022444Y-16500769D02*
X14022444Y-16424579D01*
X14022444Y-16424579D02*
X14012920Y-16405531D01*
X14012920Y-16405531D02*
X14003396Y-16396008D01*
X14003396Y-16396008D02*
X13984348Y-16386484D01*
X13984348Y-16386484D02*
X13946253Y-16386484D01*
X13946253Y-16386484D02*
X13927206Y-16396008D01*
X13927206Y-16396008D02*
X13917682Y-16405531D01*
X13917682Y-16405531D02*
X13908158Y-16424579D01*
X13908158Y-16424579D02*
X13908158Y-16472198D01*
X13908158Y-16472198D02*
X13917682Y-16491246D01*
X13917682Y-16491246D02*
X13927206Y-16500769D01*
X13927206Y-16500769D02*
X13946253Y-16510293D01*
X13946253Y-16510293D02*
X13984348Y-16510293D01*
X13984348Y-16510293D02*
X14003396Y-16500769D01*
X14003396Y-16500769D02*
X14012920Y-16491246D01*
X14012920Y-16491246D02*
X14022444Y-16472198D01*
X14098634Y-16386484D02*
X14098634Y-16424579D01*
X14174825Y-16386484D02*
X14174825Y-16424579D01*
X14470063Y-16662674D02*
X14460539Y-16653150D01*
X14460539Y-16653150D02*
X14441491Y-16624579D01*
X14441491Y-16624579D02*
X14431968Y-16605531D01*
X14431968Y-16605531D02*
X14422444Y-16576960D01*
X14422444Y-16576960D02*
X14412920Y-16529341D01*
X14412920Y-16529341D02*
X14412920Y-16491246D01*
X14412920Y-16491246D02*
X14422444Y-16443627D01*
X14422444Y-16443627D02*
X14431968Y-16415055D01*
X14431968Y-16415055D02*
X14441491Y-16396008D01*
X14441491Y-16396008D02*
X14460539Y-16367436D01*
X14460539Y-16367436D02*
X14470063Y-16357912D01*
X14651015Y-16586484D02*
X14536729Y-16586484D01*
X14593872Y-16586484D02*
X14593872Y-16386484D01*
X14593872Y-16386484D02*
X14574825Y-16415055D01*
X14574825Y-16415055D02*
X14555777Y-16434103D01*
X14555777Y-16434103D02*
X14536729Y-16443627D01*
X14822444Y-16386484D02*
X14784348Y-16386484D01*
X14784348Y-16386484D02*
X14765301Y-16396008D01*
X14765301Y-16396008D02*
X14755777Y-16405531D01*
X14755777Y-16405531D02*
X14736729Y-16434103D01*
X14736729Y-16434103D02*
X14727206Y-16472198D01*
X14727206Y-16472198D02*
X14727206Y-16548388D01*
X14727206Y-16548388D02*
X14736729Y-16567436D01*
X14736729Y-16567436D02*
X14746253Y-16576960D01*
X14746253Y-16576960D02*
X14765301Y-16586484D01*
X14765301Y-16586484D02*
X14803396Y-16586484D01*
X14803396Y-16586484D02*
X14822444Y-16576960D01*
X14822444Y-16576960D02*
X14831968Y-16567436D01*
X14831968Y-16567436D02*
X14841491Y-16548388D01*
X14841491Y-16548388D02*
X14841491Y-16500769D01*
X14841491Y-16500769D02*
X14831968Y-16481722D01*
X14831968Y-16481722D02*
X14822444Y-16472198D01*
X14822444Y-16472198D02*
X14803396Y-16462674D01*
X14803396Y-16462674D02*
X14765301Y-16462674D01*
X14765301Y-16462674D02*
X14746253Y-16472198D01*
X14746253Y-16472198D02*
X14736729Y-16481722D01*
X14736729Y-16481722D02*
X14727206Y-16500769D01*
X15079587Y-16586484D02*
X15079587Y-16386484D01*
X15165301Y-16586484D02*
X15165301Y-16481722D01*
X15165301Y-16481722D02*
X15155777Y-16462674D01*
X15155777Y-16462674D02*
X15136730Y-16453150D01*
X15136730Y-16453150D02*
X15108158Y-16453150D01*
X15108158Y-16453150D02*
X15089110Y-16462674D01*
X15089110Y-16462674D02*
X15079587Y-16472198D01*
X15289110Y-16586484D02*
X15270063Y-16576960D01*
X15270063Y-16576960D02*
X15260539Y-16567436D01*
X15260539Y-16567436D02*
X15251015Y-16548388D01*
X15251015Y-16548388D02*
X15251015Y-16491246D01*
X15251015Y-16491246D02*
X15260539Y-16472198D01*
X15260539Y-16472198D02*
X15270063Y-16462674D01*
X15270063Y-16462674D02*
X15289110Y-16453150D01*
X15289110Y-16453150D02*
X15317682Y-16453150D01*
X15317682Y-16453150D02*
X15336730Y-16462674D01*
X15336730Y-16462674D02*
X15346253Y-16472198D01*
X15346253Y-16472198D02*
X15355777Y-16491246D01*
X15355777Y-16491246D02*
X15355777Y-16548388D01*
X15355777Y-16548388D02*
X15346253Y-16567436D01*
X15346253Y-16567436D02*
X15336730Y-16576960D01*
X15336730Y-16576960D02*
X15317682Y-16586484D01*
X15317682Y-16586484D02*
X15289110Y-16586484D01*
X15470063Y-16586484D02*
X15451015Y-16576960D01*
X15451015Y-16576960D02*
X15441491Y-16557912D01*
X15441491Y-16557912D02*
X15441491Y-16386484D01*
X15622444Y-16576960D02*
X15603396Y-16586484D01*
X15603396Y-16586484D02*
X15565301Y-16586484D01*
X15565301Y-16586484D02*
X15546253Y-16576960D01*
X15546253Y-16576960D02*
X15536730Y-16557912D01*
X15536730Y-16557912D02*
X15536730Y-16481722D01*
X15536730Y-16481722D02*
X15546253Y-16462674D01*
X15546253Y-16462674D02*
X15565301Y-16453150D01*
X15565301Y-16453150D02*
X15603396Y-16453150D01*
X15603396Y-16453150D02*
X15622444Y-16462674D01*
X15622444Y-16462674D02*
X15631968Y-16481722D01*
X15631968Y-16481722D02*
X15631968Y-16500769D01*
X15631968Y-16500769D02*
X15536730Y-16519817D01*
X15708158Y-16576960D02*
X15727206Y-16586484D01*
X15727206Y-16586484D02*
X15765301Y-16586484D01*
X15765301Y-16586484D02*
X15784349Y-16576960D01*
X15784349Y-16576960D02*
X15793872Y-16557912D01*
X15793872Y-16557912D02*
X15793872Y-16548388D01*
X15793872Y-16548388D02*
X15784349Y-16529341D01*
X15784349Y-16529341D02*
X15765301Y-16519817D01*
X15765301Y-16519817D02*
X15736730Y-16519817D01*
X15736730Y-16519817D02*
X15717682Y-16510293D01*
X15717682Y-16510293D02*
X15708158Y-16491246D01*
X15708158Y-16491246D02*
X15708158Y-16481722D01*
X15708158Y-16481722D02*
X15717682Y-16462674D01*
X15717682Y-16462674D02*
X15736730Y-16453150D01*
X15736730Y-16453150D02*
X15765301Y-16453150D01*
X15765301Y-16453150D02*
X15784349Y-16462674D01*
X15860539Y-16662674D02*
X15870063Y-16653150D01*
X15870063Y-16653150D02*
X15889111Y-16624579D01*
X15889111Y-16624579D02*
X15898634Y-16605531D01*
X15898634Y-16605531D02*
X15908158Y-16576960D01*
X15908158Y-16576960D02*
X15917682Y-16529341D01*
X15917682Y-16529341D02*
X15917682Y-16491246D01*
X15917682Y-16491246D02*
X15908158Y-16443627D01*
X15908158Y-16443627D02*
X15898634Y-16415055D01*
X15898634Y-16415055D02*
X15889111Y-16396008D01*
X15889111Y-16396008D02*
X15870063Y-16367436D01*
X15870063Y-16367436D02*
X15860539Y-16357912D01*
X10695000Y-16685000D02*
X10895000Y-16885000D01*
X10895000Y-16685000D02*
X10695000Y-16885000D01*
X10795000Y-16685000D02*
X10795000Y-16885000D01*
X10695000Y-16785000D02*
X10895000Y-16785000D01*
X11241491Y-16743150D02*
X11241491Y-16876484D01*
X11193872Y-16666960D02*
X11146253Y-16809817D01*
X11146253Y-16809817D02*
X11270062Y-16809817D01*
X11346253Y-16857436D02*
X11355777Y-16866960D01*
X11355777Y-16866960D02*
X11346253Y-16876484D01*
X11346253Y-16876484D02*
X11336729Y-16866960D01*
X11336729Y-16866960D02*
X11346253Y-16857436D01*
X11346253Y-16857436D02*
X11346253Y-16876484D01*
X11479586Y-16676484D02*
X11498634Y-16676484D01*
X11498634Y-16676484D02*
X11517682Y-16686008D01*
X11517682Y-16686008D02*
X11527205Y-16695531D01*
X11527205Y-16695531D02*
X11536729Y-16714579D01*
X11536729Y-16714579D02*
X11546253Y-16752674D01*
X11546253Y-16752674D02*
X11546253Y-16800293D01*
X11546253Y-16800293D02*
X11536729Y-16838389D01*
X11536729Y-16838389D02*
X11527205Y-16857436D01*
X11527205Y-16857436D02*
X11517682Y-16866960D01*
X11517682Y-16866960D02*
X11498634Y-16876484D01*
X11498634Y-16876484D02*
X11479586Y-16876484D01*
X11479586Y-16876484D02*
X11460539Y-16866960D01*
X11460539Y-16866960D02*
X11451015Y-16857436D01*
X11451015Y-16857436D02*
X11441491Y-16838389D01*
X11441491Y-16838389D02*
X11431967Y-16800293D01*
X11431967Y-16800293D02*
X11431967Y-16752674D01*
X11431967Y-16752674D02*
X11441491Y-16714579D01*
X11441491Y-16714579D02*
X11451015Y-16695531D01*
X11451015Y-16695531D02*
X11460539Y-16686008D01*
X11460539Y-16686008D02*
X11479586Y-16676484D01*
X11670062Y-16676484D02*
X11689110Y-16676484D01*
X11689110Y-16676484D02*
X11708158Y-16686008D01*
X11708158Y-16686008D02*
X11717682Y-16695531D01*
X11717682Y-16695531D02*
X11727205Y-16714579D01*
X11727205Y-16714579D02*
X11736729Y-16752674D01*
X11736729Y-16752674D02*
X11736729Y-16800293D01*
X11736729Y-16800293D02*
X11727205Y-16838389D01*
X11727205Y-16838389D02*
X11717682Y-16857436D01*
X11717682Y-16857436D02*
X11708158Y-16866960D01*
X11708158Y-16866960D02*
X11689110Y-16876484D01*
X11689110Y-16876484D02*
X11670062Y-16876484D01*
X11670062Y-16876484D02*
X11651015Y-16866960D01*
X11651015Y-16866960D02*
X11641491Y-16857436D01*
X11641491Y-16857436D02*
X11631967Y-16838389D01*
X11631967Y-16838389D02*
X11622443Y-16800293D01*
X11622443Y-16800293D02*
X11622443Y-16752674D01*
X11622443Y-16752674D02*
X11631967Y-16714579D01*
X11631967Y-16714579D02*
X11641491Y-16695531D01*
X11641491Y-16695531D02*
X11651015Y-16686008D01*
X11651015Y-16686008D02*
X11670062Y-16676484D01*
X11860539Y-16676484D02*
X11879586Y-16676484D01*
X11879586Y-16676484D02*
X11898634Y-16686008D01*
X11898634Y-16686008D02*
X11908158Y-16695531D01*
X11908158Y-16695531D02*
X11917682Y-16714579D01*
X11917682Y-16714579D02*
X11927205Y-16752674D01*
X11927205Y-16752674D02*
X11927205Y-16800293D01*
X11927205Y-16800293D02*
X11917682Y-16838389D01*
X11917682Y-16838389D02*
X11908158Y-16857436D01*
X11908158Y-16857436D02*
X11898634Y-16866960D01*
X11898634Y-16866960D02*
X11879586Y-16876484D01*
X11879586Y-16876484D02*
X11860539Y-16876484D01*
X11860539Y-16876484D02*
X11841491Y-16866960D01*
X11841491Y-16866960D02*
X11831967Y-16857436D01*
X11831967Y-16857436D02*
X11822443Y-16838389D01*
X11822443Y-16838389D02*
X11812920Y-16800293D01*
X11812920Y-16800293D02*
X11812920Y-16752674D01*
X11812920Y-16752674D02*
X11822443Y-16714579D01*
X11822443Y-16714579D02*
X11831967Y-16695531D01*
X11831967Y-16695531D02*
X11841491Y-16686008D01*
X11841491Y-16686008D02*
X11860539Y-16676484D01*
X12012920Y-16876484D02*
X12012920Y-16743150D01*
X12012920Y-16762198D02*
X12022443Y-16752674D01*
X12022443Y-16752674D02*
X12041491Y-16743150D01*
X12041491Y-16743150D02*
X12070063Y-16743150D01*
X12070063Y-16743150D02*
X12089110Y-16752674D01*
X12089110Y-16752674D02*
X12098634Y-16771722D01*
X12098634Y-16771722D02*
X12098634Y-16876484D01*
X12098634Y-16771722D02*
X12108158Y-16752674D01*
X12108158Y-16752674D02*
X12127205Y-16743150D01*
X12127205Y-16743150D02*
X12155777Y-16743150D01*
X12155777Y-16743150D02*
X12174824Y-16752674D01*
X12174824Y-16752674D02*
X12184348Y-16771722D01*
X12184348Y-16771722D02*
X12184348Y-16876484D01*
X12279586Y-16876484D02*
X12279586Y-16743150D01*
X12279586Y-16762198D02*
X12289110Y-16752674D01*
X12289110Y-16752674D02*
X12308158Y-16743150D01*
X12308158Y-16743150D02*
X12336729Y-16743150D01*
X12336729Y-16743150D02*
X12355777Y-16752674D01*
X12355777Y-16752674D02*
X12365301Y-16771722D01*
X12365301Y-16771722D02*
X12365301Y-16876484D01*
X12365301Y-16771722D02*
X12374824Y-16752674D01*
X12374824Y-16752674D02*
X12393872Y-16743150D01*
X12393872Y-16743150D02*
X12422443Y-16743150D01*
X12422443Y-16743150D02*
X12441491Y-16752674D01*
X12441491Y-16752674D02*
X12451015Y-16771722D01*
X12451015Y-16771722D02*
X12451015Y-16876484D01*
X12841491Y-16666960D02*
X12670063Y-16924103D01*
X13098634Y-16676484D02*
X13117682Y-16676484D01*
X13117682Y-16676484D02*
X13136729Y-16686008D01*
X13136729Y-16686008D02*
X13146253Y-16695531D01*
X13146253Y-16695531D02*
X13155777Y-16714579D01*
X13155777Y-16714579D02*
X13165301Y-16752674D01*
X13165301Y-16752674D02*
X13165301Y-16800293D01*
X13165301Y-16800293D02*
X13155777Y-16838389D01*
X13155777Y-16838389D02*
X13146253Y-16857436D01*
X13146253Y-16857436D02*
X13136729Y-16866960D01*
X13136729Y-16866960D02*
X13117682Y-16876484D01*
X13117682Y-16876484D02*
X13098634Y-16876484D01*
X13098634Y-16876484D02*
X13079586Y-16866960D01*
X13079586Y-16866960D02*
X13070063Y-16857436D01*
X13070063Y-16857436D02*
X13060539Y-16838389D01*
X13060539Y-16838389D02*
X13051015Y-16800293D01*
X13051015Y-16800293D02*
X13051015Y-16752674D01*
X13051015Y-16752674D02*
X13060539Y-16714579D01*
X13060539Y-16714579D02*
X13070063Y-16695531D01*
X13070063Y-16695531D02*
X13079586Y-16686008D01*
X13079586Y-16686008D02*
X13098634Y-16676484D01*
X13251015Y-16857436D02*
X13260539Y-16866960D01*
X13260539Y-16866960D02*
X13251015Y-16876484D01*
X13251015Y-16876484D02*
X13241491Y-16866960D01*
X13241491Y-16866960D02*
X13251015Y-16857436D01*
X13251015Y-16857436D02*
X13251015Y-16876484D01*
X13451015Y-16876484D02*
X13336729Y-16876484D01*
X13393872Y-16876484D02*
X13393872Y-16676484D01*
X13393872Y-16676484D02*
X13374825Y-16705055D01*
X13374825Y-16705055D02*
X13355777Y-16724103D01*
X13355777Y-16724103D02*
X13336729Y-16733627D01*
X13631967Y-16676484D02*
X13536729Y-16676484D01*
X13536729Y-16676484D02*
X13527206Y-16771722D01*
X13527206Y-16771722D02*
X13536729Y-16762198D01*
X13536729Y-16762198D02*
X13555777Y-16752674D01*
X13555777Y-16752674D02*
X13603396Y-16752674D01*
X13603396Y-16752674D02*
X13622444Y-16762198D01*
X13622444Y-16762198D02*
X13631967Y-16771722D01*
X13631967Y-16771722D02*
X13641491Y-16790770D01*
X13641491Y-16790770D02*
X13641491Y-16838389D01*
X13641491Y-16838389D02*
X13631967Y-16857436D01*
X13631967Y-16857436D02*
X13622444Y-16866960D01*
X13622444Y-16866960D02*
X13603396Y-16876484D01*
X13603396Y-16876484D02*
X13555777Y-16876484D01*
X13555777Y-16876484D02*
X13536729Y-16866960D01*
X13536729Y-16866960D02*
X13527206Y-16857436D01*
X13708158Y-16676484D02*
X13841491Y-16676484D01*
X13841491Y-16676484D02*
X13755777Y-16876484D01*
X14012920Y-16676484D02*
X13917682Y-16676484D01*
X13917682Y-16676484D02*
X13908158Y-16771722D01*
X13908158Y-16771722D02*
X13917682Y-16762198D01*
X13917682Y-16762198D02*
X13936729Y-16752674D01*
X13936729Y-16752674D02*
X13984348Y-16752674D01*
X13984348Y-16752674D02*
X14003396Y-16762198D01*
X14003396Y-16762198D02*
X14012920Y-16771722D01*
X14012920Y-16771722D02*
X14022444Y-16790770D01*
X14022444Y-16790770D02*
X14022444Y-16838389D01*
X14022444Y-16838389D02*
X14012920Y-16857436D01*
X14012920Y-16857436D02*
X14003396Y-16866960D01*
X14003396Y-16866960D02*
X13984348Y-16876484D01*
X13984348Y-16876484D02*
X13936729Y-16876484D01*
X13936729Y-16876484D02*
X13917682Y-16866960D01*
X13917682Y-16866960D02*
X13908158Y-16857436D01*
X14098634Y-16676484D02*
X14098634Y-16714579D01*
X14174825Y-16676484D02*
X14174825Y-16714579D01*
X14470063Y-16952674D02*
X14460539Y-16943150D01*
X14460539Y-16943150D02*
X14441491Y-16914579D01*
X14441491Y-16914579D02*
X14431968Y-16895531D01*
X14431968Y-16895531D02*
X14422444Y-16866960D01*
X14422444Y-16866960D02*
X14412920Y-16819341D01*
X14412920Y-16819341D02*
X14412920Y-16781246D01*
X14412920Y-16781246D02*
X14422444Y-16733627D01*
X14422444Y-16733627D02*
X14431968Y-16705055D01*
X14431968Y-16705055D02*
X14441491Y-16686008D01*
X14441491Y-16686008D02*
X14460539Y-16657436D01*
X14460539Y-16657436D02*
X14470063Y-16647912D01*
X14651015Y-16876484D02*
X14536729Y-16876484D01*
X14593872Y-16876484D02*
X14593872Y-16676484D01*
X14593872Y-16676484D02*
X14574825Y-16705055D01*
X14574825Y-16705055D02*
X14555777Y-16724103D01*
X14555777Y-16724103D02*
X14536729Y-16733627D01*
X14889110Y-16876484D02*
X14889110Y-16676484D01*
X14974825Y-16876484D02*
X14974825Y-16771722D01*
X14974825Y-16771722D02*
X14965301Y-16752674D01*
X14965301Y-16752674D02*
X14946253Y-16743150D01*
X14946253Y-16743150D02*
X14917682Y-16743150D01*
X14917682Y-16743150D02*
X14898634Y-16752674D01*
X14898634Y-16752674D02*
X14889110Y-16762198D01*
X15098634Y-16876484D02*
X15079587Y-16866960D01*
X15079587Y-16866960D02*
X15070063Y-16857436D01*
X15070063Y-16857436D02*
X15060539Y-16838389D01*
X15060539Y-16838389D02*
X15060539Y-16781246D01*
X15060539Y-16781246D02*
X15070063Y-16762198D01*
X15070063Y-16762198D02*
X15079587Y-16752674D01*
X15079587Y-16752674D02*
X15098634Y-16743150D01*
X15098634Y-16743150D02*
X15127206Y-16743150D01*
X15127206Y-16743150D02*
X15146253Y-16752674D01*
X15146253Y-16752674D02*
X15155777Y-16762198D01*
X15155777Y-16762198D02*
X15165301Y-16781246D01*
X15165301Y-16781246D02*
X15165301Y-16838389D01*
X15165301Y-16838389D02*
X15155777Y-16857436D01*
X15155777Y-16857436D02*
X15146253Y-16866960D01*
X15146253Y-16866960D02*
X15127206Y-16876484D01*
X15127206Y-16876484D02*
X15098634Y-16876484D01*
X15279587Y-16876484D02*
X15260539Y-16866960D01*
X15260539Y-16866960D02*
X15251015Y-16847912D01*
X15251015Y-16847912D02*
X15251015Y-16676484D01*
X15431968Y-16866960D02*
X15412920Y-16876484D01*
X15412920Y-16876484D02*
X15374825Y-16876484D01*
X15374825Y-16876484D02*
X15355777Y-16866960D01*
X15355777Y-16866960D02*
X15346253Y-16847912D01*
X15346253Y-16847912D02*
X15346253Y-16771722D01*
X15346253Y-16771722D02*
X15355777Y-16752674D01*
X15355777Y-16752674D02*
X15374825Y-16743150D01*
X15374825Y-16743150D02*
X15412920Y-16743150D01*
X15412920Y-16743150D02*
X15431968Y-16752674D01*
X15431968Y-16752674D02*
X15441491Y-16771722D01*
X15441491Y-16771722D02*
X15441491Y-16790770D01*
X15441491Y-16790770D02*
X15346253Y-16809817D01*
X15508158Y-16952674D02*
X15517682Y-16943150D01*
X15517682Y-16943150D02*
X15536730Y-16914579D01*
X15536730Y-16914579D02*
X15546253Y-16895531D01*
X15546253Y-16895531D02*
X15555777Y-16866960D01*
X15555777Y-16866960D02*
X15565301Y-16819341D01*
X15565301Y-16819341D02*
X15565301Y-16781246D01*
X15565301Y-16781246D02*
X15555777Y-16733627D01*
X15555777Y-16733627D02*
X15546253Y-16705055D01*
X15546253Y-16705055D02*
X15536730Y-16686008D01*
X15536730Y-16686008D02*
X15517682Y-16657436D01*
X15517682Y-16657436D02*
X15508158Y-16647912D01*
X15870063Y-16952674D02*
X15860539Y-16943150D01*
X15860539Y-16943150D02*
X15841491Y-16914579D01*
X15841491Y-16914579D02*
X15831968Y-16895531D01*
X15831968Y-16895531D02*
X15822444Y-16866960D01*
X15822444Y-16866960D02*
X15812920Y-16819341D01*
X15812920Y-16819341D02*
X15812920Y-16781246D01*
X15812920Y-16781246D02*
X15822444Y-16733627D01*
X15822444Y-16733627D02*
X15831968Y-16705055D01*
X15831968Y-16705055D02*
X15841491Y-16686008D01*
X15841491Y-16686008D02*
X15860539Y-16657436D01*
X15860539Y-16657436D02*
X15870063Y-16647912D01*
X15946253Y-16743150D02*
X15946253Y-16876484D01*
X15946253Y-16762198D02*
X15955777Y-16752674D01*
X15955777Y-16752674D02*
X15974825Y-16743150D01*
X15974825Y-16743150D02*
X16003396Y-16743150D01*
X16003396Y-16743150D02*
X16022444Y-16752674D01*
X16022444Y-16752674D02*
X16031968Y-16771722D01*
X16031968Y-16771722D02*
X16031968Y-16876484D01*
X16155777Y-16876484D02*
X16136730Y-16866960D01*
X16136730Y-16866960D02*
X16127206Y-16857436D01*
X16127206Y-16857436D02*
X16117682Y-16838389D01*
X16117682Y-16838389D02*
X16117682Y-16781246D01*
X16117682Y-16781246D02*
X16127206Y-16762198D01*
X16127206Y-16762198D02*
X16136730Y-16752674D01*
X16136730Y-16752674D02*
X16155777Y-16743150D01*
X16155777Y-16743150D02*
X16184349Y-16743150D01*
X16184349Y-16743150D02*
X16203396Y-16752674D01*
X16203396Y-16752674D02*
X16212920Y-16762198D01*
X16212920Y-16762198D02*
X16222444Y-16781246D01*
X16222444Y-16781246D02*
X16222444Y-16838389D01*
X16222444Y-16838389D02*
X16212920Y-16857436D01*
X16212920Y-16857436D02*
X16203396Y-16866960D01*
X16203396Y-16866960D02*
X16184349Y-16876484D01*
X16184349Y-16876484D02*
X16155777Y-16876484D01*
X16279587Y-16743150D02*
X16355777Y-16743150D01*
X16308158Y-16676484D02*
X16308158Y-16847912D01*
X16308158Y-16847912D02*
X16317682Y-16866960D01*
X16317682Y-16866960D02*
X16336730Y-16876484D01*
X16336730Y-16876484D02*
X16355777Y-16876484D01*
X16574825Y-16743150D02*
X16574825Y-16943150D01*
X16574825Y-16752674D02*
X16593872Y-16743150D01*
X16593872Y-16743150D02*
X16631968Y-16743150D01*
X16631968Y-16743150D02*
X16651015Y-16752674D01*
X16651015Y-16752674D02*
X16660539Y-16762198D01*
X16660539Y-16762198D02*
X16670063Y-16781246D01*
X16670063Y-16781246D02*
X16670063Y-16838389D01*
X16670063Y-16838389D02*
X16660539Y-16857436D01*
X16660539Y-16857436D02*
X16651015Y-16866960D01*
X16651015Y-16866960D02*
X16631968Y-16876484D01*
X16631968Y-16876484D02*
X16593872Y-16876484D01*
X16593872Y-16876484D02*
X16574825Y-16866960D01*
X16784349Y-16876484D02*
X16765301Y-16866960D01*
X16765301Y-16866960D02*
X16755777Y-16847912D01*
X16755777Y-16847912D02*
X16755777Y-16676484D01*
X16946254Y-16876484D02*
X16946254Y-16771722D01*
X16946254Y-16771722D02*
X16936730Y-16752674D01*
X16936730Y-16752674D02*
X16917682Y-16743150D01*
X16917682Y-16743150D02*
X16879587Y-16743150D01*
X16879587Y-16743150D02*
X16860539Y-16752674D01*
X16946254Y-16866960D02*
X16927206Y-16876484D01*
X16927206Y-16876484D02*
X16879587Y-16876484D01*
X16879587Y-16876484D02*
X16860539Y-16866960D01*
X16860539Y-16866960D02*
X16851015Y-16847912D01*
X16851015Y-16847912D02*
X16851015Y-16828865D01*
X16851015Y-16828865D02*
X16860539Y-16809817D01*
X16860539Y-16809817D02*
X16879587Y-16800293D01*
X16879587Y-16800293D02*
X16927206Y-16800293D01*
X16927206Y-16800293D02*
X16946254Y-16790770D01*
X17012920Y-16743150D02*
X17089111Y-16743150D01*
X17041492Y-16676484D02*
X17041492Y-16847912D01*
X17041492Y-16847912D02*
X17051015Y-16866960D01*
X17051015Y-16866960D02*
X17070063Y-16876484D01*
X17070063Y-16876484D02*
X17089111Y-16876484D01*
X17231968Y-16866960D02*
X17212920Y-16876484D01*
X17212920Y-16876484D02*
X17174825Y-16876484D01*
X17174825Y-16876484D02*
X17155777Y-16866960D01*
X17155777Y-16866960D02*
X17146254Y-16847912D01*
X17146254Y-16847912D02*
X17146254Y-16771722D01*
X17146254Y-16771722D02*
X17155777Y-16752674D01*
X17155777Y-16752674D02*
X17174825Y-16743150D01*
X17174825Y-16743150D02*
X17212920Y-16743150D01*
X17212920Y-16743150D02*
X17231968Y-16752674D01*
X17231968Y-16752674D02*
X17241492Y-16771722D01*
X17241492Y-16771722D02*
X17241492Y-16790770D01*
X17241492Y-16790770D02*
X17146254Y-16809817D01*
X17412920Y-16876484D02*
X17412920Y-16676484D01*
X17412920Y-16866960D02*
X17393873Y-16876484D01*
X17393873Y-16876484D02*
X17355777Y-16876484D01*
X17355777Y-16876484D02*
X17336730Y-16866960D01*
X17336730Y-16866960D02*
X17327206Y-16857436D01*
X17327206Y-16857436D02*
X17317682Y-16838389D01*
X17317682Y-16838389D02*
X17317682Y-16781246D01*
X17317682Y-16781246D02*
X17327206Y-16762198D01*
X17327206Y-16762198D02*
X17336730Y-16752674D01*
X17336730Y-16752674D02*
X17355777Y-16743150D01*
X17355777Y-16743150D02*
X17393873Y-16743150D01*
X17393873Y-16743150D02*
X17412920Y-16752674D01*
X17489111Y-16952674D02*
X17498635Y-16943150D01*
X17498635Y-16943150D02*
X17517682Y-16914579D01*
X17517682Y-16914579D02*
X17527206Y-16895531D01*
X17527206Y-16895531D02*
X17536730Y-16866960D01*
X17536730Y-16866960D02*
X17546254Y-16819341D01*
X17546254Y-16819341D02*
X17546254Y-16781246D01*
X17546254Y-16781246D02*
X17536730Y-16733627D01*
X17536730Y-16733627D02*
X17527206Y-16705055D01*
X17527206Y-16705055D02*
X17517682Y-16686008D01*
X17517682Y-16686008D02*
X17498635Y-16657436D01*
X17498635Y-16657436D02*
X17489111Y-16647912D01*
M02*
