%TF.GenerationSoftware,KiCad,Pcbnew,7.0.9*%
%TF.CreationDate,2024-11-09T18:37:16+13:00*%
%TF.ProjectId,ADSR Envelope,41445352-2045-46e7-9665-6c6f70652e6b,rev?*%
%TF.SameCoordinates,Original*%
%TF.FileFunction,Soldermask,Bot*%
%TF.FilePolarity,Negative*%
%FSLAX46Y46*%
G04 Gerber Fmt 4.6, Leading zero omitted, Abs format (unit mm)*
G04 Created by KiCad (PCBNEW 7.0.9) date 2024-11-09 18:37:16*
%MOMM*%
%LPD*%
G01*
G04 APERTURE LIST*
G04 Aperture macros list*
%AMRoundRect*
0 Rectangle with rounded corners*
0 $1 Rounding radius*
0 $2 $3 $4 $5 $6 $7 $8 $9 X,Y pos of 4 corners*
0 Add a 4 corners polygon primitive as box body*
4,1,4,$2,$3,$4,$5,$6,$7,$8,$9,$2,$3,0*
0 Add four circle primitives for the rounded corners*
1,1,$1+$1,$2,$3*
1,1,$1+$1,$4,$5*
1,1,$1+$1,$6,$7*
1,1,$1+$1,$8,$9*
0 Add four rect primitives between the rounded corners*
20,1,$1+$1,$2,$3,$4,$5,0*
20,1,$1+$1,$4,$5,$6,$7,0*
20,1,$1+$1,$6,$7,$8,$9,0*
20,1,$1+$1,$8,$9,$2,$3,0*%
G04 Aperture macros list end*
%ADD10R,1.750000X1.750000*%
%ADD11C,1.750000*%
%ADD12C,2.700000*%
%ADD13O,2.200000X1.200000*%
%ADD14O,1.200000X2.200000*%
%ADD15C,4.000000*%
%ADD16RoundRect,0.237500X0.237500X-0.250000X0.237500X0.250000X-0.237500X0.250000X-0.237500X-0.250000X0*%
%ADD17RoundRect,0.237500X0.250000X0.237500X-0.250000X0.237500X-0.250000X-0.237500X0.250000X-0.237500X0*%
%ADD18R,0.450000X0.700000*%
%ADD19RoundRect,0.237500X-0.237500X0.300000X-0.237500X-0.300000X0.237500X-0.300000X0.237500X0.300000X0*%
%ADD20R,1.600000X1.000000*%
%ADD21RoundRect,0.237500X0.237500X-0.300000X0.237500X0.300000X-0.237500X0.300000X-0.237500X-0.300000X0*%
%ADD22RoundRect,0.237500X-0.250000X-0.237500X0.250000X-0.237500X0.250000X0.237500X-0.250000X0.237500X0*%
%ADD23RoundRect,0.150000X0.587500X0.150000X-0.587500X0.150000X-0.587500X-0.150000X0.587500X-0.150000X0*%
%ADD24RoundRect,0.150000X0.150000X-0.587500X0.150000X0.587500X-0.150000X0.587500X-0.150000X-0.587500X0*%
%ADD25RoundRect,0.237500X-0.237500X0.250000X-0.237500X-0.250000X0.237500X-0.250000X0.237500X0.250000X0*%
%ADD26RoundRect,0.250000X0.350000X0.450000X-0.350000X0.450000X-0.350000X-0.450000X0.350000X-0.450000X0*%
%ADD27R,0.700000X0.450000*%
%ADD28RoundRect,0.100000X0.100000X-0.637500X0.100000X0.637500X-0.100000X0.637500X-0.100000X-0.637500X0*%
%ADD29R,0.400000X1.100000*%
%ADD30RoundRect,0.250000X-0.450000X0.350000X-0.450000X-0.350000X0.450000X-0.350000X0.450000X0.350000X0*%
%ADD31RoundRect,0.237500X-0.287500X-0.237500X0.287500X-0.237500X0.287500X0.237500X-0.287500X0.237500X0*%
%ADD32RoundRect,0.237500X-0.300000X-0.237500X0.300000X-0.237500X0.300000X0.237500X-0.300000X0.237500X0*%
%ADD33RoundRect,0.250000X0.600000X0.600000X-0.600000X0.600000X-0.600000X-0.600000X0.600000X-0.600000X0*%
%ADD34C,1.700000*%
%ADD35RoundRect,0.075000X0.662500X0.075000X-0.662500X0.075000X-0.662500X-0.075000X0.662500X-0.075000X0*%
%ADD36RoundRect,0.075000X0.075000X0.662500X-0.075000X0.662500X-0.075000X-0.662500X0.075000X-0.662500X0*%
%ADD37R,1.200000X1.400000*%
%ADD38RoundRect,0.150000X-0.150000X0.587500X-0.150000X-0.587500X0.150000X-0.587500X0.150000X0.587500X0*%
%ADD39RoundRect,0.218750X0.256250X-0.218750X0.256250X0.218750X-0.256250X0.218750X-0.256250X-0.218750X0*%
%ADD40RoundRect,0.237500X0.300000X0.237500X-0.300000X0.237500X-0.300000X-0.237500X0.300000X-0.237500X0*%
%ADD41C,1.440000*%
%ADD42RoundRect,0.150000X-0.587500X-0.150000X0.587500X-0.150000X0.587500X0.150000X-0.587500X0.150000X0*%
%ADD43RoundRect,0.150000X0.825000X0.150000X-0.825000X0.150000X-0.825000X-0.150000X0.825000X-0.150000X0*%
%ADD44R,1.700000X1.700000*%
%ADD45O,1.700000X1.700000*%
%ADD46RoundRect,0.250000X0.350000X-0.850000X0.350000X0.850000X-0.350000X0.850000X-0.350000X-0.850000X0*%
%ADD47RoundRect,0.249997X2.650003X-2.950003X2.650003X2.950003X-2.650003X2.950003X-2.650003X-2.950003X0*%
%ADD48RoundRect,0.150000X-0.150000X0.825000X-0.150000X-0.825000X0.150000X-0.825000X0.150000X0.825000X0*%
%ADD49RoundRect,0.237500X0.237500X-0.287500X0.237500X0.287500X-0.237500X0.287500X-0.237500X-0.287500X0*%
G04 APERTURE END LIST*
D10*
%TO.C,RV9*%
X170250000Y-141020000D03*
D11*
X173750000Y-141020000D03*
X170250000Y-82520000D03*
D12*
X176200000Y-136870000D03*
X167800000Y-135670000D03*
X167800000Y-87870000D03*
X176200000Y-86670000D03*
%TD*%
D13*
%TO.C,J2*%
X117100000Y-67200000D03*
X117100000Y-75300000D03*
D14*
X121800000Y-69500000D03*
%TD*%
D10*
%TO.C,RV6*%
X115250000Y-141020000D03*
D11*
X118750000Y-141020000D03*
X115250000Y-82520000D03*
D12*
X121200000Y-136870000D03*
X112800000Y-135670000D03*
X112800000Y-87870000D03*
X121200000Y-86670000D03*
%TD*%
D10*
%TO.C,RV7*%
X133050000Y-140890000D03*
D11*
X136550000Y-140890000D03*
X133050000Y-82390000D03*
D12*
X139000000Y-136740000D03*
X130600000Y-135540000D03*
X130600000Y-87740000D03*
X139000000Y-86540000D03*
%TD*%
D13*
%TO.C,J1*%
X117100000Y-52200000D03*
X117100000Y-60300000D03*
D14*
X121800000Y-54500000D03*
%TD*%
D10*
%TO.C,RV8*%
X151450000Y-141020000D03*
D11*
X154950000Y-141020000D03*
X151450000Y-82520000D03*
D12*
X157400000Y-136870000D03*
X149000000Y-135670000D03*
X149000000Y-87870000D03*
X157400000Y-86670000D03*
%TD*%
D15*
%TO.C,REF\u002A\u002A*%
X162750000Y-129000000D03*
%TD*%
D16*
%TO.C,R34*%
X153700000Y-115225000D03*
X153700000Y-113400000D03*
%TD*%
D17*
%TO.C,R14*%
X129162500Y-69250000D03*
X127337500Y-69250000D03*
%TD*%
D18*
%TO.C,D2*%
X128700000Y-64750000D03*
X130000000Y-64750000D03*
X129350000Y-66750000D03*
%TD*%
D16*
%TO.C,R49*%
X111600000Y-98112500D03*
X111600000Y-96287500D03*
%TD*%
D18*
%TO.C,D4*%
X152700000Y-64750000D03*
X154000000Y-64750000D03*
X153350000Y-66750000D03*
%TD*%
D19*
%TO.C,C22*%
X128250000Y-79387500D03*
X128250000Y-81112500D03*
%TD*%
D20*
%TO.C,SW2*%
X136900000Y-104900000D03*
X136900000Y-107400000D03*
X136900000Y-109900000D03*
X139300000Y-104900000D03*
X139300000Y-107400000D03*
X139300000Y-109900000D03*
%TD*%
D16*
%TO.C,R48*%
X114400000Y-98112500D03*
X114400000Y-96287500D03*
%TD*%
D21*
%TO.C,C14*%
X135550000Y-124662500D03*
X135550000Y-122937500D03*
%TD*%
D22*
%TO.C,R45*%
X114287500Y-108600000D03*
X116112500Y-108600000D03*
%TD*%
D17*
%TO.C,R28*%
X130412500Y-62250000D03*
X128587500Y-62250000D03*
%TD*%
D16*
%TO.C,R6*%
X150500000Y-58832500D03*
X150500000Y-57007500D03*
%TD*%
D23*
%TO.C,Q4*%
X143125000Y-64800000D03*
X143125000Y-66700000D03*
X141250000Y-65750000D03*
%TD*%
D16*
%TO.C,R54*%
X125400000Y-98112500D03*
X125400000Y-96287500D03*
%TD*%
D19*
%TO.C,C12*%
X162000000Y-79887500D03*
X162000000Y-81612500D03*
%TD*%
D24*
%TO.C,Q7*%
X155750000Y-71437500D03*
X153850000Y-71437500D03*
X154800000Y-69562500D03*
%TD*%
D25*
%TO.C,R33*%
X160700000Y-119287500D03*
X160700000Y-121112500D03*
%TD*%
D21*
%TO.C,C9*%
X130300000Y-124662500D03*
X130300000Y-122937500D03*
%TD*%
D25*
%TO.C,R21*%
X136750000Y-69337500D03*
X136750000Y-71162500D03*
%TD*%
D21*
%TO.C,C23*%
X128250000Y-77362500D03*
X128250000Y-75637500D03*
%TD*%
D17*
%TO.C,R25*%
X130412500Y-58750000D03*
X128587500Y-58750000D03*
%TD*%
D16*
%TO.C,R43*%
X124600000Y-131912500D03*
X124600000Y-130087500D03*
%TD*%
D25*
%TO.C,R19*%
X134750000Y-69337500D03*
X134750000Y-71162500D03*
%TD*%
D17*
%TO.C,R8*%
X154412500Y-54500000D03*
X152587500Y-54500000D03*
%TD*%
D19*
%TO.C,C15*%
X136050000Y-117687500D03*
X136050000Y-119412500D03*
%TD*%
D21*
%TO.C,C16*%
X130550000Y-119412500D03*
X130550000Y-117687500D03*
%TD*%
%TO.C,C10*%
X128800000Y-124662500D03*
X128800000Y-122937500D03*
%TD*%
D16*
%TO.C,R51*%
X117000000Y-98112500D03*
X117000000Y-96287500D03*
%TD*%
D26*
%TO.C,R29*%
X156500000Y-101900000D03*
X154500000Y-101900000D03*
%TD*%
D25*
%TO.C,R20*%
X139000000Y-64837500D03*
X139000000Y-66662500D03*
%TD*%
D27*
%TO.C,D1*%
X148500000Y-57270000D03*
X148500000Y-58570000D03*
X146500000Y-57920000D03*
%TD*%
D28*
%TO.C,U12*%
X139200000Y-81362500D03*
X138550000Y-81362500D03*
X137900000Y-81362500D03*
X137250000Y-81362500D03*
X136600000Y-81362500D03*
X135950000Y-81362500D03*
X135300000Y-81362500D03*
X135300000Y-75637500D03*
X135950000Y-75637500D03*
X136600000Y-75637500D03*
X137250000Y-75637500D03*
X137900000Y-75637500D03*
X138550000Y-75637500D03*
X139200000Y-75637500D03*
%TD*%
D29*
%TO.C,U9*%
X116725000Y-105750000D03*
X116075000Y-105750000D03*
X115425000Y-105750000D03*
X114775000Y-105750000D03*
X114775000Y-101450000D03*
X115425000Y-101450000D03*
X116075000Y-101450000D03*
X116725000Y-101450000D03*
%TD*%
D16*
%TO.C,R50*%
X119800000Y-98112500D03*
X119800000Y-96287500D03*
%TD*%
D17*
%TO.C,R47*%
X127012500Y-108100000D03*
X125187500Y-108100000D03*
%TD*%
D16*
%TO.C,R23*%
X162000000Y-66912500D03*
X162000000Y-65087500D03*
%TD*%
D29*
%TO.C,U10*%
X127575000Y-105750000D03*
X126925000Y-105750000D03*
X126275000Y-105750000D03*
X125625000Y-105750000D03*
X125625000Y-101450000D03*
X126275000Y-101450000D03*
X126925000Y-101450000D03*
X127575000Y-101450000D03*
%TD*%
D21*
%TO.C,C17*%
X154500000Y-128662500D03*
X154500000Y-126937500D03*
%TD*%
D30*
%TO.C,R30*%
X132600000Y-107400000D03*
X132600000Y-109400000D03*
%TD*%
D16*
%TO.C,R39*%
X148900000Y-125712500D03*
X148900000Y-123887500D03*
%TD*%
D21*
%TO.C,C25*%
X141200000Y-77862500D03*
X141200000Y-76137500D03*
%TD*%
D31*
%TO.C,D6*%
X154625000Y-103900000D03*
X156375000Y-103900000D03*
%TD*%
D16*
%TO.C,R32*%
X157300000Y-115200000D03*
X157300000Y-113375000D03*
%TD*%
D25*
%TO.C,R38*%
X151700000Y-130600000D03*
X151700000Y-132425000D03*
%TD*%
D32*
%TO.C,C2*%
X128637500Y-55500000D03*
X130362500Y-55500000D03*
%TD*%
D17*
%TO.C,R12*%
X150412500Y-61750000D03*
X148587500Y-61750000D03*
%TD*%
D33*
%TO.C,J3*%
X174790000Y-61920000D03*
D34*
X172250000Y-61920000D03*
X174790000Y-64460000D03*
X172250000Y-64460000D03*
X174790000Y-67000000D03*
X172250000Y-67000000D03*
X174790000Y-69540000D03*
X172250000Y-69540000D03*
X174790000Y-72080000D03*
X172250000Y-72080000D03*
%TD*%
D35*
%TO.C,U2*%
X125162500Y-119750000D03*
X125162500Y-120250000D03*
X125162500Y-120750000D03*
X125162500Y-121250000D03*
X125162500Y-121750000D03*
X125162500Y-122250000D03*
X125162500Y-122750000D03*
X125162500Y-123250000D03*
X125162500Y-123750000D03*
X125162500Y-124250000D03*
X125162500Y-124750000D03*
X125162500Y-125250000D03*
D36*
X123750000Y-126662500D03*
X123250000Y-126662500D03*
X122750000Y-126662500D03*
X122250000Y-126662500D03*
X121750000Y-126662500D03*
X121250000Y-126662500D03*
X120750000Y-126662500D03*
X120250000Y-126662500D03*
X119750000Y-126662500D03*
X119250000Y-126662500D03*
X118750000Y-126662500D03*
X118250000Y-126662500D03*
D35*
X116837500Y-125250000D03*
X116837500Y-124750000D03*
X116837500Y-124250000D03*
X116837500Y-123750000D03*
X116837500Y-123250000D03*
X116837500Y-122750000D03*
X116837500Y-122250000D03*
X116837500Y-121750000D03*
X116837500Y-121250000D03*
X116837500Y-120750000D03*
X116837500Y-120250000D03*
X116837500Y-119750000D03*
D36*
X118250000Y-118337500D03*
X118750000Y-118337500D03*
X119250000Y-118337500D03*
X119750000Y-118337500D03*
X120250000Y-118337500D03*
X120750000Y-118337500D03*
X121250000Y-118337500D03*
X121750000Y-118337500D03*
X122250000Y-118337500D03*
X122750000Y-118337500D03*
X123250000Y-118337500D03*
X123750000Y-118337500D03*
%TD*%
D21*
%TO.C,C3*%
X132250000Y-58862500D03*
X132250000Y-57137500D03*
%TD*%
D25*
%TO.C,R40*%
X155300000Y-130600000D03*
X155300000Y-132425000D03*
%TD*%
D19*
%TO.C,C24*%
X141200000Y-79611310D03*
X141200000Y-81336310D03*
%TD*%
D25*
%TO.C,R36*%
X148900000Y-118287500D03*
X148900000Y-120112500D03*
%TD*%
D16*
%TO.C,R52*%
X130800000Y-98112500D03*
X130800000Y-96287500D03*
%TD*%
D25*
%TO.C,R2*%
X143950000Y-52757500D03*
X143950000Y-54582500D03*
%TD*%
D17*
%TO.C,R46*%
X127012500Y-110300000D03*
X125187500Y-110300000D03*
%TD*%
D37*
%TO.C,Y1*%
X134150000Y-117450000D03*
X134150000Y-119650000D03*
X132450000Y-119650000D03*
X132450000Y-117450000D03*
%TD*%
D16*
%TO.C,R55*%
X122600000Y-98112500D03*
X122600000Y-96287500D03*
%TD*%
D28*
%TO.C,U5*%
X126200000Y-81362500D03*
X125550000Y-81362500D03*
X124900000Y-81362500D03*
X124250000Y-81362500D03*
X123600000Y-81362500D03*
X122950000Y-81362500D03*
X122300000Y-81362500D03*
X122300000Y-75637500D03*
X122950000Y-75637500D03*
X123600000Y-75637500D03*
X124250000Y-75637500D03*
X124900000Y-75637500D03*
X125550000Y-75637500D03*
X126200000Y-75637500D03*
%TD*%
D38*
%TO.C,Q1*%
X158050000Y-69562500D03*
X159950000Y-69562500D03*
X159000000Y-71437500D03*
%TD*%
D22*
%TO.C,R22*%
X145837500Y-71500000D03*
X147662500Y-71500000D03*
%TD*%
D39*
%TO.C,FB1*%
X132050000Y-124587500D03*
X132050000Y-123012500D03*
%TD*%
D40*
%TO.C,C7*%
X125262500Y-116500000D03*
X123537500Y-116500000D03*
%TD*%
D16*
%TO.C,R9*%
X143975000Y-58725000D03*
X143975000Y-56900000D03*
%TD*%
D25*
%TO.C,R17*%
X145500000Y-64875000D03*
X145500000Y-66700000D03*
%TD*%
D32*
%TO.C,C6*%
X125800000Y-118200000D03*
X127525000Y-118200000D03*
%TD*%
D16*
%TO.C,R42*%
X160700000Y-124712500D03*
X160700000Y-122887500D03*
%TD*%
D22*
%TO.C,R44*%
X114287500Y-110600000D03*
X116112500Y-110600000D03*
%TD*%
D18*
%TO.C,D5*%
X158850000Y-65000000D03*
X160150000Y-65000000D03*
X159500000Y-67000000D03*
%TD*%
D32*
%TO.C,C4*%
X128637500Y-53750000D03*
X130362500Y-53750000D03*
%TD*%
D40*
%TO.C,C8*%
X116362500Y-127300000D03*
X114637500Y-127300000D03*
%TD*%
%TO.C,C13*%
X156362500Y-105500000D03*
X154637500Y-105500000D03*
%TD*%
D41*
%TO.C,RV5*%
X131000000Y-50750000D03*
X128460000Y-48210000D03*
X125920000Y-50750000D03*
%TD*%
D42*
%TO.C,Q2*%
X158375000Y-59700000D03*
X158375000Y-57800000D03*
X160250000Y-58750000D03*
%TD*%
D18*
%TO.C,D3*%
X149600000Y-64750000D03*
X150900000Y-64750000D03*
X150250000Y-66750000D03*
%TD*%
D43*
%TO.C,U1*%
X139950000Y-50400000D03*
X139950000Y-51670000D03*
X139950000Y-52940000D03*
X139950000Y-54210000D03*
X139950000Y-55480000D03*
X139950000Y-56750000D03*
X139950000Y-58020000D03*
X135000000Y-58020000D03*
X135000000Y-56750000D03*
X135000000Y-55480000D03*
X135000000Y-54210000D03*
X135000000Y-52940000D03*
X135000000Y-51670000D03*
X135000000Y-50400000D03*
%TD*%
D17*
%TO.C,R26*%
X130412500Y-57250000D03*
X128587500Y-57250000D03*
%TD*%
D28*
%TO.C,U13*%
X146950000Y-81362500D03*
X146300000Y-81362500D03*
X145650000Y-81362500D03*
X145000000Y-81362500D03*
X144350000Y-81362500D03*
X143700000Y-81362500D03*
X143050000Y-81362500D03*
X143050000Y-75637500D03*
X143700000Y-75637500D03*
X144350000Y-75637500D03*
X145000000Y-75637500D03*
X145650000Y-75637500D03*
X146300000Y-75637500D03*
X146950000Y-75637500D03*
%TD*%
D25*
%TO.C,R24*%
X162000000Y-61337500D03*
X162000000Y-63162500D03*
%TD*%
%TO.C,R41*%
X157100000Y-130600000D03*
X157100000Y-132425000D03*
%TD*%
D17*
%TO.C,R13*%
X145812500Y-61750000D03*
X143987500Y-61750000D03*
%TD*%
%TO.C,R27*%
X130412500Y-60500000D03*
X128587500Y-60500000D03*
%TD*%
D44*
%TO.C,J4*%
X111125000Y-114725000D03*
D45*
X111125000Y-112185000D03*
X111125000Y-109645000D03*
%TD*%
D38*
%TO.C,Q3*%
X131000000Y-69500000D03*
X132900000Y-69500000D03*
X131950000Y-71375000D03*
%TD*%
D16*
%TO.C,R31*%
X155500000Y-115225000D03*
X155500000Y-113400000D03*
%TD*%
D17*
%TO.C,R11*%
X154412500Y-61750000D03*
X152587500Y-61750000D03*
%TD*%
D38*
%TO.C,Q6*%
X149550000Y-69562500D03*
X151450000Y-69562500D03*
X150500000Y-71437500D03*
%TD*%
D28*
%TO.C,U3*%
X159950000Y-81612500D03*
X159300000Y-81612500D03*
X158650000Y-81612500D03*
X158000000Y-81612500D03*
X157350000Y-81612500D03*
X156700000Y-81612500D03*
X156050000Y-81612500D03*
X156050000Y-75887500D03*
X156700000Y-75887500D03*
X157350000Y-75887500D03*
X158000000Y-75887500D03*
X158650000Y-75887500D03*
X159300000Y-75887500D03*
X159950000Y-75887500D03*
%TD*%
D22*
%TO.C,R1*%
X144037500Y-50670000D03*
X145862500Y-50670000D03*
%TD*%
D21*
%TO.C,C21*%
X162000000Y-77862500D03*
X162000000Y-76137500D03*
%TD*%
D46*
%TO.C,U11*%
X164380000Y-105500000D03*
D47*
X162100000Y-99200000D03*
D46*
X159820000Y-105500000D03*
%TD*%
D21*
%TO.C,C27*%
X149200000Y-77862500D03*
X149200000Y-76137500D03*
%TD*%
D48*
%TO.C,U4*%
X150690000Y-119525000D03*
X151960000Y-119525000D03*
X153230000Y-119525000D03*
X154500000Y-119525000D03*
X155770000Y-119525000D03*
X157040000Y-119525000D03*
X158310000Y-119525000D03*
X158310000Y-124475000D03*
X157040000Y-124475000D03*
X155770000Y-124475000D03*
X154500000Y-124475000D03*
X153230000Y-124475000D03*
X151960000Y-124475000D03*
X150690000Y-124475000D03*
%TD*%
D16*
%TO.C,R35*%
X151900000Y-115225000D03*
X151900000Y-113400000D03*
%TD*%
D38*
%TO.C,Q5*%
X134800000Y-65062500D03*
X136700000Y-65062500D03*
X135750000Y-66937500D03*
%TD*%
D40*
%TO.C,C5*%
X125275000Y-114800000D03*
X123550000Y-114800000D03*
%TD*%
D22*
%TO.C,R5*%
X148587500Y-52750000D03*
X150412500Y-52750000D03*
%TD*%
D16*
%TO.C,R53*%
X128200000Y-98112500D03*
X128200000Y-96287500D03*
%TD*%
D25*
%TO.C,R7*%
X162000000Y-69425000D03*
X162000000Y-71250000D03*
%TD*%
D19*
%TO.C,C11*%
X133800000Y-122937500D03*
X133800000Y-124662500D03*
%TD*%
D25*
%TO.C,R37*%
X153500000Y-130587500D03*
X153500000Y-132412500D03*
%TD*%
%TO.C,R15*%
X147500000Y-64887500D03*
X147500000Y-66712500D03*
%TD*%
%TO.C,R18*%
X132500000Y-64837500D03*
X132500000Y-66662500D03*
%TD*%
D19*
%TO.C,C26*%
X149200000Y-79637500D03*
X149200000Y-81362500D03*
%TD*%
D22*
%TO.C,R10*%
X156600000Y-54500000D03*
X158425000Y-54500000D03*
%TD*%
%TO.C,R4*%
X156587500Y-52750000D03*
X158412500Y-52750000D03*
%TD*%
D16*
%TO.C,R3*%
X145950000Y-54582500D03*
X145950000Y-52757500D03*
%TD*%
D17*
%TO.C,R16*%
X129162500Y-71250000D03*
X127337500Y-71250000D03*
%TD*%
D49*
%TO.C,D7*%
X122700000Y-131875000D03*
X122700000Y-130125000D03*
%TD*%
D32*
%TO.C,C1*%
X148637500Y-54500000D03*
X150362500Y-54500000D03*
%TD*%
M02*
