%TF.GenerationSoftware,KiCad,Pcbnew,7.0.9*%
%TF.CreationDate,2024-11-09T18:40:38+13:00*%
%TF.ProjectId,VCA,5643412e-6b69-4636-9164-5f7063625858,rev?*%
%TF.SameCoordinates,Original*%
%TF.FileFunction,Soldermask,Top*%
%TF.FilePolarity,Negative*%
%FSLAX46Y46*%
G04 Gerber Fmt 4.6, Leading zero omitted, Abs format (unit mm)*
G04 Created by KiCad (PCBNEW 7.0.9) date 2024-11-09 18:40:38*
%MOMM*%
%LPD*%
G01*
G04 APERTURE LIST*
G04 Aperture macros list*
%AMRoundRect*
0 Rectangle with rounded corners*
0 $1 Rounding radius*
0 $2 $3 $4 $5 $6 $7 $8 $9 X,Y pos of 4 corners*
0 Add a 4 corners polygon primitive as box body*
4,1,4,$2,$3,$4,$5,$6,$7,$8,$9,$2,$3,0*
0 Add four circle primitives for the rounded corners*
1,1,$1+$1,$2,$3*
1,1,$1+$1,$4,$5*
1,1,$1+$1,$6,$7*
1,1,$1+$1,$8,$9*
0 Add four rect primitives between the rounded corners*
20,1,$1+$1,$2,$3,$4,$5,0*
20,1,$1+$1,$4,$5,$6,$7,0*
20,1,$1+$1,$6,$7,$8,$9,0*
20,1,$1+$1,$8,$9,$2,$3,0*%
G04 Aperture macros list end*
%ADD10RoundRect,0.150000X-0.200000X0.150000X-0.200000X-0.150000X0.200000X-0.150000X0.200000X0.150000X0*%
%ADD11RoundRect,0.150000X0.150000X0.200000X-0.150000X0.200000X-0.150000X-0.200000X0.150000X-0.200000X0*%
%ADD12O,1.200000X2.200000*%
%ADD13O,2.200000X1.200000*%
%ADD14C,4.000000*%
%ADD15C,1.800000*%
%ADD16RoundRect,0.250000X0.600000X-0.600000X0.600000X0.600000X-0.600000X0.600000X-0.600000X-0.600000X0*%
%ADD17C,1.700000*%
%ADD18C,1.440000*%
G04 APERTURE END LIST*
D10*
%TO.C,D2*%
X112500000Y-71800000D03*
X112500000Y-70400000D03*
%TD*%
D11*
%TO.C,D1*%
X116200000Y-79100000D03*
X117600000Y-79100000D03*
%TD*%
D12*
%TO.C,J5*%
X122200000Y-99100000D03*
X114100000Y-99100000D03*
D13*
X119900000Y-103800000D03*
%TD*%
D12*
%TO.C,J1*%
X110200000Y-49100000D03*
X102100000Y-49100000D03*
D13*
X107900000Y-53800000D03*
%TD*%
D12*
%TO.C,J4*%
X110200000Y-99100000D03*
X102100000Y-99100000D03*
D13*
X107900000Y-103800000D03*
%TD*%
D14*
%TO.C,RV2*%
X108100000Y-33500000D03*
X116900000Y-33500000D03*
D15*
X115000000Y-40500000D03*
X112500000Y-40500000D03*
X110000000Y-40500000D03*
%TD*%
D13*
%TO.C,J6*%
X117600000Y-81300000D03*
X117600000Y-89400000D03*
D12*
X122300000Y-83600000D03*
%TD*%
%TO.C,J2*%
X122200000Y-49100000D03*
X114100000Y-49100000D03*
D13*
X119900000Y-53800000D03*
%TD*%
D14*
%TO.C,RV4*%
X108100000Y-116500000D03*
X116900000Y-116500000D03*
D15*
X115000000Y-123500000D03*
X112500000Y-123500000D03*
X110000000Y-123500000D03*
%TD*%
D13*
%TO.C,J3*%
X107400000Y-68700000D03*
X107400000Y-60600000D03*
D12*
X102700000Y-66400000D03*
%TD*%
D16*
%TO.C,J7*%
X117580000Y-76500000D03*
D17*
X117580000Y-73960000D03*
X115040000Y-76500000D03*
X115040000Y-73960000D03*
X112500000Y-76500000D03*
X112500000Y-73960000D03*
X109960000Y-76500000D03*
X109960000Y-73960000D03*
X107420000Y-76500000D03*
X107420000Y-73960000D03*
%TD*%
D18*
%TO.C,RV1*%
X122325000Y-35775000D03*
X119785000Y-38315000D03*
X122325000Y-40855000D03*
%TD*%
%TO.C,RV3*%
X105575000Y-106575000D03*
X108115000Y-109115000D03*
X110655000Y-106575000D03*
%TD*%
M02*
