%TF.GenerationSoftware,KiCad,Pcbnew,7.0.9*%
%TF.CreationDate,2024-11-09T18:40:38+13:00*%
%TF.ProjectId,VCA,5643412e-6b69-4636-9164-5f7063625858,rev?*%
%TF.SameCoordinates,Original*%
%TF.FileFunction,Legend,Top*%
%TF.FilePolarity,Positive*%
%FSLAX46Y46*%
G04 Gerber Fmt 4.6, Leading zero omitted, Abs format (unit mm)*
G04 Created by KiCad (PCBNEW 7.0.9) date 2024-11-09 18:40:38*
%MOMM*%
%LPD*%
G01*
G04 APERTURE LIST*
%ADD10C,0.150000*%
%ADD11C,0.120000*%
%ADD12C,0.100000*%
G04 APERTURE END LIST*
D10*
X111761905Y-69554819D02*
X111761905Y-68554819D01*
X111761905Y-68554819D02*
X112000000Y-68554819D01*
X112000000Y-68554819D02*
X112142857Y-68602438D01*
X112142857Y-68602438D02*
X112238095Y-68697676D01*
X112238095Y-68697676D02*
X112285714Y-68792914D01*
X112285714Y-68792914D02*
X112333333Y-68983390D01*
X112333333Y-68983390D02*
X112333333Y-69126247D01*
X112333333Y-69126247D02*
X112285714Y-69316723D01*
X112285714Y-69316723D02*
X112238095Y-69411961D01*
X112238095Y-69411961D02*
X112142857Y-69507200D01*
X112142857Y-69507200D02*
X112000000Y-69554819D01*
X112000000Y-69554819D02*
X111761905Y-69554819D01*
X112714286Y-68650057D02*
X112761905Y-68602438D01*
X112761905Y-68602438D02*
X112857143Y-68554819D01*
X112857143Y-68554819D02*
X113095238Y-68554819D01*
X113095238Y-68554819D02*
X113190476Y-68602438D01*
X113190476Y-68602438D02*
X113238095Y-68650057D01*
X113238095Y-68650057D02*
X113285714Y-68745295D01*
X113285714Y-68745295D02*
X113285714Y-68840533D01*
X113285714Y-68840533D02*
X113238095Y-68983390D01*
X113238095Y-68983390D02*
X112666667Y-69554819D01*
X112666667Y-69554819D02*
X113285714Y-69554819D01*
X113461905Y-79454819D02*
X113461905Y-78454819D01*
X113461905Y-78454819D02*
X113700000Y-78454819D01*
X113700000Y-78454819D02*
X113842857Y-78502438D01*
X113842857Y-78502438D02*
X113938095Y-78597676D01*
X113938095Y-78597676D02*
X113985714Y-78692914D01*
X113985714Y-78692914D02*
X114033333Y-78883390D01*
X114033333Y-78883390D02*
X114033333Y-79026247D01*
X114033333Y-79026247D02*
X113985714Y-79216723D01*
X113985714Y-79216723D02*
X113938095Y-79311961D01*
X113938095Y-79311961D02*
X113842857Y-79407200D01*
X113842857Y-79407200D02*
X113700000Y-79454819D01*
X113700000Y-79454819D02*
X113461905Y-79454819D01*
X114985714Y-79454819D02*
X114414286Y-79454819D01*
X114700000Y-79454819D02*
X114700000Y-78454819D01*
X114700000Y-78454819D02*
X114604762Y-78597676D01*
X114604762Y-78597676D02*
X114509524Y-78692914D01*
X114509524Y-78692914D02*
X114414286Y-78740533D01*
X122166666Y-94454819D02*
X122166666Y-95169104D01*
X122166666Y-95169104D02*
X122119047Y-95311961D01*
X122119047Y-95311961D02*
X122023809Y-95407200D01*
X122023809Y-95407200D02*
X121880952Y-95454819D01*
X121880952Y-95454819D02*
X121785714Y-95454819D01*
X123119047Y-94454819D02*
X122642857Y-94454819D01*
X122642857Y-94454819D02*
X122595238Y-94931009D01*
X122595238Y-94931009D02*
X122642857Y-94883390D01*
X122642857Y-94883390D02*
X122738095Y-94835771D01*
X122738095Y-94835771D02*
X122976190Y-94835771D01*
X122976190Y-94835771D02*
X123071428Y-94883390D01*
X123071428Y-94883390D02*
X123119047Y-94931009D01*
X123119047Y-94931009D02*
X123166666Y-95026247D01*
X123166666Y-95026247D02*
X123166666Y-95264342D01*
X123166666Y-95264342D02*
X123119047Y-95359580D01*
X123119047Y-95359580D02*
X123071428Y-95407200D01*
X123071428Y-95407200D02*
X122976190Y-95454819D01*
X122976190Y-95454819D02*
X122738095Y-95454819D01*
X122738095Y-95454819D02*
X122642857Y-95407200D01*
X122642857Y-95407200D02*
X122595238Y-95359580D01*
X101366666Y-44554819D02*
X101366666Y-45269104D01*
X101366666Y-45269104D02*
X101319047Y-45411961D01*
X101319047Y-45411961D02*
X101223809Y-45507200D01*
X101223809Y-45507200D02*
X101080952Y-45554819D01*
X101080952Y-45554819D02*
X100985714Y-45554819D01*
X102366666Y-45554819D02*
X101795238Y-45554819D01*
X102080952Y-45554819D02*
X102080952Y-44554819D01*
X102080952Y-44554819D02*
X101985714Y-44697676D01*
X101985714Y-44697676D02*
X101890476Y-44792914D01*
X101890476Y-44792914D02*
X101795238Y-44840533D01*
X101266666Y-94454819D02*
X101266666Y-95169104D01*
X101266666Y-95169104D02*
X101219047Y-95311961D01*
X101219047Y-95311961D02*
X101123809Y-95407200D01*
X101123809Y-95407200D02*
X100980952Y-95454819D01*
X100980952Y-95454819D02*
X100885714Y-95454819D01*
X102171428Y-94788152D02*
X102171428Y-95454819D01*
X101933333Y-94407200D02*
X101695238Y-95121485D01*
X101695238Y-95121485D02*
X102314285Y-95121485D01*
X111804761Y-27054819D02*
X111471428Y-26578628D01*
X111233333Y-27054819D02*
X111233333Y-26054819D01*
X111233333Y-26054819D02*
X111614285Y-26054819D01*
X111614285Y-26054819D02*
X111709523Y-26102438D01*
X111709523Y-26102438D02*
X111757142Y-26150057D01*
X111757142Y-26150057D02*
X111804761Y-26245295D01*
X111804761Y-26245295D02*
X111804761Y-26388152D01*
X111804761Y-26388152D02*
X111757142Y-26483390D01*
X111757142Y-26483390D02*
X111709523Y-26531009D01*
X111709523Y-26531009D02*
X111614285Y-26578628D01*
X111614285Y-26578628D02*
X111233333Y-26578628D01*
X112090476Y-26054819D02*
X112423809Y-27054819D01*
X112423809Y-27054819D02*
X112757142Y-26054819D01*
X113042857Y-26150057D02*
X113090476Y-26102438D01*
X113090476Y-26102438D02*
X113185714Y-26054819D01*
X113185714Y-26054819D02*
X113423809Y-26054819D01*
X113423809Y-26054819D02*
X113519047Y-26102438D01*
X113519047Y-26102438D02*
X113566666Y-26150057D01*
X113566666Y-26150057D02*
X113614285Y-26245295D01*
X113614285Y-26245295D02*
X113614285Y-26340533D01*
X113614285Y-26340533D02*
X113566666Y-26483390D01*
X113566666Y-26483390D02*
X112995238Y-27054819D01*
X112995238Y-27054819D02*
X113614285Y-27054819D01*
X122466666Y-78554819D02*
X122466666Y-79269104D01*
X122466666Y-79269104D02*
X122419047Y-79411961D01*
X122419047Y-79411961D02*
X122323809Y-79507200D01*
X122323809Y-79507200D02*
X122180952Y-79554819D01*
X122180952Y-79554819D02*
X122085714Y-79554819D01*
X123371428Y-78554819D02*
X123180952Y-78554819D01*
X123180952Y-78554819D02*
X123085714Y-78602438D01*
X123085714Y-78602438D02*
X123038095Y-78650057D01*
X123038095Y-78650057D02*
X122942857Y-78792914D01*
X122942857Y-78792914D02*
X122895238Y-78983390D01*
X122895238Y-78983390D02*
X122895238Y-79364342D01*
X122895238Y-79364342D02*
X122942857Y-79459580D01*
X122942857Y-79459580D02*
X122990476Y-79507200D01*
X122990476Y-79507200D02*
X123085714Y-79554819D01*
X123085714Y-79554819D02*
X123276190Y-79554819D01*
X123276190Y-79554819D02*
X123371428Y-79507200D01*
X123371428Y-79507200D02*
X123419047Y-79459580D01*
X123419047Y-79459580D02*
X123466666Y-79364342D01*
X123466666Y-79364342D02*
X123466666Y-79126247D01*
X123466666Y-79126247D02*
X123419047Y-79031009D01*
X123419047Y-79031009D02*
X123371428Y-78983390D01*
X123371428Y-78983390D02*
X123276190Y-78935771D01*
X123276190Y-78935771D02*
X123085714Y-78935771D01*
X123085714Y-78935771D02*
X122990476Y-78983390D01*
X122990476Y-78983390D02*
X122942857Y-79031009D01*
X122942857Y-79031009D02*
X122895238Y-79126247D01*
X122066666Y-44454819D02*
X122066666Y-45169104D01*
X122066666Y-45169104D02*
X122019047Y-45311961D01*
X122019047Y-45311961D02*
X121923809Y-45407200D01*
X121923809Y-45407200D02*
X121780952Y-45454819D01*
X121780952Y-45454819D02*
X121685714Y-45454819D01*
X122495238Y-44550057D02*
X122542857Y-44502438D01*
X122542857Y-44502438D02*
X122638095Y-44454819D01*
X122638095Y-44454819D02*
X122876190Y-44454819D01*
X122876190Y-44454819D02*
X122971428Y-44502438D01*
X122971428Y-44502438D02*
X123019047Y-44550057D01*
X123019047Y-44550057D02*
X123066666Y-44645295D01*
X123066666Y-44645295D02*
X123066666Y-44740533D01*
X123066666Y-44740533D02*
X123019047Y-44883390D01*
X123019047Y-44883390D02*
X122447619Y-45454819D01*
X122447619Y-45454819D02*
X123066666Y-45454819D01*
X112204761Y-109954819D02*
X111871428Y-109478628D01*
X111633333Y-109954819D02*
X111633333Y-108954819D01*
X111633333Y-108954819D02*
X112014285Y-108954819D01*
X112014285Y-108954819D02*
X112109523Y-109002438D01*
X112109523Y-109002438D02*
X112157142Y-109050057D01*
X112157142Y-109050057D02*
X112204761Y-109145295D01*
X112204761Y-109145295D02*
X112204761Y-109288152D01*
X112204761Y-109288152D02*
X112157142Y-109383390D01*
X112157142Y-109383390D02*
X112109523Y-109431009D01*
X112109523Y-109431009D02*
X112014285Y-109478628D01*
X112014285Y-109478628D02*
X111633333Y-109478628D01*
X112490476Y-108954819D02*
X112823809Y-109954819D01*
X112823809Y-109954819D02*
X113157142Y-108954819D01*
X113919047Y-109288152D02*
X113919047Y-109954819D01*
X113680952Y-108907200D02*
X113442857Y-109621485D01*
X113442857Y-109621485D02*
X114061904Y-109621485D01*
X101866666Y-57954819D02*
X101866666Y-58669104D01*
X101866666Y-58669104D02*
X101819047Y-58811961D01*
X101819047Y-58811961D02*
X101723809Y-58907200D01*
X101723809Y-58907200D02*
X101580952Y-58954819D01*
X101580952Y-58954819D02*
X101485714Y-58954819D01*
X102247619Y-57954819D02*
X102866666Y-57954819D01*
X102866666Y-57954819D02*
X102533333Y-58335771D01*
X102533333Y-58335771D02*
X102676190Y-58335771D01*
X102676190Y-58335771D02*
X102771428Y-58383390D01*
X102771428Y-58383390D02*
X102819047Y-58431009D01*
X102819047Y-58431009D02*
X102866666Y-58526247D01*
X102866666Y-58526247D02*
X102866666Y-58764342D01*
X102866666Y-58764342D02*
X102819047Y-58859580D01*
X102819047Y-58859580D02*
X102771428Y-58907200D01*
X102771428Y-58907200D02*
X102676190Y-58954819D01*
X102676190Y-58954819D02*
X102390476Y-58954819D01*
X102390476Y-58954819D02*
X102295238Y-58907200D01*
X102295238Y-58907200D02*
X102247619Y-58859580D01*
D11*
%TO.C,D2*%
X111900000Y-72360000D02*
X113100000Y-72360000D01*
X111900000Y-70400000D02*
X111900000Y-72360000D01*
X113100000Y-70400000D02*
X113100000Y-72360000D01*
%TO.C,D1*%
X115640000Y-78500000D02*
X115640000Y-79700000D01*
X117600000Y-78500000D02*
X115640000Y-78500000D01*
X117600000Y-79700000D02*
X115640000Y-79700000D01*
%TO.C,J5*%
X112900000Y-96000000D02*
X123400000Y-96000000D01*
X112900000Y-105000000D02*
X112900000Y-96000000D01*
X123400000Y-96000000D02*
X123400000Y-105000000D01*
D12*
X123400000Y-105000000D02*
X112900000Y-105000000D01*
D11*
%TO.C,J1*%
X100900000Y-46000000D02*
X111400000Y-46000000D01*
X100900000Y-55000000D02*
X100900000Y-46000000D01*
X111400000Y-46000000D02*
X111400000Y-55000000D01*
D12*
X111400000Y-55000000D02*
X100900000Y-55000000D01*
D11*
%TO.C,J4*%
X100900000Y-96000000D02*
X111400000Y-96000000D01*
X100900000Y-105000000D02*
X100900000Y-96000000D01*
X111400000Y-96000000D02*
X111400000Y-105000000D01*
D12*
X111400000Y-105000000D02*
X100900000Y-105000000D01*
D11*
%TO.C,RV2*%
X107530000Y-39620000D02*
X109129000Y-39620000D01*
X107530000Y-39620000D02*
X107530000Y-35755000D01*
X110871000Y-39620000D02*
X111630000Y-39620000D01*
X113371000Y-39620000D02*
X114130000Y-39620000D01*
X115870000Y-39620000D02*
X117470000Y-39620000D01*
X117470000Y-39620000D02*
X117470000Y-35755000D01*
X107530000Y-31245000D02*
X107530000Y-27380000D01*
X117470000Y-31245000D02*
X117470000Y-27380000D01*
X107530000Y-27380000D02*
X117470000Y-27380000D01*
%TO.C,J6*%
X114500000Y-90600000D02*
X114500000Y-80100000D01*
X123500000Y-90600000D02*
X114500000Y-90600000D01*
X114500000Y-80100000D02*
X123500000Y-80100000D01*
D12*
X123500000Y-80100000D02*
X123500000Y-90600000D01*
D11*
%TO.C,J2*%
X112900000Y-46000000D02*
X123400000Y-46000000D01*
X112900000Y-55000000D02*
X112900000Y-46000000D01*
X123400000Y-46000000D02*
X123400000Y-55000000D01*
D12*
X123400000Y-55000000D02*
X112900000Y-55000000D01*
D11*
%TO.C,RV4*%
X107530000Y-122620000D02*
X109129000Y-122620000D01*
X107530000Y-122620000D02*
X107530000Y-118755000D01*
X110871000Y-122620000D02*
X111630000Y-122620000D01*
X113371000Y-122620000D02*
X114130000Y-122620000D01*
X115870000Y-122620000D02*
X117470000Y-122620000D01*
X117470000Y-122620000D02*
X117470000Y-118755000D01*
X107530000Y-114245000D02*
X107530000Y-110380000D01*
X117470000Y-114245000D02*
X117470000Y-110380000D01*
X107530000Y-110380000D02*
X117470000Y-110380000D01*
%TO.C,J3*%
X110500000Y-59400000D02*
X110500000Y-69900000D01*
X101500000Y-59400000D02*
X110500000Y-59400000D01*
X110500000Y-69900000D02*
X101500000Y-69900000D01*
D12*
X101500000Y-69900000D02*
X101500000Y-59400000D01*
%TD*%
M02*
