%TF.GenerationSoftware,KiCad,Pcbnew,7.0.9*%
%TF.CreationDate,2024-11-09T18:40:38+13:00*%
%TF.ProjectId,VCA,5643412e-6b69-4636-9164-5f7063625858,rev?*%
%TF.SameCoordinates,Original*%
%TF.FileFunction,Paste,Bot*%
%TF.FilePolarity,Positive*%
%FSLAX46Y46*%
G04 Gerber Fmt 4.6, Leading zero omitted, Abs format (unit mm)*
G04 Created by KiCad (PCBNEW 7.0.9) date 2024-11-09 18:40:38*
%MOMM*%
%LPD*%
G01*
G04 APERTURE LIST*
G04 Aperture macros list*
%AMRoundRect*
0 Rectangle with rounded corners*
0 $1 Rounding radius*
0 $2 $3 $4 $5 $6 $7 $8 $9 X,Y pos of 4 corners*
0 Add a 4 corners polygon primitive as box body*
4,1,4,$2,$3,$4,$5,$6,$7,$8,$9,$2,$3,0*
0 Add four circle primitives for the rounded corners*
1,1,$1+$1,$2,$3*
1,1,$1+$1,$4,$5*
1,1,$1+$1,$6,$7*
1,1,$1+$1,$8,$9*
0 Add four rect primitives between the rounded corners*
20,1,$1+$1,$2,$3,$4,$5,0*
20,1,$1+$1,$4,$5,$6,$7,0*
20,1,$1+$1,$6,$7,$8,$9,0*
20,1,$1+$1,$8,$9,$2,$3,0*%
G04 Aperture macros list end*
%ADD10RoundRect,0.237500X0.237500X-0.250000X0.237500X0.250000X-0.237500X0.250000X-0.237500X-0.250000X0*%
%ADD11RoundRect,0.237500X-0.237500X0.300000X-0.237500X-0.300000X0.237500X-0.300000X0.237500X0.300000X0*%
%ADD12RoundRect,0.230000X-0.375000X0.230000X-0.375000X-0.230000X0.375000X-0.230000X0.375000X0.230000X0*%
%ADD13RoundRect,0.150000X-0.150000X0.825000X-0.150000X-0.825000X0.150000X-0.825000X0.150000X0.825000X0*%
%ADD14RoundRect,0.237500X-0.250000X-0.237500X0.250000X-0.237500X0.250000X0.237500X-0.250000X0.237500X0*%
%ADD15RoundRect,0.237500X-0.237500X0.250000X-0.237500X-0.250000X0.237500X-0.250000X0.237500X0.250000X0*%
%ADD16RoundRect,0.237500X0.250000X0.237500X-0.250000X0.237500X-0.250000X-0.237500X0.250000X-0.237500X0*%
%ADD17RoundRect,0.230000X0.375000X-0.230000X0.375000X0.230000X-0.375000X0.230000X-0.375000X-0.230000X0*%
%ADD18RoundRect,0.150000X0.150000X-0.825000X0.150000X0.825000X-0.150000X0.825000X-0.150000X-0.825000X0*%
%ADD19R,0.650000X0.400000*%
%ADD20RoundRect,0.237500X0.237500X-0.300000X0.237500X0.300000X-0.237500X0.300000X-0.237500X-0.300000X0*%
G04 APERTURE END LIST*
D10*
%TO.C,R20*%
X109000000Y-95862500D03*
X109000000Y-94037500D03*
%TD*%
D11*
%TO.C,C2*%
X102600000Y-89987500D03*
X102600000Y-91712500D03*
%TD*%
D10*
%TO.C,R14*%
X116900000Y-69512500D03*
X116900000Y-67687500D03*
%TD*%
D12*
%TO.C,U2*%
X107050000Y-86930000D03*
X105550000Y-86930000D03*
X107050000Y-88070000D03*
X105550000Y-88070000D03*
D13*
X104395000Y-85025000D03*
X105665000Y-85025000D03*
X106935000Y-85025000D03*
X108205000Y-85025000D03*
X108205000Y-89975000D03*
X106935000Y-89975000D03*
X105665000Y-89975000D03*
X104395000Y-89975000D03*
%TD*%
D14*
%TO.C,R28*%
X103287500Y-80950000D03*
X105112500Y-80950000D03*
%TD*%
D10*
%TO.C,R17*%
X102000000Y-95912500D03*
X102000000Y-94087500D03*
%TD*%
D15*
%TO.C,R29*%
X106800000Y-80937500D03*
X106800000Y-82762500D03*
%TD*%
%TO.C,R5*%
X111100000Y-54987500D03*
X111100000Y-56812500D03*
%TD*%
D14*
%TO.C,R1*%
X115337500Y-37750000D03*
X117162500Y-37750000D03*
%TD*%
%TO.C,R26*%
X113087500Y-105250000D03*
X114912500Y-105250000D03*
%TD*%
D10*
%TO.C,R21*%
X107200000Y-95862500D03*
X107200000Y-94037500D03*
%TD*%
D16*
%TO.C,R27*%
X114912500Y-103500000D03*
X113087500Y-103500000D03*
%TD*%
D17*
%TO.C,U1*%
X116750000Y-63770000D03*
X118250000Y-63770000D03*
X116750000Y-62630000D03*
X118250000Y-62630000D03*
D18*
X119405000Y-65675000D03*
X118135000Y-65675000D03*
X116865000Y-65675000D03*
X115595000Y-65675000D03*
X115595000Y-60725000D03*
X116865000Y-60725000D03*
X118135000Y-60725000D03*
X119405000Y-60725000D03*
%TD*%
D14*
%TO.C,R3*%
X116187500Y-58500000D03*
X118012500Y-58500000D03*
%TD*%
D15*
%TO.C,R6*%
X112800000Y-54987500D03*
X112800000Y-56812500D03*
%TD*%
D16*
%TO.C,R15*%
X120412500Y-67800000D03*
X118587500Y-67800000D03*
%TD*%
D14*
%TO.C,R25*%
X114187500Y-85100000D03*
X116012500Y-85100000D03*
%TD*%
D15*
%TO.C,R8*%
X103900000Y-63187500D03*
X103900000Y-65012500D03*
%TD*%
D16*
%TO.C,R9*%
X107312500Y-66800000D03*
X105487500Y-66800000D03*
%TD*%
%TO.C,R22*%
X107212500Y-92350000D03*
X105387500Y-92350000D03*
%TD*%
D19*
%TO.C,Q1*%
X107350000Y-63850000D03*
X107350000Y-64500000D03*
X107350000Y-65150000D03*
X105450000Y-65150000D03*
X105450000Y-64500000D03*
X105450000Y-63850000D03*
%TD*%
D11*
%TO.C,C3*%
X113600000Y-63937500D03*
X113600000Y-65662500D03*
%TD*%
D16*
%TO.C,R16*%
X103912500Y-61500000D03*
X102087500Y-61500000D03*
%TD*%
D15*
%TO.C,R4*%
X114500000Y-54987500D03*
X114500000Y-56812500D03*
%TD*%
D10*
%TO.C,R23*%
X117800000Y-86912500D03*
X117800000Y-85087500D03*
%TD*%
D15*
%TO.C,R24*%
X105400000Y-94037500D03*
X105400000Y-95862500D03*
%TD*%
D10*
%TO.C,R32*%
X102600000Y-86412500D03*
X102600000Y-84587500D03*
%TD*%
D20*
%TO.C,C4*%
X110000000Y-86762500D03*
X110000000Y-85037500D03*
%TD*%
D19*
%TO.C,Q2*%
X114150000Y-88050000D03*
X114150000Y-87400000D03*
X114150000Y-86750000D03*
X116050000Y-86750000D03*
X116050000Y-87400000D03*
X116050000Y-88050000D03*
%TD*%
D10*
%TO.C,R7*%
X118000000Y-56812500D03*
X118000000Y-54987500D03*
%TD*%
%TO.C,R11*%
X118000000Y-44912500D03*
X118000000Y-43087500D03*
%TD*%
D16*
%TO.C,R19*%
X114912500Y-107250000D03*
X113087500Y-107250000D03*
%TD*%
D11*
%TO.C,C1*%
X121100000Y-60737500D03*
X121100000Y-62462500D03*
%TD*%
D15*
%TO.C,R2*%
X116200000Y-54987500D03*
X116200000Y-56812500D03*
%TD*%
D10*
%TO.C,R18*%
X103700000Y-95912500D03*
X103700000Y-94087500D03*
%TD*%
D15*
%TO.C,R30*%
X108300000Y-80937500D03*
X108300000Y-82762500D03*
%TD*%
D16*
%TO.C,R12*%
X120412500Y-69400000D03*
X118587500Y-69400000D03*
%TD*%
D10*
%TO.C,R13*%
X115300000Y-69512500D03*
X115300000Y-67687500D03*
%TD*%
D14*
%TO.C,R31*%
X103287500Y-82750000D03*
X105112500Y-82750000D03*
%TD*%
D15*
%TO.C,R10*%
X119800000Y-43087500D03*
X119800000Y-44912500D03*
%TD*%
M02*
