%TF.GenerationSoftware,KiCad,Pcbnew,7.0.9*%
%TF.CreationDate,2024-11-09T18:40:38+13:00*%
%TF.ProjectId,VCA,5643412e-6b69-4636-9164-5f7063625858,rev?*%
%TF.SameCoordinates,Original*%
%TF.FileFunction,Copper,L1,Top*%
%TF.FilePolarity,Positive*%
%FSLAX46Y46*%
G04 Gerber Fmt 4.6, Leading zero omitted, Abs format (unit mm)*
G04 Created by KiCad (PCBNEW 7.0.9) date 2024-11-09 18:40:38*
%MOMM*%
%LPD*%
G01*
G04 APERTURE LIST*
G04 Aperture macros list*
%AMRoundRect*
0 Rectangle with rounded corners*
0 $1 Rounding radius*
0 $2 $3 $4 $5 $6 $7 $8 $9 X,Y pos of 4 corners*
0 Add a 4 corners polygon primitive as box body*
4,1,4,$2,$3,$4,$5,$6,$7,$8,$9,$2,$3,0*
0 Add four circle primitives for the rounded corners*
1,1,$1+$1,$2,$3*
1,1,$1+$1,$4,$5*
1,1,$1+$1,$6,$7*
1,1,$1+$1,$8,$9*
0 Add four rect primitives between the rounded corners*
20,1,$1+$1,$2,$3,$4,$5,0*
20,1,$1+$1,$4,$5,$6,$7,0*
20,1,$1+$1,$6,$7,$8,$9,0*
20,1,$1+$1,$8,$9,$2,$3,0*%
G04 Aperture macros list end*
%TA.AperFunction,SMDPad,CuDef*%
%ADD10RoundRect,0.150000X-0.200000X0.150000X-0.200000X-0.150000X0.200000X-0.150000X0.200000X0.150000X0*%
%TD*%
%TA.AperFunction,SMDPad,CuDef*%
%ADD11RoundRect,0.150000X0.150000X0.200000X-0.150000X0.200000X-0.150000X-0.200000X0.150000X-0.200000X0*%
%TD*%
%TA.AperFunction,ComponentPad*%
%ADD12O,1.200000X2.200000*%
%TD*%
%TA.AperFunction,ComponentPad*%
%ADD13O,2.200000X1.200000*%
%TD*%
%TA.AperFunction,WasherPad*%
%ADD14C,4.000000*%
%TD*%
%TA.AperFunction,ComponentPad*%
%ADD15C,1.800000*%
%TD*%
%TA.AperFunction,ComponentPad*%
%ADD16RoundRect,0.250000X0.600000X-0.600000X0.600000X0.600000X-0.600000X0.600000X-0.600000X-0.600000X0*%
%TD*%
%TA.AperFunction,ComponentPad*%
%ADD17C,1.700000*%
%TD*%
%TA.AperFunction,ComponentPad*%
%ADD18C,1.440000*%
%TD*%
%TA.AperFunction,ViaPad*%
%ADD19C,0.800000*%
%TD*%
%TA.AperFunction,Conductor*%
%ADD20C,1.000000*%
%TD*%
%TA.AperFunction,Conductor*%
%ADD21C,0.250000*%
%TD*%
G04 APERTURE END LIST*
D10*
%TO.P,D2,1,K*%
%TO.N,Net-(D2-K)*%
X112500000Y-71800000D03*
%TO.P,D2,2,A*%
%TO.N,-12V*%
X112500000Y-70400000D03*
%TD*%
D11*
%TO.P,D1,1,K*%
%TO.N,+12V*%
X116200000Y-79100000D03*
%TO.P,D1,2,A*%
%TO.N,Net-(D1-A)*%
X117600000Y-79100000D03*
%TD*%
D12*
%TO.P,J5,S*%
%TO.N,GNDREF*%
X122200000Y-99100000D03*
%TO.P,J5,T*%
%TO.N,/CV_IN2*%
X114100000Y-99100000D03*
D13*
%TO.P,J5,TN*%
%TO.N,/CV_IN1*%
X119900000Y-103800000D03*
%TD*%
D12*
%TO.P,J1,S*%
%TO.N,GNDREF*%
X110200000Y-49100000D03*
%TO.P,J1,T*%
%TO.N,/SIGNAL_IN1*%
X102100000Y-49100000D03*
D13*
%TO.P,J1,TN*%
%TO.N,GNDREF*%
X107900000Y-53800000D03*
%TD*%
D12*
%TO.P,J4,S*%
%TO.N,GNDREF*%
X110200000Y-99100000D03*
%TO.P,J4,T*%
%TO.N,/SIGNAL_IN2*%
X102100000Y-99100000D03*
D13*
%TO.P,J4,TN*%
%TO.N,/SIGNAL_IN1*%
X107900000Y-103800000D03*
%TD*%
D14*
%TO.P,RV2,*%
%TO.N,*%
X108100000Y-33500000D03*
X116900000Y-33500000D03*
D15*
%TO.P,RV2,1,1*%
%TO.N,Net-(R1-Pad1)*%
X115000000Y-40500000D03*
%TO.P,RV2,2,2*%
%TO.N,Net-(R2-Pad1)*%
X112500000Y-40500000D03*
%TO.P,RV2,3,3*%
%TO.N,GNDREF*%
X110000000Y-40500000D03*
%TD*%
D13*
%TO.P,J6,S*%
%TO.N,GNDREF*%
X117600000Y-81300000D03*
%TO.P,J6,T*%
%TO.N,Net-(J6-PadT)*%
X117600000Y-89400000D03*
D12*
%TO.P,J6,TN*%
%TO.N,unconnected-(J6-PadTN)*%
X122300000Y-83600000D03*
%TD*%
%TO.P,J2,S*%
%TO.N,GNDREF*%
X122200000Y-49100000D03*
%TO.P,J2,T*%
%TO.N,/CV_IN1*%
X114100000Y-49100000D03*
D13*
%TO.P,J2,TN*%
%TO.N,GNDREF*%
X119900000Y-53800000D03*
%TD*%
D14*
%TO.P,RV4,*%
%TO.N,*%
X108100000Y-116500000D03*
X116900000Y-116500000D03*
D15*
%TO.P,RV4,1,1*%
%TO.N,Net-(R19-Pad1)*%
X115000000Y-123500000D03*
%TO.P,RV4,2,2*%
%TO.N,Net-(R21-Pad1)*%
X112500000Y-123500000D03*
%TO.P,RV4,3,3*%
%TO.N,GNDREF*%
X110000000Y-123500000D03*
%TD*%
D13*
%TO.P,J3,S*%
%TO.N,GNDREF*%
X107400000Y-68700000D03*
%TO.P,J3,T*%
%TO.N,Net-(J3-PadT)*%
X107400000Y-60600000D03*
D12*
%TO.P,J3,TN*%
%TO.N,unconnected-(J3-PadTN)*%
X102700000Y-66400000D03*
%TD*%
D16*
%TO.P,J7,1,Pin_1*%
%TO.N,Net-(D1-A)*%
X117580000Y-76500000D03*
D17*
%TO.P,J7,2,Pin_2*%
%TO.N,Net-(D2-K)*%
X117580000Y-73960000D03*
%TO.P,J7,3,Pin_3*%
%TO.N,Net-(D1-A)*%
X115040000Y-76500000D03*
%TO.P,J7,4,Pin_4*%
%TO.N,Net-(D2-K)*%
X115040000Y-73960000D03*
%TO.P,J7,5,Pin_5*%
%TO.N,Net-(D1-A)*%
X112500000Y-76500000D03*
%TO.P,J7,6,Pin_6*%
%TO.N,Net-(D2-K)*%
X112500000Y-73960000D03*
%TO.P,J7,7,Pin_7*%
%TO.N,GNDREF*%
X109960000Y-76500000D03*
%TO.P,J7,8,Pin_8*%
X109960000Y-73960000D03*
%TO.P,J7,9,Pin_9*%
X107420000Y-76500000D03*
%TO.P,J7,10,Pin_10*%
X107420000Y-73960000D03*
%TD*%
D18*
%TO.P,RV1,1,1*%
%TO.N,-12V*%
X122325000Y-35775000D03*
%TO.P,RV1,2,2*%
%TO.N,Net-(R11-Pad2)*%
X119785000Y-38315000D03*
%TO.P,RV1,3,3*%
%TO.N,+12V*%
X122325000Y-40855000D03*
%TD*%
%TO.P,RV3,1,1*%
%TO.N,-12V*%
X105575000Y-106575000D03*
%TO.P,RV3,2,2*%
%TO.N,Net-(R27-Pad2)*%
X108115000Y-109115000D03*
%TO.P,RV3,3,3*%
%TO.N,+12V*%
X110655000Y-106575000D03*
%TD*%
D19*
%TO.N,+12V*%
X119000000Y-85100000D03*
X114800000Y-79500000D03*
X104600000Y-68300000D03*
X103600000Y-88400000D03*
%TO.N,GNDREF*%
X109600000Y-88700000D03*
X113900000Y-38900000D03*
X116966592Y-50231721D03*
X111000000Y-64800000D03*
X100800000Y-25800000D03*
X109400000Y-69700000D03*
X101400000Y-91700000D03*
X121000000Y-56400000D03*
X124100000Y-103800000D03*
X121100000Y-63800000D03*
X116900000Y-70600000D03*
X124300000Y-33400000D03*
X100800000Y-32400000D03*
X124100000Y-25900000D03*
X120100000Y-74700000D03*
X110000000Y-81100000D03*
X124100000Y-92200000D03*
X107300000Y-58000000D03*
X100800000Y-40400000D03*
X100800000Y-47100000D03*
X124300000Y-42500000D03*
X102800000Y-68300000D03*
X115600000Y-89600000D03*
X124100000Y-124200000D03*
X114500000Y-60700000D03*
X124100000Y-112800000D03*
X105418101Y-101394415D03*
X100800000Y-124100000D03*
X107700000Y-120900000D03*
X102400000Y-60100000D03*
X119900000Y-124200000D03*
X100800000Y-113400000D03*
X112800000Y-53700000D03*
X106500000Y-97000000D03*
X100800000Y-103500000D03*
X114000000Y-95500000D03*
X116250000Y-102000000D03*
X110750000Y-96250000D03*
X100700000Y-56200000D03*
%TO.N,-12V*%
X112500000Y-58800000D03*
X110000000Y-83200000D03*
X112500000Y-67300000D03*
X112500000Y-102250000D03*
%TO.N,/CV_IN1*%
X121500000Y-52100000D03*
X123700000Y-54800000D03*
%TO.N,/CV_IN2*%
X109600000Y-97300000D03*
%TO.N,Net-(R2-Pad1)*%
X115750000Y-51750000D03*
%TO.N,Net-(R21-Pad1)*%
X108100000Y-97300000D03*
%TO.N,Net-(Q1B-B2)*%
X111700000Y-47400000D03*
X109200000Y-55900000D03*
%TD*%
D20*
%TO.N,+12V*%
X103600000Y-69300000D02*
X104600000Y-68300000D01*
X115300000Y-79100000D02*
X116200000Y-79100000D01*
X103600000Y-88400000D02*
X103600000Y-80000000D01*
X119000000Y-85100000D02*
X116900000Y-85100000D01*
X103600000Y-88400000D02*
X103600000Y-96350000D01*
X114800000Y-79500000D02*
X114900000Y-79500000D01*
X110750000Y-103500000D02*
X110750000Y-106480000D01*
X103600000Y-80000000D02*
X103600000Y-69300000D01*
X114200000Y-80200000D02*
X114800000Y-79600000D01*
X103600000Y-96350000D02*
X110750000Y-103500000D01*
X114200000Y-82400000D02*
X114200000Y-80200000D01*
X114900000Y-79500000D02*
X115300000Y-79100000D01*
X116900000Y-85100000D02*
X114200000Y-82400000D01*
X114200000Y-80200000D02*
X114000000Y-80000000D01*
D21*
X110750000Y-106480000D02*
X110655000Y-106575000D01*
D20*
X114800000Y-79600000D02*
X114800000Y-79500000D01*
X114000000Y-80000000D02*
X103600000Y-80000000D01*
D21*
%TO.N,-12V*%
X113750000Y-102250000D02*
X115500000Y-100500000D01*
D20*
X120600000Y-89900000D02*
X120600000Y-80600000D01*
X113800000Y-70400000D02*
X112500000Y-70400000D01*
D21*
X115500000Y-100500000D02*
X115500000Y-91800000D01*
D20*
X115500000Y-91800000D02*
X118700000Y-91800000D01*
X120600000Y-80600000D02*
X122100000Y-79100000D01*
X115200000Y-71800000D02*
X113800000Y-70400000D01*
D21*
X112500000Y-102250000D02*
X113750000Y-102250000D01*
D20*
X119375000Y-41375000D02*
X122325000Y-38425000D01*
X119500000Y-71800000D02*
X115200000Y-71800000D01*
X112500000Y-56800000D02*
X119375000Y-49925000D01*
X112500000Y-70400000D02*
X112500000Y-67300000D01*
X110000000Y-83200000D02*
X109900000Y-83200000D01*
X122325000Y-38425000D02*
X122325000Y-35775000D01*
X113900000Y-87100000D02*
X113900000Y-90200000D01*
X112100000Y-85300000D02*
X113900000Y-87100000D01*
X118700000Y-91800000D02*
X120600000Y-89900000D01*
X113900000Y-90200000D02*
X115500000Y-91800000D01*
X122100000Y-74400000D02*
X119500000Y-71800000D01*
X112500000Y-58800000D02*
X112500000Y-56800000D01*
X119375000Y-49925000D02*
X119375000Y-41375000D01*
X112100000Y-85300000D02*
X110000000Y-83200000D01*
X122100000Y-79100000D02*
X122100000Y-74400000D01*
D21*
%TO.N,/CV_IN1*%
X123700000Y-54800000D02*
X123700000Y-54200000D01*
X121600000Y-52100000D02*
X121500000Y-52100000D01*
X123700000Y-54200000D02*
X121600000Y-52100000D01*
%TO.N,/CV_IN2*%
X109600000Y-97300000D02*
X111100000Y-97300000D01*
X111100000Y-97300000D02*
X112900000Y-99100000D01*
X112900000Y-99100000D02*
X114100000Y-99100000D01*
%TO.N,Net-(R2-Pad1)*%
X115750000Y-43750000D02*
X112500000Y-40500000D01*
X115750000Y-51750000D02*
X115750000Y-43750000D01*
%TO.N,Net-(R21-Pad1)*%
X108100000Y-99350000D02*
X113500000Y-104750000D01*
X113500000Y-104750000D02*
X113500000Y-122500000D01*
X108100000Y-97300000D02*
X108000000Y-97300000D01*
X113500000Y-122500000D02*
X112500000Y-123500000D01*
X108100000Y-97300000D02*
X108100000Y-99350000D01*
D20*
%TO.N,Net-(D1-A)*%
X117580000Y-76500000D02*
X117580000Y-79080000D01*
X112500000Y-76500000D02*
X115040000Y-76500000D01*
X115040000Y-76500000D02*
X117580000Y-76500000D01*
X117580000Y-79080000D02*
X117600000Y-79100000D01*
%TO.N,Net-(D2-K)*%
X117580000Y-73960000D02*
X115040000Y-73960000D01*
X112500000Y-73960000D02*
X112500000Y-71800000D01*
X115040000Y-73960000D02*
X112500000Y-73960000D01*
D21*
%TO.N,Net-(Q1B-B2)*%
X111700000Y-53400000D02*
X111700000Y-47400000D01*
X109200000Y-55900000D02*
X111700000Y-53400000D01*
%TD*%
%TA.AperFunction,Conductor*%
%TO.N,Net-(D1-A)*%
G36*
X114190677Y-75998065D02*
G01*
X114198082Y-76003102D01*
X114200000Y-76009521D01*
X114200000Y-76990478D01*
X114196573Y-76998751D01*
X114190677Y-77001934D01*
X112834751Y-77283332D01*
X112825955Y-77281658D01*
X112821569Y-77276365D01*
X112500865Y-76504489D01*
X112500856Y-76495534D01*
X112500865Y-76495511D01*
X112821570Y-75723632D01*
X112827908Y-75717309D01*
X112834749Y-75716667D01*
X114190677Y-75998065D01*
G37*
%TD.AperFunction*%
%TD*%
%TA.AperFunction,Conductor*%
%TO.N,Net-(D2-K)*%
G36*
X117254044Y-73178341D02*
G01*
X117258430Y-73183634D01*
X117579134Y-73955511D01*
X117579143Y-73964466D01*
X117579134Y-73964489D01*
X117258430Y-74736365D01*
X117252091Y-74742690D01*
X117245248Y-74743332D01*
X115889323Y-74461934D01*
X115881918Y-74456897D01*
X115880000Y-74450478D01*
X115880000Y-73469521D01*
X115883427Y-73461248D01*
X115889322Y-73458065D01*
X117245249Y-73176667D01*
X117254044Y-73178341D01*
G37*
%TD.AperFunction*%
%TD*%
%TA.AperFunction,Conductor*%
%TO.N,Net-(R2-Pad1)*%
G36*
X115875188Y-50953427D02*
G01*
X115877859Y-50957563D01*
X116115551Y-51586344D01*
X116115271Y-51595294D01*
X116109109Y-51601280D01*
X115754502Y-51749123D01*
X115745548Y-51749144D01*
X115745498Y-51749123D01*
X115390890Y-51601280D01*
X115384572Y-51594933D01*
X115384448Y-51586345D01*
X115622141Y-50957562D01*
X115628272Y-50951036D01*
X115633085Y-50950000D01*
X115866915Y-50950000D01*
X115875188Y-50953427D01*
G37*
%TD.AperFunction*%
%TD*%
%TA.AperFunction,Conductor*%
%TO.N,/CV_IN1*%
G36*
X123653109Y-53980594D02*
G01*
X123654757Y-53982666D01*
X123755999Y-54144797D01*
X124062251Y-54635235D01*
X124063726Y-54644067D01*
X124058524Y-54651356D01*
X124056829Y-54652231D01*
X123705200Y-54798833D01*
X123696246Y-54798854D01*
X123696210Y-54798839D01*
X123340017Y-54650901D01*
X123333691Y-54644563D01*
X123333237Y-54636948D01*
X123469366Y-54149917D01*
X123472358Y-54144799D01*
X123636564Y-53980593D01*
X123644836Y-53977167D01*
X123653109Y-53980594D01*
G37*
%TD.AperFunction*%
%TD*%
%TA.AperFunction,Conductor*%
%TO.N,+12V*%
G36*
X111247557Y-105157324D02*
G01*
X111250939Y-105164572D01*
X111373882Y-106562292D01*
X111371193Y-106570833D01*
X111363252Y-106574972D01*
X111362243Y-106575017D01*
X110657343Y-106575996D01*
X110652836Y-106575100D01*
X109998908Y-106303251D01*
X109992584Y-106296911D01*
X109991990Y-106289856D01*
X110247931Y-105163006D01*
X110253105Y-105155697D01*
X110259340Y-105153897D01*
X111239284Y-105153897D01*
X111247557Y-105157324D01*
G37*
%TD.AperFunction*%
%TD*%
%TA.AperFunction,Conductor*%
%TO.N,Net-(D2-K)*%
G36*
X112998752Y-72263427D02*
G01*
X113001935Y-72269323D01*
X113283332Y-73625248D01*
X113281658Y-73634044D01*
X113276365Y-73638430D01*
X112504489Y-73959134D01*
X112495534Y-73959143D01*
X112495511Y-73959134D01*
X111723634Y-73638430D01*
X111717309Y-73632091D01*
X111716667Y-73625249D01*
X111998065Y-72269322D01*
X112003102Y-72261918D01*
X112009521Y-72260000D01*
X112990479Y-72260000D01*
X112998752Y-72263427D01*
G37*
%TD.AperFunction*%
%TD*%
%TA.AperFunction,Conductor*%
%TO.N,Net-(D2-K)*%
G36*
X114190677Y-73458065D02*
G01*
X114198082Y-73463102D01*
X114200000Y-73469521D01*
X114200000Y-74450478D01*
X114196573Y-74458751D01*
X114190677Y-74461934D01*
X112834751Y-74743332D01*
X112825955Y-74741658D01*
X112821569Y-74736365D01*
X112500865Y-73964489D01*
X112500856Y-73955534D01*
X112500865Y-73955511D01*
X112821570Y-73183632D01*
X112827908Y-73177309D01*
X112834749Y-73176667D01*
X114190677Y-73458065D01*
G37*
%TD.AperFunction*%
%TD*%
%TA.AperFunction,Conductor*%
%TO.N,/CV_IN2*%
G36*
X113527138Y-98507483D02*
G01*
X113916317Y-98909313D01*
X114093116Y-99091860D01*
X114096411Y-99100187D01*
X114093116Y-99108140D01*
X113527140Y-99692515D01*
X113518923Y-99696074D01*
X113511620Y-99693662D01*
X112904584Y-99228512D01*
X112900101Y-99220760D01*
X112900000Y-99219225D01*
X112900000Y-98980774D01*
X112903427Y-98972501D01*
X112904579Y-98971490D01*
X113511621Y-98506336D01*
X113520271Y-98504025D01*
X113527138Y-98507483D01*
G37*
%TD.AperFunction*%
%TD*%
%TA.AperFunction,Conductor*%
%TO.N,Net-(Q1B-B2)*%
G36*
X112059109Y-47548719D02*
G01*
X112065427Y-47555066D01*
X112065551Y-47563655D01*
X111827859Y-48192437D01*
X111821728Y-48198964D01*
X111816915Y-48200000D01*
X111583085Y-48200000D01*
X111574812Y-48196573D01*
X111572141Y-48192437D01*
X111334448Y-47563655D01*
X111334728Y-47554705D01*
X111340889Y-47548719D01*
X111695500Y-47400875D01*
X111704449Y-47400855D01*
X112059109Y-47548719D01*
G37*
%TD.AperFunction*%
%TD*%
%TA.AperFunction,Conductor*%
%TO.N,Net-(D1-A)*%
G36*
X114714044Y-75718341D02*
G01*
X114718430Y-75723634D01*
X115039134Y-76495511D01*
X115039143Y-76504466D01*
X115039134Y-76504489D01*
X114718430Y-77276365D01*
X114712091Y-77282690D01*
X114705248Y-77283332D01*
X113349323Y-77001934D01*
X113341918Y-76996897D01*
X113340000Y-76990478D01*
X113340000Y-76009521D01*
X113343427Y-76001248D01*
X113349322Y-75998065D01*
X114705249Y-75716667D01*
X114714044Y-75718341D01*
G37*
%TD.AperFunction*%
%TD*%
%TA.AperFunction,Conductor*%
%TO.N,Net-(Q1B-B2)*%
G36*
X109683014Y-55251643D02*
G01*
X109848356Y-55416985D01*
X109851783Y-55425258D01*
X109850747Y-55430071D01*
X109574206Y-56042760D01*
X109567679Y-56048891D01*
X109559090Y-56048767D01*
X109203804Y-55902563D01*
X109197457Y-55896245D01*
X109197436Y-55896195D01*
X109051232Y-55540909D01*
X109051253Y-55531955D01*
X109057237Y-55525794D01*
X109669928Y-55249251D01*
X109678878Y-55248972D01*
X109683014Y-55251643D01*
G37*
%TD.AperFunction*%
%TD*%
%TA.AperFunction,Conductor*%
%TO.N,Net-(D1-A)*%
G36*
X116730677Y-75998065D02*
G01*
X116738082Y-76003102D01*
X116740000Y-76009521D01*
X116740000Y-76990478D01*
X116736573Y-76998751D01*
X116730677Y-77001934D01*
X115374751Y-77283332D01*
X115365955Y-77281658D01*
X115361569Y-77276365D01*
X115040865Y-76504489D01*
X115040856Y-76495534D01*
X115040865Y-76495511D01*
X115361570Y-75723632D01*
X115367908Y-75717309D01*
X115374749Y-75716667D01*
X116730677Y-75998065D01*
G37*
%TD.AperFunction*%
%TD*%
%TA.AperFunction,Conductor*%
%TO.N,Net-(D2-K)*%
G36*
X114714044Y-73178341D02*
G01*
X114718430Y-73183634D01*
X115039134Y-73955511D01*
X115039143Y-73964466D01*
X115039134Y-73964489D01*
X114718430Y-74736365D01*
X114712091Y-74742690D01*
X114705248Y-74743332D01*
X113349323Y-74461934D01*
X113341918Y-74456897D01*
X113340000Y-74450478D01*
X113340000Y-73469521D01*
X113343427Y-73461248D01*
X113349322Y-73458065D01*
X114705249Y-73176667D01*
X114714044Y-73178341D01*
G37*
%TD.AperFunction*%
%TD*%
%TA.AperFunction,Conductor*%
%TO.N,-12V*%
G36*
X123031395Y-35774981D02*
G01*
X123039664Y-35778419D01*
X123043079Y-35786697D01*
X123042945Y-35788448D01*
X122826518Y-37205067D01*
X122821881Y-37212728D01*
X122814952Y-37215000D01*
X121835048Y-37215000D01*
X121826775Y-37211573D01*
X121823482Y-37205067D01*
X121607054Y-35788446D01*
X121609192Y-35779752D01*
X121616853Y-35775115D01*
X121618602Y-35774981D01*
X122325000Y-35774000D01*
X123031395Y-35774981D01*
G37*
%TD.AperFunction*%
%TD*%
%TA.AperFunction,Conductor*%
%TO.N,Net-(R21-Pad1)*%
G36*
X113619520Y-122117640D02*
G01*
X113622947Y-122125913D01*
X113622796Y-122127788D01*
X113401593Y-123490186D01*
X113396884Y-123497803D01*
X113390057Y-123500011D01*
X112507830Y-123500991D01*
X112499553Y-123497573D01*
X112497006Y-123493764D01*
X112495526Y-123490186D01*
X112159906Y-122678952D01*
X112159910Y-122669999D01*
X112165873Y-122663831D01*
X113372692Y-122115261D01*
X113377534Y-122114213D01*
X113611247Y-122114213D01*
X113619520Y-122117640D01*
G37*
%TD.AperFunction*%
%TD*%
%TA.AperFunction,Conductor*%
%TO.N,Net-(R2-Pad1)*%
G36*
X113328984Y-40160327D02*
G01*
X113335310Y-40166666D01*
X113335551Y-40167302D01*
X113858781Y-41677480D01*
X113858252Y-41686419D01*
X113855999Y-41689583D01*
X113689583Y-41855999D01*
X113681310Y-41859426D01*
X113677480Y-41858781D01*
X112167302Y-41335551D01*
X112160606Y-41329605D01*
X112160077Y-41320666D01*
X112160307Y-41320057D01*
X112497438Y-40503783D01*
X112503761Y-40497447D01*
X113320032Y-40160318D01*
X113328984Y-40160327D01*
G37*
%TD.AperFunction*%
%TD*%
%TA.AperFunction,Conductor*%
%TO.N,GNDREF*%
G36*
X124003031Y-25254799D02*
G01*
X124054766Y-25259894D01*
X124133291Y-25267628D01*
X124157126Y-25272370D01*
X124273604Y-25307704D01*
X124296060Y-25317005D01*
X124343757Y-25342499D01*
X124403408Y-25374382D01*
X124423619Y-25387887D01*
X124517707Y-25465104D01*
X124534895Y-25482292D01*
X124612112Y-25576380D01*
X124625618Y-25596593D01*
X124682994Y-25703939D01*
X124692295Y-25726395D01*
X124727629Y-25842873D01*
X124732372Y-25866714D01*
X124745201Y-25996967D01*
X124745500Y-26003048D01*
X124745500Y-54347084D01*
X124725815Y-54414123D01*
X124673011Y-54459878D01*
X124603853Y-54469822D01*
X124540297Y-54440797D01*
X124514115Y-54409087D01*
X124501777Y-54387720D01*
X124495680Y-54377159D01*
X124492648Y-54371182D01*
X124491021Y-54367491D01*
X124486186Y-54359749D01*
X124478792Y-54347908D01*
X124478316Y-54347084D01*
X124432533Y-54267784D01*
X124427492Y-54262185D01*
X124414463Y-54244890D01*
X124330708Y-54110762D01*
X124312863Y-54060621D01*
X124310664Y-54043210D01*
X124310664Y-54043208D01*
X124293501Y-53999859D01*
X124291614Y-53994346D01*
X124278617Y-53949610D01*
X124278616Y-53949608D01*
X124268421Y-53932369D01*
X124259860Y-53914893D01*
X124258308Y-53910975D01*
X124252486Y-53896268D01*
X124252486Y-53896267D01*
X124242474Y-53882488D01*
X124225083Y-53858550D01*
X124221900Y-53853705D01*
X124198170Y-53813579D01*
X124198165Y-53813573D01*
X124184005Y-53799413D01*
X124171370Y-53784620D01*
X124161982Y-53771700D01*
X124159594Y-53768413D01*
X124159593Y-53768412D01*
X124123693Y-53738713D01*
X124119381Y-53734790D01*
X122620930Y-52236339D01*
X122600837Y-52209983D01*
X122548659Y-52118284D01*
X122314000Y-51705884D01*
X122302676Y-51686956D01*
X122302672Y-51686951D01*
X122299704Y-51682807D01*
X122300079Y-51682538D01*
X122292887Y-51672322D01*
X122232533Y-51567784D01*
X122105871Y-51427112D01*
X122079015Y-51407600D01*
X121952734Y-51315851D01*
X121952729Y-51315848D01*
X121779807Y-51238857D01*
X121779802Y-51238855D01*
X121634001Y-51207865D01*
X121594646Y-51199500D01*
X121405354Y-51199500D01*
X121372897Y-51206398D01*
X121220197Y-51238855D01*
X121220192Y-51238857D01*
X121047270Y-51315848D01*
X121047265Y-51315851D01*
X120894129Y-51427111D01*
X120767466Y-51567785D01*
X120672821Y-51731715D01*
X120672818Y-51731722D01*
X120614327Y-51911740D01*
X120614326Y-51911744D01*
X120594540Y-52100000D01*
X120614326Y-52288256D01*
X120614327Y-52288259D01*
X120672818Y-52468277D01*
X120672821Y-52468284D01*
X120708599Y-52530253D01*
X120725072Y-52598153D01*
X120702219Y-52664180D01*
X120647298Y-52707371D01*
X120577747Y-52714012D01*
X120505040Y-52700000D01*
X120150000Y-52700000D01*
X120150000Y-53550000D01*
X119650000Y-53550000D01*
X119650000Y-52700000D01*
X119347602Y-52700000D01*
X119190877Y-52714965D01*
X119190873Y-52714966D01*
X118989313Y-52774149D01*
X118802585Y-52870413D01*
X118637462Y-53000268D01*
X118637459Y-53000271D01*
X118499894Y-53159030D01*
X118499885Y-53159041D01*
X118394855Y-53340960D01*
X118394852Y-53340967D01*
X118326144Y-53539482D01*
X118326144Y-53539484D01*
X118324632Y-53550000D01*
X119425376Y-53550000D01*
X119352455Y-53564505D01*
X119269760Y-53619760D01*
X119214505Y-53702455D01*
X119195102Y-53800000D01*
X119214505Y-53897545D01*
X119269760Y-53980240D01*
X119352455Y-54035495D01*
X119425376Y-54050000D01*
X118328742Y-54050000D01*
X118355770Y-54161409D01*
X118443040Y-54352507D01*
X118564889Y-54523619D01*
X118564895Y-54523625D01*
X118716932Y-54668592D01*
X118893657Y-54782166D01*
X119088685Y-54860244D01*
X119294962Y-54900000D01*
X119650000Y-54900000D01*
X119650000Y-54050000D01*
X120150000Y-54050000D01*
X120150000Y-54900000D01*
X120452398Y-54900000D01*
X120609122Y-54885034D01*
X120609126Y-54885033D01*
X120810686Y-54825850D01*
X120997414Y-54729586D01*
X121162537Y-54599731D01*
X121162540Y-54599728D01*
X121300105Y-54440969D01*
X121300114Y-54440958D01*
X121405144Y-54259039D01*
X121405147Y-54259032D01*
X121473855Y-54060517D01*
X121473855Y-54060515D01*
X121475368Y-54050000D01*
X120374624Y-54050000D01*
X120447545Y-54035495D01*
X120530240Y-53980240D01*
X120585495Y-53897545D01*
X120604898Y-53800000D01*
X120585495Y-53702455D01*
X120530240Y-53619760D01*
X120447545Y-53564505D01*
X120374624Y-53550000D01*
X121471257Y-53550000D01*
X121444229Y-53438590D01*
X121356960Y-53247495D01*
X121352340Y-53241007D01*
X121329488Y-53174980D01*
X121345959Y-53107080D01*
X121396526Y-53058864D01*
X121465133Y-53045640D01*
X121492730Y-53051499D01*
X121726980Y-53129967D01*
X121775275Y-53159865D01*
X122854099Y-54238689D01*
X122887584Y-54300012D01*
X122885841Y-54359749D01*
X122846397Y-54500873D01*
X122840596Y-54523651D01*
X122839745Y-54528726D01*
X122839063Y-54528611D01*
X122835340Y-54547067D01*
X122818230Y-54599728D01*
X122814326Y-54611744D01*
X122794540Y-54800000D01*
X122814326Y-54988256D01*
X122814327Y-54988259D01*
X122872818Y-55168277D01*
X122872821Y-55168284D01*
X122967467Y-55332216D01*
X122999493Y-55367784D01*
X123094129Y-55472888D01*
X123247265Y-55584148D01*
X123247270Y-55584151D01*
X123420192Y-55661142D01*
X123420197Y-55661144D01*
X123605354Y-55700500D01*
X123605355Y-55700500D01*
X123794644Y-55700500D01*
X123794646Y-55700500D01*
X123979803Y-55661144D01*
X124152730Y-55584151D01*
X124305871Y-55472888D01*
X124432533Y-55332216D01*
X124514113Y-55190914D01*
X124564679Y-55142699D01*
X124633286Y-55129475D01*
X124698151Y-55155443D01*
X124738680Y-55212357D01*
X124745500Y-55252914D01*
X124745500Y-123996951D01*
X124745201Y-124003032D01*
X124732372Y-124133285D01*
X124727629Y-124157126D01*
X124692295Y-124273604D01*
X124682994Y-124296060D01*
X124625618Y-124403406D01*
X124612112Y-124423619D01*
X124534895Y-124517707D01*
X124517707Y-124534895D01*
X124423619Y-124612112D01*
X124403406Y-124625618D01*
X124296060Y-124682994D01*
X124273604Y-124692295D01*
X124157126Y-124727629D01*
X124133285Y-124732372D01*
X124003032Y-124745201D01*
X123996951Y-124745500D01*
X116039696Y-124745500D01*
X115972657Y-124725815D01*
X115926902Y-124673011D01*
X115916958Y-124603853D01*
X115945983Y-124540297D01*
X115948466Y-124537518D01*
X116062007Y-124414178D01*
X116108979Y-124363153D01*
X116235924Y-124168849D01*
X116329157Y-123956300D01*
X116386134Y-123731305D01*
X116386135Y-123731297D01*
X116405300Y-123500006D01*
X116405300Y-123499993D01*
X116386135Y-123268702D01*
X116386133Y-123268691D01*
X116329157Y-123043699D01*
X116235924Y-122831151D01*
X116108983Y-122636852D01*
X116108980Y-122636849D01*
X116108979Y-122636847D01*
X115951784Y-122466087D01*
X115951779Y-122466083D01*
X115951777Y-122466081D01*
X115768634Y-122323535D01*
X115768628Y-122323531D01*
X115564504Y-122213064D01*
X115564495Y-122213061D01*
X115344984Y-122137702D01*
X115173282Y-122109050D01*
X115116049Y-122099500D01*
X114883951Y-122099500D01*
X114838164Y-122107140D01*
X114655015Y-122137702D01*
X114435504Y-122213061D01*
X114435490Y-122213067D01*
X114309715Y-122281133D01*
X114241387Y-122295728D01*
X114176015Y-122271065D01*
X114134354Y-122214974D01*
X114127007Y-122169395D01*
X114126855Y-122169398D01*
X114126841Y-122168362D01*
X114126768Y-122167909D01*
X114126813Y-122166518D01*
X114126816Y-122166491D01*
X114125549Y-122071867D01*
X114125500Y-122068179D01*
X114125500Y-116500005D01*
X114394556Y-116500005D01*
X114414310Y-116814004D01*
X114414311Y-116814011D01*
X114473270Y-117123083D01*
X114570497Y-117422316D01*
X114570499Y-117422321D01*
X114704461Y-117707003D01*
X114704464Y-117707009D01*
X114873051Y-117972661D01*
X114873054Y-117972665D01*
X115073606Y-118215090D01*
X115073608Y-118215092D01*
X115302968Y-118430476D01*
X115302978Y-118430484D01*
X115557504Y-118615408D01*
X115557509Y-118615410D01*
X115557516Y-118615416D01*
X115833234Y-118766994D01*
X115833239Y-118766996D01*
X115833241Y-118766997D01*
X115833242Y-118766998D01*
X116125771Y-118882818D01*
X116125774Y-118882819D01*
X116430523Y-118961065D01*
X116430527Y-118961066D01*
X116496010Y-118969338D01*
X116742670Y-119000499D01*
X116742679Y-119000499D01*
X116742682Y-119000500D01*
X116742684Y-119000500D01*
X117057316Y-119000500D01*
X117057318Y-119000500D01*
X117057321Y-119000499D01*
X117057329Y-119000499D01*
X117243593Y-118976968D01*
X117369473Y-118961066D01*
X117674225Y-118882819D01*
X117674228Y-118882818D01*
X117966757Y-118766998D01*
X117966758Y-118766997D01*
X117966756Y-118766997D01*
X117966766Y-118766994D01*
X118242484Y-118615416D01*
X118497030Y-118430478D01*
X118726390Y-118215094D01*
X118926947Y-117972663D01*
X119095537Y-117707007D01*
X119229503Y-117422315D01*
X119326731Y-117123079D01*
X119385688Y-116814015D01*
X119405444Y-116500000D01*
X119385688Y-116185985D01*
X119326731Y-115876921D01*
X119229503Y-115577685D01*
X119095537Y-115292993D01*
X118926947Y-115027337D01*
X118926945Y-115027334D01*
X118726393Y-114784909D01*
X118726391Y-114784907D01*
X118497031Y-114569523D01*
X118497021Y-114569515D01*
X118242495Y-114384591D01*
X118242488Y-114384586D01*
X118242484Y-114384584D01*
X117966766Y-114233006D01*
X117966763Y-114233004D01*
X117966758Y-114233002D01*
X117966757Y-114233001D01*
X117674228Y-114117181D01*
X117674225Y-114117180D01*
X117369476Y-114038934D01*
X117369463Y-114038932D01*
X117057329Y-113999500D01*
X117057318Y-113999500D01*
X116742682Y-113999500D01*
X116742670Y-113999500D01*
X116430536Y-114038932D01*
X116430523Y-114038934D01*
X116125774Y-114117180D01*
X116125771Y-114117181D01*
X115833242Y-114233001D01*
X115833241Y-114233002D01*
X115557516Y-114384584D01*
X115557504Y-114384591D01*
X115302978Y-114569515D01*
X115302968Y-114569523D01*
X115073608Y-114784907D01*
X115073606Y-114784909D01*
X114873054Y-115027334D01*
X114873051Y-115027338D01*
X114704464Y-115292990D01*
X114704461Y-115292996D01*
X114570499Y-115577678D01*
X114570497Y-115577683D01*
X114473270Y-115876916D01*
X114414311Y-116185988D01*
X114414310Y-116185995D01*
X114394556Y-116499994D01*
X114394556Y-116500005D01*
X114125500Y-116500005D01*
X114125500Y-104832737D01*
X114127224Y-104817123D01*
X114126938Y-104817096D01*
X114127672Y-104809333D01*
X114126832Y-104782613D01*
X114125500Y-104740203D01*
X114125500Y-104710650D01*
X114124629Y-104703759D01*
X114124172Y-104697945D01*
X114122709Y-104651372D01*
X114117122Y-104632144D01*
X114113174Y-104613084D01*
X114110664Y-104593208D01*
X114093507Y-104549875D01*
X114091619Y-104544359D01*
X114078619Y-104499612D01*
X114068418Y-104482363D01*
X114059860Y-104464894D01*
X114052486Y-104446268D01*
X114052483Y-104446264D01*
X114052483Y-104446263D01*
X114025098Y-104408571D01*
X114021890Y-104403687D01*
X113998172Y-104363582D01*
X113998163Y-104363571D01*
X113984005Y-104349413D01*
X113971370Y-104334620D01*
X113959593Y-104318412D01*
X113923693Y-104288713D01*
X113919381Y-104284790D01*
X113381992Y-103747401D01*
X118295746Y-103747401D01*
X118305745Y-103957327D01*
X118355296Y-104161578D01*
X118355298Y-104161582D01*
X118442598Y-104352743D01*
X118442601Y-104352748D01*
X118442602Y-104352750D01*
X118442604Y-104352753D01*
X118547182Y-104499612D01*
X118564515Y-104523953D01*
X118564520Y-104523959D01*
X118716620Y-104668985D01*
X118811578Y-104730011D01*
X118893428Y-104782613D01*
X119088543Y-104860725D01*
X119191729Y-104880612D01*
X119294914Y-104900500D01*
X119294915Y-104900500D01*
X120452419Y-104900500D01*
X120452425Y-104900500D01*
X120609218Y-104885528D01*
X120810875Y-104826316D01*
X120997682Y-104730011D01*
X121162886Y-104600092D01*
X121300519Y-104441256D01*
X121405604Y-104259244D01*
X121474344Y-104060633D01*
X121504254Y-103852602D01*
X121494254Y-103642670D01*
X121444704Y-103438424D01*
X121444701Y-103438417D01*
X121357401Y-103247256D01*
X121357398Y-103247251D01*
X121357397Y-103247250D01*
X121357396Y-103247247D01*
X121235486Y-103076048D01*
X121235484Y-103076046D01*
X121235479Y-103076040D01*
X121083379Y-102931014D01*
X120906574Y-102817388D01*
X120711455Y-102739274D01*
X120505086Y-102699500D01*
X120505085Y-102699500D01*
X119347575Y-102699500D01*
X119190782Y-102714472D01*
X119190778Y-102714473D01*
X118989127Y-102773683D01*
X118802313Y-102869991D01*
X118637116Y-102999905D01*
X118637112Y-102999909D01*
X118499478Y-103158746D01*
X118394398Y-103340750D01*
X118325656Y-103539365D01*
X118325656Y-103539367D01*
X118310804Y-103642670D01*
X118295746Y-103747401D01*
X113381992Y-103747401D01*
X112891517Y-103256926D01*
X112858032Y-103195603D01*
X112863016Y-103125911D01*
X112904888Y-103069978D01*
X112935352Y-103053256D01*
X113076477Y-102999908D01*
X113384388Y-102883510D01*
X113428234Y-102875500D01*
X113667257Y-102875500D01*
X113682877Y-102877224D01*
X113682904Y-102876939D01*
X113690660Y-102877671D01*
X113690667Y-102877673D01*
X113759814Y-102875500D01*
X113789350Y-102875500D01*
X113796228Y-102874630D01*
X113802041Y-102874172D01*
X113848627Y-102872709D01*
X113867869Y-102867117D01*
X113886912Y-102863174D01*
X113906792Y-102860664D01*
X113950122Y-102843507D01*
X113955646Y-102841617D01*
X113959396Y-102840527D01*
X114000390Y-102828618D01*
X114017629Y-102818422D01*
X114035103Y-102809862D01*
X114053727Y-102802488D01*
X114053727Y-102802487D01*
X114053732Y-102802486D01*
X114091449Y-102775082D01*
X114096305Y-102771892D01*
X114136420Y-102748170D01*
X114150589Y-102733999D01*
X114165379Y-102721368D01*
X114181587Y-102709594D01*
X114211299Y-102673676D01*
X114215212Y-102669376D01*
X115883786Y-101000802D01*
X115896048Y-100990980D01*
X115895865Y-100990759D01*
X115901867Y-100985792D01*
X115901877Y-100985786D01*
X115949241Y-100935348D01*
X115970120Y-100914470D01*
X115974373Y-100908986D01*
X115978150Y-100904563D01*
X116010062Y-100870582D01*
X116019714Y-100853023D01*
X116030389Y-100836772D01*
X116042674Y-100820936D01*
X116061186Y-100778152D01*
X116063742Y-100772935D01*
X116086197Y-100732092D01*
X116091180Y-100712680D01*
X116097477Y-100694291D01*
X116105438Y-100675895D01*
X116112729Y-100629853D01*
X116113908Y-100624162D01*
X116125500Y-100579019D01*
X116125500Y-100558983D01*
X116127027Y-100539582D01*
X116130160Y-100519804D01*
X116125775Y-100473415D01*
X116125500Y-100467577D01*
X116125500Y-99652398D01*
X121100000Y-99652398D01*
X121114965Y-99809122D01*
X121114966Y-99809126D01*
X121174149Y-100010686D01*
X121270413Y-100197414D01*
X121400268Y-100362537D01*
X121400271Y-100362540D01*
X121559030Y-100500105D01*
X121559041Y-100500114D01*
X121740960Y-100605144D01*
X121740967Y-100605147D01*
X121939487Y-100673856D01*
X121950000Y-100675367D01*
X121950000Y-99574624D01*
X121964505Y-99647545D01*
X122019760Y-99730240D01*
X122102455Y-99785495D01*
X122200000Y-99804898D01*
X122297545Y-99785495D01*
X122380240Y-99730240D01*
X122435495Y-99647545D01*
X122450000Y-99574624D01*
X122450000Y-100671257D01*
X122561409Y-100644229D01*
X122752507Y-100556959D01*
X122923619Y-100435110D01*
X122923625Y-100435104D01*
X123068592Y-100283067D01*
X123182166Y-100106342D01*
X123260244Y-99911314D01*
X123300000Y-99705037D01*
X123300000Y-99350000D01*
X122450000Y-99350000D01*
X122450000Y-98850000D01*
X123300000Y-98850000D01*
X123300000Y-98547601D01*
X123285034Y-98390877D01*
X123285033Y-98390873D01*
X123225850Y-98189313D01*
X123129586Y-98002585D01*
X122999731Y-97837462D01*
X122999728Y-97837459D01*
X122840969Y-97699894D01*
X122840958Y-97699885D01*
X122659039Y-97594855D01*
X122659032Y-97594852D01*
X122460516Y-97526144D01*
X122450000Y-97524632D01*
X122450000Y-98625376D01*
X122435495Y-98552455D01*
X122380240Y-98469760D01*
X122297545Y-98414505D01*
X122200000Y-98395102D01*
X122102455Y-98414505D01*
X122019760Y-98469760D01*
X121964505Y-98552455D01*
X121950000Y-98625376D01*
X121950000Y-97528740D01*
X121949999Y-97528740D01*
X121838594Y-97555768D01*
X121838582Y-97555772D01*
X121647497Y-97643037D01*
X121647496Y-97643038D01*
X121476380Y-97764889D01*
X121476374Y-97764895D01*
X121331407Y-97916932D01*
X121217833Y-98093657D01*
X121139755Y-98288685D01*
X121100000Y-98494962D01*
X121100000Y-98850000D01*
X121950000Y-98850000D01*
X121950000Y-99350000D01*
X121100000Y-99350000D01*
X121100000Y-99652398D01*
X116125500Y-99652398D01*
X116125500Y-92924500D01*
X116145185Y-92857461D01*
X116197989Y-92811706D01*
X116249500Y-92800500D01*
X118687284Y-92800500D01*
X118776358Y-92802757D01*
X118776358Y-92802756D01*
X118776363Y-92802757D01*
X118836753Y-92791932D01*
X118841412Y-92791280D01*
X118883607Y-92786988D01*
X118902438Y-92785074D01*
X118935227Y-92774786D01*
X118942840Y-92772918D01*
X118976653Y-92766858D01*
X119033621Y-92744101D01*
X119038053Y-92742524D01*
X119096588Y-92724159D01*
X119126627Y-92707484D01*
X119133708Y-92704122D01*
X119165617Y-92691377D01*
X119216854Y-92657608D01*
X119220851Y-92655187D01*
X119274502Y-92625409D01*
X119300568Y-92603030D01*
X119306843Y-92598300D01*
X119335519Y-92579402D01*
X119378917Y-92536002D01*
X119382336Y-92532834D01*
X119428895Y-92492866D01*
X119449931Y-92465688D01*
X119455101Y-92459818D01*
X121298487Y-90616433D01*
X121363053Y-90555059D01*
X121398112Y-90504686D01*
X121400925Y-90500957D01*
X121439698Y-90453407D01*
X121455607Y-90422948D01*
X121459667Y-90416248D01*
X121479295Y-90388049D01*
X121503492Y-90331660D01*
X121505498Y-90327435D01*
X121533909Y-90273049D01*
X121543360Y-90240015D01*
X121545991Y-90232628D01*
X121559540Y-90201058D01*
X121571893Y-90140940D01*
X121573006Y-90136412D01*
X121589887Y-90077418D01*
X121592495Y-90043155D01*
X121593587Y-90035376D01*
X121600500Y-90001739D01*
X121600500Y-89940401D01*
X121600679Y-89935692D01*
X121605337Y-89874525D01*
X121600997Y-89840441D01*
X121600500Y-89832602D01*
X121600500Y-85181666D01*
X121620185Y-85114627D01*
X121672989Y-85068872D01*
X121742147Y-85058928D01*
X121786500Y-85074279D01*
X121801609Y-85083002D01*
X121840751Y-85105602D01*
X121840754Y-85105603D01*
X121840756Y-85105604D01*
X122039367Y-85174344D01*
X122247398Y-85204254D01*
X122457330Y-85194254D01*
X122661576Y-85144704D01*
X122747197Y-85105602D01*
X122852743Y-85057401D01*
X122852746Y-85057399D01*
X122852753Y-85057396D01*
X123023952Y-84935486D01*
X123168986Y-84783378D01*
X123282613Y-84606572D01*
X123360725Y-84411457D01*
X123400500Y-84205085D01*
X123400500Y-83047575D01*
X123385528Y-82890782D01*
X123326316Y-82689125D01*
X123230011Y-82502318D01*
X123230009Y-82502316D01*
X123230008Y-82502313D01*
X123100094Y-82337116D01*
X123100090Y-82337112D01*
X122941253Y-82199478D01*
X122759249Y-82094398D01*
X122759245Y-82094396D01*
X122759244Y-82094396D01*
X122560633Y-82025656D01*
X122352602Y-81995746D01*
X122352598Y-81995746D01*
X122142672Y-82005745D01*
X121938424Y-82055296D01*
X121776011Y-82129467D01*
X121706852Y-82139410D01*
X121643297Y-82110385D01*
X121605523Y-82051606D01*
X121600500Y-82016672D01*
X121600500Y-81065782D01*
X121620185Y-80998743D01*
X121636814Y-80978105D01*
X122798487Y-79816433D01*
X122863053Y-79755059D01*
X122898097Y-79704709D01*
X122900924Y-79700957D01*
X122939698Y-79653407D01*
X122955607Y-79622948D01*
X122959667Y-79616248D01*
X122979295Y-79588049D01*
X123003492Y-79531660D01*
X123005498Y-79527435D01*
X123033909Y-79473049D01*
X123043357Y-79440022D01*
X123045988Y-79432633D01*
X123059540Y-79401058D01*
X123071895Y-79340930D01*
X123072999Y-79336429D01*
X123089886Y-79277418D01*
X123092494Y-79243157D01*
X123093585Y-79235389D01*
X123100500Y-79201743D01*
X123100500Y-79140398D01*
X123100679Y-79135688D01*
X123105337Y-79074524D01*
X123100997Y-79040442D01*
X123100500Y-79032603D01*
X123100500Y-74412676D01*
X123101202Y-74384952D01*
X123102756Y-74323637D01*
X123091932Y-74263247D01*
X123091282Y-74258617D01*
X123085074Y-74197562D01*
X123074790Y-74164786D01*
X123072917Y-74157154D01*
X123066858Y-74123349D01*
X123066858Y-74123347D01*
X123044102Y-74066378D01*
X123042521Y-74061937D01*
X123024159Y-74003412D01*
X123024158Y-74003410D01*
X123024157Y-74003407D01*
X123007488Y-73973378D01*
X123004117Y-73966278D01*
X122991378Y-73934386D01*
X122991377Y-73934383D01*
X122957620Y-73883163D01*
X122955180Y-73879134D01*
X122944379Y-73859675D01*
X122925409Y-73825498D01*
X122925407Y-73825495D01*
X122903033Y-73799434D01*
X122898302Y-73793159D01*
X122879402Y-73764481D01*
X122836012Y-73721091D01*
X122832822Y-73717648D01*
X122792867Y-73671106D01*
X122792863Y-73671102D01*
X122765698Y-73650074D01*
X122759803Y-73644882D01*
X120216452Y-71101532D01*
X120155061Y-71036949D01*
X120155060Y-71036948D01*
X120155059Y-71036947D01*
X120125728Y-71016532D01*
X120104709Y-71001902D01*
X120100946Y-70999064D01*
X120053413Y-70960305D01*
X120053406Y-70960300D01*
X120022959Y-70944397D01*
X120016251Y-70940334D01*
X119988049Y-70920705D01*
X119988046Y-70920703D01*
X119988045Y-70920703D01*
X119988041Y-70920701D01*
X119931680Y-70896514D01*
X119927424Y-70894493D01*
X119873057Y-70866094D01*
X119873050Y-70866091D01*
X119873049Y-70866091D01*
X119867008Y-70864362D01*
X119840030Y-70856642D01*
X119832630Y-70854008D01*
X119801057Y-70840459D01*
X119801058Y-70840459D01*
X119740966Y-70828109D01*
X119736391Y-70826986D01*
X119677420Y-70810113D01*
X119677425Y-70810113D01*
X119643158Y-70807503D01*
X119635380Y-70806412D01*
X119601742Y-70799500D01*
X119601741Y-70799500D01*
X119540402Y-70799500D01*
X119535695Y-70799321D01*
X119530121Y-70798896D01*
X119474524Y-70794662D01*
X119454589Y-70797201D01*
X119440440Y-70799003D01*
X119432611Y-70799500D01*
X115665783Y-70799500D01*
X115598744Y-70779815D01*
X115578102Y-70763181D01*
X114516451Y-69701531D01*
X114455061Y-69636949D01*
X114455060Y-69636948D01*
X114455059Y-69636947D01*
X114427204Y-69617559D01*
X114404709Y-69601902D01*
X114400946Y-69599064D01*
X114353413Y-69560305D01*
X114353406Y-69560300D01*
X114322959Y-69544397D01*
X114316251Y-69540334D01*
X114288049Y-69520705D01*
X114288046Y-69520703D01*
X114288045Y-69520703D01*
X114288041Y-69520701D01*
X114231680Y-69496514D01*
X114227424Y-69494493D01*
X114173057Y-69466094D01*
X114173050Y-69466091D01*
X114173049Y-69466091D01*
X114167008Y-69464362D01*
X114140030Y-69456642D01*
X114132630Y-69454008D01*
X114101057Y-69440459D01*
X114101058Y-69440459D01*
X114040966Y-69428109D01*
X114036391Y-69426986D01*
X113977420Y-69410113D01*
X113977425Y-69410113D01*
X113943158Y-69407503D01*
X113935380Y-69406412D01*
X113901742Y-69399500D01*
X113901741Y-69399500D01*
X113840402Y-69399500D01*
X113835695Y-69399321D01*
X113830121Y-69398896D01*
X113774524Y-69394662D01*
X113754589Y-69397201D01*
X113740440Y-69399003D01*
X113732611Y-69399500D01*
X113624500Y-69399500D01*
X113557461Y-69379815D01*
X113511706Y-69327011D01*
X113500500Y-69275500D01*
X113500500Y-67249256D01*
X113485074Y-67097560D01*
X113424162Y-66903420D01*
X113424160Y-66903416D01*
X113424159Y-66903412D01*
X113325409Y-66725498D01*
X113325408Y-66725497D01*
X113325407Y-66725495D01*
X113192867Y-66571106D01*
X113192865Y-66571104D01*
X113031962Y-66446554D01*
X113031959Y-66446553D01*
X113031958Y-66446552D01*
X112849271Y-66356940D01*
X112652285Y-66305937D01*
X112652287Y-66305937D01*
X112516804Y-66299066D01*
X112449064Y-66295631D01*
X112449063Y-66295631D01*
X112449061Y-66295631D01*
X112247936Y-66326442D01*
X112247924Y-66326445D01*
X112057118Y-66397111D01*
X112057111Y-66397115D01*
X111884432Y-66504745D01*
X111884427Y-66504749D01*
X111736949Y-66644938D01*
X111736948Y-66644940D01*
X111620705Y-66811949D01*
X111540459Y-66998943D01*
X111499500Y-67198258D01*
X111499500Y-70373070D01*
X111499420Y-70376210D01*
X111495631Y-70450935D01*
X111495631Y-70450936D01*
X111506957Y-70524877D01*
X111507354Y-70527991D01*
X111514925Y-70602437D01*
X111514926Y-70602440D01*
X111519749Y-70617814D01*
X111524003Y-70636147D01*
X111526442Y-70652064D01*
X111526443Y-70652068D01*
X111552427Y-70722232D01*
X111553441Y-70725198D01*
X111575841Y-70796588D01*
X111575842Y-70796589D01*
X111575843Y-70796592D01*
X111583657Y-70810670D01*
X111591517Y-70827777D01*
X111597111Y-70842881D01*
X111597114Y-70842887D01*
X111636694Y-70906390D01*
X111638288Y-70909096D01*
X111666709Y-70960302D01*
X111674592Y-70974503D01*
X111674593Y-70974504D01*
X111685078Y-70986718D01*
X111696222Y-71001894D01*
X111704745Y-71015567D01*
X111704750Y-71015574D01*
X111705661Y-71016532D01*
X111705994Y-71017181D01*
X111708601Y-71020549D01*
X111707973Y-71021034D01*
X111737579Y-71078684D01*
X111730828Y-71148227D01*
X111717558Y-71172797D01*
X111620705Y-71311949D01*
X111540459Y-71498943D01*
X111499500Y-71698258D01*
X111499500Y-72171270D01*
X111496913Y-72196467D01*
X111298337Y-73153305D01*
X111265440Y-73214946D01*
X111204441Y-73249016D01*
X111134704Y-73244699D01*
X111078373Y-73203365D01*
X111075348Y-73199230D01*
X111074925Y-73198626D01*
X110443076Y-73830475D01*
X110419493Y-73750156D01*
X110341761Y-73629202D01*
X110233100Y-73535048D01*
X110102315Y-73475320D01*
X110092533Y-73473913D01*
X110721373Y-72845073D01*
X110721373Y-72845072D01*
X110637583Y-72786402D01*
X110637579Y-72786400D01*
X110423492Y-72686570D01*
X110423483Y-72686566D01*
X110195326Y-72625432D01*
X110195315Y-72625430D01*
X109960002Y-72604843D01*
X109959998Y-72604843D01*
X109724684Y-72625430D01*
X109724673Y-72625432D01*
X109496516Y-72686566D01*
X109496507Y-72686570D01*
X109282419Y-72786401D01*
X109198625Y-72845072D01*
X109827466Y-73473913D01*
X109817685Y-73475320D01*
X109686900Y-73535048D01*
X109578239Y-73629202D01*
X109500507Y-73750156D01*
X109476923Y-73830475D01*
X108845073Y-73198625D01*
X108845072Y-73198626D01*
X108791574Y-73275030D01*
X108736998Y-73318655D01*
X108667499Y-73325849D01*
X108605144Y-73294326D01*
X108588424Y-73275030D01*
X108534925Y-73198626D01*
X108534925Y-73198625D01*
X107903076Y-73830475D01*
X107879493Y-73750156D01*
X107801761Y-73629202D01*
X107693100Y-73535048D01*
X107562315Y-73475320D01*
X107552533Y-73473913D01*
X108181373Y-72845073D01*
X108181373Y-72845072D01*
X108097583Y-72786402D01*
X108097579Y-72786400D01*
X107883492Y-72686570D01*
X107883483Y-72686566D01*
X107655326Y-72625432D01*
X107655315Y-72625430D01*
X107420002Y-72604843D01*
X107419998Y-72604843D01*
X107184684Y-72625430D01*
X107184673Y-72625432D01*
X106956516Y-72686566D01*
X106956507Y-72686570D01*
X106742419Y-72786401D01*
X106658625Y-72845072D01*
X107287466Y-73473913D01*
X107277685Y-73475320D01*
X107146900Y-73535048D01*
X107038239Y-73629202D01*
X106960507Y-73750156D01*
X106936923Y-73830476D01*
X106305072Y-73198625D01*
X106246401Y-73282419D01*
X106146570Y-73496507D01*
X106146566Y-73496516D01*
X106085432Y-73724673D01*
X106085430Y-73724684D01*
X106064843Y-73959998D01*
X106064843Y-73960001D01*
X106085430Y-74195315D01*
X106085432Y-74195326D01*
X106146566Y-74423483D01*
X106146570Y-74423492D01*
X106246400Y-74637579D01*
X106246402Y-74637583D01*
X106305072Y-74721373D01*
X106305073Y-74721373D01*
X106936923Y-74089523D01*
X106960507Y-74169844D01*
X107038239Y-74290798D01*
X107146900Y-74384952D01*
X107277685Y-74444680D01*
X107287466Y-74446086D01*
X106658625Y-75074925D01*
X106735031Y-75128425D01*
X106778655Y-75183002D01*
X106785848Y-75252501D01*
X106754326Y-75314855D01*
X106735029Y-75331576D01*
X106658625Y-75385072D01*
X107287466Y-76013913D01*
X107277685Y-76015320D01*
X107146900Y-76075048D01*
X107038239Y-76169202D01*
X106960507Y-76290156D01*
X106936923Y-76370476D01*
X106305072Y-75738625D01*
X106246401Y-75822419D01*
X106146570Y-76036507D01*
X106146566Y-76036516D01*
X106085432Y-76264673D01*
X106085430Y-76264684D01*
X106064843Y-76499998D01*
X106064843Y-76500001D01*
X106085430Y-76735315D01*
X106085432Y-76735326D01*
X106146566Y-76963483D01*
X106146570Y-76963492D01*
X106246400Y-77177579D01*
X106246402Y-77177583D01*
X106305072Y-77261373D01*
X106305073Y-77261373D01*
X106936923Y-76629523D01*
X106960507Y-76709844D01*
X107038239Y-76830798D01*
X107146900Y-76924952D01*
X107277685Y-76984680D01*
X107287466Y-76986086D01*
X106658625Y-77614925D01*
X106742421Y-77673599D01*
X106956507Y-77773429D01*
X106956516Y-77773433D01*
X107184673Y-77834567D01*
X107184684Y-77834569D01*
X107419998Y-77855157D01*
X107420002Y-77855157D01*
X107655315Y-77834569D01*
X107655326Y-77834567D01*
X107883483Y-77773433D01*
X107883492Y-77773429D01*
X108097578Y-77673600D01*
X108097582Y-77673598D01*
X108181373Y-77614926D01*
X108181373Y-77614925D01*
X107552533Y-76986086D01*
X107562315Y-76984680D01*
X107693100Y-76924952D01*
X107801761Y-76830798D01*
X107879493Y-76709844D01*
X107903076Y-76629524D01*
X108534925Y-77261373D01*
X108588425Y-77184968D01*
X108643002Y-77141344D01*
X108712501Y-77134151D01*
X108774855Y-77165673D01*
X108791576Y-77184969D01*
X108845073Y-77261372D01*
X109476922Y-76629523D01*
X109500507Y-76709844D01*
X109578239Y-76830798D01*
X109686900Y-76924952D01*
X109817685Y-76984680D01*
X109827466Y-76986086D01*
X109198625Y-77614925D01*
X109282421Y-77673599D01*
X109496507Y-77773429D01*
X109496516Y-77773433D01*
X109724673Y-77834567D01*
X109724684Y-77834569D01*
X109959998Y-77855157D01*
X109960002Y-77855157D01*
X110195315Y-77834569D01*
X110195326Y-77834567D01*
X110423483Y-77773433D01*
X110423492Y-77773429D01*
X110637578Y-77673600D01*
X110637582Y-77673598D01*
X110721373Y-77614926D01*
X110721373Y-77614925D01*
X110092533Y-76986086D01*
X110102315Y-76984680D01*
X110233100Y-76924952D01*
X110341761Y-76830798D01*
X110419493Y-76709844D01*
X110443076Y-76629524D01*
X111074925Y-77261373D01*
X111128119Y-77185405D01*
X111182696Y-77141781D01*
X111252195Y-77134588D01*
X111314549Y-77166110D01*
X111331269Y-77185405D01*
X111461505Y-77371401D01*
X111628599Y-77538495D01*
X111724305Y-77605509D01*
X111822165Y-77674032D01*
X111822167Y-77674033D01*
X111822170Y-77674035D01*
X112036337Y-77773903D01*
X112264592Y-77835063D01*
X112452918Y-77851539D01*
X112499999Y-77855659D01*
X112500000Y-77855659D01*
X112500001Y-77855659D01*
X112539234Y-77852226D01*
X112735408Y-77835063D01*
X112963663Y-77773903D01*
X112963663Y-77773902D01*
X112968899Y-77772500D01*
X112968911Y-77772547D01*
X112979178Y-77769629D01*
X113744803Y-77610738D01*
X113795195Y-77610738D01*
X114560823Y-77769630D01*
X114571094Y-77772549D01*
X114571107Y-77772502D01*
X114682384Y-77802318D01*
X114804592Y-77835063D01*
X114992918Y-77851539D01*
X115039999Y-77855659D01*
X115040000Y-77855659D01*
X115040001Y-77855659D01*
X115079234Y-77852226D01*
X115275408Y-77835063D01*
X115503663Y-77773903D01*
X115503663Y-77773902D01*
X115508899Y-77772500D01*
X115508911Y-77772547D01*
X115519178Y-77769629D01*
X116150091Y-77638695D01*
X116214091Y-77642337D01*
X116322859Y-77678181D01*
X116380367Y-77717858D01*
X116401817Y-77757140D01*
X116463083Y-77943052D01*
X116465370Y-78012884D01*
X116429539Y-78072867D01*
X116366968Y-78103957D01*
X116320355Y-78103324D01*
X116301745Y-78099500D01*
X116301741Y-78099500D01*
X115312676Y-78099500D01*
X115268155Y-78098372D01*
X115223636Y-78097244D01*
X115223635Y-78097244D01*
X115223626Y-78097244D01*
X115163263Y-78108064D01*
X115158597Y-78108718D01*
X115097564Y-78114925D01*
X115064780Y-78125210D01*
X115057153Y-78127082D01*
X115023349Y-78133141D01*
X114966381Y-78155895D01*
X114961945Y-78157474D01*
X114903414Y-78175840D01*
X114903410Y-78175842D01*
X114873378Y-78192510D01*
X114866284Y-78195879D01*
X114834382Y-78208623D01*
X114834377Y-78208625D01*
X114783156Y-78242381D01*
X114779128Y-78244822D01*
X114725501Y-78274588D01*
X114699434Y-78296965D01*
X114693165Y-78301692D01*
X114664484Y-78320595D01*
X114664478Y-78320600D01*
X114621110Y-78363967D01*
X114617656Y-78367169D01*
X114571108Y-78407130D01*
X114571101Y-78407138D01*
X114550074Y-78434302D01*
X114544882Y-78440196D01*
X114428803Y-78556275D01*
X114401299Y-78577013D01*
X114389327Y-78583658D01*
X114372219Y-78591519D01*
X114357115Y-78597113D01*
X114357108Y-78597116D01*
X114293626Y-78636685D01*
X114290919Y-78638278D01*
X114225506Y-78674585D01*
X114225499Y-78674590D01*
X114213278Y-78685081D01*
X114198114Y-78696216D01*
X114184430Y-78704746D01*
X114184427Y-78704749D01*
X114130200Y-78756295D01*
X114127870Y-78758400D01*
X114071108Y-78807129D01*
X114071102Y-78807136D01*
X114061243Y-78819872D01*
X114048631Y-78833832D01*
X114036949Y-78844938D01*
X114036948Y-78844939D01*
X113994215Y-78906335D01*
X113992356Y-78908865D01*
X113959434Y-78951399D01*
X113902833Y-78992365D01*
X113861376Y-78999500D01*
X104724500Y-78999500D01*
X104657461Y-78979815D01*
X104611706Y-78927011D01*
X104600500Y-78875500D01*
X104600500Y-69765783D01*
X104620185Y-69698744D01*
X104636819Y-69678102D01*
X104989447Y-69325474D01*
X105343341Y-68971580D01*
X105439698Y-68853407D01*
X105533909Y-68673049D01*
X105589887Y-68477418D01*
X105589887Y-68477417D01*
X105591071Y-68473280D01*
X105614323Y-68436544D01*
X105812972Y-68436544D01*
X105824632Y-68450000D01*
X106925376Y-68450000D01*
X106852455Y-68464505D01*
X106769760Y-68519760D01*
X106714505Y-68602455D01*
X106695102Y-68700000D01*
X106714505Y-68797545D01*
X106769760Y-68880240D01*
X106852455Y-68935495D01*
X106925376Y-68950000D01*
X105828742Y-68950000D01*
X105855770Y-69061409D01*
X105943040Y-69252507D01*
X106064889Y-69423619D01*
X106064895Y-69423625D01*
X106216932Y-69568592D01*
X106393657Y-69682166D01*
X106588685Y-69760244D01*
X106794962Y-69800000D01*
X107150000Y-69800000D01*
X107150000Y-68950000D01*
X107650000Y-68950000D01*
X107650000Y-69800000D01*
X107952398Y-69800000D01*
X108109122Y-69785034D01*
X108109126Y-69785033D01*
X108310686Y-69725850D01*
X108497414Y-69629586D01*
X108662537Y-69499731D01*
X108662540Y-69499728D01*
X108800105Y-69340969D01*
X108800114Y-69340958D01*
X108905144Y-69159039D01*
X108905147Y-69159032D01*
X108973855Y-68960517D01*
X108973855Y-68960515D01*
X108975368Y-68950000D01*
X107874624Y-68950000D01*
X107947545Y-68935495D01*
X108030240Y-68880240D01*
X108085495Y-68797545D01*
X108104898Y-68700000D01*
X108085495Y-68602455D01*
X108030240Y-68519760D01*
X107947545Y-68464505D01*
X107874624Y-68450000D01*
X108971257Y-68450000D01*
X108944229Y-68338590D01*
X108856959Y-68147492D01*
X108735110Y-67976380D01*
X108735104Y-67976374D01*
X108583067Y-67831407D01*
X108406342Y-67717833D01*
X108211314Y-67639755D01*
X108005038Y-67600000D01*
X107650000Y-67600000D01*
X107650000Y-68450000D01*
X107150000Y-68450000D01*
X107150000Y-67600000D01*
X106847602Y-67600000D01*
X106690877Y-67614965D01*
X106690873Y-67614966D01*
X106489313Y-67674149D01*
X106302585Y-67770413D01*
X106137462Y-67900268D01*
X106137459Y-67900271D01*
X105999894Y-68059030D01*
X105999885Y-68059041D01*
X105894855Y-68240960D01*
X105894852Y-68240967D01*
X105840579Y-68397777D01*
X105812972Y-68436544D01*
X105614323Y-68436544D01*
X105621797Y-68424735D01*
X105616012Y-68419219D01*
X105599539Y-68351319D01*
X105599757Y-68347804D01*
X105605337Y-68274523D01*
X105605337Y-68274521D01*
X105579631Y-68072678D01*
X105579630Y-68072676D01*
X105579630Y-68072672D01*
X105513816Y-67880127D01*
X105466955Y-67800521D01*
X105410593Y-67704776D01*
X105410592Y-67704775D01*
X105410591Y-67704773D01*
X105274179Y-67553786D01*
X105274178Y-67553785D01*
X105274177Y-67553784D01*
X105110170Y-67433353D01*
X105110163Y-67433348D01*
X104925273Y-67348395D01*
X104925264Y-67348392D01*
X104727054Y-67302396D01*
X104523639Y-67297243D01*
X104523636Y-67297243D01*
X104323351Y-67333139D01*
X104323345Y-67333141D01*
X104134387Y-67408619D01*
X104134377Y-67408625D01*
X103964481Y-67520597D01*
X103786165Y-67698913D01*
X103724842Y-67732398D01*
X103655150Y-67727414D01*
X103599217Y-67685542D01*
X103574800Y-67620078D01*
X103589652Y-67551805D01*
X103594169Y-67544192D01*
X103609333Y-67520597D01*
X103682613Y-67406572D01*
X103760725Y-67211457D01*
X103800500Y-67005085D01*
X103800500Y-65847575D01*
X103785528Y-65690782D01*
X103726316Y-65489125D01*
X103630011Y-65302318D01*
X103630009Y-65302316D01*
X103630008Y-65302313D01*
X103500094Y-65137116D01*
X103500090Y-65137112D01*
X103341253Y-64999478D01*
X103159249Y-64894398D01*
X103159245Y-64894396D01*
X103159244Y-64894396D01*
X102960633Y-64825656D01*
X102752602Y-64795746D01*
X102752598Y-64795746D01*
X102542672Y-64805745D01*
X102338421Y-64855296D01*
X102338417Y-64855298D01*
X102147256Y-64942598D01*
X102147251Y-64942601D01*
X101976046Y-65064515D01*
X101976040Y-65064520D01*
X101831014Y-65216620D01*
X101717388Y-65393425D01*
X101639274Y-65588544D01*
X101619570Y-65690782D01*
X101599500Y-65794915D01*
X101599500Y-66952425D01*
X101614472Y-67109218D01*
X101673684Y-67310875D01*
X101724074Y-67408619D01*
X101769991Y-67497686D01*
X101899905Y-67662883D01*
X101899909Y-67662887D01*
X102058746Y-67800521D01*
X102240750Y-67905601D01*
X102240752Y-67905601D01*
X102240756Y-67905604D01*
X102439367Y-67974344D01*
X102647398Y-68004254D01*
X102857330Y-67994254D01*
X103061576Y-67944704D01*
X103158877Y-67900268D01*
X103252743Y-67857401D01*
X103252746Y-67857399D01*
X103252753Y-67857396D01*
X103345259Y-67791523D01*
X103411286Y-67768670D01*
X103479186Y-67785143D01*
X103527402Y-67835710D01*
X103540625Y-67904317D01*
X103514657Y-67969182D01*
X103504867Y-67980211D01*
X102901532Y-68583546D01*
X102836946Y-68644942D01*
X102801899Y-68695294D01*
X102799062Y-68699056D01*
X102760302Y-68746592D01*
X102760299Y-68746597D01*
X102744392Y-68777047D01*
X102740324Y-68783761D01*
X102720702Y-68811954D01*
X102696509Y-68868330D01*
X102694488Y-68872584D01*
X102666091Y-68926951D01*
X102666090Y-68926952D01*
X102656640Y-68959975D01*
X102654007Y-68967371D01*
X102640459Y-68998943D01*
X102628113Y-69059019D01*
X102626990Y-69063595D01*
X102610113Y-69122577D01*
X102610113Y-69122579D01*
X102607503Y-69156841D01*
X102606414Y-69164608D01*
X102600980Y-69191052D01*
X102599500Y-69198258D01*
X102599500Y-69259597D01*
X102599321Y-69264306D01*
X102594662Y-69325474D01*
X102594858Y-69327011D01*
X102599003Y-69359560D01*
X102599500Y-69367388D01*
X102599500Y-79973070D01*
X102599420Y-79976210D01*
X102595631Y-80050935D01*
X102595631Y-80050936D01*
X102598070Y-80066857D01*
X102599500Y-80085633D01*
X102599500Y-96337283D01*
X102597243Y-96426362D01*
X102597243Y-96426370D01*
X102608064Y-96486739D01*
X102608718Y-96491404D01*
X102614925Y-96552430D01*
X102614927Y-96552444D01*
X102625208Y-96585213D01*
X102627079Y-96592837D01*
X102633142Y-96626652D01*
X102633142Y-96626655D01*
X102655894Y-96683612D01*
X102657474Y-96688051D01*
X102675841Y-96746588D01*
X102675844Y-96746595D01*
X102692509Y-96776619D01*
X102695879Y-96783714D01*
X102708622Y-96815614D01*
X102708627Y-96815624D01*
X102742377Y-96866833D01*
X102744818Y-96870863D01*
X102774588Y-96924498D01*
X102774589Y-96924499D01*
X102774591Y-96924502D01*
X102796968Y-96950567D01*
X102801693Y-96956835D01*
X102814263Y-96975906D01*
X102820598Y-96985519D01*
X102863978Y-97028899D01*
X102867169Y-97032343D01*
X102907131Y-97078892D01*
X102907130Y-97078892D01*
X102934299Y-97099923D01*
X102940186Y-97105107D01*
X105746394Y-99911314D01*
X108322899Y-102487819D01*
X108356384Y-102549142D01*
X108351400Y-102618834D01*
X108309528Y-102674767D01*
X108244064Y-102699184D01*
X108235218Y-102699500D01*
X107347575Y-102699500D01*
X107190782Y-102714472D01*
X107190778Y-102714473D01*
X106989127Y-102773683D01*
X106802313Y-102869991D01*
X106637116Y-102999905D01*
X106637112Y-102999909D01*
X106499478Y-103158746D01*
X106394398Y-103340750D01*
X106325656Y-103539365D01*
X106325656Y-103539367D01*
X106310804Y-103642670D01*
X106295746Y-103747401D01*
X106305745Y-103957327D01*
X106355296Y-104161578D01*
X106355298Y-104161582D01*
X106442598Y-104352743D01*
X106442601Y-104352748D01*
X106442602Y-104352750D01*
X106442604Y-104352753D01*
X106547182Y-104499612D01*
X106564515Y-104523953D01*
X106564520Y-104523959D01*
X106716620Y-104668985D01*
X106811578Y-104730011D01*
X106893428Y-104782613D01*
X107088543Y-104860725D01*
X107191729Y-104880612D01*
X107294914Y-104900500D01*
X107294915Y-104900500D01*
X108452419Y-104900500D01*
X108452425Y-104900500D01*
X108609218Y-104885528D01*
X108810875Y-104826316D01*
X108997682Y-104730011D01*
X109162886Y-104600092D01*
X109300519Y-104441256D01*
X109405604Y-104259244D01*
X109474344Y-104060633D01*
X109492057Y-103937429D01*
X109521082Y-103873875D01*
X109579860Y-103836100D01*
X109649729Y-103836100D01*
X109702476Y-103867396D01*
X109713181Y-103878101D01*
X109746666Y-103939424D01*
X109749500Y-103965782D01*
X109749500Y-105061292D01*
X109746420Y-105088757D01*
X109505695Y-106148614D01*
X109448452Y-106362247D01*
X109448450Y-106362258D01*
X109429838Y-106574998D01*
X109429838Y-106575001D01*
X109448450Y-106787741D01*
X109448452Y-106787752D01*
X109503721Y-106994022D01*
X109503723Y-106994026D01*
X109503724Y-106994030D01*
X109546171Y-107085058D01*
X109593977Y-107187578D01*
X109716472Y-107362521D01*
X109867478Y-107513527D01*
X109867481Y-107513529D01*
X110042419Y-107636021D01*
X110042421Y-107636022D01*
X110042420Y-107636022D01*
X110106936Y-107666106D01*
X110235970Y-107726276D01*
X110442253Y-107781549D01*
X110594215Y-107794844D01*
X110654998Y-107800162D01*
X110655000Y-107800162D01*
X110655002Y-107800162D01*
X110708186Y-107795508D01*
X110867747Y-107781549D01*
X111074030Y-107726276D01*
X111267581Y-107636021D01*
X111442519Y-107513529D01*
X111593529Y-107362519D01*
X111716021Y-107187581D01*
X111806276Y-106994030D01*
X111861549Y-106787747D01*
X111880162Y-106575000D01*
X111877332Y-106542664D01*
X111877050Y-106525030D01*
X111877438Y-106518001D01*
X111863738Y-106362253D01*
X111754495Y-105120279D01*
X111750942Y-105090655D01*
X111750500Y-105083265D01*
X111750500Y-104184452D01*
X111770185Y-104117413D01*
X111822989Y-104071658D01*
X111892147Y-104061714D01*
X111955703Y-104090739D01*
X111962181Y-104096771D01*
X112838181Y-104972771D01*
X112871666Y-105034094D01*
X112874500Y-105060452D01*
X112874500Y-121706599D01*
X112854815Y-121773638D01*
X112802011Y-121819393D01*
X112801813Y-121819484D01*
X111956678Y-122203649D01*
X111956672Y-122203652D01*
X111947719Y-122208216D01*
X111939699Y-122211619D01*
X111935501Y-122213061D01*
X111731371Y-122323531D01*
X111731365Y-122323535D01*
X111548222Y-122466081D01*
X111548219Y-122466084D01*
X111548216Y-122466086D01*
X111548216Y-122466087D01*
X111391021Y-122636847D01*
X111391019Y-122636849D01*
X111391017Y-122636852D01*
X111353509Y-122694262D01*
X111300362Y-122739618D01*
X111231131Y-122749041D01*
X111167795Y-122719538D01*
X111153084Y-122702561D01*
X111151186Y-122702364D01*
X110483076Y-123370475D01*
X110459493Y-123290156D01*
X110381761Y-123169202D01*
X110273100Y-123075048D01*
X110142315Y-123015320D01*
X110132534Y-123013913D01*
X110798799Y-122347648D01*
X110798799Y-122347647D01*
X110768349Y-122323949D01*
X110564302Y-122213523D01*
X110564293Y-122213520D01*
X110344860Y-122138188D01*
X110116007Y-122100000D01*
X109883993Y-122100000D01*
X109655139Y-122138188D01*
X109435706Y-122213520D01*
X109435698Y-122213523D01*
X109231644Y-122323952D01*
X109201200Y-122347646D01*
X109201200Y-122347647D01*
X109867466Y-123013913D01*
X109857685Y-123015320D01*
X109726900Y-123075048D01*
X109618239Y-123169202D01*
X109540507Y-123290156D01*
X109516923Y-123370476D01*
X108848812Y-122702365D01*
X108764516Y-122831391D01*
X108764514Y-122831395D01*
X108671317Y-123043864D01*
X108614361Y-123268781D01*
X108595202Y-123499994D01*
X108595202Y-123500005D01*
X108614361Y-123731218D01*
X108671317Y-123956135D01*
X108764516Y-124168609D01*
X108848811Y-124297633D01*
X109516922Y-123629523D01*
X109540507Y-123709844D01*
X109618239Y-123830798D01*
X109726900Y-123924952D01*
X109857685Y-123984680D01*
X109867466Y-123986086D01*
X109186760Y-124666790D01*
X109183314Y-124681947D01*
X109133447Y-124730886D01*
X109075045Y-124745500D01*
X101003049Y-124745500D01*
X100996968Y-124745201D01*
X100866714Y-124732372D01*
X100842873Y-124727629D01*
X100726395Y-124692295D01*
X100703939Y-124682994D01*
X100596593Y-124625618D01*
X100576380Y-124612112D01*
X100482292Y-124534895D01*
X100465104Y-124517707D01*
X100387887Y-124423619D01*
X100374381Y-124403406D01*
X100317005Y-124296060D01*
X100307704Y-124273604D01*
X100272370Y-124157126D01*
X100267628Y-124133291D01*
X100254799Y-124003031D01*
X100254500Y-123996951D01*
X100254500Y-116500005D01*
X105594556Y-116500005D01*
X105614310Y-116814004D01*
X105614311Y-116814011D01*
X105673270Y-117123083D01*
X105770497Y-117422316D01*
X105770499Y-117422321D01*
X105904461Y-117707003D01*
X105904464Y-117707009D01*
X106073051Y-117972661D01*
X106073054Y-117972665D01*
X106273606Y-118215090D01*
X106273608Y-118215092D01*
X106502968Y-118430476D01*
X106502978Y-118430484D01*
X106757504Y-118615408D01*
X106757509Y-118615410D01*
X106757516Y-118615416D01*
X107033234Y-118766994D01*
X107033239Y-118766996D01*
X107033241Y-118766997D01*
X107033242Y-118766998D01*
X107325771Y-118882818D01*
X107325774Y-118882819D01*
X107630523Y-118961065D01*
X107630527Y-118961066D01*
X107696010Y-118969338D01*
X107942670Y-119000499D01*
X107942679Y-119000499D01*
X107942682Y-119000500D01*
X107942684Y-119000500D01*
X108257316Y-119000500D01*
X108257318Y-119000500D01*
X108257321Y-119000499D01*
X108257329Y-119000499D01*
X108443593Y-118976968D01*
X108569473Y-118961066D01*
X108874225Y-118882819D01*
X108874228Y-118882818D01*
X109166757Y-118766998D01*
X109166758Y-118766997D01*
X109166756Y-118766997D01*
X109166766Y-118766994D01*
X109442484Y-118615416D01*
X109697030Y-118430478D01*
X109926390Y-118215094D01*
X110126947Y-117972663D01*
X110295537Y-117707007D01*
X110429503Y-117422315D01*
X110526731Y-117123079D01*
X110585688Y-116814015D01*
X110605444Y-116500000D01*
X110585688Y-116185985D01*
X110526731Y-115876921D01*
X110429503Y-115577685D01*
X110295537Y-115292993D01*
X110126947Y-115027337D01*
X110126945Y-115027334D01*
X109926393Y-114784909D01*
X109926391Y-114784907D01*
X109697031Y-114569523D01*
X109697021Y-114569515D01*
X109442495Y-114384591D01*
X109442488Y-114384586D01*
X109442484Y-114384584D01*
X109166766Y-114233006D01*
X109166763Y-114233004D01*
X109166758Y-114233002D01*
X109166757Y-114233001D01*
X108874228Y-114117181D01*
X108874225Y-114117180D01*
X108569476Y-114038934D01*
X108569463Y-114038932D01*
X108257329Y-113999500D01*
X108257318Y-113999500D01*
X107942682Y-113999500D01*
X107942670Y-113999500D01*
X107630536Y-114038932D01*
X107630523Y-114038934D01*
X107325774Y-114117180D01*
X107325771Y-114117181D01*
X107033242Y-114233001D01*
X107033241Y-114233002D01*
X106757516Y-114384584D01*
X106757504Y-114384591D01*
X106502978Y-114569515D01*
X106502968Y-114569523D01*
X106273608Y-114784907D01*
X106273606Y-114784909D01*
X106073054Y-115027334D01*
X106073051Y-115027338D01*
X105904464Y-115292990D01*
X105904461Y-115292996D01*
X105770499Y-115577678D01*
X105770497Y-115577683D01*
X105673270Y-115876916D01*
X105614311Y-116185988D01*
X105614310Y-116185995D01*
X105594556Y-116499994D01*
X105594556Y-116500005D01*
X100254500Y-116500005D01*
X100254500Y-109115001D01*
X106889838Y-109115001D01*
X106908450Y-109327741D01*
X106908452Y-109327752D01*
X106963721Y-109534022D01*
X106963723Y-109534026D01*
X106963724Y-109534030D01*
X107006171Y-109625058D01*
X107053977Y-109727578D01*
X107176472Y-109902521D01*
X107327478Y-110053527D01*
X107327481Y-110053529D01*
X107502419Y-110176021D01*
X107502421Y-110176022D01*
X107502420Y-110176022D01*
X107566936Y-110206106D01*
X107695970Y-110266276D01*
X107902253Y-110321549D01*
X108054215Y-110334844D01*
X108114998Y-110340162D01*
X108115000Y-110340162D01*
X108115002Y-110340162D01*
X108168186Y-110335508D01*
X108327747Y-110321549D01*
X108534030Y-110266276D01*
X108727581Y-110176021D01*
X108902519Y-110053529D01*
X109053529Y-109902519D01*
X109176021Y-109727581D01*
X109266276Y-109534030D01*
X109321549Y-109327747D01*
X109340162Y-109115000D01*
X109321549Y-108902253D01*
X109266276Y-108695970D01*
X109176021Y-108502419D01*
X109053529Y-108327481D01*
X109053527Y-108327478D01*
X108902521Y-108176472D01*
X108727578Y-108053977D01*
X108727579Y-108053977D01*
X108598547Y-107993809D01*
X108534030Y-107963724D01*
X108534026Y-107963723D01*
X108534022Y-107963721D01*
X108327752Y-107908452D01*
X108327748Y-107908451D01*
X108327747Y-107908451D01*
X108327746Y-107908450D01*
X108327741Y-107908450D01*
X108115002Y-107889838D01*
X108114998Y-107889838D01*
X107902258Y-107908450D01*
X107902247Y-107908452D01*
X107695977Y-107963721D01*
X107695968Y-107963725D01*
X107502421Y-108053977D01*
X107327478Y-108176472D01*
X107176472Y-108327478D01*
X107053977Y-108502421D01*
X106963725Y-108695968D01*
X106963721Y-108695977D01*
X106908452Y-108902247D01*
X106908450Y-108902258D01*
X106889838Y-109114998D01*
X106889838Y-109115001D01*
X100254500Y-109115001D01*
X100254500Y-106575001D01*
X104349838Y-106575001D01*
X104368450Y-106787741D01*
X104368452Y-106787752D01*
X104423721Y-106994022D01*
X104423723Y-106994026D01*
X104423724Y-106994030D01*
X104466171Y-107085058D01*
X104513977Y-107187578D01*
X104636472Y-107362521D01*
X104787478Y-107513527D01*
X104787481Y-107513529D01*
X104962419Y-107636021D01*
X104962421Y-107636022D01*
X104962420Y-107636022D01*
X105026936Y-107666106D01*
X105155970Y-107726276D01*
X105362253Y-107781549D01*
X105514215Y-107794844D01*
X105574998Y-107800162D01*
X105575000Y-107800162D01*
X105575002Y-107800162D01*
X105628186Y-107795508D01*
X105787747Y-107781549D01*
X105994030Y-107726276D01*
X106187581Y-107636021D01*
X106362519Y-107513529D01*
X106513529Y-107362519D01*
X106636021Y-107187581D01*
X106726276Y-106994030D01*
X106781549Y-106787747D01*
X106800162Y-106575000D01*
X106781549Y-106362253D01*
X106726276Y-106155970D01*
X106636021Y-105962419D01*
X106513529Y-105787481D01*
X106513527Y-105787478D01*
X106362521Y-105636472D01*
X106187578Y-105513977D01*
X106187579Y-105513977D01*
X106058547Y-105453809D01*
X105994030Y-105423724D01*
X105994026Y-105423723D01*
X105994022Y-105423721D01*
X105787752Y-105368452D01*
X105787748Y-105368451D01*
X105787747Y-105368451D01*
X105787746Y-105368450D01*
X105787741Y-105368450D01*
X105575002Y-105349838D01*
X105574998Y-105349838D01*
X105362258Y-105368450D01*
X105362247Y-105368452D01*
X105155977Y-105423721D01*
X105155968Y-105423725D01*
X104962421Y-105513977D01*
X104787478Y-105636472D01*
X104636472Y-105787478D01*
X104513977Y-105962421D01*
X104423725Y-106155968D01*
X104423721Y-106155977D01*
X104368452Y-106362247D01*
X104368450Y-106362258D01*
X104349838Y-106574998D01*
X104349838Y-106575001D01*
X100254500Y-106575001D01*
X100254500Y-99652425D01*
X100999500Y-99652425D01*
X101014463Y-99809122D01*
X101014472Y-99809217D01*
X101014473Y-99809221D01*
X101073628Y-100010686D01*
X101073684Y-100010875D01*
X101123019Y-100106572D01*
X101169991Y-100197686D01*
X101299905Y-100362883D01*
X101299909Y-100362887D01*
X101458746Y-100500521D01*
X101640750Y-100605601D01*
X101640752Y-100605601D01*
X101640756Y-100605604D01*
X101839367Y-100674344D01*
X102047398Y-100704254D01*
X102257330Y-100694254D01*
X102461576Y-100644704D01*
X102548200Y-100605144D01*
X102652743Y-100557401D01*
X102652746Y-100557399D01*
X102652753Y-100557396D01*
X102823952Y-100435486D01*
X102824317Y-100435104D01*
X102968985Y-100283379D01*
X103024057Y-100197686D01*
X103082613Y-100106572D01*
X103160725Y-99911457D01*
X103200500Y-99705085D01*
X103200500Y-98547575D01*
X103185528Y-98390782D01*
X103126316Y-98189125D01*
X103030011Y-98002318D01*
X103030009Y-98002316D01*
X103030008Y-98002313D01*
X102900094Y-97837116D01*
X102900090Y-97837112D01*
X102741253Y-97699478D01*
X102559249Y-97594398D01*
X102559245Y-97594396D01*
X102559244Y-97594396D01*
X102360633Y-97525656D01*
X102152602Y-97495746D01*
X102152598Y-97495746D01*
X101942672Y-97505745D01*
X101738421Y-97555296D01*
X101738417Y-97555298D01*
X101547256Y-97642598D01*
X101547251Y-97642601D01*
X101376046Y-97764515D01*
X101376040Y-97764520D01*
X101231014Y-97916620D01*
X101117388Y-98093425D01*
X101039274Y-98288544D01*
X101004348Y-98469760D01*
X100999500Y-98494915D01*
X100999500Y-99652425D01*
X100254500Y-99652425D01*
X100254500Y-60547401D01*
X105795746Y-60547401D01*
X105805745Y-60757327D01*
X105855296Y-60961578D01*
X105855298Y-60961582D01*
X105942598Y-61152743D01*
X105942601Y-61152748D01*
X105942602Y-61152750D01*
X105942604Y-61152753D01*
X106005627Y-61241256D01*
X106064515Y-61323953D01*
X106064520Y-61323959D01*
X106216620Y-61468985D01*
X106311578Y-61530011D01*
X106393428Y-61582613D01*
X106588543Y-61660725D01*
X106691729Y-61680612D01*
X106794914Y-61700500D01*
X106794915Y-61700500D01*
X107952419Y-61700500D01*
X107952425Y-61700500D01*
X108109218Y-61685528D01*
X108310875Y-61626316D01*
X108497682Y-61530011D01*
X108662886Y-61400092D01*
X108800519Y-61241256D01*
X108905604Y-61059244D01*
X108974344Y-60860633D01*
X109004254Y-60652602D01*
X108994254Y-60442670D01*
X108944704Y-60238424D01*
X108944701Y-60238417D01*
X108857401Y-60047256D01*
X108857398Y-60047251D01*
X108857397Y-60047250D01*
X108857396Y-60047247D01*
X108735486Y-59876048D01*
X108735484Y-59876046D01*
X108735479Y-59876040D01*
X108583379Y-59731014D01*
X108406574Y-59617388D01*
X108211455Y-59539274D01*
X108005086Y-59499500D01*
X108005085Y-59499500D01*
X106847575Y-59499500D01*
X106690782Y-59514472D01*
X106690778Y-59514473D01*
X106489127Y-59573683D01*
X106302313Y-59669991D01*
X106137116Y-59799905D01*
X106137112Y-59799909D01*
X105999478Y-59958746D01*
X105894398Y-60140750D01*
X105825656Y-60339365D01*
X105825656Y-60339367D01*
X105810804Y-60442670D01*
X105795746Y-60547401D01*
X100254500Y-60547401D01*
X100254500Y-53550000D01*
X106324632Y-53550000D01*
X107425376Y-53550000D01*
X107352455Y-53564505D01*
X107269760Y-53619760D01*
X107214505Y-53702455D01*
X107195102Y-53800000D01*
X107214505Y-53897545D01*
X107269760Y-53980240D01*
X107352455Y-54035495D01*
X107425376Y-54050000D01*
X106328742Y-54050000D01*
X106355770Y-54161409D01*
X106443040Y-54352507D01*
X106564889Y-54523619D01*
X106564895Y-54523625D01*
X106716932Y-54668592D01*
X106893657Y-54782166D01*
X107088685Y-54860244D01*
X107294962Y-54900000D01*
X107650000Y-54900000D01*
X107650000Y-54050000D01*
X108150000Y-54050000D01*
X108150000Y-54900000D01*
X108452398Y-54900000D01*
X108609122Y-54885034D01*
X108609125Y-54885033D01*
X108731246Y-54849176D01*
X108801116Y-54849176D01*
X108859894Y-54886950D01*
X108888919Y-54950506D01*
X108878975Y-55019664D01*
X108833221Y-55072468D01*
X108822252Y-55078751D01*
X108808545Y-55085700D01*
X108803610Y-55088816D01*
X108803294Y-55088316D01*
X108786200Y-55098515D01*
X108747271Y-55115847D01*
X108747267Y-55115849D01*
X108594129Y-55227111D01*
X108467466Y-55367785D01*
X108372821Y-55531715D01*
X108372818Y-55531722D01*
X108317979Y-55700500D01*
X108314326Y-55711744D01*
X108294540Y-55900000D01*
X108314326Y-56088256D01*
X108314327Y-56088259D01*
X108372818Y-56268277D01*
X108372821Y-56268284D01*
X108467467Y-56432216D01*
X108581641Y-56559019D01*
X108594129Y-56572888D01*
X108747265Y-56684148D01*
X108747270Y-56684151D01*
X108920192Y-56761142D01*
X108920197Y-56761144D01*
X109105354Y-56800500D01*
X109105355Y-56800500D01*
X109294644Y-56800500D01*
X109294646Y-56800500D01*
X109479803Y-56761144D01*
X109652730Y-56684151D01*
X109805871Y-56572888D01*
X109932533Y-56432216D01*
X110027179Y-56268284D01*
X110027182Y-56268272D01*
X110029819Y-56262352D01*
X110029975Y-56262421D01*
X110033236Y-56254809D01*
X110033125Y-56254759D01*
X110111163Y-56081859D01*
X110273317Y-55722597D01*
X110298652Y-55685936D01*
X112083787Y-53900801D01*
X112096042Y-53890986D01*
X112095859Y-53890764D01*
X112101866Y-53885792D01*
X112101877Y-53885786D01*
X112132775Y-53852882D01*
X112149227Y-53835364D01*
X112159671Y-53824918D01*
X112170120Y-53814471D01*
X112174379Y-53808978D01*
X112178152Y-53804561D01*
X112210062Y-53770582D01*
X112219715Y-53753020D01*
X112230389Y-53736770D01*
X112242673Y-53720936D01*
X112261180Y-53678167D01*
X112263749Y-53672924D01*
X112286196Y-53632093D01*
X112286197Y-53632092D01*
X112291177Y-53612691D01*
X112297478Y-53594288D01*
X112305438Y-53575896D01*
X112312730Y-53529849D01*
X112313911Y-53524152D01*
X112325500Y-53479019D01*
X112325500Y-53458983D01*
X112327027Y-53439582D01*
X112330160Y-53419804D01*
X112325775Y-53373415D01*
X112325500Y-53367577D01*
X112325500Y-48328235D01*
X112333511Y-48284389D01*
X112405699Y-48093425D01*
X112538394Y-47742399D01*
X112552580Y-47699054D01*
X112553016Y-47695674D01*
X112558066Y-47673221D01*
X112567874Y-47643038D01*
X112585674Y-47588256D01*
X112605460Y-47400000D01*
X112585674Y-47211744D01*
X112527179Y-47031716D01*
X112432533Y-46867784D01*
X112305871Y-46727112D01*
X112305870Y-46727111D01*
X112152734Y-46615851D01*
X112152729Y-46615848D01*
X111979807Y-46538857D01*
X111979802Y-46538855D01*
X111834001Y-46507865D01*
X111794646Y-46499500D01*
X111605354Y-46499500D01*
X111572897Y-46506398D01*
X111420197Y-46538855D01*
X111420192Y-46538857D01*
X111247270Y-46615848D01*
X111247265Y-46615851D01*
X111094129Y-46727111D01*
X110967466Y-46867785D01*
X110872821Y-47031715D01*
X110872818Y-47031722D01*
X110814327Y-47211740D01*
X110814326Y-47211744D01*
X110794540Y-47400000D01*
X110800527Y-47456964D01*
X110787957Y-47525694D01*
X110740225Y-47576717D01*
X110672484Y-47593835D01*
X110636649Y-47587105D01*
X110460516Y-47526144D01*
X110450000Y-47524632D01*
X110450000Y-48625376D01*
X110435495Y-48552455D01*
X110380240Y-48469760D01*
X110297545Y-48414505D01*
X110200000Y-48395102D01*
X110102455Y-48414505D01*
X110019760Y-48469760D01*
X109964505Y-48552455D01*
X109950000Y-48625376D01*
X109950000Y-47528740D01*
X109949999Y-47528740D01*
X109838594Y-47555768D01*
X109838582Y-47555772D01*
X109647497Y-47643037D01*
X109647496Y-47643038D01*
X109476380Y-47764889D01*
X109476374Y-47764895D01*
X109331407Y-47916932D01*
X109217833Y-48093657D01*
X109139755Y-48288685D01*
X109100000Y-48494962D01*
X109100000Y-48850000D01*
X109950000Y-48850000D01*
X109950000Y-49350000D01*
X109100000Y-49350000D01*
X109100000Y-49652398D01*
X109114965Y-49809122D01*
X109114966Y-49809126D01*
X109174149Y-50010686D01*
X109270413Y-50197414D01*
X109400268Y-50362537D01*
X109400271Y-50362540D01*
X109559030Y-50500105D01*
X109559041Y-50500114D01*
X109740960Y-50605144D01*
X109740967Y-50605147D01*
X109939487Y-50673856D01*
X109950000Y-50675367D01*
X109950000Y-49574624D01*
X109964505Y-49647545D01*
X110019760Y-49730240D01*
X110102455Y-49785495D01*
X110200000Y-49804898D01*
X110297545Y-49785495D01*
X110380240Y-49730240D01*
X110435495Y-49647545D01*
X110450000Y-49574624D01*
X110450000Y-50671257D01*
X110561409Y-50644229D01*
X110752504Y-50556960D01*
X110878572Y-50467187D01*
X110944599Y-50444334D01*
X111012499Y-50460806D01*
X111060715Y-50511373D01*
X111074500Y-50568194D01*
X111074500Y-53089546D01*
X111054815Y-53156585D01*
X111038181Y-53177227D01*
X109414070Y-54801337D01*
X109377402Y-54826677D01*
X109123619Y-54941224D01*
X109054417Y-54950862D01*
X108990990Y-54921556D01*
X108953476Y-54862612D01*
X108953784Y-54792743D01*
X108991818Y-54734132D01*
X108995955Y-54730732D01*
X109162539Y-54599729D01*
X109162540Y-54599728D01*
X109300105Y-54440969D01*
X109300114Y-54440958D01*
X109405144Y-54259039D01*
X109405147Y-54259032D01*
X109473855Y-54060517D01*
X109473855Y-54060515D01*
X109475368Y-54050000D01*
X108374624Y-54050000D01*
X108447545Y-54035495D01*
X108530240Y-53980240D01*
X108585495Y-53897545D01*
X108604898Y-53800000D01*
X108585495Y-53702455D01*
X108530240Y-53619760D01*
X108447545Y-53564505D01*
X108374624Y-53550000D01*
X109471257Y-53550000D01*
X109444229Y-53438590D01*
X109356959Y-53247492D01*
X109235110Y-53076380D01*
X109235104Y-53076374D01*
X109083067Y-52931407D01*
X108906342Y-52817833D01*
X108711314Y-52739755D01*
X108505038Y-52700000D01*
X108150000Y-52700000D01*
X108150000Y-53550000D01*
X107650000Y-53550000D01*
X107650000Y-52700000D01*
X107347602Y-52700000D01*
X107190877Y-52714965D01*
X107190873Y-52714966D01*
X106989313Y-52774149D01*
X106802585Y-52870413D01*
X106637462Y-53000268D01*
X106637459Y-53000271D01*
X106499894Y-53159030D01*
X106499885Y-53159041D01*
X106394855Y-53340960D01*
X106394852Y-53340967D01*
X106326144Y-53539482D01*
X106326144Y-53539484D01*
X106324632Y-53550000D01*
X100254500Y-53550000D01*
X100254500Y-49652425D01*
X100999500Y-49652425D01*
X101014463Y-49809122D01*
X101014472Y-49809217D01*
X101014473Y-49809221D01*
X101073628Y-50010686D01*
X101073684Y-50010875D01*
X101153639Y-50165968D01*
X101169991Y-50197686D01*
X101299905Y-50362883D01*
X101299909Y-50362887D01*
X101458746Y-50500521D01*
X101640750Y-50605601D01*
X101640752Y-50605601D01*
X101640756Y-50605604D01*
X101839367Y-50674344D01*
X102047398Y-50704254D01*
X102257330Y-50694254D01*
X102461576Y-50644704D01*
X102548200Y-50605144D01*
X102652743Y-50557401D01*
X102652746Y-50557399D01*
X102652753Y-50557396D01*
X102823952Y-50435486D01*
X102824317Y-50435104D01*
X102968985Y-50283379D01*
X102980779Y-50265028D01*
X103082613Y-50106572D01*
X103160725Y-49911457D01*
X103200500Y-49705085D01*
X103200500Y-48547575D01*
X103185528Y-48390782D01*
X103126316Y-48189125D01*
X103030011Y-48002318D01*
X103030009Y-48002316D01*
X103030008Y-48002313D01*
X102900094Y-47837116D01*
X102900090Y-47837112D01*
X102741253Y-47699478D01*
X102559249Y-47594398D01*
X102559245Y-47594396D01*
X102559244Y-47594396D01*
X102360633Y-47525656D01*
X102152602Y-47495746D01*
X102152598Y-47495746D01*
X101942672Y-47505745D01*
X101738421Y-47555296D01*
X101738417Y-47555298D01*
X101547256Y-47642598D01*
X101547251Y-47642601D01*
X101376046Y-47764515D01*
X101376040Y-47764520D01*
X101231014Y-47916620D01*
X101117388Y-48093425D01*
X101039274Y-48288544D01*
X101004348Y-48469760D01*
X100999500Y-48494915D01*
X100999500Y-49652425D01*
X100254500Y-49652425D01*
X100254500Y-40500005D01*
X108595202Y-40500005D01*
X108614361Y-40731218D01*
X108671317Y-40956135D01*
X108764516Y-41168609D01*
X108848811Y-41297633D01*
X109516922Y-40629523D01*
X109540507Y-40709844D01*
X109618239Y-40830798D01*
X109726900Y-40924952D01*
X109857685Y-40984680D01*
X109867466Y-40986086D01*
X109201199Y-41652351D01*
X109231650Y-41676050D01*
X109435697Y-41786476D01*
X109435706Y-41786479D01*
X109655139Y-41861811D01*
X109883993Y-41900000D01*
X110116007Y-41900000D01*
X110344860Y-41861811D01*
X110564293Y-41786479D01*
X110564302Y-41786476D01*
X110768350Y-41676050D01*
X110798798Y-41652351D01*
X110132533Y-40986086D01*
X110142315Y-40984680D01*
X110273100Y-40924952D01*
X110381761Y-40830798D01*
X110459493Y-40709844D01*
X110483076Y-40629524D01*
X111151186Y-41297634D01*
X111155969Y-41297138D01*
X111199037Y-41260381D01*
X111268269Y-41250957D01*
X111331605Y-41280458D01*
X111353510Y-41305738D01*
X111391016Y-41363147D01*
X111391019Y-41363151D01*
X111391021Y-41363153D01*
X111548216Y-41533913D01*
X111548219Y-41533915D01*
X111548222Y-41533918D01*
X111731365Y-41676464D01*
X111731371Y-41676468D01*
X111731374Y-41676470D01*
X111898860Y-41767109D01*
X111934652Y-41786479D01*
X111935497Y-41786936D01*
X111942733Y-41789420D01*
X111973029Y-41799821D01*
X111989625Y-41806906D01*
X112001813Y-41813195D01*
X113393011Y-42295202D01*
X113440097Y-42324688D01*
X115088181Y-43972771D01*
X115121666Y-44034094D01*
X115124500Y-44060452D01*
X115124500Y-47764197D01*
X115104815Y-47831236D01*
X115052011Y-47876991D01*
X114982853Y-47886935D01*
X114919297Y-47857910D01*
X114903032Y-47840852D01*
X114900093Y-47837115D01*
X114900090Y-47837112D01*
X114741253Y-47699478D01*
X114559249Y-47594398D01*
X114559245Y-47594396D01*
X114559244Y-47594396D01*
X114360633Y-47525656D01*
X114152602Y-47495746D01*
X114152598Y-47495746D01*
X113942672Y-47505745D01*
X113738421Y-47555296D01*
X113738417Y-47555298D01*
X113547256Y-47642598D01*
X113547251Y-47642601D01*
X113376046Y-47764515D01*
X113376040Y-47764520D01*
X113231014Y-47916620D01*
X113117388Y-48093425D01*
X113039274Y-48288544D01*
X113004348Y-48469760D01*
X112999500Y-48494915D01*
X112999500Y-49652425D01*
X113014463Y-49809122D01*
X113014472Y-49809217D01*
X113014473Y-49809221D01*
X113073628Y-50010686D01*
X113073684Y-50010875D01*
X113153639Y-50165968D01*
X113169991Y-50197686D01*
X113299905Y-50362883D01*
X113299909Y-50362887D01*
X113458746Y-50500521D01*
X113640750Y-50605601D01*
X113640752Y-50605601D01*
X113640756Y-50605604D01*
X113839367Y-50674344D01*
X114047398Y-50704254D01*
X114257330Y-50694254D01*
X114461576Y-50644704D01*
X114548200Y-50605144D01*
X114652743Y-50557401D01*
X114652746Y-50557399D01*
X114652753Y-50557396D01*
X114823952Y-50435486D01*
X114824311Y-50435110D01*
X114910757Y-50344448D01*
X114971265Y-50309512D01*
X115041056Y-50312837D01*
X115097970Y-50353365D01*
X115123938Y-50418230D01*
X115124500Y-50430017D01*
X115124500Y-50821761D01*
X115116489Y-50865607D01*
X114942032Y-51327111D01*
X114911606Y-51407598D01*
X114897418Y-51450945D01*
X114896980Y-51454344D01*
X114891932Y-51476778D01*
X114864328Y-51561737D01*
X114864326Y-51561744D01*
X114844540Y-51750000D01*
X114864326Y-51938256D01*
X114864327Y-51938259D01*
X114922818Y-52118277D01*
X114922821Y-52118284D01*
X115017467Y-52282216D01*
X115144129Y-52422888D01*
X115210892Y-52471394D01*
X115253556Y-52526721D01*
X115259535Y-52596334D01*
X115226930Y-52658130D01*
X115225686Y-52659391D01*
X111801532Y-56083546D01*
X111736946Y-56144942D01*
X111701899Y-56195294D01*
X111699062Y-56199056D01*
X111660302Y-56246592D01*
X111660299Y-56246597D01*
X111644392Y-56277047D01*
X111640324Y-56283761D01*
X111620702Y-56311954D01*
X111596509Y-56368330D01*
X111594488Y-56372584D01*
X111566091Y-56426951D01*
X111566090Y-56426952D01*
X111556640Y-56459975D01*
X111554007Y-56467371D01*
X111540459Y-56498943D01*
X111528113Y-56559019D01*
X111526990Y-56563595D01*
X111510113Y-56622577D01*
X111510113Y-56622579D01*
X111507503Y-56656841D01*
X111506414Y-56664608D01*
X111502400Y-56684148D01*
X111499500Y-56698258D01*
X111499500Y-56759597D01*
X111499321Y-56764306D01*
X111494662Y-56825474D01*
X111496707Y-56841527D01*
X111499003Y-56859560D01*
X111499500Y-56867388D01*
X111499500Y-58850743D01*
X111514925Y-59002439D01*
X111575837Y-59196579D01*
X111575844Y-59196594D01*
X111674589Y-59374499D01*
X111674592Y-59374504D01*
X111807132Y-59528893D01*
X111807134Y-59528895D01*
X111968037Y-59653445D01*
X111968038Y-59653445D01*
X111968042Y-59653448D01*
X112150729Y-59743060D01*
X112347715Y-59794063D01*
X112550936Y-59804369D01*
X112752071Y-59773556D01*
X112942887Y-59702886D01*
X113115571Y-59595252D01*
X113263053Y-59455059D01*
X113379295Y-59288049D01*
X113459540Y-59101058D01*
X113500500Y-58901741D01*
X113500500Y-57265781D01*
X113520185Y-57198742D01*
X113536814Y-57178105D01*
X120073467Y-50641452D01*
X120138053Y-50580059D01*
X120173099Y-50529706D01*
X120175938Y-50525941D01*
X120187817Y-50511373D01*
X120214698Y-50478407D01*
X120230601Y-50447960D01*
X120234674Y-50441239D01*
X120239489Y-50434320D01*
X120254295Y-50413049D01*
X120278492Y-50356660D01*
X120280498Y-50352435D01*
X120308909Y-50298049D01*
X120318357Y-50265022D01*
X120320988Y-50257633D01*
X120334540Y-50226058D01*
X120346895Y-50165930D01*
X120347999Y-50161429D01*
X120364886Y-50102418D01*
X120367494Y-50068157D01*
X120368585Y-50060389D01*
X120375500Y-50026743D01*
X120375500Y-49965398D01*
X120375679Y-49960688D01*
X120380337Y-49899524D01*
X120375997Y-49865442D01*
X120375500Y-49857603D01*
X120375500Y-49652398D01*
X121100000Y-49652398D01*
X121114965Y-49809122D01*
X121114966Y-49809126D01*
X121174149Y-50010686D01*
X121270413Y-50197414D01*
X121400268Y-50362537D01*
X121400271Y-50362540D01*
X121559030Y-50500105D01*
X121559041Y-50500114D01*
X121740960Y-50605144D01*
X121740967Y-50605147D01*
X121939487Y-50673856D01*
X121950000Y-50675367D01*
X121950000Y-49574624D01*
X121964505Y-49647545D01*
X122019760Y-49730240D01*
X122102455Y-49785495D01*
X122200000Y-49804898D01*
X122297545Y-49785495D01*
X122380240Y-49730240D01*
X122435495Y-49647545D01*
X122450000Y-49574624D01*
X122450000Y-50671257D01*
X122561409Y-50644229D01*
X122752507Y-50556959D01*
X122923619Y-50435110D01*
X122923625Y-50435104D01*
X123068592Y-50283067D01*
X123182166Y-50106342D01*
X123260244Y-49911314D01*
X123300000Y-49705037D01*
X123300000Y-49350000D01*
X122450000Y-49350000D01*
X122450000Y-48850000D01*
X123300000Y-48850000D01*
X123300000Y-48547601D01*
X123285034Y-48390877D01*
X123285033Y-48390873D01*
X123225850Y-48189313D01*
X123129586Y-48002585D01*
X122999731Y-47837462D01*
X122999728Y-47837459D01*
X122840969Y-47699894D01*
X122840958Y-47699885D01*
X122659039Y-47594855D01*
X122659032Y-47594852D01*
X122460516Y-47526144D01*
X122450000Y-47524632D01*
X122450000Y-48625376D01*
X122435495Y-48552455D01*
X122380240Y-48469760D01*
X122297545Y-48414505D01*
X122200000Y-48395102D01*
X122102455Y-48414505D01*
X122019760Y-48469760D01*
X121964505Y-48552455D01*
X121950000Y-48625376D01*
X121950000Y-47528740D01*
X121949999Y-47528740D01*
X121838594Y-47555768D01*
X121838582Y-47555772D01*
X121647497Y-47643037D01*
X121647496Y-47643038D01*
X121476380Y-47764889D01*
X121476374Y-47764895D01*
X121331407Y-47916932D01*
X121217833Y-48093657D01*
X121139755Y-48288685D01*
X121100000Y-48494962D01*
X121100000Y-48850000D01*
X121950000Y-48850000D01*
X121950000Y-49350000D01*
X121100000Y-49350000D01*
X121100000Y-49652398D01*
X120375500Y-49652398D01*
X120375500Y-41840782D01*
X120395185Y-41773743D01*
X120411819Y-41753101D01*
X120631007Y-41533913D01*
X120962087Y-41202832D01*
X121023408Y-41169349D01*
X121093099Y-41174333D01*
X121149033Y-41216204D01*
X121169540Y-41258419D01*
X121173720Y-41274019D01*
X121173722Y-41274026D01*
X121173724Y-41274030D01*
X121184731Y-41297634D01*
X121263977Y-41467578D01*
X121386472Y-41642521D01*
X121537478Y-41793527D01*
X121537481Y-41793529D01*
X121712419Y-41916021D01*
X121712421Y-41916022D01*
X121712420Y-41916022D01*
X121776936Y-41946106D01*
X121905970Y-42006276D01*
X122112253Y-42061549D01*
X122264215Y-42074844D01*
X122324998Y-42080162D01*
X122325000Y-42080162D01*
X122325002Y-42080162D01*
X122378186Y-42075508D01*
X122537747Y-42061549D01*
X122744030Y-42006276D01*
X122937581Y-41916021D01*
X123112519Y-41793529D01*
X123263529Y-41642519D01*
X123386021Y-41467581D01*
X123476276Y-41274030D01*
X123531549Y-41067747D01*
X123550162Y-40855000D01*
X123550035Y-40853553D01*
X123537462Y-40709844D01*
X123531549Y-40642253D01*
X123476276Y-40435970D01*
X123386021Y-40242419D01*
X123288124Y-40102607D01*
X123263527Y-40067478D01*
X123112521Y-39916472D01*
X122937578Y-39793977D01*
X122937579Y-39793977D01*
X122788380Y-39724405D01*
X122744030Y-39703724D01*
X122744027Y-39703723D01*
X122728419Y-39699541D01*
X122668759Y-39663175D01*
X122638231Y-39600328D01*
X122646526Y-39530952D01*
X122672830Y-39492088D01*
X123023467Y-39141452D01*
X123088053Y-39080059D01*
X123123099Y-39029706D01*
X123125938Y-39025941D01*
X123129612Y-39021435D01*
X123164698Y-38978407D01*
X123180601Y-38947960D01*
X123184674Y-38941239D01*
X123194182Y-38927578D01*
X123204295Y-38913049D01*
X123228492Y-38856660D01*
X123230498Y-38852435D01*
X123258909Y-38798049D01*
X123268360Y-38765015D01*
X123270991Y-38757628D01*
X123281118Y-38734031D01*
X123284540Y-38726058D01*
X123296893Y-38665940D01*
X123298006Y-38661412D01*
X123314887Y-38602418D01*
X123317495Y-38568155D01*
X123318587Y-38560376D01*
X123325500Y-38526739D01*
X123325500Y-38465401D01*
X123325679Y-38460692D01*
X123330337Y-38399526D01*
X123325997Y-38365442D01*
X123325500Y-38357603D01*
X123325500Y-37295543D01*
X123326922Y-37276816D01*
X123513148Y-36057872D01*
X123514551Y-36051184D01*
X123516314Y-36044603D01*
X123531549Y-35987747D01*
X123541676Y-35871986D01*
X123542149Y-35868047D01*
X123542982Y-35862595D01*
X123544084Y-35855390D01*
X123546246Y-35836502D01*
X123546435Y-35834027D01*
X123547105Y-35825269D01*
X123546958Y-35815296D01*
X123547186Y-35809005D01*
X123550162Y-35775000D01*
X123531549Y-35562253D01*
X123476276Y-35355970D01*
X123386021Y-35162419D01*
X123263529Y-34987481D01*
X123263527Y-34987478D01*
X123112521Y-34836472D01*
X122937578Y-34713977D01*
X122937579Y-34713977D01*
X122808547Y-34653809D01*
X122744030Y-34623724D01*
X122744026Y-34623723D01*
X122744022Y-34623721D01*
X122537752Y-34568452D01*
X122537748Y-34568451D01*
X122537747Y-34568451D01*
X122537746Y-34568450D01*
X122537741Y-34568450D01*
X122325002Y-34549838D01*
X122324998Y-34549838D01*
X122112258Y-34568450D01*
X122112247Y-34568452D01*
X121905977Y-34623721D01*
X121905968Y-34623725D01*
X121712421Y-34713977D01*
X121537478Y-34836472D01*
X121386472Y-34987478D01*
X121263977Y-35162421D01*
X121173725Y-35355968D01*
X121173721Y-35355977D01*
X121118452Y-35562247D01*
X121118450Y-35562258D01*
X121099838Y-35774998D01*
X121099838Y-35775003D01*
X121107100Y-35858021D01*
X121107333Y-35862855D01*
X121107350Y-35864772D01*
X121107352Y-35864793D01*
X121107849Y-35868047D01*
X121108324Y-35872004D01*
X121118450Y-35987742D01*
X121118453Y-35987755D01*
X121135446Y-36051178D01*
X121136849Y-36057866D01*
X121323078Y-37276815D01*
X121324500Y-37295542D01*
X121324500Y-37959217D01*
X121304815Y-38026256D01*
X121288185Y-38046893D01*
X121232832Y-38102247D01*
X121194405Y-38140674D01*
X121133081Y-38174158D01*
X121063390Y-38169174D01*
X121007456Y-38127302D01*
X120986949Y-38085085D01*
X120936278Y-37895977D01*
X120936277Y-37895976D01*
X120936276Y-37895970D01*
X120846021Y-37702419D01*
X120723529Y-37527481D01*
X120723527Y-37527478D01*
X120572521Y-37376472D01*
X120397578Y-37253977D01*
X120397579Y-37253977D01*
X120268547Y-37193809D01*
X120204030Y-37163724D01*
X120204026Y-37163723D01*
X120204022Y-37163721D01*
X119997752Y-37108452D01*
X119997748Y-37108451D01*
X119997747Y-37108451D01*
X119997746Y-37108450D01*
X119997741Y-37108450D01*
X119785002Y-37089838D01*
X119784998Y-37089838D01*
X119572258Y-37108450D01*
X119572247Y-37108452D01*
X119365977Y-37163721D01*
X119365968Y-37163725D01*
X119172421Y-37253977D01*
X118997478Y-37376472D01*
X118846472Y-37527478D01*
X118723977Y-37702421D01*
X118633725Y-37895968D01*
X118633721Y-37895977D01*
X118578452Y-38102247D01*
X118578450Y-38102258D01*
X118559838Y-38314998D01*
X118559838Y-38315001D01*
X118578450Y-38527741D01*
X118578452Y-38527752D01*
X118633721Y-38734022D01*
X118633723Y-38734026D01*
X118633724Y-38734030D01*
X118663577Y-38798049D01*
X118723977Y-38927578D01*
X118846472Y-39102521D01*
X118997478Y-39253527D01*
X118997481Y-39253529D01*
X119172419Y-39376021D01*
X119172421Y-39376022D01*
X119172420Y-39376022D01*
X119236936Y-39406106D01*
X119365970Y-39466276D01*
X119365976Y-39466277D01*
X119365977Y-39466278D01*
X119555085Y-39516949D01*
X119614746Y-39553314D01*
X119645275Y-39616161D01*
X119636980Y-39685536D01*
X119610673Y-39724405D01*
X118676532Y-40658546D01*
X118611946Y-40719942D01*
X118576899Y-40770294D01*
X118574062Y-40774056D01*
X118535302Y-40821592D01*
X118535299Y-40821597D01*
X118519392Y-40852047D01*
X118515324Y-40858761D01*
X118495702Y-40886954D01*
X118471509Y-40943330D01*
X118469488Y-40947584D01*
X118441091Y-41001951D01*
X118441090Y-41001952D01*
X118431640Y-41034975D01*
X118429007Y-41042371D01*
X118415459Y-41073943D01*
X118403113Y-41134019D01*
X118401990Y-41138595D01*
X118385113Y-41197577D01*
X118385113Y-41197579D01*
X118382503Y-41231841D01*
X118381414Y-41239608D01*
X118377146Y-41260381D01*
X118374500Y-41273258D01*
X118374500Y-41334597D01*
X118374321Y-41339306D01*
X118369662Y-41400474D01*
X118371707Y-41416527D01*
X118374003Y-41434560D01*
X118374500Y-41442388D01*
X118374500Y-49459216D01*
X118354815Y-49526255D01*
X118338181Y-49546897D01*
X116693741Y-51191336D01*
X116632418Y-51224821D01*
X116562726Y-51219837D01*
X116506793Y-51177965D01*
X116490071Y-51147501D01*
X116383511Y-50865610D01*
X116375500Y-50821764D01*
X116375500Y-43832738D01*
X116377224Y-43817124D01*
X116376938Y-43817097D01*
X116377672Y-43809334D01*
X116375500Y-43740203D01*
X116375500Y-43710651D01*
X116375500Y-43710650D01*
X116374629Y-43703759D01*
X116374172Y-43697945D01*
X116372709Y-43651372D01*
X116367122Y-43632144D01*
X116363174Y-43613084D01*
X116360663Y-43593204D01*
X116343512Y-43549887D01*
X116341619Y-43544358D01*
X116328618Y-43499609D01*
X116328616Y-43499606D01*
X116318423Y-43482371D01*
X116309861Y-43464894D01*
X116302487Y-43446270D01*
X116302486Y-43446268D01*
X116275079Y-43408545D01*
X116271888Y-43403686D01*
X116248172Y-43363583D01*
X116248165Y-43363574D01*
X116234006Y-43349415D01*
X116221368Y-43334619D01*
X116209594Y-43318413D01*
X116173688Y-43288709D01*
X116169376Y-43284786D01*
X114996772Y-42112181D01*
X114963287Y-42050858D01*
X114968271Y-41981166D01*
X115010143Y-41925233D01*
X115075607Y-41900816D01*
X115084453Y-41900500D01*
X115116048Y-41900500D01*
X115116049Y-41900500D01*
X115344981Y-41862298D01*
X115564503Y-41786936D01*
X115768626Y-41676470D01*
X115812247Y-41642519D01*
X115830129Y-41628600D01*
X115951784Y-41533913D01*
X116108979Y-41363153D01*
X116235924Y-41168849D01*
X116329157Y-40956300D01*
X116386134Y-40731305D01*
X116386135Y-40731297D01*
X116405300Y-40500006D01*
X116405300Y-40499993D01*
X116386135Y-40268702D01*
X116386133Y-40268691D01*
X116329157Y-40043699D01*
X116235924Y-39831151D01*
X116108983Y-39636852D01*
X116108980Y-39636849D01*
X116108979Y-39636847D01*
X115951784Y-39466087D01*
X115951779Y-39466083D01*
X115951777Y-39466081D01*
X115768634Y-39323535D01*
X115768628Y-39323531D01*
X115564504Y-39213064D01*
X115564495Y-39213061D01*
X115344984Y-39137702D01*
X115173282Y-39109050D01*
X115116049Y-39099500D01*
X114883951Y-39099500D01*
X114838164Y-39107140D01*
X114655015Y-39137702D01*
X114435504Y-39213061D01*
X114435495Y-39213064D01*
X114231371Y-39323531D01*
X114231365Y-39323535D01*
X114048222Y-39466081D01*
X114048219Y-39466084D01*
X114048216Y-39466086D01*
X114048216Y-39466087D01*
X113967919Y-39553314D01*
X113891015Y-39636854D01*
X113853808Y-39693804D01*
X113800662Y-39739161D01*
X113731430Y-39748584D01*
X113668095Y-39719082D01*
X113646192Y-39693804D01*
X113608984Y-39636854D01*
X113608982Y-39636852D01*
X113608979Y-39636847D01*
X113451784Y-39466087D01*
X113451779Y-39466083D01*
X113451777Y-39466081D01*
X113268634Y-39323535D01*
X113268628Y-39323531D01*
X113064504Y-39213064D01*
X113064495Y-39213061D01*
X112844984Y-39137702D01*
X112673282Y-39109050D01*
X112616049Y-39099500D01*
X112383951Y-39099500D01*
X112338164Y-39107140D01*
X112155015Y-39137702D01*
X111935504Y-39213061D01*
X111935495Y-39213064D01*
X111731371Y-39323531D01*
X111731365Y-39323535D01*
X111548222Y-39466081D01*
X111548219Y-39466084D01*
X111548216Y-39466086D01*
X111548216Y-39466087D01*
X111391021Y-39636847D01*
X111391019Y-39636849D01*
X111391017Y-39636852D01*
X111353509Y-39694262D01*
X111300362Y-39739618D01*
X111231131Y-39749041D01*
X111167795Y-39719538D01*
X111153084Y-39702561D01*
X111151186Y-39702364D01*
X110483076Y-40370475D01*
X110459493Y-40290156D01*
X110381761Y-40169202D01*
X110273100Y-40075048D01*
X110142315Y-40015320D01*
X110132534Y-40013913D01*
X110798799Y-39347648D01*
X110798799Y-39347647D01*
X110768349Y-39323949D01*
X110564302Y-39213523D01*
X110564293Y-39213520D01*
X110344860Y-39138188D01*
X110116007Y-39100000D01*
X109883993Y-39100000D01*
X109655139Y-39138188D01*
X109435706Y-39213520D01*
X109435698Y-39213523D01*
X109231644Y-39323952D01*
X109201200Y-39347646D01*
X109201200Y-39347647D01*
X109867466Y-40013913D01*
X109857685Y-40015320D01*
X109726900Y-40075048D01*
X109618239Y-40169202D01*
X109540507Y-40290156D01*
X109516923Y-40370476D01*
X108848812Y-39702365D01*
X108764516Y-39831391D01*
X108764514Y-39831395D01*
X108671317Y-40043864D01*
X108614361Y-40268781D01*
X108595202Y-40499994D01*
X108595202Y-40500005D01*
X100254500Y-40500005D01*
X100254500Y-33500005D01*
X105594556Y-33500005D01*
X105614310Y-33814004D01*
X105614311Y-33814011D01*
X105673270Y-34123083D01*
X105770497Y-34422316D01*
X105770499Y-34422321D01*
X105904461Y-34707003D01*
X105904464Y-34707009D01*
X106073051Y-34972661D01*
X106073054Y-34972665D01*
X106273606Y-35215090D01*
X106273608Y-35215092D01*
X106502968Y-35430476D01*
X106502978Y-35430484D01*
X106757504Y-35615408D01*
X106757509Y-35615410D01*
X106757516Y-35615416D01*
X107033234Y-35766994D01*
X107033239Y-35766996D01*
X107033241Y-35766997D01*
X107033242Y-35766998D01*
X107325771Y-35882818D01*
X107325774Y-35882819D01*
X107630523Y-35961065D01*
X107630527Y-35961066D01*
X107696010Y-35969338D01*
X107942670Y-36000499D01*
X107942679Y-36000499D01*
X107942682Y-36000500D01*
X107942684Y-36000500D01*
X108257316Y-36000500D01*
X108257318Y-36000500D01*
X108257321Y-36000499D01*
X108257329Y-36000499D01*
X108443593Y-35976968D01*
X108569473Y-35961066D01*
X108874225Y-35882819D01*
X108911535Y-35868047D01*
X109166757Y-35766998D01*
X109166758Y-35766997D01*
X109166756Y-35766997D01*
X109166766Y-35766994D01*
X109442484Y-35615416D01*
X109697030Y-35430478D01*
X109926390Y-35215094D01*
X110126947Y-34972663D01*
X110295537Y-34707007D01*
X110429503Y-34422315D01*
X110526731Y-34123079D01*
X110585688Y-33814015D01*
X110605444Y-33500005D01*
X114394556Y-33500005D01*
X114414310Y-33814004D01*
X114414311Y-33814011D01*
X114473270Y-34123083D01*
X114570497Y-34422316D01*
X114570499Y-34422321D01*
X114704461Y-34707003D01*
X114704464Y-34707009D01*
X114873051Y-34972661D01*
X114873054Y-34972665D01*
X115073606Y-35215090D01*
X115073608Y-35215092D01*
X115302968Y-35430476D01*
X115302978Y-35430484D01*
X115557504Y-35615408D01*
X115557509Y-35615410D01*
X115557516Y-35615416D01*
X115833234Y-35766994D01*
X115833239Y-35766996D01*
X115833241Y-35766997D01*
X115833242Y-35766998D01*
X116125771Y-35882818D01*
X116125774Y-35882819D01*
X116430523Y-35961065D01*
X116430527Y-35961066D01*
X116496010Y-35969338D01*
X116742670Y-36000499D01*
X116742679Y-36000499D01*
X116742682Y-36000500D01*
X116742684Y-36000500D01*
X117057316Y-36000500D01*
X117057318Y-36000500D01*
X117057321Y-36000499D01*
X117057329Y-36000499D01*
X117243593Y-35976968D01*
X117369473Y-35961066D01*
X117674225Y-35882819D01*
X117711535Y-35868047D01*
X117966757Y-35766998D01*
X117966758Y-35766997D01*
X117966756Y-35766997D01*
X117966766Y-35766994D01*
X118242484Y-35615416D01*
X118497030Y-35430478D01*
X118726390Y-35215094D01*
X118926947Y-34972663D01*
X119095537Y-34707007D01*
X119229503Y-34422315D01*
X119326731Y-34123079D01*
X119385688Y-33814015D01*
X119405444Y-33500000D01*
X119385688Y-33185985D01*
X119326731Y-32876921D01*
X119229503Y-32577685D01*
X119095537Y-32292993D01*
X118926947Y-32027337D01*
X118926945Y-32027334D01*
X118726393Y-31784909D01*
X118726391Y-31784907D01*
X118497031Y-31569523D01*
X118497021Y-31569515D01*
X118242495Y-31384591D01*
X118242488Y-31384586D01*
X118242484Y-31384584D01*
X117966766Y-31233006D01*
X117966763Y-31233004D01*
X117966758Y-31233002D01*
X117966757Y-31233001D01*
X117674228Y-31117181D01*
X117674225Y-31117180D01*
X117369476Y-31038934D01*
X117369463Y-31038932D01*
X117057329Y-30999500D01*
X117057318Y-30999500D01*
X116742682Y-30999500D01*
X116742670Y-30999500D01*
X116430536Y-31038932D01*
X116430523Y-31038934D01*
X116125774Y-31117180D01*
X116125771Y-31117181D01*
X115833242Y-31233001D01*
X115833241Y-31233002D01*
X115557516Y-31384584D01*
X115557504Y-31384591D01*
X115302978Y-31569515D01*
X115302968Y-31569523D01*
X115073608Y-31784907D01*
X115073606Y-31784909D01*
X114873054Y-32027334D01*
X114873051Y-32027338D01*
X114704464Y-32292990D01*
X114704461Y-32292996D01*
X114570499Y-32577678D01*
X114570497Y-32577683D01*
X114473270Y-32876916D01*
X114414311Y-33185988D01*
X114414310Y-33185995D01*
X114394556Y-33499994D01*
X114394556Y-33500005D01*
X110605444Y-33500005D01*
X110605444Y-33500000D01*
X110585688Y-33185985D01*
X110526731Y-32876921D01*
X110429503Y-32577685D01*
X110295537Y-32292993D01*
X110126947Y-32027337D01*
X110126945Y-32027334D01*
X109926393Y-31784909D01*
X109926391Y-31784907D01*
X109697031Y-31569523D01*
X109697021Y-31569515D01*
X109442495Y-31384591D01*
X109442488Y-31384586D01*
X109442484Y-31384584D01*
X109166766Y-31233006D01*
X109166763Y-31233004D01*
X109166758Y-31233002D01*
X109166757Y-31233001D01*
X108874228Y-31117181D01*
X108874225Y-31117180D01*
X108569476Y-31038934D01*
X108569463Y-31038932D01*
X108257329Y-30999500D01*
X108257318Y-30999500D01*
X107942682Y-30999500D01*
X107942670Y-30999500D01*
X107630536Y-31038932D01*
X107630523Y-31038934D01*
X107325774Y-31117180D01*
X107325771Y-31117181D01*
X107033242Y-31233001D01*
X107033241Y-31233002D01*
X106757516Y-31384584D01*
X106757504Y-31384591D01*
X106502978Y-31569515D01*
X106502968Y-31569523D01*
X106273608Y-31784907D01*
X106273606Y-31784909D01*
X106073054Y-32027334D01*
X106073051Y-32027338D01*
X105904464Y-32292990D01*
X105904461Y-32292996D01*
X105770499Y-32577678D01*
X105770497Y-32577683D01*
X105673270Y-32876916D01*
X105614311Y-33185988D01*
X105614310Y-33185995D01*
X105594556Y-33499994D01*
X105594556Y-33500005D01*
X100254500Y-33500005D01*
X100254500Y-26003048D01*
X100254799Y-25996968D01*
X100264224Y-25901269D01*
X100267628Y-25866707D01*
X100272370Y-25842873D01*
X100307704Y-25726395D01*
X100317005Y-25703939D01*
X100374385Y-25596586D01*
X100387882Y-25576386D01*
X100465107Y-25482288D01*
X100482288Y-25465107D01*
X100576386Y-25387882D01*
X100596586Y-25374385D01*
X100703940Y-25317004D01*
X100726395Y-25307704D01*
X100812806Y-25281490D01*
X100842875Y-25272369D01*
X100866707Y-25267628D01*
X100949255Y-25259498D01*
X100996969Y-25254799D01*
X101003049Y-25254500D01*
X101044875Y-25254500D01*
X123955125Y-25254500D01*
X123996951Y-25254500D01*
X124003031Y-25254799D01*
G37*
%TD.AperFunction*%
%TA.AperFunction,Conductor*%
G36*
X111151186Y-124297634D02*
G01*
X111155969Y-124297138D01*
X111199037Y-124260381D01*
X111268269Y-124250957D01*
X111331605Y-124280458D01*
X111353509Y-124305737D01*
X111391021Y-124363153D01*
X111437993Y-124414178D01*
X111551534Y-124537518D01*
X111582456Y-124600172D01*
X111574596Y-124669598D01*
X111530448Y-124723754D01*
X111464031Y-124745444D01*
X111460304Y-124745500D01*
X110924953Y-124745500D01*
X110857914Y-124725815D01*
X110812159Y-124673011D01*
X110810499Y-124664052D01*
X110132533Y-123986086D01*
X110142315Y-123984680D01*
X110273100Y-123924952D01*
X110381761Y-123830798D01*
X110459493Y-123709844D01*
X110483076Y-123629524D01*
X111151186Y-124297634D01*
G37*
%TD.AperFunction*%
%TA.AperFunction,Conductor*%
G36*
X111505203Y-98590239D02*
G01*
X111511674Y-98596265D01*
X111981314Y-99065905D01*
X112399197Y-99483788D01*
X112409022Y-99496051D01*
X112409243Y-99495869D01*
X112414214Y-99501878D01*
X112440217Y-99526295D01*
X112464635Y-99549226D01*
X112485529Y-99570120D01*
X112491011Y-99574373D01*
X112495443Y-99578157D01*
X112529418Y-99610062D01*
X112546976Y-99619714D01*
X112563235Y-99630395D01*
X112579064Y-99642673D01*
X112621829Y-99661178D01*
X112627064Y-99663742D01*
X112667908Y-99686197D01*
X112669842Y-99687260D01*
X112685522Y-99697494D01*
X112964564Y-99911314D01*
X113038035Y-99967612D01*
X113072830Y-100009218D01*
X113169991Y-100197686D01*
X113299905Y-100362883D01*
X113299909Y-100362887D01*
X113458746Y-100500521D01*
X113640750Y-100605601D01*
X113640752Y-100605601D01*
X113640756Y-100605604D01*
X113839367Y-100674344D01*
X114047398Y-100704254D01*
X114108965Y-100701321D01*
X114176865Y-100717794D01*
X114225080Y-100768361D01*
X114238304Y-100836968D01*
X114212336Y-100901832D01*
X114202546Y-100912862D01*
X113527228Y-101588181D01*
X113465905Y-101621666D01*
X113439547Y-101624500D01*
X113428236Y-101624500D01*
X113384391Y-101616489D01*
X113178022Y-101538477D01*
X112859437Y-101418045D01*
X112842407Y-101411608D01*
X112842401Y-101411606D01*
X112842393Y-101411603D01*
X112802016Y-101398388D01*
X112796088Y-101396106D01*
X112790567Y-101393648D01*
X112779804Y-101388856D01*
X112687224Y-101369178D01*
X112594646Y-101349500D01*
X112405354Y-101349500D01*
X112372897Y-101356398D01*
X112220197Y-101388855D01*
X112220192Y-101388857D01*
X112047270Y-101465848D01*
X112047265Y-101465851D01*
X111894129Y-101577111D01*
X111767465Y-101717785D01*
X111696332Y-101840992D01*
X111645765Y-101889208D01*
X111577158Y-101902430D01*
X111512293Y-101876462D01*
X111501264Y-101866673D01*
X110490121Y-100855530D01*
X110456636Y-100794207D01*
X110461620Y-100724515D01*
X110503492Y-100668582D01*
X110548575Y-100647343D01*
X110561408Y-100644230D01*
X110752507Y-100556959D01*
X110923619Y-100435110D01*
X110923625Y-100435104D01*
X111068592Y-100283067D01*
X111182166Y-100106342D01*
X111260244Y-99911314D01*
X111300000Y-99705037D01*
X111300000Y-99350000D01*
X110450000Y-99350000D01*
X110450000Y-98850000D01*
X111300000Y-98850000D01*
X111300000Y-98683952D01*
X111319685Y-98616913D01*
X111372489Y-98571158D01*
X111441647Y-98561214D01*
X111505203Y-98590239D01*
G37*
%TD.AperFunction*%
%TA.AperFunction,Conductor*%
G36*
X108971088Y-97956491D02*
G01*
X108988832Y-97969122D01*
X108988872Y-97969068D01*
X108994127Y-97972886D01*
X108994129Y-97972888D01*
X109034636Y-98002318D01*
X109126760Y-98069250D01*
X109169425Y-98124580D01*
X109175404Y-98194194D01*
X109168992Y-98215653D01*
X109139757Y-98288681D01*
X109139755Y-98288685D01*
X109100000Y-98494962D01*
X109100000Y-98850000D01*
X109950000Y-98850000D01*
X109950000Y-99350000D01*
X109075073Y-99350000D01*
X109068644Y-99353510D01*
X108998952Y-99348520D01*
X108954614Y-99320023D01*
X108761819Y-99127228D01*
X108728334Y-99065905D01*
X108725500Y-99039547D01*
X108725500Y-98228234D01*
X108733511Y-98184388D01*
X108748970Y-98143493D01*
X108795194Y-98021211D01*
X108837310Y-97965466D01*
X108902882Y-97941338D01*
X108971088Y-97956491D01*
G37*
%TD.AperFunction*%
%TA.AperFunction,Conductor*%
G36*
X113142539Y-81020185D02*
G01*
X113188294Y-81072989D01*
X113199500Y-81124500D01*
X113199500Y-82387283D01*
X113197243Y-82476362D01*
X113197243Y-82476370D01*
X113208064Y-82536739D01*
X113208718Y-82541404D01*
X113214925Y-82602430D01*
X113214927Y-82602444D01*
X113225208Y-82635213D01*
X113227079Y-82642837D01*
X113233142Y-82676652D01*
X113233142Y-82676655D01*
X113255894Y-82733612D01*
X113257474Y-82738051D01*
X113275841Y-82796588D01*
X113275844Y-82796595D01*
X113292509Y-82826619D01*
X113295879Y-82833714D01*
X113308622Y-82865614D01*
X113308627Y-82865624D01*
X113342377Y-82916833D01*
X113344818Y-82920863D01*
X113374588Y-82974498D01*
X113374589Y-82974499D01*
X113374591Y-82974502D01*
X113396968Y-83000567D01*
X113401693Y-83006835D01*
X113414263Y-83025906D01*
X113420598Y-83035519D01*
X113463978Y-83078899D01*
X113467169Y-83082343D01*
X113507131Y-83128892D01*
X113507134Y-83128895D01*
X113534294Y-83149918D01*
X113540190Y-83155111D01*
X116183566Y-85798487D01*
X116244938Y-85863050D01*
X116244941Y-85863053D01*
X116295281Y-85898092D01*
X116299043Y-85900928D01*
X116346587Y-85939694D01*
X116346590Y-85939695D01*
X116346593Y-85939698D01*
X116377045Y-85955604D01*
X116383758Y-85959672D01*
X116411951Y-85979295D01*
X116468329Y-86003489D01*
X116472578Y-86005507D01*
X116526951Y-86033909D01*
X116554489Y-86041788D01*
X116559974Y-86043358D01*
X116567368Y-86045990D01*
X116598942Y-86059540D01*
X116598945Y-86059540D01*
X116598946Y-86059541D01*
X116659022Y-86071887D01*
X116663600Y-86073010D01*
X116677501Y-86076987D01*
X116722582Y-86089887D01*
X116756839Y-86092495D01*
X116764614Y-86093586D01*
X116798255Y-86100500D01*
X116798259Y-86100500D01*
X116859599Y-86100500D01*
X116864305Y-86100678D01*
X116899063Y-86103325D01*
X116925476Y-86105337D01*
X116925476Y-86105336D01*
X116925477Y-86105337D01*
X116959560Y-86100996D01*
X116967390Y-86100500D01*
X119050743Y-86100500D01*
X119202439Y-86085074D01*
X119396579Y-86024162D01*
X119396580Y-86024161D01*
X119396588Y-86024159D01*
X119415322Y-86013760D01*
X119483489Y-85998437D01*
X119549121Y-86022399D01*
X119591379Y-86078042D01*
X119599500Y-86122179D01*
X119599500Y-89434218D01*
X119579815Y-89501257D01*
X119563185Y-89521894D01*
X119474621Y-89610459D01*
X119395785Y-89689295D01*
X119334462Y-89722779D01*
X119264770Y-89717795D01*
X119208837Y-89675923D01*
X119184420Y-89610459D01*
X119185365Y-89583974D01*
X119204254Y-89452602D01*
X119194254Y-89242670D01*
X119144704Y-89038424D01*
X119144701Y-89038417D01*
X119057401Y-88847256D01*
X119057398Y-88847251D01*
X119057397Y-88847250D01*
X119057396Y-88847247D01*
X118935486Y-88676048D01*
X118935484Y-88676046D01*
X118935479Y-88676040D01*
X118783379Y-88531014D01*
X118606574Y-88417388D01*
X118411455Y-88339274D01*
X118205086Y-88299500D01*
X118205085Y-88299500D01*
X117047575Y-88299500D01*
X116890782Y-88314472D01*
X116890778Y-88314473D01*
X116689127Y-88373683D01*
X116502313Y-88469991D01*
X116337116Y-88599905D01*
X116337112Y-88599909D01*
X116199478Y-88758746D01*
X116094398Y-88940750D01*
X116025656Y-89139365D01*
X116025656Y-89139367D01*
X116010804Y-89242670D01*
X115995746Y-89347401D01*
X116005745Y-89557327D01*
X116055296Y-89761578D01*
X116055298Y-89761582D01*
X116142598Y-89952743D01*
X116142601Y-89952748D01*
X116142602Y-89952750D01*
X116142604Y-89952753D01*
X116264514Y-90123952D01*
X116264515Y-90123953D01*
X116264520Y-90123959D01*
X116416620Y-90268985D01*
X116529306Y-90341404D01*
X116593428Y-90382613D01*
X116788543Y-90460725D01*
X116871180Y-90476652D01*
X116994914Y-90500500D01*
X116994915Y-90500500D01*
X118152429Y-90500500D01*
X118229486Y-90493141D01*
X118286825Y-90487666D01*
X118355433Y-90500888D01*
X118406000Y-90549103D01*
X118422473Y-90617004D01*
X118399621Y-90683031D01*
X118386295Y-90698785D01*
X118321897Y-90763182D01*
X118260577Y-90796666D01*
X118234218Y-90799500D01*
X115965782Y-90799500D01*
X115898743Y-90779815D01*
X115878101Y-90763181D01*
X114936819Y-89821899D01*
X114903334Y-89760576D01*
X114900500Y-89734218D01*
X114900500Y-87112675D01*
X114902756Y-87023642D01*
X114902755Y-87023641D01*
X114902756Y-87023636D01*
X114891929Y-86963233D01*
X114891282Y-86958620D01*
X114885074Y-86897562D01*
X114885073Y-86897560D01*
X114885073Y-86897557D01*
X114874790Y-86864787D01*
X114872917Y-86857154D01*
X114866858Y-86823348D01*
X114844102Y-86766378D01*
X114842521Y-86761937D01*
X114824157Y-86703407D01*
X114807488Y-86673378D01*
X114804117Y-86666278D01*
X114791378Y-86634386D01*
X114791377Y-86634383D01*
X114757620Y-86583163D01*
X114755180Y-86579134D01*
X114744379Y-86559675D01*
X114725409Y-86525498D01*
X114725407Y-86525495D01*
X114703033Y-86499434D01*
X114698302Y-86493159D01*
X114679402Y-86464481D01*
X114636012Y-86421091D01*
X114632822Y-86417648D01*
X114592867Y-86371106D01*
X114592863Y-86371102D01*
X114565698Y-86350074D01*
X114559811Y-86344890D01*
X112886471Y-84671551D01*
X112886470Y-84671549D01*
X110716451Y-82501531D01*
X110655061Y-82436949D01*
X110655060Y-82436948D01*
X110655059Y-82436947D01*
X110627204Y-82417559D01*
X110604709Y-82401902D01*
X110600946Y-82399064D01*
X110553413Y-82360305D01*
X110553406Y-82360300D01*
X110522959Y-82344397D01*
X110516251Y-82340334D01*
X110488049Y-82320705D01*
X110488046Y-82320703D01*
X110488045Y-82320703D01*
X110488041Y-82320701D01*
X110431680Y-82296514D01*
X110427424Y-82294493D01*
X110373057Y-82266094D01*
X110373050Y-82266091D01*
X110373049Y-82266091D01*
X110367008Y-82264362D01*
X110340030Y-82256642D01*
X110332630Y-82254008D01*
X110301057Y-82240459D01*
X110301058Y-82240459D01*
X110240966Y-82228109D01*
X110236391Y-82226986D01*
X110177420Y-82210113D01*
X110177425Y-82210113D01*
X110143158Y-82207503D01*
X110135380Y-82206412D01*
X110101742Y-82199500D01*
X110101741Y-82199500D01*
X110040402Y-82199500D01*
X110035695Y-82199321D01*
X110030121Y-82198896D01*
X109974524Y-82194662D01*
X109954589Y-82197201D01*
X109940440Y-82199003D01*
X109932611Y-82199500D01*
X109849257Y-82199500D01*
X109697560Y-82214925D01*
X109503420Y-82275837D01*
X109503405Y-82275844D01*
X109325500Y-82374589D01*
X109325495Y-82374592D01*
X109171106Y-82507132D01*
X109171104Y-82507134D01*
X109046554Y-82668037D01*
X109046553Y-82668040D01*
X108956940Y-82850728D01*
X108905937Y-83047714D01*
X108895631Y-83250936D01*
X108926442Y-83452063D01*
X108926445Y-83452075D01*
X108997111Y-83642881D01*
X108997115Y-83642888D01*
X109104745Y-83815567D01*
X109104747Y-83815569D01*
X109104748Y-83815571D01*
X109244941Y-83963053D01*
X109411951Y-84079295D01*
X109481866Y-84109298D01*
X109520647Y-84135568D01*
X112863181Y-87478102D01*
X112896666Y-87539425D01*
X112899500Y-87565783D01*
X112899500Y-90187283D01*
X112897243Y-90276362D01*
X112897243Y-90276370D01*
X112908064Y-90336739D01*
X112908718Y-90341404D01*
X112914925Y-90402430D01*
X112914927Y-90402444D01*
X112925208Y-90435213D01*
X112927079Y-90442837D01*
X112933142Y-90476652D01*
X112933142Y-90476655D01*
X112955894Y-90533612D01*
X112957474Y-90538051D01*
X112975841Y-90596588D01*
X112975844Y-90596595D01*
X112992509Y-90626619D01*
X112995879Y-90633714D01*
X113008622Y-90665614D01*
X113008627Y-90665624D01*
X113042377Y-90716833D01*
X113044818Y-90720863D01*
X113074588Y-90774498D01*
X113074589Y-90774499D01*
X113074591Y-90774502D01*
X113096968Y-90800567D01*
X113101693Y-90806835D01*
X113114263Y-90825906D01*
X113120598Y-90835519D01*
X113163978Y-90878899D01*
X113167169Y-90882343D01*
X113207131Y-90928892D01*
X113207134Y-90928895D01*
X113234294Y-90949918D01*
X113240190Y-90955111D01*
X114783565Y-92498487D01*
X114840373Y-92558247D01*
X114872295Y-92620398D01*
X114874500Y-92643680D01*
X114874500Y-97561634D01*
X114854815Y-97628673D01*
X114802011Y-97674428D01*
X114732853Y-97684372D01*
X114688500Y-97669021D01*
X114559249Y-97594398D01*
X114559245Y-97594396D01*
X114559244Y-97594396D01*
X114360633Y-97525656D01*
X114152602Y-97495746D01*
X114152598Y-97495746D01*
X113942672Y-97505745D01*
X113738421Y-97555296D01*
X113738417Y-97555298D01*
X113547256Y-97642598D01*
X113547251Y-97642601D01*
X113376046Y-97764515D01*
X113376040Y-97764520D01*
X113231014Y-97916620D01*
X113117386Y-98093427D01*
X113090234Y-98161251D01*
X113047044Y-98216172D01*
X112981017Y-98239024D01*
X112913117Y-98222551D01*
X112887436Y-98202845D01*
X111600803Y-96916212D01*
X111590980Y-96903950D01*
X111590759Y-96904134D01*
X111585786Y-96898123D01*
X111556757Y-96870863D01*
X111535364Y-96850773D01*
X111524919Y-96840328D01*
X111514475Y-96829883D01*
X111508986Y-96825625D01*
X111504561Y-96821847D01*
X111470582Y-96789938D01*
X111470580Y-96789936D01*
X111470577Y-96789935D01*
X111453029Y-96780288D01*
X111436763Y-96769604D01*
X111420933Y-96757325D01*
X111378168Y-96738818D01*
X111372922Y-96736248D01*
X111332093Y-96713803D01*
X111332092Y-96713802D01*
X111312693Y-96708822D01*
X111294281Y-96702518D01*
X111275898Y-96694562D01*
X111275892Y-96694560D01*
X111229874Y-96687272D01*
X111224152Y-96686087D01*
X111179021Y-96674500D01*
X111179019Y-96674500D01*
X111158984Y-96674500D01*
X111139586Y-96672973D01*
X111132162Y-96671797D01*
X111119805Y-96669840D01*
X111119804Y-96669840D01*
X111073416Y-96674225D01*
X111067578Y-96674500D01*
X110528236Y-96674500D01*
X110484391Y-96666489D01*
X110182664Y-96552430D01*
X109959437Y-96468045D01*
X109942407Y-96461608D01*
X109942401Y-96461606D01*
X109942393Y-96461603D01*
X109902016Y-96448388D01*
X109896088Y-96446106D01*
X109890567Y-96443648D01*
X109879804Y-96438856D01*
X109787224Y-96419178D01*
X109694646Y-96399500D01*
X109505354Y-96399500D01*
X109472897Y-96406398D01*
X109320197Y-96438855D01*
X109320192Y-96438857D01*
X109147270Y-96515848D01*
X109147265Y-96515851D01*
X108994132Y-96627109D01*
X108994129Y-96627111D01*
X108994129Y-96627112D01*
X108942148Y-96684841D01*
X108882663Y-96721489D01*
X108812806Y-96720158D01*
X108757851Y-96684841D01*
X108705871Y-96627112D01*
X108705238Y-96626652D01*
X108552734Y-96515851D01*
X108552729Y-96515848D01*
X108379807Y-96438857D01*
X108379802Y-96438855D01*
X108234001Y-96407865D01*
X108194646Y-96399500D01*
X108005354Y-96399500D01*
X107972897Y-96406398D01*
X107820197Y-96438855D01*
X107820192Y-96438857D01*
X107647270Y-96515848D01*
X107647265Y-96515851D01*
X107494129Y-96627111D01*
X107367466Y-96767785D01*
X107272821Y-96931715D01*
X107272818Y-96931722D01*
X107225000Y-97078892D01*
X107214326Y-97111744D01*
X107194540Y-97300000D01*
X107214326Y-97488256D01*
X107214328Y-97488262D01*
X107254621Y-97612274D01*
X107256181Y-97617989D01*
X107261602Y-97642390D01*
X107261607Y-97642406D01*
X107466489Y-98184390D01*
X107474500Y-98228236D01*
X107474500Y-98510217D01*
X107454815Y-98577256D01*
X107402011Y-98623011D01*
X107332853Y-98632955D01*
X107269297Y-98603930D01*
X107262819Y-98597898D01*
X104636819Y-95971898D01*
X104603334Y-95910575D01*
X104600500Y-95884217D01*
X104600500Y-81124500D01*
X104620185Y-81057461D01*
X104672989Y-81011706D01*
X104724500Y-81000500D01*
X113075500Y-81000500D01*
X113142539Y-81020185D01*
G37*
%TD.AperFunction*%
%TA.AperFunction,Conductor*%
G36*
X119101256Y-72820185D02*
G01*
X119121898Y-72836819D01*
X121063181Y-74778102D01*
X121096666Y-74839425D01*
X121099500Y-74865783D01*
X121099500Y-78634216D01*
X121079815Y-78701255D01*
X121063181Y-78721897D01*
X119901531Y-79883547D01*
X119836946Y-79944942D01*
X119801899Y-79995294D01*
X119799062Y-79999056D01*
X119760302Y-80046592D01*
X119760299Y-80046597D01*
X119744392Y-80077047D01*
X119740324Y-80083761D01*
X119720702Y-80111954D01*
X119696509Y-80168330D01*
X119694488Y-80172584D01*
X119666091Y-80226951D01*
X119666090Y-80226952D01*
X119656640Y-80259975D01*
X119654007Y-80267371D01*
X119640459Y-80298943D01*
X119628113Y-80359019D01*
X119626990Y-80363595D01*
X119610113Y-80422577D01*
X119610113Y-80422579D01*
X119607503Y-80456841D01*
X119606414Y-80464608D01*
X119600980Y-80491052D01*
X119599500Y-80498258D01*
X119599500Y-80559597D01*
X119599321Y-80564306D01*
X119594662Y-80625474D01*
X119596707Y-80641527D01*
X119599003Y-80659560D01*
X119599500Y-80667388D01*
X119599500Y-84080383D01*
X119579815Y-84147422D01*
X119527011Y-84193177D01*
X119457853Y-84203121D01*
X119426600Y-84194334D01*
X119301058Y-84140460D01*
X119101741Y-84099500D01*
X117365782Y-84099500D01*
X117298743Y-84079815D01*
X117278101Y-84063181D01*
X115236819Y-82021899D01*
X115203334Y-81960576D01*
X115200500Y-81934218D01*
X115200500Y-80665781D01*
X115220185Y-80598742D01*
X115236815Y-80578104D01*
X115498468Y-80316451D01*
X115563053Y-80255059D01*
X115563829Y-80253943D01*
X115584839Y-80230685D01*
X115628895Y-80192866D01*
X115649928Y-80165691D01*
X115655098Y-80159821D01*
X115669849Y-80145070D01*
X115678104Y-80136817D01*
X115739428Y-80103333D01*
X115765783Y-80100500D01*
X116250743Y-80100500D01*
X116402439Y-80085074D01*
X116596579Y-80024162D01*
X116596580Y-80024161D01*
X116596588Y-80024159D01*
X116774502Y-79925409D01*
X116819787Y-79886531D01*
X116883474Y-79857800D01*
X116952586Y-79868061D01*
X116978915Y-79884514D01*
X117046593Y-79939698D01*
X117097534Y-79966307D01*
X117147840Y-80014793D01*
X117163947Y-80082781D01*
X117140740Y-80148684D01*
X117085588Y-80191579D01*
X117050477Y-80199124D01*
X117050534Y-80199720D01*
X116890877Y-80214965D01*
X116890873Y-80214966D01*
X116689313Y-80274149D01*
X116502585Y-80370413D01*
X116337462Y-80500268D01*
X116337459Y-80500271D01*
X116199894Y-80659030D01*
X116199885Y-80659041D01*
X116094855Y-80840960D01*
X116094852Y-80840967D01*
X116026144Y-81039482D01*
X116026144Y-81039484D01*
X116024632Y-81050000D01*
X117125376Y-81050000D01*
X117052455Y-81064505D01*
X116969760Y-81119760D01*
X116914505Y-81202455D01*
X116895102Y-81300000D01*
X116914505Y-81397545D01*
X116969760Y-81480240D01*
X117052455Y-81535495D01*
X117125376Y-81550000D01*
X116028742Y-81550000D01*
X116055770Y-81661409D01*
X116143040Y-81852507D01*
X116264889Y-82023619D01*
X116264895Y-82023625D01*
X116416932Y-82168592D01*
X116593657Y-82282166D01*
X116788685Y-82360244D01*
X116994962Y-82400000D01*
X117350000Y-82400000D01*
X117350000Y-81550000D01*
X117850000Y-81550000D01*
X117850000Y-82400000D01*
X118152398Y-82400000D01*
X118309122Y-82385034D01*
X118309126Y-82385033D01*
X118510686Y-82325850D01*
X118697414Y-82229586D01*
X118862537Y-82099731D01*
X118862540Y-82099728D01*
X119000105Y-81940969D01*
X119000114Y-81940958D01*
X119105144Y-81759039D01*
X119105147Y-81759032D01*
X119173855Y-81560517D01*
X119173855Y-81560515D01*
X119175368Y-81550000D01*
X118074624Y-81550000D01*
X118147545Y-81535495D01*
X118230240Y-81480240D01*
X118285495Y-81397545D01*
X118304898Y-81300000D01*
X118285495Y-81202455D01*
X118230240Y-81119760D01*
X118147545Y-81064505D01*
X118074624Y-81050000D01*
X119171257Y-81050000D01*
X119144229Y-80938590D01*
X119056959Y-80747492D01*
X118935110Y-80576380D01*
X118935104Y-80576374D01*
X118783067Y-80431407D01*
X118606342Y-80317833D01*
X118411314Y-80239755D01*
X118205038Y-80200000D01*
X118158670Y-80200000D01*
X118091631Y-80180315D01*
X118045876Y-80127511D01*
X118035932Y-80058353D01*
X118064957Y-79994797D01*
X118095764Y-79969141D01*
X118112897Y-79959054D01*
X118195227Y-79910590D01*
X118346213Y-79774179D01*
X118466649Y-79610167D01*
X118551605Y-79425268D01*
X118557223Y-79401061D01*
X118597602Y-79227053D01*
X118598243Y-79201741D01*
X118602756Y-79023637D01*
X118582445Y-78910312D01*
X118580500Y-78888437D01*
X118580500Y-78316224D01*
X118586730Y-78277414D01*
X118640277Y-78114925D01*
X118888590Y-77361417D01*
X118896992Y-77323271D01*
X118898688Y-77317106D01*
X118919999Y-77252797D01*
X118930500Y-77150009D01*
X118930499Y-75849992D01*
X118919999Y-75747203D01*
X118864814Y-75580666D01*
X118772712Y-75431344D01*
X118648656Y-75307288D01*
X118555888Y-75250069D01*
X118499336Y-75215187D01*
X118499331Y-75215185D01*
X118499215Y-75215146D01*
X118490733Y-75212336D01*
X118433290Y-75172564D01*
X118406467Y-75108048D01*
X118418782Y-75039272D01*
X118447767Y-75002517D01*
X118447573Y-75002323D01*
X118449219Y-75000676D01*
X118450040Y-74999636D01*
X118451388Y-74998504D01*
X118451401Y-74998495D01*
X118618495Y-74831401D01*
X118754035Y-74637830D01*
X118853903Y-74423663D01*
X118915063Y-74195408D01*
X118935659Y-73960000D01*
X118933417Y-73934380D01*
X118921611Y-73799434D01*
X118915063Y-73724592D01*
X118853903Y-73496337D01*
X118754035Y-73282171D01*
X118695960Y-73199230D01*
X118618494Y-73088597D01*
X118542078Y-73012181D01*
X118508593Y-72950858D01*
X118513577Y-72881166D01*
X118555449Y-72825233D01*
X118620913Y-72800816D01*
X118629759Y-72800500D01*
X119034217Y-72800500D01*
X119101256Y-72820185D01*
G37*
%TD.AperFunction*%
%TA.AperFunction,Conductor*%
G36*
X109500507Y-74169844D02*
G01*
X109578239Y-74290798D01*
X109686900Y-74384952D01*
X109817685Y-74444680D01*
X109827466Y-74446086D01*
X109198625Y-75074925D01*
X109275031Y-75128425D01*
X109318655Y-75183002D01*
X109325848Y-75252501D01*
X109294326Y-75314855D01*
X109275029Y-75331576D01*
X109198625Y-75385072D01*
X109827466Y-76013913D01*
X109817685Y-76015320D01*
X109686900Y-76075048D01*
X109578239Y-76169202D01*
X109500507Y-76290156D01*
X109476923Y-76370475D01*
X108845073Y-75738625D01*
X108845072Y-75738626D01*
X108791574Y-75815030D01*
X108736998Y-75858655D01*
X108667499Y-75865849D01*
X108605144Y-75834326D01*
X108588424Y-75815030D01*
X108534925Y-75738626D01*
X108534925Y-75738625D01*
X107903076Y-76370475D01*
X107879493Y-76290156D01*
X107801761Y-76169202D01*
X107693100Y-76075048D01*
X107562315Y-76015320D01*
X107552533Y-76013913D01*
X108181373Y-75385073D01*
X108104969Y-75331576D01*
X108061344Y-75276999D01*
X108054150Y-75207501D01*
X108085672Y-75145146D01*
X108104968Y-75128425D01*
X108181373Y-75074925D01*
X107552533Y-74446086D01*
X107562315Y-74444680D01*
X107693100Y-74384952D01*
X107801761Y-74290798D01*
X107879493Y-74169844D01*
X107903076Y-74089524D01*
X108534925Y-74721373D01*
X108588425Y-74644968D01*
X108643002Y-74601344D01*
X108712501Y-74594151D01*
X108774855Y-74625673D01*
X108791576Y-74644969D01*
X108845073Y-74721372D01*
X109476922Y-74089523D01*
X109500507Y-74169844D01*
G37*
%TD.AperFunction*%
%TA.AperFunction,Conductor*%
G36*
X111074925Y-74721373D02*
G01*
X111128119Y-74645405D01*
X111182696Y-74601781D01*
X111252195Y-74594588D01*
X111314549Y-74626110D01*
X111331269Y-74645405D01*
X111461505Y-74831401D01*
X111461506Y-74831402D01*
X111628597Y-74998493D01*
X111628603Y-74998498D01*
X111814158Y-75128425D01*
X111857783Y-75183002D01*
X111864977Y-75252500D01*
X111833454Y-75314855D01*
X111814158Y-75331575D01*
X111628597Y-75461505D01*
X111461505Y-75628597D01*
X111331269Y-75814595D01*
X111276692Y-75858220D01*
X111207194Y-75865414D01*
X111144839Y-75833891D01*
X111128119Y-75814595D01*
X111074925Y-75738626D01*
X111074925Y-75738625D01*
X110443076Y-76370475D01*
X110419493Y-76290156D01*
X110341761Y-76169202D01*
X110233100Y-76075048D01*
X110102315Y-76015320D01*
X110092533Y-76013913D01*
X110721373Y-75385073D01*
X110644969Y-75331576D01*
X110601344Y-75276999D01*
X110594150Y-75207501D01*
X110625672Y-75145146D01*
X110644968Y-75128425D01*
X110721373Y-75074925D01*
X110092533Y-74446086D01*
X110102315Y-74444680D01*
X110233100Y-74384952D01*
X110341761Y-74290798D01*
X110419493Y-74169844D01*
X110443076Y-74089524D01*
X111074925Y-74721373D01*
G37*
%TD.AperFunction*%
%TD*%
%TA.AperFunction,Conductor*%
%TO.N,Net-(D1-A)*%
G36*
X116885726Y-75672177D02*
G01*
X116889424Y-75675107D01*
X117574697Y-76492483D01*
X117577386Y-76501025D01*
X117574697Y-76507517D01*
X116889424Y-77324892D01*
X116881483Y-77329030D01*
X116876796Y-77328487D01*
X115888038Y-77002648D01*
X115881253Y-76996804D01*
X115880000Y-76991536D01*
X115880000Y-76008463D01*
X115883427Y-76000190D01*
X115888038Y-75997351D01*
X116876797Y-75671512D01*
X116885726Y-75672177D01*
G37*
%TD.AperFunction*%
%TD*%
%TA.AperFunction,Conductor*%
%TO.N,/CV_IN2*%
G36*
X109780696Y-96940890D02*
G01*
X110392437Y-97172141D01*
X110398964Y-97178272D01*
X110400000Y-97183085D01*
X110400000Y-97416914D01*
X110396573Y-97425187D01*
X110392437Y-97427858D01*
X109763655Y-97665551D01*
X109754705Y-97665271D01*
X109748719Y-97659109D01*
X109652306Y-97427858D01*
X109600875Y-97304499D01*
X109600855Y-97295550D01*
X109748719Y-96940889D01*
X109755066Y-96934572D01*
X109763654Y-96934448D01*
X109780696Y-96940890D01*
G37*
%TD.AperFunction*%
%TD*%
%TA.AperFunction,Conductor*%
%TO.N,Net-(D1-A)*%
G36*
X117587517Y-76505302D02*
G01*
X118404892Y-77190575D01*
X118409030Y-77198516D01*
X118408487Y-77203203D01*
X118082649Y-78191962D01*
X118076805Y-78198747D01*
X118071537Y-78200000D01*
X117088463Y-78200000D01*
X117080190Y-78196573D01*
X117077351Y-78191962D01*
X116751512Y-77203203D01*
X116752177Y-77194273D01*
X116755104Y-77190578D01*
X117572483Y-76505301D01*
X117581025Y-76502613D01*
X117587517Y-76505302D01*
G37*
%TD.AperFunction*%
%TD*%
%TA.AperFunction,Conductor*%
%TO.N,/CV_IN1*%
G36*
X121868979Y-51950868D02*
G01*
X121874646Y-51955881D01*
X121958816Y-52103804D01*
X122189717Y-52509599D01*
X122190830Y-52518483D01*
X122187821Y-52523657D01*
X122022472Y-52689006D01*
X122014199Y-52692433D01*
X122010483Y-52691827D01*
X121358792Y-52473526D01*
X121352035Y-52467649D01*
X121351414Y-52458716D01*
X121351678Y-52458005D01*
X121497437Y-52103802D01*
X121503753Y-52097457D01*
X121860026Y-51950847D01*
X121868979Y-51950868D01*
G37*
%TD.AperFunction*%
%TD*%
%TA.AperFunction,Conductor*%
%TO.N,Net-(D2-K)*%
G36*
X116730677Y-73458065D02*
G01*
X116738082Y-73463102D01*
X116740000Y-73469521D01*
X116740000Y-74450478D01*
X116736573Y-74458751D01*
X116730677Y-74461934D01*
X115374751Y-74743332D01*
X115365955Y-74741658D01*
X115361569Y-74736365D01*
X115040865Y-73964489D01*
X115040856Y-73955534D01*
X115040865Y-73955511D01*
X115361570Y-73183632D01*
X115367908Y-73177309D01*
X115374749Y-73176667D01*
X116730677Y-73458065D01*
G37*
%TD.AperFunction*%
%TD*%
%TA.AperFunction,Conductor*%
%TO.N,Net-(R21-Pad1)*%
G36*
X108459109Y-97448719D02*
G01*
X108465427Y-97455066D01*
X108465551Y-97463655D01*
X108227859Y-98092437D01*
X108221728Y-98098964D01*
X108216915Y-98100000D01*
X107983085Y-98100000D01*
X107974812Y-98096573D01*
X107972141Y-98092437D01*
X107734448Y-97463655D01*
X107734728Y-97454705D01*
X107740889Y-97448719D01*
X108095500Y-97300875D01*
X108104449Y-97300855D01*
X108459109Y-97448719D01*
G37*
%TD.AperFunction*%
%TD*%
%TA.AperFunction,Conductor*%
%TO.N,-12V*%
G36*
X112680696Y-101890890D02*
G01*
X113292437Y-102122141D01*
X113298964Y-102128272D01*
X113300000Y-102133085D01*
X113300000Y-102366914D01*
X113296573Y-102375187D01*
X113292437Y-102377858D01*
X112663655Y-102615551D01*
X112654705Y-102615271D01*
X112648719Y-102609109D01*
X112552306Y-102377858D01*
X112500875Y-102254499D01*
X112500855Y-102245550D01*
X112648719Y-101890889D01*
X112655066Y-101884572D01*
X112663654Y-101884448D01*
X112680696Y-101890890D01*
G37*
%TD.AperFunction*%
%TD*%
M02*
