M48
; DRILL file {KiCad 7.0.9} date Sat Nov  9 18:40:41 2024
; FORMAT={-:-/ absolute / metric / decimal}
; #@! TF.CreationDate,2024-11-09T18:40:41+13:00
; #@! TF.GenerationSoftware,Kicad,Pcbnew,7.0.9
; #@! TF.FileFunction,MixedPlating,1,2
FMAT,2
METRIC
; #@! TA.AperFunction,Plated,PTH,ViaDrill
T1C0.400
; #@! TA.AperFunction,Plated,PTH,ComponentDrill
T2C0.500
; #@! TA.AperFunction,Plated,PTH,ComponentDrill
T3C0.800
; #@! TA.AperFunction,Plated,PTH,ComponentDrill
T4C1.000
; #@! TA.AperFunction,NonPlated,NPTH,ComponentDrill
T5C2.200
%
G90
G05
T1
X100.7Y-56.2
X100.8Y-25.8
X100.8Y-32.4
X100.8Y-40.4
X100.8Y-47.1
X100.8Y-103.5
X100.8Y-113.4
X100.8Y-124.1
X101.4Y-91.7
X102.4Y-60.1
X102.8Y-68.3
X103.6Y-88.4
X104.6Y-68.3
X105.418Y-101.394
X106.5Y-97.0
X107.3Y-58.0
X107.7Y-120.9
X108.1Y-97.3
X109.2Y-55.9
X109.4Y-69.7
X109.6Y-88.7
X109.6Y-97.3
X110.0Y-81.1
X110.0Y-83.2
X110.75Y-96.25
X111.0Y-64.8
X111.7Y-47.4
X112.5Y-58.8
X112.5Y-67.3
X112.5Y-102.25
X112.8Y-53.7
X113.9Y-38.9
X114.0Y-95.5
X114.5Y-60.7
X114.8Y-79.5
X115.6Y-89.6
X115.75Y-51.75
X116.25Y-102.0
X116.9Y-70.6
X116.967Y-50.232
X119.0Y-85.1
X119.9Y-124.2
X120.1Y-74.7
X121.0Y-56.4
X121.1Y-63.8
X121.5Y-52.1
X123.7Y-54.8
X124.1Y-25.9
X124.1Y-92.2
X124.1Y-103.8
X124.1Y-112.8
X124.1Y-124.2
X124.3Y-33.4
X124.3Y-42.5
T3
X105.575Y-106.575
X108.115Y-109.115
X110.655Y-106.575
X119.785Y-38.315
X122.325Y-35.775
X122.325Y-40.855
T4
X107.42Y-73.96
X107.42Y-76.5
X109.96Y-73.96
X109.96Y-76.5
X110.0Y-40.5
X110.0Y-123.5
X112.5Y-40.5
X112.5Y-73.96
X112.5Y-76.5
X112.5Y-123.5
X115.0Y-40.5
X115.0Y-123.5
X115.04Y-73.96
X115.04Y-76.5
X117.58Y-73.96
X117.58Y-76.5
T5
X108.1Y-33.5
X108.1Y-116.5
X116.9Y-33.5
X116.9Y-116.5
T2
G00X102.1Y-49.55
M15
G01X102.1Y-48.65
M16
G05
G00X102.1Y-99.55
M15
G01X102.1Y-98.65
M16
G05
G00X102.7Y-65.95
M15
G01X102.7Y-66.85
M16
G05
G00X106.95Y-60.6
M15
G01X107.85Y-60.6
M16
G05
G00X107.85Y-68.7
M15
G01X106.95Y-68.7
M16
G05
G00X107.45Y-53.8
M15
G01X108.35Y-53.8
M16
G05
G00X107.45Y-103.8
M15
G01X108.35Y-103.8
M16
G05
G00X110.2Y-48.65
M15
G01X110.2Y-49.55
M16
G05
G00X110.2Y-98.65
M15
G01X110.2Y-99.55
M16
G05
G00X114.1Y-49.55
M15
G01X114.1Y-48.65
M16
G05
G00X114.1Y-99.55
M15
G01X114.1Y-98.65
M16
G05
G00X117.15Y-81.3
M15
G01X118.05Y-81.3
M16
G05
G00X118.05Y-89.4
M15
G01X117.15Y-89.4
M16
G05
G00X119.45Y-53.8
M15
G01X120.35Y-53.8
M16
G05
G00X119.45Y-103.8
M15
G01X120.35Y-103.8
M16
G05
G00X122.2Y-48.65
M15
G01X122.2Y-49.55
M16
G05
G00X122.2Y-98.65
M15
G01X122.2Y-99.55
M16
G05
G00X122.3Y-84.05
M15
G01X122.3Y-83.15
M16
G05
T0
M30
