%TF.GenerationSoftware,KiCad,Pcbnew,7.0.9*%
%TF.CreationDate,2024-06-29T17:01:07+12:00*%
%TF.ProjectId,ADSR Envelope,41445352-2045-46e7-9665-6c6f70652e6b,rev?*%
%TF.SameCoordinates,Original*%
%TF.FileFunction,Legend,Bot*%
%TF.FilePolarity,Positive*%
%FSLAX46Y46*%
G04 Gerber Fmt 4.6, Leading zero omitted, Abs format (unit mm)*
G04 Created by KiCad (PCBNEW 7.0.9) date 2024-06-29 17:01:07*
%MOMM*%
%LPD*%
G01*
G04 APERTURE LIST*
%ADD10C,0.150000*%
%ADD11C,0.120000*%
G04 APERTURE END LIST*
D10*
X135457200Y-106066667D02*
X135504819Y-106209524D01*
X135504819Y-106209524D02*
X135504819Y-106447619D01*
X135504819Y-106447619D02*
X135457200Y-106542857D01*
X135457200Y-106542857D02*
X135409580Y-106590476D01*
X135409580Y-106590476D02*
X135314342Y-106638095D01*
X135314342Y-106638095D02*
X135219104Y-106638095D01*
X135219104Y-106638095D02*
X135123866Y-106590476D01*
X135123866Y-106590476D02*
X135076247Y-106542857D01*
X135076247Y-106542857D02*
X135028628Y-106447619D01*
X135028628Y-106447619D02*
X134981009Y-106257143D01*
X134981009Y-106257143D02*
X134933390Y-106161905D01*
X134933390Y-106161905D02*
X134885771Y-106114286D01*
X134885771Y-106114286D02*
X134790533Y-106066667D01*
X134790533Y-106066667D02*
X134695295Y-106066667D01*
X134695295Y-106066667D02*
X134600057Y-106114286D01*
X134600057Y-106114286D02*
X134552438Y-106161905D01*
X134552438Y-106161905D02*
X134504819Y-106257143D01*
X134504819Y-106257143D02*
X134504819Y-106495238D01*
X134504819Y-106495238D02*
X134552438Y-106638095D01*
X134504819Y-106971429D02*
X135504819Y-107209524D01*
X135504819Y-107209524D02*
X134790533Y-107400000D01*
X134790533Y-107400000D02*
X135504819Y-107590476D01*
X135504819Y-107590476D02*
X134504819Y-107828572D01*
X134600057Y-108161905D02*
X134552438Y-108209524D01*
X134552438Y-108209524D02*
X134504819Y-108304762D01*
X134504819Y-108304762D02*
X134504819Y-108542857D01*
X134504819Y-108542857D02*
X134552438Y-108638095D01*
X134552438Y-108638095D02*
X134600057Y-108685714D01*
X134600057Y-108685714D02*
X134695295Y-108733333D01*
X134695295Y-108733333D02*
X134790533Y-108733333D01*
X134790533Y-108733333D02*
X134933390Y-108685714D01*
X134933390Y-108685714D02*
X135504819Y-108114286D01*
X135504819Y-108114286D02*
X135504819Y-108733333D01*
X111458333Y-106554819D02*
X111458333Y-107269104D01*
X111458333Y-107269104D02*
X111505952Y-107411961D01*
X111505952Y-107411961D02*
X111601190Y-107507200D01*
X111601190Y-107507200D02*
X111744047Y-107554819D01*
X111744047Y-107554819D02*
X111839285Y-107554819D01*
X110553571Y-106888152D02*
X110553571Y-107554819D01*
X110791666Y-106507200D02*
X111029761Y-107221485D01*
X111029761Y-107221485D02*
X110410714Y-107221485D01*
X154154819Y-110257142D02*
X153678628Y-109923809D01*
X154154819Y-109685714D02*
X153154819Y-109685714D01*
X153154819Y-109685714D02*
X153154819Y-110066666D01*
X153154819Y-110066666D02*
X153202438Y-110161904D01*
X153202438Y-110161904D02*
X153250057Y-110209523D01*
X153250057Y-110209523D02*
X153345295Y-110257142D01*
X153345295Y-110257142D02*
X153488152Y-110257142D01*
X153488152Y-110257142D02*
X153583390Y-110209523D01*
X153583390Y-110209523D02*
X153631009Y-110161904D01*
X153631009Y-110161904D02*
X153678628Y-110066666D01*
X153678628Y-110066666D02*
X153678628Y-109685714D01*
X153154819Y-110590476D02*
X153154819Y-111209523D01*
X153154819Y-111209523D02*
X153535771Y-110876190D01*
X153535771Y-110876190D02*
X153535771Y-111019047D01*
X153535771Y-111019047D02*
X153583390Y-111114285D01*
X153583390Y-111114285D02*
X153631009Y-111161904D01*
X153631009Y-111161904D02*
X153726247Y-111209523D01*
X153726247Y-111209523D02*
X153964342Y-111209523D01*
X153964342Y-111209523D02*
X154059580Y-111161904D01*
X154059580Y-111161904D02*
X154107200Y-111114285D01*
X154107200Y-111114285D02*
X154154819Y-111019047D01*
X154154819Y-111019047D02*
X154154819Y-110733333D01*
X154154819Y-110733333D02*
X154107200Y-110638095D01*
X154107200Y-110638095D02*
X154059580Y-110590476D01*
X153488152Y-112066666D02*
X154154819Y-112066666D01*
X153107200Y-111828571D02*
X153821485Y-111590476D01*
X153821485Y-111590476D02*
X153821485Y-112209523D01*
X125542857Y-69654819D02*
X125876190Y-69178628D01*
X126114285Y-69654819D02*
X126114285Y-68654819D01*
X126114285Y-68654819D02*
X125733333Y-68654819D01*
X125733333Y-68654819D02*
X125638095Y-68702438D01*
X125638095Y-68702438D02*
X125590476Y-68750057D01*
X125590476Y-68750057D02*
X125542857Y-68845295D01*
X125542857Y-68845295D02*
X125542857Y-68988152D01*
X125542857Y-68988152D02*
X125590476Y-69083390D01*
X125590476Y-69083390D02*
X125638095Y-69131009D01*
X125638095Y-69131009D02*
X125733333Y-69178628D01*
X125733333Y-69178628D02*
X126114285Y-69178628D01*
X124590476Y-69654819D02*
X125161904Y-69654819D01*
X124876190Y-69654819D02*
X124876190Y-68654819D01*
X124876190Y-68654819D02*
X124971428Y-68797676D01*
X124971428Y-68797676D02*
X125066666Y-68892914D01*
X125066666Y-68892914D02*
X125161904Y-68940533D01*
X123733333Y-68988152D02*
X123733333Y-69654819D01*
X123971428Y-68607200D02*
X124209523Y-69321485D01*
X124209523Y-69321485D02*
X123590476Y-69321485D01*
X127854819Y-64961905D02*
X126854819Y-64961905D01*
X126854819Y-64961905D02*
X126854819Y-65200000D01*
X126854819Y-65200000D02*
X126902438Y-65342857D01*
X126902438Y-65342857D02*
X126997676Y-65438095D01*
X126997676Y-65438095D02*
X127092914Y-65485714D01*
X127092914Y-65485714D02*
X127283390Y-65533333D01*
X127283390Y-65533333D02*
X127426247Y-65533333D01*
X127426247Y-65533333D02*
X127616723Y-65485714D01*
X127616723Y-65485714D02*
X127711961Y-65438095D01*
X127711961Y-65438095D02*
X127807200Y-65342857D01*
X127807200Y-65342857D02*
X127854819Y-65200000D01*
X127854819Y-65200000D02*
X127854819Y-64961905D01*
X126950057Y-65914286D02*
X126902438Y-65961905D01*
X126902438Y-65961905D02*
X126854819Y-66057143D01*
X126854819Y-66057143D02*
X126854819Y-66295238D01*
X126854819Y-66295238D02*
X126902438Y-66390476D01*
X126902438Y-66390476D02*
X126950057Y-66438095D01*
X126950057Y-66438095D02*
X127045295Y-66485714D01*
X127045295Y-66485714D02*
X127140533Y-66485714D01*
X127140533Y-66485714D02*
X127283390Y-66438095D01*
X127283390Y-66438095D02*
X127854819Y-65866667D01*
X127854819Y-65866667D02*
X127854819Y-66485714D01*
X112054819Y-92857142D02*
X111578628Y-92523809D01*
X112054819Y-92285714D02*
X111054819Y-92285714D01*
X111054819Y-92285714D02*
X111054819Y-92666666D01*
X111054819Y-92666666D02*
X111102438Y-92761904D01*
X111102438Y-92761904D02*
X111150057Y-92809523D01*
X111150057Y-92809523D02*
X111245295Y-92857142D01*
X111245295Y-92857142D02*
X111388152Y-92857142D01*
X111388152Y-92857142D02*
X111483390Y-92809523D01*
X111483390Y-92809523D02*
X111531009Y-92761904D01*
X111531009Y-92761904D02*
X111578628Y-92666666D01*
X111578628Y-92666666D02*
X111578628Y-92285714D01*
X111388152Y-93714285D02*
X112054819Y-93714285D01*
X111007200Y-93476190D02*
X111721485Y-93238095D01*
X111721485Y-93238095D02*
X111721485Y-93857142D01*
X112054819Y-94285714D02*
X112054819Y-94476190D01*
X112054819Y-94476190D02*
X112007200Y-94571428D01*
X112007200Y-94571428D02*
X111959580Y-94619047D01*
X111959580Y-94619047D02*
X111816723Y-94714285D01*
X111816723Y-94714285D02*
X111626247Y-94761904D01*
X111626247Y-94761904D02*
X111245295Y-94761904D01*
X111245295Y-94761904D02*
X111150057Y-94714285D01*
X111150057Y-94714285D02*
X111102438Y-94666666D01*
X111102438Y-94666666D02*
X111054819Y-94571428D01*
X111054819Y-94571428D02*
X111054819Y-94380952D01*
X111054819Y-94380952D02*
X111102438Y-94285714D01*
X111102438Y-94285714D02*
X111150057Y-94238095D01*
X111150057Y-94238095D02*
X111245295Y-94190476D01*
X111245295Y-94190476D02*
X111483390Y-94190476D01*
X111483390Y-94190476D02*
X111578628Y-94238095D01*
X111578628Y-94238095D02*
X111626247Y-94285714D01*
X111626247Y-94285714D02*
X111673866Y-94380952D01*
X111673866Y-94380952D02*
X111673866Y-94571428D01*
X111673866Y-94571428D02*
X111626247Y-94666666D01*
X111626247Y-94666666D02*
X111578628Y-94714285D01*
X111578628Y-94714285D02*
X111483390Y-94761904D01*
X154038094Y-63954819D02*
X154038094Y-62954819D01*
X154038094Y-62954819D02*
X153799999Y-62954819D01*
X153799999Y-62954819D02*
X153657142Y-63002438D01*
X153657142Y-63002438D02*
X153561904Y-63097676D01*
X153561904Y-63097676D02*
X153514285Y-63192914D01*
X153514285Y-63192914D02*
X153466666Y-63383390D01*
X153466666Y-63383390D02*
X153466666Y-63526247D01*
X153466666Y-63526247D02*
X153514285Y-63716723D01*
X153514285Y-63716723D02*
X153561904Y-63811961D01*
X153561904Y-63811961D02*
X153657142Y-63907200D01*
X153657142Y-63907200D02*
X153799999Y-63954819D01*
X153799999Y-63954819D02*
X154038094Y-63954819D01*
X152609523Y-63288152D02*
X152609523Y-63954819D01*
X152847618Y-62907200D02*
X153085713Y-63621485D01*
X153085713Y-63621485D02*
X152466666Y-63621485D01*
X114854819Y-92757142D02*
X114378628Y-92423809D01*
X114854819Y-92185714D02*
X113854819Y-92185714D01*
X113854819Y-92185714D02*
X113854819Y-92566666D01*
X113854819Y-92566666D02*
X113902438Y-92661904D01*
X113902438Y-92661904D02*
X113950057Y-92709523D01*
X113950057Y-92709523D02*
X114045295Y-92757142D01*
X114045295Y-92757142D02*
X114188152Y-92757142D01*
X114188152Y-92757142D02*
X114283390Y-92709523D01*
X114283390Y-92709523D02*
X114331009Y-92661904D01*
X114331009Y-92661904D02*
X114378628Y-92566666D01*
X114378628Y-92566666D02*
X114378628Y-92185714D01*
X114188152Y-93614285D02*
X114854819Y-93614285D01*
X113807200Y-93376190D02*
X114521485Y-93138095D01*
X114521485Y-93138095D02*
X114521485Y-93757142D01*
X114283390Y-94280952D02*
X114235771Y-94185714D01*
X114235771Y-94185714D02*
X114188152Y-94138095D01*
X114188152Y-94138095D02*
X114092914Y-94090476D01*
X114092914Y-94090476D02*
X114045295Y-94090476D01*
X114045295Y-94090476D02*
X113950057Y-94138095D01*
X113950057Y-94138095D02*
X113902438Y-94185714D01*
X113902438Y-94185714D02*
X113854819Y-94280952D01*
X113854819Y-94280952D02*
X113854819Y-94471428D01*
X113854819Y-94471428D02*
X113902438Y-94566666D01*
X113902438Y-94566666D02*
X113950057Y-94614285D01*
X113950057Y-94614285D02*
X114045295Y-94661904D01*
X114045295Y-94661904D02*
X114092914Y-94661904D01*
X114092914Y-94661904D02*
X114188152Y-94614285D01*
X114188152Y-94614285D02*
X114235771Y-94566666D01*
X114235771Y-94566666D02*
X114283390Y-94471428D01*
X114283390Y-94471428D02*
X114283390Y-94280952D01*
X114283390Y-94280952D02*
X114331009Y-94185714D01*
X114331009Y-94185714D02*
X114378628Y-94138095D01*
X114378628Y-94138095D02*
X114473866Y-94090476D01*
X114473866Y-94090476D02*
X114664342Y-94090476D01*
X114664342Y-94090476D02*
X114759580Y-94138095D01*
X114759580Y-94138095D02*
X114807200Y-94185714D01*
X114807200Y-94185714D02*
X114854819Y-94280952D01*
X114854819Y-94280952D02*
X114854819Y-94471428D01*
X114854819Y-94471428D02*
X114807200Y-94566666D01*
X114807200Y-94566666D02*
X114759580Y-94614285D01*
X114759580Y-94614285D02*
X114664342Y-94661904D01*
X114664342Y-94661904D02*
X114473866Y-94661904D01*
X114473866Y-94661904D02*
X114378628Y-94614285D01*
X114378628Y-94614285D02*
X114331009Y-94566666D01*
X114331009Y-94566666D02*
X114283390Y-94471428D01*
X135959580Y-126457142D02*
X136007200Y-126409523D01*
X136007200Y-126409523D02*
X136054819Y-126266666D01*
X136054819Y-126266666D02*
X136054819Y-126171428D01*
X136054819Y-126171428D02*
X136007200Y-126028571D01*
X136007200Y-126028571D02*
X135911961Y-125933333D01*
X135911961Y-125933333D02*
X135816723Y-125885714D01*
X135816723Y-125885714D02*
X135626247Y-125838095D01*
X135626247Y-125838095D02*
X135483390Y-125838095D01*
X135483390Y-125838095D02*
X135292914Y-125885714D01*
X135292914Y-125885714D02*
X135197676Y-125933333D01*
X135197676Y-125933333D02*
X135102438Y-126028571D01*
X135102438Y-126028571D02*
X135054819Y-126171428D01*
X135054819Y-126171428D02*
X135054819Y-126266666D01*
X135054819Y-126266666D02*
X135102438Y-126409523D01*
X135102438Y-126409523D02*
X135150057Y-126457142D01*
X136054819Y-127409523D02*
X136054819Y-126838095D01*
X136054819Y-127123809D02*
X135054819Y-127123809D01*
X135054819Y-127123809D02*
X135197676Y-127028571D01*
X135197676Y-127028571D02*
X135292914Y-126933333D01*
X135292914Y-126933333D02*
X135340533Y-126838095D01*
X135388152Y-128266666D02*
X136054819Y-128266666D01*
X135007200Y-128028571D02*
X135721485Y-127790476D01*
X135721485Y-127790476D02*
X135721485Y-128409523D01*
X120342857Y-108654819D02*
X120676190Y-108178628D01*
X120914285Y-108654819D02*
X120914285Y-107654819D01*
X120914285Y-107654819D02*
X120533333Y-107654819D01*
X120533333Y-107654819D02*
X120438095Y-107702438D01*
X120438095Y-107702438D02*
X120390476Y-107750057D01*
X120390476Y-107750057D02*
X120342857Y-107845295D01*
X120342857Y-107845295D02*
X120342857Y-107988152D01*
X120342857Y-107988152D02*
X120390476Y-108083390D01*
X120390476Y-108083390D02*
X120438095Y-108131009D01*
X120438095Y-108131009D02*
X120533333Y-108178628D01*
X120533333Y-108178628D02*
X120914285Y-108178628D01*
X119485714Y-107988152D02*
X119485714Y-108654819D01*
X119723809Y-107607200D02*
X119961904Y-108321485D01*
X119961904Y-108321485D02*
X119342857Y-108321485D01*
X118485714Y-107654819D02*
X118961904Y-107654819D01*
X118961904Y-107654819D02*
X119009523Y-108131009D01*
X119009523Y-108131009D02*
X118961904Y-108083390D01*
X118961904Y-108083390D02*
X118866666Y-108035771D01*
X118866666Y-108035771D02*
X118628571Y-108035771D01*
X118628571Y-108035771D02*
X118533333Y-108083390D01*
X118533333Y-108083390D02*
X118485714Y-108131009D01*
X118485714Y-108131009D02*
X118438095Y-108226247D01*
X118438095Y-108226247D02*
X118438095Y-108464342D01*
X118438095Y-108464342D02*
X118485714Y-108559580D01*
X118485714Y-108559580D02*
X118533333Y-108607200D01*
X118533333Y-108607200D02*
X118628571Y-108654819D01*
X118628571Y-108654819D02*
X118866666Y-108654819D01*
X118866666Y-108654819D02*
X118961904Y-108607200D01*
X118961904Y-108607200D02*
X119009523Y-108559580D01*
X126642857Y-62754819D02*
X126976190Y-62278628D01*
X127214285Y-62754819D02*
X127214285Y-61754819D01*
X127214285Y-61754819D02*
X126833333Y-61754819D01*
X126833333Y-61754819D02*
X126738095Y-61802438D01*
X126738095Y-61802438D02*
X126690476Y-61850057D01*
X126690476Y-61850057D02*
X126642857Y-61945295D01*
X126642857Y-61945295D02*
X126642857Y-62088152D01*
X126642857Y-62088152D02*
X126690476Y-62183390D01*
X126690476Y-62183390D02*
X126738095Y-62231009D01*
X126738095Y-62231009D02*
X126833333Y-62278628D01*
X126833333Y-62278628D02*
X127214285Y-62278628D01*
X126261904Y-61850057D02*
X126214285Y-61802438D01*
X126214285Y-61802438D02*
X126119047Y-61754819D01*
X126119047Y-61754819D02*
X125880952Y-61754819D01*
X125880952Y-61754819D02*
X125785714Y-61802438D01*
X125785714Y-61802438D02*
X125738095Y-61850057D01*
X125738095Y-61850057D02*
X125690476Y-61945295D01*
X125690476Y-61945295D02*
X125690476Y-62040533D01*
X125690476Y-62040533D02*
X125738095Y-62183390D01*
X125738095Y-62183390D02*
X126309523Y-62754819D01*
X126309523Y-62754819D02*
X125690476Y-62754819D01*
X125119047Y-62183390D02*
X125214285Y-62135771D01*
X125214285Y-62135771D02*
X125261904Y-62088152D01*
X125261904Y-62088152D02*
X125309523Y-61992914D01*
X125309523Y-61992914D02*
X125309523Y-61945295D01*
X125309523Y-61945295D02*
X125261904Y-61850057D01*
X125261904Y-61850057D02*
X125214285Y-61802438D01*
X125214285Y-61802438D02*
X125119047Y-61754819D01*
X125119047Y-61754819D02*
X124928571Y-61754819D01*
X124928571Y-61754819D02*
X124833333Y-61802438D01*
X124833333Y-61802438D02*
X124785714Y-61850057D01*
X124785714Y-61850057D02*
X124738095Y-61945295D01*
X124738095Y-61945295D02*
X124738095Y-61992914D01*
X124738095Y-61992914D02*
X124785714Y-62088152D01*
X124785714Y-62088152D02*
X124833333Y-62135771D01*
X124833333Y-62135771D02*
X124928571Y-62183390D01*
X124928571Y-62183390D02*
X125119047Y-62183390D01*
X125119047Y-62183390D02*
X125214285Y-62231009D01*
X125214285Y-62231009D02*
X125261904Y-62278628D01*
X125261904Y-62278628D02*
X125309523Y-62373866D01*
X125309523Y-62373866D02*
X125309523Y-62564342D01*
X125309523Y-62564342D02*
X125261904Y-62659580D01*
X125261904Y-62659580D02*
X125214285Y-62707200D01*
X125214285Y-62707200D02*
X125119047Y-62754819D01*
X125119047Y-62754819D02*
X124928571Y-62754819D01*
X124928571Y-62754819D02*
X124833333Y-62707200D01*
X124833333Y-62707200D02*
X124785714Y-62659580D01*
X124785714Y-62659580D02*
X124738095Y-62564342D01*
X124738095Y-62564342D02*
X124738095Y-62373866D01*
X124738095Y-62373866D02*
X124785714Y-62278628D01*
X124785714Y-62278628D02*
X124833333Y-62231009D01*
X124833333Y-62231009D02*
X124928571Y-62183390D01*
X129561904Y-74854819D02*
X129561904Y-75664342D01*
X129561904Y-75664342D02*
X129514285Y-75759580D01*
X129514285Y-75759580D02*
X129466666Y-75807200D01*
X129466666Y-75807200D02*
X129371428Y-75854819D01*
X129371428Y-75854819D02*
X129180952Y-75854819D01*
X129180952Y-75854819D02*
X129085714Y-75807200D01*
X129085714Y-75807200D02*
X129038095Y-75759580D01*
X129038095Y-75759580D02*
X128990476Y-75664342D01*
X128990476Y-75664342D02*
X128990476Y-74854819D01*
X128085714Y-74854819D02*
X128276190Y-74854819D01*
X128276190Y-74854819D02*
X128371428Y-74902438D01*
X128371428Y-74902438D02*
X128419047Y-74950057D01*
X128419047Y-74950057D02*
X128514285Y-75092914D01*
X128514285Y-75092914D02*
X128561904Y-75283390D01*
X128561904Y-75283390D02*
X128561904Y-75664342D01*
X128561904Y-75664342D02*
X128514285Y-75759580D01*
X128514285Y-75759580D02*
X128466666Y-75807200D01*
X128466666Y-75807200D02*
X128371428Y-75854819D01*
X128371428Y-75854819D02*
X128180952Y-75854819D01*
X128180952Y-75854819D02*
X128085714Y-75807200D01*
X128085714Y-75807200D02*
X128038095Y-75759580D01*
X128038095Y-75759580D02*
X127990476Y-75664342D01*
X127990476Y-75664342D02*
X127990476Y-75426247D01*
X127990476Y-75426247D02*
X128038095Y-75331009D01*
X128038095Y-75331009D02*
X128085714Y-75283390D01*
X128085714Y-75283390D02*
X128180952Y-75235771D01*
X128180952Y-75235771D02*
X128371428Y-75235771D01*
X128371428Y-75235771D02*
X128466666Y-75283390D01*
X128466666Y-75283390D02*
X128514285Y-75331009D01*
X128514285Y-75331009D02*
X128561904Y-75426247D01*
X152554819Y-57733333D02*
X152078628Y-57400000D01*
X152554819Y-57161905D02*
X151554819Y-57161905D01*
X151554819Y-57161905D02*
X151554819Y-57542857D01*
X151554819Y-57542857D02*
X151602438Y-57638095D01*
X151602438Y-57638095D02*
X151650057Y-57685714D01*
X151650057Y-57685714D02*
X151745295Y-57733333D01*
X151745295Y-57733333D02*
X151888152Y-57733333D01*
X151888152Y-57733333D02*
X151983390Y-57685714D01*
X151983390Y-57685714D02*
X152031009Y-57638095D01*
X152031009Y-57638095D02*
X152078628Y-57542857D01*
X152078628Y-57542857D02*
X152078628Y-57161905D01*
X151554819Y-58590476D02*
X151554819Y-58400000D01*
X151554819Y-58400000D02*
X151602438Y-58304762D01*
X151602438Y-58304762D02*
X151650057Y-58257143D01*
X151650057Y-58257143D02*
X151792914Y-58161905D01*
X151792914Y-58161905D02*
X151983390Y-58114286D01*
X151983390Y-58114286D02*
X152364342Y-58114286D01*
X152364342Y-58114286D02*
X152459580Y-58161905D01*
X152459580Y-58161905D02*
X152507200Y-58209524D01*
X152507200Y-58209524D02*
X152554819Y-58304762D01*
X152554819Y-58304762D02*
X152554819Y-58495238D01*
X152554819Y-58495238D02*
X152507200Y-58590476D01*
X152507200Y-58590476D02*
X152459580Y-58638095D01*
X152459580Y-58638095D02*
X152364342Y-58685714D01*
X152364342Y-58685714D02*
X152126247Y-58685714D01*
X152126247Y-58685714D02*
X152031009Y-58638095D01*
X152031009Y-58638095D02*
X151983390Y-58590476D01*
X151983390Y-58590476D02*
X151935771Y-58495238D01*
X151935771Y-58495238D02*
X151935771Y-58304762D01*
X151935771Y-58304762D02*
X151983390Y-58209524D01*
X151983390Y-58209524D02*
X152031009Y-58161905D01*
X152031009Y-58161905D02*
X152126247Y-58114286D01*
X142695238Y-63750057D02*
X142790476Y-63702438D01*
X142790476Y-63702438D02*
X142885714Y-63607200D01*
X142885714Y-63607200D02*
X143028571Y-63464342D01*
X143028571Y-63464342D02*
X143123809Y-63416723D01*
X143123809Y-63416723D02*
X143219047Y-63416723D01*
X143171428Y-63654819D02*
X143266666Y-63607200D01*
X143266666Y-63607200D02*
X143361904Y-63511961D01*
X143361904Y-63511961D02*
X143409523Y-63321485D01*
X143409523Y-63321485D02*
X143409523Y-62988152D01*
X143409523Y-62988152D02*
X143361904Y-62797676D01*
X143361904Y-62797676D02*
X143266666Y-62702438D01*
X143266666Y-62702438D02*
X143171428Y-62654819D01*
X143171428Y-62654819D02*
X142980952Y-62654819D01*
X142980952Y-62654819D02*
X142885714Y-62702438D01*
X142885714Y-62702438D02*
X142790476Y-62797676D01*
X142790476Y-62797676D02*
X142742857Y-62988152D01*
X142742857Y-62988152D02*
X142742857Y-63321485D01*
X142742857Y-63321485D02*
X142790476Y-63511961D01*
X142790476Y-63511961D02*
X142885714Y-63607200D01*
X142885714Y-63607200D02*
X142980952Y-63654819D01*
X142980952Y-63654819D02*
X143171428Y-63654819D01*
X141885714Y-62988152D02*
X141885714Y-63654819D01*
X142123809Y-62607200D02*
X142361904Y-63321485D01*
X142361904Y-63321485D02*
X141742857Y-63321485D01*
X125854819Y-92857142D02*
X125378628Y-92523809D01*
X125854819Y-92285714D02*
X124854819Y-92285714D01*
X124854819Y-92285714D02*
X124854819Y-92666666D01*
X124854819Y-92666666D02*
X124902438Y-92761904D01*
X124902438Y-92761904D02*
X124950057Y-92809523D01*
X124950057Y-92809523D02*
X125045295Y-92857142D01*
X125045295Y-92857142D02*
X125188152Y-92857142D01*
X125188152Y-92857142D02*
X125283390Y-92809523D01*
X125283390Y-92809523D02*
X125331009Y-92761904D01*
X125331009Y-92761904D02*
X125378628Y-92666666D01*
X125378628Y-92666666D02*
X125378628Y-92285714D01*
X124854819Y-93761904D02*
X124854819Y-93285714D01*
X124854819Y-93285714D02*
X125331009Y-93238095D01*
X125331009Y-93238095D02*
X125283390Y-93285714D01*
X125283390Y-93285714D02*
X125235771Y-93380952D01*
X125235771Y-93380952D02*
X125235771Y-93619047D01*
X125235771Y-93619047D02*
X125283390Y-93714285D01*
X125283390Y-93714285D02*
X125331009Y-93761904D01*
X125331009Y-93761904D02*
X125426247Y-93809523D01*
X125426247Y-93809523D02*
X125664342Y-93809523D01*
X125664342Y-93809523D02*
X125759580Y-93761904D01*
X125759580Y-93761904D02*
X125807200Y-93714285D01*
X125807200Y-93714285D02*
X125854819Y-93619047D01*
X125854819Y-93619047D02*
X125854819Y-93380952D01*
X125854819Y-93380952D02*
X125807200Y-93285714D01*
X125807200Y-93285714D02*
X125759580Y-93238095D01*
X125188152Y-94666666D02*
X125854819Y-94666666D01*
X124807200Y-94428571D02*
X125521485Y-94190476D01*
X125521485Y-94190476D02*
X125521485Y-94809523D01*
X162142857Y-79789580D02*
X162190476Y-79837200D01*
X162190476Y-79837200D02*
X162333333Y-79884819D01*
X162333333Y-79884819D02*
X162428571Y-79884819D01*
X162428571Y-79884819D02*
X162571428Y-79837200D01*
X162571428Y-79837200D02*
X162666666Y-79741961D01*
X162666666Y-79741961D02*
X162714285Y-79646723D01*
X162714285Y-79646723D02*
X162761904Y-79456247D01*
X162761904Y-79456247D02*
X162761904Y-79313390D01*
X162761904Y-79313390D02*
X162714285Y-79122914D01*
X162714285Y-79122914D02*
X162666666Y-79027676D01*
X162666666Y-79027676D02*
X162571428Y-78932438D01*
X162571428Y-78932438D02*
X162428571Y-78884819D01*
X162428571Y-78884819D02*
X162333333Y-78884819D01*
X162333333Y-78884819D02*
X162190476Y-78932438D01*
X162190476Y-78932438D02*
X162142857Y-78980057D01*
X161190476Y-79884819D02*
X161761904Y-79884819D01*
X161476190Y-79884819D02*
X161476190Y-78884819D01*
X161476190Y-78884819D02*
X161571428Y-79027676D01*
X161571428Y-79027676D02*
X161666666Y-79122914D01*
X161666666Y-79122914D02*
X161761904Y-79170533D01*
X160809523Y-78980057D02*
X160761904Y-78932438D01*
X160761904Y-78932438D02*
X160666666Y-78884819D01*
X160666666Y-78884819D02*
X160428571Y-78884819D01*
X160428571Y-78884819D02*
X160333333Y-78932438D01*
X160333333Y-78932438D02*
X160285714Y-78980057D01*
X160285714Y-78980057D02*
X160238095Y-79075295D01*
X160238095Y-79075295D02*
X160238095Y-79170533D01*
X160238095Y-79170533D02*
X160285714Y-79313390D01*
X160285714Y-79313390D02*
X160857142Y-79884819D01*
X160857142Y-79884819D02*
X160238095Y-79884819D01*
X158295238Y-68650057D02*
X158390476Y-68602438D01*
X158390476Y-68602438D02*
X158485714Y-68507200D01*
X158485714Y-68507200D02*
X158628571Y-68364342D01*
X158628571Y-68364342D02*
X158723809Y-68316723D01*
X158723809Y-68316723D02*
X158819047Y-68316723D01*
X158771428Y-68554819D02*
X158866666Y-68507200D01*
X158866666Y-68507200D02*
X158961904Y-68411961D01*
X158961904Y-68411961D02*
X159009523Y-68221485D01*
X159009523Y-68221485D02*
X159009523Y-67888152D01*
X159009523Y-67888152D02*
X158961904Y-67697676D01*
X158961904Y-67697676D02*
X158866666Y-67602438D01*
X158866666Y-67602438D02*
X158771428Y-67554819D01*
X158771428Y-67554819D02*
X158580952Y-67554819D01*
X158580952Y-67554819D02*
X158485714Y-67602438D01*
X158485714Y-67602438D02*
X158390476Y-67697676D01*
X158390476Y-67697676D02*
X158342857Y-67888152D01*
X158342857Y-67888152D02*
X158342857Y-68221485D01*
X158342857Y-68221485D02*
X158390476Y-68411961D01*
X158390476Y-68411961D02*
X158485714Y-68507200D01*
X158485714Y-68507200D02*
X158580952Y-68554819D01*
X158580952Y-68554819D02*
X158771428Y-68554819D01*
X158009523Y-67554819D02*
X157342857Y-67554819D01*
X157342857Y-67554819D02*
X157771428Y-68554819D01*
X142042857Y-79789580D02*
X142090476Y-79837200D01*
X142090476Y-79837200D02*
X142233333Y-79884819D01*
X142233333Y-79884819D02*
X142328571Y-79884819D01*
X142328571Y-79884819D02*
X142471428Y-79837200D01*
X142471428Y-79837200D02*
X142566666Y-79741961D01*
X142566666Y-79741961D02*
X142614285Y-79646723D01*
X142614285Y-79646723D02*
X142661904Y-79456247D01*
X142661904Y-79456247D02*
X142661904Y-79313390D01*
X142661904Y-79313390D02*
X142614285Y-79122914D01*
X142614285Y-79122914D02*
X142566666Y-79027676D01*
X142566666Y-79027676D02*
X142471428Y-78932438D01*
X142471428Y-78932438D02*
X142328571Y-78884819D01*
X142328571Y-78884819D02*
X142233333Y-78884819D01*
X142233333Y-78884819D02*
X142090476Y-78932438D01*
X142090476Y-78932438D02*
X142042857Y-78980057D01*
X141090476Y-79884819D02*
X141661904Y-79884819D01*
X141376190Y-79884819D02*
X141376190Y-78884819D01*
X141376190Y-78884819D02*
X141471428Y-79027676D01*
X141471428Y-79027676D02*
X141566666Y-79122914D01*
X141566666Y-79122914D02*
X141661904Y-79170533D01*
X140614285Y-79884819D02*
X140423809Y-79884819D01*
X140423809Y-79884819D02*
X140328571Y-79837200D01*
X140328571Y-79837200D02*
X140280952Y-79789580D01*
X140280952Y-79789580D02*
X140185714Y-79646723D01*
X140185714Y-79646723D02*
X140138095Y-79456247D01*
X140138095Y-79456247D02*
X140138095Y-79075295D01*
X140138095Y-79075295D02*
X140185714Y-78980057D01*
X140185714Y-78980057D02*
X140233333Y-78932438D01*
X140233333Y-78932438D02*
X140328571Y-78884819D01*
X140328571Y-78884819D02*
X140519047Y-78884819D01*
X140519047Y-78884819D02*
X140614285Y-78932438D01*
X140614285Y-78932438D02*
X140661904Y-78980057D01*
X140661904Y-78980057D02*
X140709523Y-79075295D01*
X140709523Y-79075295D02*
X140709523Y-79313390D01*
X140709523Y-79313390D02*
X140661904Y-79408628D01*
X140661904Y-79408628D02*
X140614285Y-79456247D01*
X140614285Y-79456247D02*
X140519047Y-79503866D01*
X140519047Y-79503866D02*
X140328571Y-79503866D01*
X140328571Y-79503866D02*
X140233333Y-79456247D01*
X140233333Y-79456247D02*
X140185714Y-79408628D01*
X140185714Y-79408628D02*
X140138095Y-79313390D01*
X162754819Y-119557142D02*
X162278628Y-119223809D01*
X162754819Y-118985714D02*
X161754819Y-118985714D01*
X161754819Y-118985714D02*
X161754819Y-119366666D01*
X161754819Y-119366666D02*
X161802438Y-119461904D01*
X161802438Y-119461904D02*
X161850057Y-119509523D01*
X161850057Y-119509523D02*
X161945295Y-119557142D01*
X161945295Y-119557142D02*
X162088152Y-119557142D01*
X162088152Y-119557142D02*
X162183390Y-119509523D01*
X162183390Y-119509523D02*
X162231009Y-119461904D01*
X162231009Y-119461904D02*
X162278628Y-119366666D01*
X162278628Y-119366666D02*
X162278628Y-118985714D01*
X161754819Y-119890476D02*
X161754819Y-120509523D01*
X161754819Y-120509523D02*
X162135771Y-120176190D01*
X162135771Y-120176190D02*
X162135771Y-120319047D01*
X162135771Y-120319047D02*
X162183390Y-120414285D01*
X162183390Y-120414285D02*
X162231009Y-120461904D01*
X162231009Y-120461904D02*
X162326247Y-120509523D01*
X162326247Y-120509523D02*
X162564342Y-120509523D01*
X162564342Y-120509523D02*
X162659580Y-120461904D01*
X162659580Y-120461904D02*
X162707200Y-120414285D01*
X162707200Y-120414285D02*
X162754819Y-120319047D01*
X162754819Y-120319047D02*
X162754819Y-120033333D01*
X162754819Y-120033333D02*
X162707200Y-119938095D01*
X162707200Y-119938095D02*
X162659580Y-119890476D01*
X161754819Y-120842857D02*
X161754819Y-121461904D01*
X161754819Y-121461904D02*
X162135771Y-121128571D01*
X162135771Y-121128571D02*
X162135771Y-121271428D01*
X162135771Y-121271428D02*
X162183390Y-121366666D01*
X162183390Y-121366666D02*
X162231009Y-121414285D01*
X162231009Y-121414285D02*
X162326247Y-121461904D01*
X162326247Y-121461904D02*
X162564342Y-121461904D01*
X162564342Y-121461904D02*
X162659580Y-121414285D01*
X162659580Y-121414285D02*
X162707200Y-121366666D01*
X162707200Y-121366666D02*
X162754819Y-121271428D01*
X162754819Y-121271428D02*
X162754819Y-120985714D01*
X162754819Y-120985714D02*
X162707200Y-120890476D01*
X162707200Y-120890476D02*
X162659580Y-120842857D01*
X130659580Y-126433333D02*
X130707200Y-126385714D01*
X130707200Y-126385714D02*
X130754819Y-126242857D01*
X130754819Y-126242857D02*
X130754819Y-126147619D01*
X130754819Y-126147619D02*
X130707200Y-126004762D01*
X130707200Y-126004762D02*
X130611961Y-125909524D01*
X130611961Y-125909524D02*
X130516723Y-125861905D01*
X130516723Y-125861905D02*
X130326247Y-125814286D01*
X130326247Y-125814286D02*
X130183390Y-125814286D01*
X130183390Y-125814286D02*
X129992914Y-125861905D01*
X129992914Y-125861905D02*
X129897676Y-125909524D01*
X129897676Y-125909524D02*
X129802438Y-126004762D01*
X129802438Y-126004762D02*
X129754819Y-126147619D01*
X129754819Y-126147619D02*
X129754819Y-126242857D01*
X129754819Y-126242857D02*
X129802438Y-126385714D01*
X129802438Y-126385714D02*
X129850057Y-126433333D01*
X130754819Y-126909524D02*
X130754819Y-127100000D01*
X130754819Y-127100000D02*
X130707200Y-127195238D01*
X130707200Y-127195238D02*
X130659580Y-127242857D01*
X130659580Y-127242857D02*
X130516723Y-127338095D01*
X130516723Y-127338095D02*
X130326247Y-127385714D01*
X130326247Y-127385714D02*
X129945295Y-127385714D01*
X129945295Y-127385714D02*
X129850057Y-127338095D01*
X129850057Y-127338095D02*
X129802438Y-127290476D01*
X129802438Y-127290476D02*
X129754819Y-127195238D01*
X129754819Y-127195238D02*
X129754819Y-127004762D01*
X129754819Y-127004762D02*
X129802438Y-126909524D01*
X129802438Y-126909524D02*
X129850057Y-126861905D01*
X129850057Y-126861905D02*
X129945295Y-126814286D01*
X129945295Y-126814286D02*
X130183390Y-126814286D01*
X130183390Y-126814286D02*
X130278628Y-126861905D01*
X130278628Y-126861905D02*
X130326247Y-126909524D01*
X130326247Y-126909524D02*
X130373866Y-127004762D01*
X130373866Y-127004762D02*
X130373866Y-127195238D01*
X130373866Y-127195238D02*
X130326247Y-127290476D01*
X130326247Y-127290476D02*
X130278628Y-127338095D01*
X130278628Y-127338095D02*
X130183390Y-127385714D01*
X139761904Y-75054819D02*
X139761904Y-75864342D01*
X139761904Y-75864342D02*
X139714285Y-75959580D01*
X139714285Y-75959580D02*
X139666666Y-76007200D01*
X139666666Y-76007200D02*
X139571428Y-76054819D01*
X139571428Y-76054819D02*
X139380952Y-76054819D01*
X139380952Y-76054819D02*
X139285714Y-76007200D01*
X139285714Y-76007200D02*
X139238095Y-75959580D01*
X139238095Y-75959580D02*
X139190476Y-75864342D01*
X139190476Y-75864342D02*
X139190476Y-75054819D01*
X138809523Y-75054819D02*
X138142857Y-75054819D01*
X138142857Y-75054819D02*
X138571428Y-76054819D01*
X137254819Y-72757142D02*
X136778628Y-72423809D01*
X137254819Y-72185714D02*
X136254819Y-72185714D01*
X136254819Y-72185714D02*
X136254819Y-72566666D01*
X136254819Y-72566666D02*
X136302438Y-72661904D01*
X136302438Y-72661904D02*
X136350057Y-72709523D01*
X136350057Y-72709523D02*
X136445295Y-72757142D01*
X136445295Y-72757142D02*
X136588152Y-72757142D01*
X136588152Y-72757142D02*
X136683390Y-72709523D01*
X136683390Y-72709523D02*
X136731009Y-72661904D01*
X136731009Y-72661904D02*
X136778628Y-72566666D01*
X136778628Y-72566666D02*
X136778628Y-72185714D01*
X136350057Y-73138095D02*
X136302438Y-73185714D01*
X136302438Y-73185714D02*
X136254819Y-73280952D01*
X136254819Y-73280952D02*
X136254819Y-73519047D01*
X136254819Y-73519047D02*
X136302438Y-73614285D01*
X136302438Y-73614285D02*
X136350057Y-73661904D01*
X136350057Y-73661904D02*
X136445295Y-73709523D01*
X136445295Y-73709523D02*
X136540533Y-73709523D01*
X136540533Y-73709523D02*
X136683390Y-73661904D01*
X136683390Y-73661904D02*
X137254819Y-73090476D01*
X137254819Y-73090476D02*
X137254819Y-73709523D01*
X137254819Y-74661904D02*
X137254819Y-74090476D01*
X137254819Y-74376190D02*
X136254819Y-74376190D01*
X136254819Y-74376190D02*
X136397676Y-74280952D01*
X136397676Y-74280952D02*
X136492914Y-74185714D01*
X136492914Y-74185714D02*
X136540533Y-74090476D01*
X126642857Y-59254819D02*
X126976190Y-58778628D01*
X127214285Y-59254819D02*
X127214285Y-58254819D01*
X127214285Y-58254819D02*
X126833333Y-58254819D01*
X126833333Y-58254819D02*
X126738095Y-58302438D01*
X126738095Y-58302438D02*
X126690476Y-58350057D01*
X126690476Y-58350057D02*
X126642857Y-58445295D01*
X126642857Y-58445295D02*
X126642857Y-58588152D01*
X126642857Y-58588152D02*
X126690476Y-58683390D01*
X126690476Y-58683390D02*
X126738095Y-58731009D01*
X126738095Y-58731009D02*
X126833333Y-58778628D01*
X126833333Y-58778628D02*
X127214285Y-58778628D01*
X126261904Y-58350057D02*
X126214285Y-58302438D01*
X126214285Y-58302438D02*
X126119047Y-58254819D01*
X126119047Y-58254819D02*
X125880952Y-58254819D01*
X125880952Y-58254819D02*
X125785714Y-58302438D01*
X125785714Y-58302438D02*
X125738095Y-58350057D01*
X125738095Y-58350057D02*
X125690476Y-58445295D01*
X125690476Y-58445295D02*
X125690476Y-58540533D01*
X125690476Y-58540533D02*
X125738095Y-58683390D01*
X125738095Y-58683390D02*
X126309523Y-59254819D01*
X126309523Y-59254819D02*
X125690476Y-59254819D01*
X124785714Y-58254819D02*
X125261904Y-58254819D01*
X125261904Y-58254819D02*
X125309523Y-58731009D01*
X125309523Y-58731009D02*
X125261904Y-58683390D01*
X125261904Y-58683390D02*
X125166666Y-58635771D01*
X125166666Y-58635771D02*
X124928571Y-58635771D01*
X124928571Y-58635771D02*
X124833333Y-58683390D01*
X124833333Y-58683390D02*
X124785714Y-58731009D01*
X124785714Y-58731009D02*
X124738095Y-58826247D01*
X124738095Y-58826247D02*
X124738095Y-59064342D01*
X124738095Y-59064342D02*
X124785714Y-59159580D01*
X124785714Y-59159580D02*
X124833333Y-59207200D01*
X124833333Y-59207200D02*
X124928571Y-59254819D01*
X124928571Y-59254819D02*
X125166666Y-59254819D01*
X125166666Y-59254819D02*
X125261904Y-59207200D01*
X125261904Y-59207200D02*
X125309523Y-59159580D01*
X126754819Y-130357142D02*
X126278628Y-130023809D01*
X126754819Y-129785714D02*
X125754819Y-129785714D01*
X125754819Y-129785714D02*
X125754819Y-130166666D01*
X125754819Y-130166666D02*
X125802438Y-130261904D01*
X125802438Y-130261904D02*
X125850057Y-130309523D01*
X125850057Y-130309523D02*
X125945295Y-130357142D01*
X125945295Y-130357142D02*
X126088152Y-130357142D01*
X126088152Y-130357142D02*
X126183390Y-130309523D01*
X126183390Y-130309523D02*
X126231009Y-130261904D01*
X126231009Y-130261904D02*
X126278628Y-130166666D01*
X126278628Y-130166666D02*
X126278628Y-129785714D01*
X126088152Y-131214285D02*
X126754819Y-131214285D01*
X125707200Y-130976190D02*
X126421485Y-130738095D01*
X126421485Y-130738095D02*
X126421485Y-131357142D01*
X125754819Y-131642857D02*
X125754819Y-132261904D01*
X125754819Y-132261904D02*
X126135771Y-131928571D01*
X126135771Y-131928571D02*
X126135771Y-132071428D01*
X126135771Y-132071428D02*
X126183390Y-132166666D01*
X126183390Y-132166666D02*
X126231009Y-132214285D01*
X126231009Y-132214285D02*
X126326247Y-132261904D01*
X126326247Y-132261904D02*
X126564342Y-132261904D01*
X126564342Y-132261904D02*
X126659580Y-132214285D01*
X126659580Y-132214285D02*
X126707200Y-132166666D01*
X126707200Y-132166666D02*
X126754819Y-132071428D01*
X126754819Y-132071428D02*
X126754819Y-131785714D01*
X126754819Y-131785714D02*
X126707200Y-131690476D01*
X126707200Y-131690476D02*
X126659580Y-131642857D01*
X135154819Y-72757142D02*
X134678628Y-72423809D01*
X135154819Y-72185714D02*
X134154819Y-72185714D01*
X134154819Y-72185714D02*
X134154819Y-72566666D01*
X134154819Y-72566666D02*
X134202438Y-72661904D01*
X134202438Y-72661904D02*
X134250057Y-72709523D01*
X134250057Y-72709523D02*
X134345295Y-72757142D01*
X134345295Y-72757142D02*
X134488152Y-72757142D01*
X134488152Y-72757142D02*
X134583390Y-72709523D01*
X134583390Y-72709523D02*
X134631009Y-72661904D01*
X134631009Y-72661904D02*
X134678628Y-72566666D01*
X134678628Y-72566666D02*
X134678628Y-72185714D01*
X135154819Y-73709523D02*
X135154819Y-73138095D01*
X135154819Y-73423809D02*
X134154819Y-73423809D01*
X134154819Y-73423809D02*
X134297676Y-73328571D01*
X134297676Y-73328571D02*
X134392914Y-73233333D01*
X134392914Y-73233333D02*
X134440533Y-73138095D01*
X135154819Y-74185714D02*
X135154819Y-74376190D01*
X135154819Y-74376190D02*
X135107200Y-74471428D01*
X135107200Y-74471428D02*
X135059580Y-74519047D01*
X135059580Y-74519047D02*
X134916723Y-74614285D01*
X134916723Y-74614285D02*
X134726247Y-74661904D01*
X134726247Y-74661904D02*
X134345295Y-74661904D01*
X134345295Y-74661904D02*
X134250057Y-74614285D01*
X134250057Y-74614285D02*
X134202438Y-74566666D01*
X134202438Y-74566666D02*
X134154819Y-74471428D01*
X134154819Y-74471428D02*
X134154819Y-74280952D01*
X134154819Y-74280952D02*
X134202438Y-74185714D01*
X134202438Y-74185714D02*
X134250057Y-74138095D01*
X134250057Y-74138095D02*
X134345295Y-74090476D01*
X134345295Y-74090476D02*
X134583390Y-74090476D01*
X134583390Y-74090476D02*
X134678628Y-74138095D01*
X134678628Y-74138095D02*
X134726247Y-74185714D01*
X134726247Y-74185714D02*
X134773866Y-74280952D01*
X134773866Y-74280952D02*
X134773866Y-74471428D01*
X134773866Y-74471428D02*
X134726247Y-74566666D01*
X134726247Y-74566666D02*
X134678628Y-74614285D01*
X134678628Y-74614285D02*
X134583390Y-74661904D01*
X153666666Y-53524819D02*
X153999999Y-53048628D01*
X154238094Y-53524819D02*
X154238094Y-52524819D01*
X154238094Y-52524819D02*
X153857142Y-52524819D01*
X153857142Y-52524819D02*
X153761904Y-52572438D01*
X153761904Y-52572438D02*
X153714285Y-52620057D01*
X153714285Y-52620057D02*
X153666666Y-52715295D01*
X153666666Y-52715295D02*
X153666666Y-52858152D01*
X153666666Y-52858152D02*
X153714285Y-52953390D01*
X153714285Y-52953390D02*
X153761904Y-53001009D01*
X153761904Y-53001009D02*
X153857142Y-53048628D01*
X153857142Y-53048628D02*
X154238094Y-53048628D01*
X153095237Y-52953390D02*
X153190475Y-52905771D01*
X153190475Y-52905771D02*
X153238094Y-52858152D01*
X153238094Y-52858152D02*
X153285713Y-52762914D01*
X153285713Y-52762914D02*
X153285713Y-52715295D01*
X153285713Y-52715295D02*
X153238094Y-52620057D01*
X153238094Y-52620057D02*
X153190475Y-52572438D01*
X153190475Y-52572438D02*
X153095237Y-52524819D01*
X153095237Y-52524819D02*
X152904761Y-52524819D01*
X152904761Y-52524819D02*
X152809523Y-52572438D01*
X152809523Y-52572438D02*
X152761904Y-52620057D01*
X152761904Y-52620057D02*
X152714285Y-52715295D01*
X152714285Y-52715295D02*
X152714285Y-52762914D01*
X152714285Y-52762914D02*
X152761904Y-52858152D01*
X152761904Y-52858152D02*
X152809523Y-52905771D01*
X152809523Y-52905771D02*
X152904761Y-52953390D01*
X152904761Y-52953390D02*
X153095237Y-52953390D01*
X153095237Y-52953390D02*
X153190475Y-53001009D01*
X153190475Y-53001009D02*
X153238094Y-53048628D01*
X153238094Y-53048628D02*
X153285713Y-53143866D01*
X153285713Y-53143866D02*
X153285713Y-53334342D01*
X153285713Y-53334342D02*
X153238094Y-53429580D01*
X153238094Y-53429580D02*
X153190475Y-53477200D01*
X153190475Y-53477200D02*
X153095237Y-53524819D01*
X153095237Y-53524819D02*
X152904761Y-53524819D01*
X152904761Y-53524819D02*
X152809523Y-53477200D01*
X152809523Y-53477200D02*
X152761904Y-53429580D01*
X152761904Y-53429580D02*
X152714285Y-53334342D01*
X152714285Y-53334342D02*
X152714285Y-53143866D01*
X152714285Y-53143866D02*
X152761904Y-53048628D01*
X152761904Y-53048628D02*
X152809523Y-53001009D01*
X152809523Y-53001009D02*
X152904761Y-52953390D01*
X136359580Y-114557142D02*
X136407200Y-114509523D01*
X136407200Y-114509523D02*
X136454819Y-114366666D01*
X136454819Y-114366666D02*
X136454819Y-114271428D01*
X136454819Y-114271428D02*
X136407200Y-114128571D01*
X136407200Y-114128571D02*
X136311961Y-114033333D01*
X136311961Y-114033333D02*
X136216723Y-113985714D01*
X136216723Y-113985714D02*
X136026247Y-113938095D01*
X136026247Y-113938095D02*
X135883390Y-113938095D01*
X135883390Y-113938095D02*
X135692914Y-113985714D01*
X135692914Y-113985714D02*
X135597676Y-114033333D01*
X135597676Y-114033333D02*
X135502438Y-114128571D01*
X135502438Y-114128571D02*
X135454819Y-114271428D01*
X135454819Y-114271428D02*
X135454819Y-114366666D01*
X135454819Y-114366666D02*
X135502438Y-114509523D01*
X135502438Y-114509523D02*
X135550057Y-114557142D01*
X136454819Y-115509523D02*
X136454819Y-114938095D01*
X136454819Y-115223809D02*
X135454819Y-115223809D01*
X135454819Y-115223809D02*
X135597676Y-115128571D01*
X135597676Y-115128571D02*
X135692914Y-115033333D01*
X135692914Y-115033333D02*
X135740533Y-114938095D01*
X135454819Y-116414285D02*
X135454819Y-115938095D01*
X135454819Y-115938095D02*
X135931009Y-115890476D01*
X135931009Y-115890476D02*
X135883390Y-115938095D01*
X135883390Y-115938095D02*
X135835771Y-116033333D01*
X135835771Y-116033333D02*
X135835771Y-116271428D01*
X135835771Y-116271428D02*
X135883390Y-116366666D01*
X135883390Y-116366666D02*
X135931009Y-116414285D01*
X135931009Y-116414285D02*
X136026247Y-116461904D01*
X136026247Y-116461904D02*
X136264342Y-116461904D01*
X136264342Y-116461904D02*
X136359580Y-116414285D01*
X136359580Y-116414285D02*
X136407200Y-116366666D01*
X136407200Y-116366666D02*
X136454819Y-116271428D01*
X136454819Y-116271428D02*
X136454819Y-116033333D01*
X136454819Y-116033333D02*
X136407200Y-115938095D01*
X136407200Y-115938095D02*
X136359580Y-115890476D01*
X130959580Y-114657142D02*
X131007200Y-114609523D01*
X131007200Y-114609523D02*
X131054819Y-114466666D01*
X131054819Y-114466666D02*
X131054819Y-114371428D01*
X131054819Y-114371428D02*
X131007200Y-114228571D01*
X131007200Y-114228571D02*
X130911961Y-114133333D01*
X130911961Y-114133333D02*
X130816723Y-114085714D01*
X130816723Y-114085714D02*
X130626247Y-114038095D01*
X130626247Y-114038095D02*
X130483390Y-114038095D01*
X130483390Y-114038095D02*
X130292914Y-114085714D01*
X130292914Y-114085714D02*
X130197676Y-114133333D01*
X130197676Y-114133333D02*
X130102438Y-114228571D01*
X130102438Y-114228571D02*
X130054819Y-114371428D01*
X130054819Y-114371428D02*
X130054819Y-114466666D01*
X130054819Y-114466666D02*
X130102438Y-114609523D01*
X130102438Y-114609523D02*
X130150057Y-114657142D01*
X131054819Y-115609523D02*
X131054819Y-115038095D01*
X131054819Y-115323809D02*
X130054819Y-115323809D01*
X130054819Y-115323809D02*
X130197676Y-115228571D01*
X130197676Y-115228571D02*
X130292914Y-115133333D01*
X130292914Y-115133333D02*
X130340533Y-115038095D01*
X130054819Y-116466666D02*
X130054819Y-116276190D01*
X130054819Y-116276190D02*
X130102438Y-116180952D01*
X130102438Y-116180952D02*
X130150057Y-116133333D01*
X130150057Y-116133333D02*
X130292914Y-116038095D01*
X130292914Y-116038095D02*
X130483390Y-115990476D01*
X130483390Y-115990476D02*
X130864342Y-115990476D01*
X130864342Y-115990476D02*
X130959580Y-116038095D01*
X130959580Y-116038095D02*
X131007200Y-116085714D01*
X131007200Y-116085714D02*
X131054819Y-116180952D01*
X131054819Y-116180952D02*
X131054819Y-116371428D01*
X131054819Y-116371428D02*
X131007200Y-116466666D01*
X131007200Y-116466666D02*
X130959580Y-116514285D01*
X130959580Y-116514285D02*
X130864342Y-116561904D01*
X130864342Y-116561904D02*
X130626247Y-116561904D01*
X130626247Y-116561904D02*
X130531009Y-116514285D01*
X130531009Y-116514285D02*
X130483390Y-116466666D01*
X130483390Y-116466666D02*
X130435771Y-116371428D01*
X130435771Y-116371428D02*
X130435771Y-116180952D01*
X130435771Y-116180952D02*
X130483390Y-116085714D01*
X130483390Y-116085714D02*
X130531009Y-116038095D01*
X130531009Y-116038095D02*
X130626247Y-115990476D01*
X129159580Y-126457142D02*
X129207200Y-126409523D01*
X129207200Y-126409523D02*
X129254819Y-126266666D01*
X129254819Y-126266666D02*
X129254819Y-126171428D01*
X129254819Y-126171428D02*
X129207200Y-126028571D01*
X129207200Y-126028571D02*
X129111961Y-125933333D01*
X129111961Y-125933333D02*
X129016723Y-125885714D01*
X129016723Y-125885714D02*
X128826247Y-125838095D01*
X128826247Y-125838095D02*
X128683390Y-125838095D01*
X128683390Y-125838095D02*
X128492914Y-125885714D01*
X128492914Y-125885714D02*
X128397676Y-125933333D01*
X128397676Y-125933333D02*
X128302438Y-126028571D01*
X128302438Y-126028571D02*
X128254819Y-126171428D01*
X128254819Y-126171428D02*
X128254819Y-126266666D01*
X128254819Y-126266666D02*
X128302438Y-126409523D01*
X128302438Y-126409523D02*
X128350057Y-126457142D01*
X129254819Y-127409523D02*
X129254819Y-126838095D01*
X129254819Y-127123809D02*
X128254819Y-127123809D01*
X128254819Y-127123809D02*
X128397676Y-127028571D01*
X128397676Y-127028571D02*
X128492914Y-126933333D01*
X128492914Y-126933333D02*
X128540533Y-126838095D01*
X128254819Y-128028571D02*
X128254819Y-128123809D01*
X128254819Y-128123809D02*
X128302438Y-128219047D01*
X128302438Y-128219047D02*
X128350057Y-128266666D01*
X128350057Y-128266666D02*
X128445295Y-128314285D01*
X128445295Y-128314285D02*
X128635771Y-128361904D01*
X128635771Y-128361904D02*
X128873866Y-128361904D01*
X128873866Y-128361904D02*
X129064342Y-128314285D01*
X129064342Y-128314285D02*
X129159580Y-128266666D01*
X129159580Y-128266666D02*
X129207200Y-128219047D01*
X129207200Y-128219047D02*
X129254819Y-128123809D01*
X129254819Y-128123809D02*
X129254819Y-128028571D01*
X129254819Y-128028571D02*
X129207200Y-127933333D01*
X129207200Y-127933333D02*
X129159580Y-127885714D01*
X129159580Y-127885714D02*
X129064342Y-127838095D01*
X129064342Y-127838095D02*
X128873866Y-127790476D01*
X128873866Y-127790476D02*
X128635771Y-127790476D01*
X128635771Y-127790476D02*
X128445295Y-127838095D01*
X128445295Y-127838095D02*
X128350057Y-127885714D01*
X128350057Y-127885714D02*
X128302438Y-127933333D01*
X128302438Y-127933333D02*
X128254819Y-128028571D01*
X117454819Y-92757142D02*
X116978628Y-92423809D01*
X117454819Y-92185714D02*
X116454819Y-92185714D01*
X116454819Y-92185714D02*
X116454819Y-92566666D01*
X116454819Y-92566666D02*
X116502438Y-92661904D01*
X116502438Y-92661904D02*
X116550057Y-92709523D01*
X116550057Y-92709523D02*
X116645295Y-92757142D01*
X116645295Y-92757142D02*
X116788152Y-92757142D01*
X116788152Y-92757142D02*
X116883390Y-92709523D01*
X116883390Y-92709523D02*
X116931009Y-92661904D01*
X116931009Y-92661904D02*
X116978628Y-92566666D01*
X116978628Y-92566666D02*
X116978628Y-92185714D01*
X116454819Y-93661904D02*
X116454819Y-93185714D01*
X116454819Y-93185714D02*
X116931009Y-93138095D01*
X116931009Y-93138095D02*
X116883390Y-93185714D01*
X116883390Y-93185714D02*
X116835771Y-93280952D01*
X116835771Y-93280952D02*
X116835771Y-93519047D01*
X116835771Y-93519047D02*
X116883390Y-93614285D01*
X116883390Y-93614285D02*
X116931009Y-93661904D01*
X116931009Y-93661904D02*
X117026247Y-93709523D01*
X117026247Y-93709523D02*
X117264342Y-93709523D01*
X117264342Y-93709523D02*
X117359580Y-93661904D01*
X117359580Y-93661904D02*
X117407200Y-93614285D01*
X117407200Y-93614285D02*
X117454819Y-93519047D01*
X117454819Y-93519047D02*
X117454819Y-93280952D01*
X117454819Y-93280952D02*
X117407200Y-93185714D01*
X117407200Y-93185714D02*
X117359580Y-93138095D01*
X117454819Y-94661904D02*
X117454819Y-94090476D01*
X117454819Y-94376190D02*
X116454819Y-94376190D01*
X116454819Y-94376190D02*
X116597676Y-94280952D01*
X116597676Y-94280952D02*
X116692914Y-94185714D01*
X116692914Y-94185714D02*
X116740533Y-94090476D01*
X152142857Y-102354819D02*
X152476190Y-101878628D01*
X152714285Y-102354819D02*
X152714285Y-101354819D01*
X152714285Y-101354819D02*
X152333333Y-101354819D01*
X152333333Y-101354819D02*
X152238095Y-101402438D01*
X152238095Y-101402438D02*
X152190476Y-101450057D01*
X152190476Y-101450057D02*
X152142857Y-101545295D01*
X152142857Y-101545295D02*
X152142857Y-101688152D01*
X152142857Y-101688152D02*
X152190476Y-101783390D01*
X152190476Y-101783390D02*
X152238095Y-101831009D01*
X152238095Y-101831009D02*
X152333333Y-101878628D01*
X152333333Y-101878628D02*
X152714285Y-101878628D01*
X151761904Y-101450057D02*
X151714285Y-101402438D01*
X151714285Y-101402438D02*
X151619047Y-101354819D01*
X151619047Y-101354819D02*
X151380952Y-101354819D01*
X151380952Y-101354819D02*
X151285714Y-101402438D01*
X151285714Y-101402438D02*
X151238095Y-101450057D01*
X151238095Y-101450057D02*
X151190476Y-101545295D01*
X151190476Y-101545295D02*
X151190476Y-101640533D01*
X151190476Y-101640533D02*
X151238095Y-101783390D01*
X151238095Y-101783390D02*
X151809523Y-102354819D01*
X151809523Y-102354819D02*
X151190476Y-102354819D01*
X150714285Y-102354819D02*
X150523809Y-102354819D01*
X150523809Y-102354819D02*
X150428571Y-102307200D01*
X150428571Y-102307200D02*
X150380952Y-102259580D01*
X150380952Y-102259580D02*
X150285714Y-102116723D01*
X150285714Y-102116723D02*
X150238095Y-101926247D01*
X150238095Y-101926247D02*
X150238095Y-101545295D01*
X150238095Y-101545295D02*
X150285714Y-101450057D01*
X150285714Y-101450057D02*
X150333333Y-101402438D01*
X150333333Y-101402438D02*
X150428571Y-101354819D01*
X150428571Y-101354819D02*
X150619047Y-101354819D01*
X150619047Y-101354819D02*
X150714285Y-101402438D01*
X150714285Y-101402438D02*
X150761904Y-101450057D01*
X150761904Y-101450057D02*
X150809523Y-101545295D01*
X150809523Y-101545295D02*
X150809523Y-101783390D01*
X150809523Y-101783390D02*
X150761904Y-101878628D01*
X150761904Y-101878628D02*
X150714285Y-101926247D01*
X150714285Y-101926247D02*
X150619047Y-101973866D01*
X150619047Y-101973866D02*
X150428571Y-101973866D01*
X150428571Y-101973866D02*
X150333333Y-101926247D01*
X150333333Y-101926247D02*
X150285714Y-101878628D01*
X150285714Y-101878628D02*
X150238095Y-101783390D01*
X139554819Y-68257142D02*
X139078628Y-67923809D01*
X139554819Y-67685714D02*
X138554819Y-67685714D01*
X138554819Y-67685714D02*
X138554819Y-68066666D01*
X138554819Y-68066666D02*
X138602438Y-68161904D01*
X138602438Y-68161904D02*
X138650057Y-68209523D01*
X138650057Y-68209523D02*
X138745295Y-68257142D01*
X138745295Y-68257142D02*
X138888152Y-68257142D01*
X138888152Y-68257142D02*
X138983390Y-68209523D01*
X138983390Y-68209523D02*
X139031009Y-68161904D01*
X139031009Y-68161904D02*
X139078628Y-68066666D01*
X139078628Y-68066666D02*
X139078628Y-67685714D01*
X138650057Y-68638095D02*
X138602438Y-68685714D01*
X138602438Y-68685714D02*
X138554819Y-68780952D01*
X138554819Y-68780952D02*
X138554819Y-69019047D01*
X138554819Y-69019047D02*
X138602438Y-69114285D01*
X138602438Y-69114285D02*
X138650057Y-69161904D01*
X138650057Y-69161904D02*
X138745295Y-69209523D01*
X138745295Y-69209523D02*
X138840533Y-69209523D01*
X138840533Y-69209523D02*
X138983390Y-69161904D01*
X138983390Y-69161904D02*
X139554819Y-68590476D01*
X139554819Y-68590476D02*
X139554819Y-69209523D01*
X138554819Y-69828571D02*
X138554819Y-69923809D01*
X138554819Y-69923809D02*
X138602438Y-70019047D01*
X138602438Y-70019047D02*
X138650057Y-70066666D01*
X138650057Y-70066666D02*
X138745295Y-70114285D01*
X138745295Y-70114285D02*
X138935771Y-70161904D01*
X138935771Y-70161904D02*
X139173866Y-70161904D01*
X139173866Y-70161904D02*
X139364342Y-70114285D01*
X139364342Y-70114285D02*
X139459580Y-70066666D01*
X139459580Y-70066666D02*
X139507200Y-70019047D01*
X139507200Y-70019047D02*
X139554819Y-69923809D01*
X139554819Y-69923809D02*
X139554819Y-69828571D01*
X139554819Y-69828571D02*
X139507200Y-69733333D01*
X139507200Y-69733333D02*
X139459580Y-69685714D01*
X139459580Y-69685714D02*
X139364342Y-69638095D01*
X139364342Y-69638095D02*
X139173866Y-69590476D01*
X139173866Y-69590476D02*
X138935771Y-69590476D01*
X138935771Y-69590476D02*
X138745295Y-69638095D01*
X138745295Y-69638095D02*
X138650057Y-69685714D01*
X138650057Y-69685714D02*
X138602438Y-69733333D01*
X138602438Y-69733333D02*
X138554819Y-69828571D01*
X146054819Y-57161905D02*
X145054819Y-57161905D01*
X145054819Y-57161905D02*
X145054819Y-57400000D01*
X145054819Y-57400000D02*
X145102438Y-57542857D01*
X145102438Y-57542857D02*
X145197676Y-57638095D01*
X145197676Y-57638095D02*
X145292914Y-57685714D01*
X145292914Y-57685714D02*
X145483390Y-57733333D01*
X145483390Y-57733333D02*
X145626247Y-57733333D01*
X145626247Y-57733333D02*
X145816723Y-57685714D01*
X145816723Y-57685714D02*
X145911961Y-57638095D01*
X145911961Y-57638095D02*
X146007200Y-57542857D01*
X146007200Y-57542857D02*
X146054819Y-57400000D01*
X146054819Y-57400000D02*
X146054819Y-57161905D01*
X146054819Y-58685714D02*
X146054819Y-58114286D01*
X146054819Y-58400000D02*
X145054819Y-58400000D01*
X145054819Y-58400000D02*
X145197676Y-58304762D01*
X145197676Y-58304762D02*
X145292914Y-58209524D01*
X145292914Y-58209524D02*
X145340533Y-58114286D01*
X132042857Y-79759580D02*
X132090476Y-79807200D01*
X132090476Y-79807200D02*
X132233333Y-79854819D01*
X132233333Y-79854819D02*
X132328571Y-79854819D01*
X132328571Y-79854819D02*
X132471428Y-79807200D01*
X132471428Y-79807200D02*
X132566666Y-79711961D01*
X132566666Y-79711961D02*
X132614285Y-79616723D01*
X132614285Y-79616723D02*
X132661904Y-79426247D01*
X132661904Y-79426247D02*
X132661904Y-79283390D01*
X132661904Y-79283390D02*
X132614285Y-79092914D01*
X132614285Y-79092914D02*
X132566666Y-78997676D01*
X132566666Y-78997676D02*
X132471428Y-78902438D01*
X132471428Y-78902438D02*
X132328571Y-78854819D01*
X132328571Y-78854819D02*
X132233333Y-78854819D01*
X132233333Y-78854819D02*
X132090476Y-78902438D01*
X132090476Y-78902438D02*
X132042857Y-78950057D01*
X131090476Y-79854819D02*
X131661904Y-79854819D01*
X131376190Y-79854819D02*
X131376190Y-78854819D01*
X131376190Y-78854819D02*
X131471428Y-78997676D01*
X131471428Y-78997676D02*
X131566666Y-79092914D01*
X131566666Y-79092914D02*
X131661904Y-79140533D01*
X130519047Y-79283390D02*
X130614285Y-79235771D01*
X130614285Y-79235771D02*
X130661904Y-79188152D01*
X130661904Y-79188152D02*
X130709523Y-79092914D01*
X130709523Y-79092914D02*
X130709523Y-79045295D01*
X130709523Y-79045295D02*
X130661904Y-78950057D01*
X130661904Y-78950057D02*
X130614285Y-78902438D01*
X130614285Y-78902438D02*
X130519047Y-78854819D01*
X130519047Y-78854819D02*
X130328571Y-78854819D01*
X130328571Y-78854819D02*
X130233333Y-78902438D01*
X130233333Y-78902438D02*
X130185714Y-78950057D01*
X130185714Y-78950057D02*
X130138095Y-79045295D01*
X130138095Y-79045295D02*
X130138095Y-79092914D01*
X130138095Y-79092914D02*
X130185714Y-79188152D01*
X130185714Y-79188152D02*
X130233333Y-79235771D01*
X130233333Y-79235771D02*
X130328571Y-79283390D01*
X130328571Y-79283390D02*
X130519047Y-79283390D01*
X130519047Y-79283390D02*
X130614285Y-79331009D01*
X130614285Y-79331009D02*
X130661904Y-79378628D01*
X130661904Y-79378628D02*
X130709523Y-79473866D01*
X130709523Y-79473866D02*
X130709523Y-79664342D01*
X130709523Y-79664342D02*
X130661904Y-79759580D01*
X130661904Y-79759580D02*
X130614285Y-79807200D01*
X130614285Y-79807200D02*
X130519047Y-79854819D01*
X130519047Y-79854819D02*
X130328571Y-79854819D01*
X130328571Y-79854819D02*
X130233333Y-79807200D01*
X130233333Y-79807200D02*
X130185714Y-79759580D01*
X130185714Y-79759580D02*
X130138095Y-79664342D01*
X130138095Y-79664342D02*
X130138095Y-79473866D01*
X130138095Y-79473866D02*
X130185714Y-79378628D01*
X130185714Y-79378628D02*
X130233333Y-79331009D01*
X130233333Y-79331009D02*
X130328571Y-79283390D01*
X117754819Y-102838095D02*
X118564342Y-102838095D01*
X118564342Y-102838095D02*
X118659580Y-102885714D01*
X118659580Y-102885714D02*
X118707200Y-102933333D01*
X118707200Y-102933333D02*
X118754819Y-103028571D01*
X118754819Y-103028571D02*
X118754819Y-103219047D01*
X118754819Y-103219047D02*
X118707200Y-103314285D01*
X118707200Y-103314285D02*
X118659580Y-103361904D01*
X118659580Y-103361904D02*
X118564342Y-103409523D01*
X118564342Y-103409523D02*
X117754819Y-103409523D01*
X118754819Y-103933333D02*
X118754819Y-104123809D01*
X118754819Y-104123809D02*
X118707200Y-104219047D01*
X118707200Y-104219047D02*
X118659580Y-104266666D01*
X118659580Y-104266666D02*
X118516723Y-104361904D01*
X118516723Y-104361904D02*
X118326247Y-104409523D01*
X118326247Y-104409523D02*
X117945295Y-104409523D01*
X117945295Y-104409523D02*
X117850057Y-104361904D01*
X117850057Y-104361904D02*
X117802438Y-104314285D01*
X117802438Y-104314285D02*
X117754819Y-104219047D01*
X117754819Y-104219047D02*
X117754819Y-104028571D01*
X117754819Y-104028571D02*
X117802438Y-103933333D01*
X117802438Y-103933333D02*
X117850057Y-103885714D01*
X117850057Y-103885714D02*
X117945295Y-103838095D01*
X117945295Y-103838095D02*
X118183390Y-103838095D01*
X118183390Y-103838095D02*
X118278628Y-103885714D01*
X118278628Y-103885714D02*
X118326247Y-103933333D01*
X118326247Y-103933333D02*
X118373866Y-104028571D01*
X118373866Y-104028571D02*
X118373866Y-104219047D01*
X118373866Y-104219047D02*
X118326247Y-104314285D01*
X118326247Y-104314285D02*
X118278628Y-104361904D01*
X118278628Y-104361904D02*
X118183390Y-104409523D01*
X120354819Y-92857142D02*
X119878628Y-92523809D01*
X120354819Y-92285714D02*
X119354819Y-92285714D01*
X119354819Y-92285714D02*
X119354819Y-92666666D01*
X119354819Y-92666666D02*
X119402438Y-92761904D01*
X119402438Y-92761904D02*
X119450057Y-92809523D01*
X119450057Y-92809523D02*
X119545295Y-92857142D01*
X119545295Y-92857142D02*
X119688152Y-92857142D01*
X119688152Y-92857142D02*
X119783390Y-92809523D01*
X119783390Y-92809523D02*
X119831009Y-92761904D01*
X119831009Y-92761904D02*
X119878628Y-92666666D01*
X119878628Y-92666666D02*
X119878628Y-92285714D01*
X119354819Y-93761904D02*
X119354819Y-93285714D01*
X119354819Y-93285714D02*
X119831009Y-93238095D01*
X119831009Y-93238095D02*
X119783390Y-93285714D01*
X119783390Y-93285714D02*
X119735771Y-93380952D01*
X119735771Y-93380952D02*
X119735771Y-93619047D01*
X119735771Y-93619047D02*
X119783390Y-93714285D01*
X119783390Y-93714285D02*
X119831009Y-93761904D01*
X119831009Y-93761904D02*
X119926247Y-93809523D01*
X119926247Y-93809523D02*
X120164342Y-93809523D01*
X120164342Y-93809523D02*
X120259580Y-93761904D01*
X120259580Y-93761904D02*
X120307200Y-93714285D01*
X120307200Y-93714285D02*
X120354819Y-93619047D01*
X120354819Y-93619047D02*
X120354819Y-93380952D01*
X120354819Y-93380952D02*
X120307200Y-93285714D01*
X120307200Y-93285714D02*
X120259580Y-93238095D01*
X119354819Y-94428571D02*
X119354819Y-94523809D01*
X119354819Y-94523809D02*
X119402438Y-94619047D01*
X119402438Y-94619047D02*
X119450057Y-94666666D01*
X119450057Y-94666666D02*
X119545295Y-94714285D01*
X119545295Y-94714285D02*
X119735771Y-94761904D01*
X119735771Y-94761904D02*
X119973866Y-94761904D01*
X119973866Y-94761904D02*
X120164342Y-94714285D01*
X120164342Y-94714285D02*
X120259580Y-94666666D01*
X120259580Y-94666666D02*
X120307200Y-94619047D01*
X120307200Y-94619047D02*
X120354819Y-94523809D01*
X120354819Y-94523809D02*
X120354819Y-94428571D01*
X120354819Y-94428571D02*
X120307200Y-94333333D01*
X120307200Y-94333333D02*
X120259580Y-94285714D01*
X120259580Y-94285714D02*
X120164342Y-94238095D01*
X120164342Y-94238095D02*
X119973866Y-94190476D01*
X119973866Y-94190476D02*
X119735771Y-94190476D01*
X119735771Y-94190476D02*
X119545295Y-94238095D01*
X119545295Y-94238095D02*
X119450057Y-94285714D01*
X119450057Y-94285714D02*
X119402438Y-94333333D01*
X119402438Y-94333333D02*
X119354819Y-94428571D01*
X123542857Y-108554819D02*
X123876190Y-108078628D01*
X124114285Y-108554819D02*
X124114285Y-107554819D01*
X124114285Y-107554819D02*
X123733333Y-107554819D01*
X123733333Y-107554819D02*
X123638095Y-107602438D01*
X123638095Y-107602438D02*
X123590476Y-107650057D01*
X123590476Y-107650057D02*
X123542857Y-107745295D01*
X123542857Y-107745295D02*
X123542857Y-107888152D01*
X123542857Y-107888152D02*
X123590476Y-107983390D01*
X123590476Y-107983390D02*
X123638095Y-108031009D01*
X123638095Y-108031009D02*
X123733333Y-108078628D01*
X123733333Y-108078628D02*
X124114285Y-108078628D01*
X122685714Y-107888152D02*
X122685714Y-108554819D01*
X122923809Y-107507200D02*
X123161904Y-108221485D01*
X123161904Y-108221485D02*
X122542857Y-108221485D01*
X122257142Y-107554819D02*
X121590476Y-107554819D01*
X121590476Y-107554819D02*
X122019047Y-108554819D01*
X164054819Y-65357142D02*
X163578628Y-65023809D01*
X164054819Y-64785714D02*
X163054819Y-64785714D01*
X163054819Y-64785714D02*
X163054819Y-65166666D01*
X163054819Y-65166666D02*
X163102438Y-65261904D01*
X163102438Y-65261904D02*
X163150057Y-65309523D01*
X163150057Y-65309523D02*
X163245295Y-65357142D01*
X163245295Y-65357142D02*
X163388152Y-65357142D01*
X163388152Y-65357142D02*
X163483390Y-65309523D01*
X163483390Y-65309523D02*
X163531009Y-65261904D01*
X163531009Y-65261904D02*
X163578628Y-65166666D01*
X163578628Y-65166666D02*
X163578628Y-64785714D01*
X163150057Y-65738095D02*
X163102438Y-65785714D01*
X163102438Y-65785714D02*
X163054819Y-65880952D01*
X163054819Y-65880952D02*
X163054819Y-66119047D01*
X163054819Y-66119047D02*
X163102438Y-66214285D01*
X163102438Y-66214285D02*
X163150057Y-66261904D01*
X163150057Y-66261904D02*
X163245295Y-66309523D01*
X163245295Y-66309523D02*
X163340533Y-66309523D01*
X163340533Y-66309523D02*
X163483390Y-66261904D01*
X163483390Y-66261904D02*
X164054819Y-65690476D01*
X164054819Y-65690476D02*
X164054819Y-66309523D01*
X163054819Y-66642857D02*
X163054819Y-67261904D01*
X163054819Y-67261904D02*
X163435771Y-66928571D01*
X163435771Y-66928571D02*
X163435771Y-67071428D01*
X163435771Y-67071428D02*
X163483390Y-67166666D01*
X163483390Y-67166666D02*
X163531009Y-67214285D01*
X163531009Y-67214285D02*
X163626247Y-67261904D01*
X163626247Y-67261904D02*
X163864342Y-67261904D01*
X163864342Y-67261904D02*
X163959580Y-67214285D01*
X163959580Y-67214285D02*
X164007200Y-67166666D01*
X164007200Y-67166666D02*
X164054819Y-67071428D01*
X164054819Y-67071428D02*
X164054819Y-66785714D01*
X164054819Y-66785714D02*
X164007200Y-66690476D01*
X164007200Y-66690476D02*
X163959580Y-66642857D01*
X128604819Y-102361905D02*
X129414342Y-102361905D01*
X129414342Y-102361905D02*
X129509580Y-102409524D01*
X129509580Y-102409524D02*
X129557200Y-102457143D01*
X129557200Y-102457143D02*
X129604819Y-102552381D01*
X129604819Y-102552381D02*
X129604819Y-102742857D01*
X129604819Y-102742857D02*
X129557200Y-102838095D01*
X129557200Y-102838095D02*
X129509580Y-102885714D01*
X129509580Y-102885714D02*
X129414342Y-102933333D01*
X129414342Y-102933333D02*
X128604819Y-102933333D01*
X129604819Y-103933333D02*
X129604819Y-103361905D01*
X129604819Y-103647619D02*
X128604819Y-103647619D01*
X128604819Y-103647619D02*
X128747676Y-103552381D01*
X128747676Y-103552381D02*
X128842914Y-103457143D01*
X128842914Y-103457143D02*
X128890533Y-103361905D01*
X128604819Y-104552381D02*
X128604819Y-104647619D01*
X128604819Y-104647619D02*
X128652438Y-104742857D01*
X128652438Y-104742857D02*
X128700057Y-104790476D01*
X128700057Y-104790476D02*
X128795295Y-104838095D01*
X128795295Y-104838095D02*
X128985771Y-104885714D01*
X128985771Y-104885714D02*
X129223866Y-104885714D01*
X129223866Y-104885714D02*
X129414342Y-104838095D01*
X129414342Y-104838095D02*
X129509580Y-104790476D01*
X129509580Y-104790476D02*
X129557200Y-104742857D01*
X129557200Y-104742857D02*
X129604819Y-104647619D01*
X129604819Y-104647619D02*
X129604819Y-104552381D01*
X129604819Y-104552381D02*
X129557200Y-104457143D01*
X129557200Y-104457143D02*
X129509580Y-104409524D01*
X129509580Y-104409524D02*
X129414342Y-104361905D01*
X129414342Y-104361905D02*
X129223866Y-104314286D01*
X129223866Y-104314286D02*
X128985771Y-104314286D01*
X128985771Y-104314286D02*
X128795295Y-104361905D01*
X128795295Y-104361905D02*
X128700057Y-104409524D01*
X128700057Y-104409524D02*
X128652438Y-104457143D01*
X128652438Y-104457143D02*
X128604819Y-104552381D01*
X153259580Y-127157142D02*
X153307200Y-127109523D01*
X153307200Y-127109523D02*
X153354819Y-126966666D01*
X153354819Y-126966666D02*
X153354819Y-126871428D01*
X153354819Y-126871428D02*
X153307200Y-126728571D01*
X153307200Y-126728571D02*
X153211961Y-126633333D01*
X153211961Y-126633333D02*
X153116723Y-126585714D01*
X153116723Y-126585714D02*
X152926247Y-126538095D01*
X152926247Y-126538095D02*
X152783390Y-126538095D01*
X152783390Y-126538095D02*
X152592914Y-126585714D01*
X152592914Y-126585714D02*
X152497676Y-126633333D01*
X152497676Y-126633333D02*
X152402438Y-126728571D01*
X152402438Y-126728571D02*
X152354819Y-126871428D01*
X152354819Y-126871428D02*
X152354819Y-126966666D01*
X152354819Y-126966666D02*
X152402438Y-127109523D01*
X152402438Y-127109523D02*
X152450057Y-127157142D01*
X153354819Y-128109523D02*
X153354819Y-127538095D01*
X153354819Y-127823809D02*
X152354819Y-127823809D01*
X152354819Y-127823809D02*
X152497676Y-127728571D01*
X152497676Y-127728571D02*
X152592914Y-127633333D01*
X152592914Y-127633333D02*
X152640533Y-127538095D01*
X152354819Y-128442857D02*
X152354819Y-129109523D01*
X152354819Y-129109523D02*
X153354819Y-128680952D01*
X131404819Y-107757142D02*
X130928628Y-107423809D01*
X131404819Y-107185714D02*
X130404819Y-107185714D01*
X130404819Y-107185714D02*
X130404819Y-107566666D01*
X130404819Y-107566666D02*
X130452438Y-107661904D01*
X130452438Y-107661904D02*
X130500057Y-107709523D01*
X130500057Y-107709523D02*
X130595295Y-107757142D01*
X130595295Y-107757142D02*
X130738152Y-107757142D01*
X130738152Y-107757142D02*
X130833390Y-107709523D01*
X130833390Y-107709523D02*
X130881009Y-107661904D01*
X130881009Y-107661904D02*
X130928628Y-107566666D01*
X130928628Y-107566666D02*
X130928628Y-107185714D01*
X130404819Y-108090476D02*
X130404819Y-108709523D01*
X130404819Y-108709523D02*
X130785771Y-108376190D01*
X130785771Y-108376190D02*
X130785771Y-108519047D01*
X130785771Y-108519047D02*
X130833390Y-108614285D01*
X130833390Y-108614285D02*
X130881009Y-108661904D01*
X130881009Y-108661904D02*
X130976247Y-108709523D01*
X130976247Y-108709523D02*
X131214342Y-108709523D01*
X131214342Y-108709523D02*
X131309580Y-108661904D01*
X131309580Y-108661904D02*
X131357200Y-108614285D01*
X131357200Y-108614285D02*
X131404819Y-108519047D01*
X131404819Y-108519047D02*
X131404819Y-108233333D01*
X131404819Y-108233333D02*
X131357200Y-108138095D01*
X131357200Y-108138095D02*
X131309580Y-108090476D01*
X130404819Y-109328571D02*
X130404819Y-109423809D01*
X130404819Y-109423809D02*
X130452438Y-109519047D01*
X130452438Y-109519047D02*
X130500057Y-109566666D01*
X130500057Y-109566666D02*
X130595295Y-109614285D01*
X130595295Y-109614285D02*
X130785771Y-109661904D01*
X130785771Y-109661904D02*
X131023866Y-109661904D01*
X131023866Y-109661904D02*
X131214342Y-109614285D01*
X131214342Y-109614285D02*
X131309580Y-109566666D01*
X131309580Y-109566666D02*
X131357200Y-109519047D01*
X131357200Y-109519047D02*
X131404819Y-109423809D01*
X131404819Y-109423809D02*
X131404819Y-109328571D01*
X131404819Y-109328571D02*
X131357200Y-109233333D01*
X131357200Y-109233333D02*
X131309580Y-109185714D01*
X131309580Y-109185714D02*
X131214342Y-109138095D01*
X131214342Y-109138095D02*
X131023866Y-109090476D01*
X131023866Y-109090476D02*
X130785771Y-109090476D01*
X130785771Y-109090476D02*
X130595295Y-109138095D01*
X130595295Y-109138095D02*
X130500057Y-109185714D01*
X130500057Y-109185714D02*
X130452438Y-109233333D01*
X130452438Y-109233333D02*
X130404819Y-109328571D01*
X149354819Y-127457142D02*
X148878628Y-127123809D01*
X149354819Y-126885714D02*
X148354819Y-126885714D01*
X148354819Y-126885714D02*
X148354819Y-127266666D01*
X148354819Y-127266666D02*
X148402438Y-127361904D01*
X148402438Y-127361904D02*
X148450057Y-127409523D01*
X148450057Y-127409523D02*
X148545295Y-127457142D01*
X148545295Y-127457142D02*
X148688152Y-127457142D01*
X148688152Y-127457142D02*
X148783390Y-127409523D01*
X148783390Y-127409523D02*
X148831009Y-127361904D01*
X148831009Y-127361904D02*
X148878628Y-127266666D01*
X148878628Y-127266666D02*
X148878628Y-126885714D01*
X148354819Y-127790476D02*
X148354819Y-128409523D01*
X148354819Y-128409523D02*
X148735771Y-128076190D01*
X148735771Y-128076190D02*
X148735771Y-128219047D01*
X148735771Y-128219047D02*
X148783390Y-128314285D01*
X148783390Y-128314285D02*
X148831009Y-128361904D01*
X148831009Y-128361904D02*
X148926247Y-128409523D01*
X148926247Y-128409523D02*
X149164342Y-128409523D01*
X149164342Y-128409523D02*
X149259580Y-128361904D01*
X149259580Y-128361904D02*
X149307200Y-128314285D01*
X149307200Y-128314285D02*
X149354819Y-128219047D01*
X149354819Y-128219047D02*
X149354819Y-127933333D01*
X149354819Y-127933333D02*
X149307200Y-127838095D01*
X149307200Y-127838095D02*
X149259580Y-127790476D01*
X149354819Y-128885714D02*
X149354819Y-129076190D01*
X149354819Y-129076190D02*
X149307200Y-129171428D01*
X149307200Y-129171428D02*
X149259580Y-129219047D01*
X149259580Y-129219047D02*
X149116723Y-129314285D01*
X149116723Y-129314285D02*
X148926247Y-129361904D01*
X148926247Y-129361904D02*
X148545295Y-129361904D01*
X148545295Y-129361904D02*
X148450057Y-129314285D01*
X148450057Y-129314285D02*
X148402438Y-129266666D01*
X148402438Y-129266666D02*
X148354819Y-129171428D01*
X148354819Y-129171428D02*
X148354819Y-128980952D01*
X148354819Y-128980952D02*
X148402438Y-128885714D01*
X148402438Y-128885714D02*
X148450057Y-128838095D01*
X148450057Y-128838095D02*
X148545295Y-128790476D01*
X148545295Y-128790476D02*
X148783390Y-128790476D01*
X148783390Y-128790476D02*
X148878628Y-128838095D01*
X148878628Y-128838095D02*
X148926247Y-128885714D01*
X148926247Y-128885714D02*
X148973866Y-128980952D01*
X148973866Y-128980952D02*
X148973866Y-129171428D01*
X148973866Y-129171428D02*
X148926247Y-129266666D01*
X148926247Y-129266666D02*
X148878628Y-129314285D01*
X148878628Y-129314285D02*
X148783390Y-129361904D01*
X152738094Y-104354819D02*
X152738094Y-103354819D01*
X152738094Y-103354819D02*
X152499999Y-103354819D01*
X152499999Y-103354819D02*
X152357142Y-103402438D01*
X152357142Y-103402438D02*
X152261904Y-103497676D01*
X152261904Y-103497676D02*
X152214285Y-103592914D01*
X152214285Y-103592914D02*
X152166666Y-103783390D01*
X152166666Y-103783390D02*
X152166666Y-103926247D01*
X152166666Y-103926247D02*
X152214285Y-104116723D01*
X152214285Y-104116723D02*
X152261904Y-104211961D01*
X152261904Y-104211961D02*
X152357142Y-104307200D01*
X152357142Y-104307200D02*
X152499999Y-104354819D01*
X152499999Y-104354819D02*
X152738094Y-104354819D01*
X151309523Y-103354819D02*
X151499999Y-103354819D01*
X151499999Y-103354819D02*
X151595237Y-103402438D01*
X151595237Y-103402438D02*
X151642856Y-103450057D01*
X151642856Y-103450057D02*
X151738094Y-103592914D01*
X151738094Y-103592914D02*
X151785713Y-103783390D01*
X151785713Y-103783390D02*
X151785713Y-104164342D01*
X151785713Y-104164342D02*
X151738094Y-104259580D01*
X151738094Y-104259580D02*
X151690475Y-104307200D01*
X151690475Y-104307200D02*
X151595237Y-104354819D01*
X151595237Y-104354819D02*
X151404761Y-104354819D01*
X151404761Y-104354819D02*
X151309523Y-104307200D01*
X151309523Y-104307200D02*
X151261904Y-104259580D01*
X151261904Y-104259580D02*
X151214285Y-104164342D01*
X151214285Y-104164342D02*
X151214285Y-103926247D01*
X151214285Y-103926247D02*
X151261904Y-103831009D01*
X151261904Y-103831009D02*
X151309523Y-103783390D01*
X151309523Y-103783390D02*
X151404761Y-103735771D01*
X151404761Y-103735771D02*
X151595237Y-103735771D01*
X151595237Y-103735771D02*
X151690475Y-103783390D01*
X151690475Y-103783390D02*
X151738094Y-103831009D01*
X151738094Y-103831009D02*
X151785713Y-103926247D01*
X157754819Y-110257142D02*
X157278628Y-109923809D01*
X157754819Y-109685714D02*
X156754819Y-109685714D01*
X156754819Y-109685714D02*
X156754819Y-110066666D01*
X156754819Y-110066666D02*
X156802438Y-110161904D01*
X156802438Y-110161904D02*
X156850057Y-110209523D01*
X156850057Y-110209523D02*
X156945295Y-110257142D01*
X156945295Y-110257142D02*
X157088152Y-110257142D01*
X157088152Y-110257142D02*
X157183390Y-110209523D01*
X157183390Y-110209523D02*
X157231009Y-110161904D01*
X157231009Y-110161904D02*
X157278628Y-110066666D01*
X157278628Y-110066666D02*
X157278628Y-109685714D01*
X156754819Y-110590476D02*
X156754819Y-111209523D01*
X156754819Y-111209523D02*
X157135771Y-110876190D01*
X157135771Y-110876190D02*
X157135771Y-111019047D01*
X157135771Y-111019047D02*
X157183390Y-111114285D01*
X157183390Y-111114285D02*
X157231009Y-111161904D01*
X157231009Y-111161904D02*
X157326247Y-111209523D01*
X157326247Y-111209523D02*
X157564342Y-111209523D01*
X157564342Y-111209523D02*
X157659580Y-111161904D01*
X157659580Y-111161904D02*
X157707200Y-111114285D01*
X157707200Y-111114285D02*
X157754819Y-111019047D01*
X157754819Y-111019047D02*
X157754819Y-110733333D01*
X157754819Y-110733333D02*
X157707200Y-110638095D01*
X157707200Y-110638095D02*
X157659580Y-110590476D01*
X156850057Y-111590476D02*
X156802438Y-111638095D01*
X156802438Y-111638095D02*
X156754819Y-111733333D01*
X156754819Y-111733333D02*
X156754819Y-111971428D01*
X156754819Y-111971428D02*
X156802438Y-112066666D01*
X156802438Y-112066666D02*
X156850057Y-112114285D01*
X156850057Y-112114285D02*
X156945295Y-112161904D01*
X156945295Y-112161904D02*
X157040533Y-112161904D01*
X157040533Y-112161904D02*
X157183390Y-112114285D01*
X157183390Y-112114285D02*
X157754819Y-111542857D01*
X157754819Y-111542857D02*
X157754819Y-112161904D01*
X150554819Y-130857142D02*
X150078628Y-130523809D01*
X150554819Y-130285714D02*
X149554819Y-130285714D01*
X149554819Y-130285714D02*
X149554819Y-130666666D01*
X149554819Y-130666666D02*
X149602438Y-130761904D01*
X149602438Y-130761904D02*
X149650057Y-130809523D01*
X149650057Y-130809523D02*
X149745295Y-130857142D01*
X149745295Y-130857142D02*
X149888152Y-130857142D01*
X149888152Y-130857142D02*
X149983390Y-130809523D01*
X149983390Y-130809523D02*
X150031009Y-130761904D01*
X150031009Y-130761904D02*
X150078628Y-130666666D01*
X150078628Y-130666666D02*
X150078628Y-130285714D01*
X149554819Y-131190476D02*
X149554819Y-131809523D01*
X149554819Y-131809523D02*
X149935771Y-131476190D01*
X149935771Y-131476190D02*
X149935771Y-131619047D01*
X149935771Y-131619047D02*
X149983390Y-131714285D01*
X149983390Y-131714285D02*
X150031009Y-131761904D01*
X150031009Y-131761904D02*
X150126247Y-131809523D01*
X150126247Y-131809523D02*
X150364342Y-131809523D01*
X150364342Y-131809523D02*
X150459580Y-131761904D01*
X150459580Y-131761904D02*
X150507200Y-131714285D01*
X150507200Y-131714285D02*
X150554819Y-131619047D01*
X150554819Y-131619047D02*
X150554819Y-131333333D01*
X150554819Y-131333333D02*
X150507200Y-131238095D01*
X150507200Y-131238095D02*
X150459580Y-131190476D01*
X149983390Y-132380952D02*
X149935771Y-132285714D01*
X149935771Y-132285714D02*
X149888152Y-132238095D01*
X149888152Y-132238095D02*
X149792914Y-132190476D01*
X149792914Y-132190476D02*
X149745295Y-132190476D01*
X149745295Y-132190476D02*
X149650057Y-132238095D01*
X149650057Y-132238095D02*
X149602438Y-132285714D01*
X149602438Y-132285714D02*
X149554819Y-132380952D01*
X149554819Y-132380952D02*
X149554819Y-132571428D01*
X149554819Y-132571428D02*
X149602438Y-132666666D01*
X149602438Y-132666666D02*
X149650057Y-132714285D01*
X149650057Y-132714285D02*
X149745295Y-132761904D01*
X149745295Y-132761904D02*
X149792914Y-132761904D01*
X149792914Y-132761904D02*
X149888152Y-132714285D01*
X149888152Y-132714285D02*
X149935771Y-132666666D01*
X149935771Y-132666666D02*
X149983390Y-132571428D01*
X149983390Y-132571428D02*
X149983390Y-132380952D01*
X149983390Y-132380952D02*
X150031009Y-132285714D01*
X150031009Y-132285714D02*
X150078628Y-132238095D01*
X150078628Y-132238095D02*
X150173866Y-132190476D01*
X150173866Y-132190476D02*
X150364342Y-132190476D01*
X150364342Y-132190476D02*
X150459580Y-132238095D01*
X150459580Y-132238095D02*
X150507200Y-132285714D01*
X150507200Y-132285714D02*
X150554819Y-132380952D01*
X150554819Y-132380952D02*
X150554819Y-132571428D01*
X150554819Y-132571428D02*
X150507200Y-132666666D01*
X150507200Y-132666666D02*
X150459580Y-132714285D01*
X150459580Y-132714285D02*
X150364342Y-132761904D01*
X150364342Y-132761904D02*
X150173866Y-132761904D01*
X150173866Y-132761904D02*
X150078628Y-132714285D01*
X150078628Y-132714285D02*
X150031009Y-132666666D01*
X150031009Y-132666666D02*
X149983390Y-132571428D01*
X126566666Y-55859580D02*
X126614285Y-55907200D01*
X126614285Y-55907200D02*
X126757142Y-55954819D01*
X126757142Y-55954819D02*
X126852380Y-55954819D01*
X126852380Y-55954819D02*
X126995237Y-55907200D01*
X126995237Y-55907200D02*
X127090475Y-55811961D01*
X127090475Y-55811961D02*
X127138094Y-55716723D01*
X127138094Y-55716723D02*
X127185713Y-55526247D01*
X127185713Y-55526247D02*
X127185713Y-55383390D01*
X127185713Y-55383390D02*
X127138094Y-55192914D01*
X127138094Y-55192914D02*
X127090475Y-55097676D01*
X127090475Y-55097676D02*
X126995237Y-55002438D01*
X126995237Y-55002438D02*
X126852380Y-54954819D01*
X126852380Y-54954819D02*
X126757142Y-54954819D01*
X126757142Y-54954819D02*
X126614285Y-55002438D01*
X126614285Y-55002438D02*
X126566666Y-55050057D01*
X126185713Y-55050057D02*
X126138094Y-55002438D01*
X126138094Y-55002438D02*
X126042856Y-54954819D01*
X126042856Y-54954819D02*
X125804761Y-54954819D01*
X125804761Y-54954819D02*
X125709523Y-55002438D01*
X125709523Y-55002438D02*
X125661904Y-55050057D01*
X125661904Y-55050057D02*
X125614285Y-55145295D01*
X125614285Y-55145295D02*
X125614285Y-55240533D01*
X125614285Y-55240533D02*
X125661904Y-55383390D01*
X125661904Y-55383390D02*
X126233332Y-55954819D01*
X126233332Y-55954819D02*
X125614285Y-55954819D01*
X150142857Y-60774819D02*
X150476190Y-60298628D01*
X150714285Y-60774819D02*
X150714285Y-59774819D01*
X150714285Y-59774819D02*
X150333333Y-59774819D01*
X150333333Y-59774819D02*
X150238095Y-59822438D01*
X150238095Y-59822438D02*
X150190476Y-59870057D01*
X150190476Y-59870057D02*
X150142857Y-59965295D01*
X150142857Y-59965295D02*
X150142857Y-60108152D01*
X150142857Y-60108152D02*
X150190476Y-60203390D01*
X150190476Y-60203390D02*
X150238095Y-60251009D01*
X150238095Y-60251009D02*
X150333333Y-60298628D01*
X150333333Y-60298628D02*
X150714285Y-60298628D01*
X149190476Y-60774819D02*
X149761904Y-60774819D01*
X149476190Y-60774819D02*
X149476190Y-59774819D01*
X149476190Y-59774819D02*
X149571428Y-59917676D01*
X149571428Y-59917676D02*
X149666666Y-60012914D01*
X149666666Y-60012914D02*
X149761904Y-60060533D01*
X148809523Y-59870057D02*
X148761904Y-59822438D01*
X148761904Y-59822438D02*
X148666666Y-59774819D01*
X148666666Y-59774819D02*
X148428571Y-59774819D01*
X148428571Y-59774819D02*
X148333333Y-59822438D01*
X148333333Y-59822438D02*
X148285714Y-59870057D01*
X148285714Y-59870057D02*
X148238095Y-59965295D01*
X148238095Y-59965295D02*
X148238095Y-60060533D01*
X148238095Y-60060533D02*
X148285714Y-60203390D01*
X148285714Y-60203390D02*
X148857142Y-60774819D01*
X148857142Y-60774819D02*
X148238095Y-60774819D01*
X173853333Y-55274819D02*
X173853333Y-55989104D01*
X173853333Y-55989104D02*
X173900952Y-56131961D01*
X173900952Y-56131961D02*
X173996190Y-56227200D01*
X173996190Y-56227200D02*
X174139047Y-56274819D01*
X174139047Y-56274819D02*
X174234285Y-56274819D01*
X173472380Y-55274819D02*
X172853333Y-55274819D01*
X172853333Y-55274819D02*
X173186666Y-55655771D01*
X173186666Y-55655771D02*
X173043809Y-55655771D01*
X173043809Y-55655771D02*
X172948571Y-55703390D01*
X172948571Y-55703390D02*
X172900952Y-55751009D01*
X172900952Y-55751009D02*
X172853333Y-55846247D01*
X172853333Y-55846247D02*
X172853333Y-56084342D01*
X172853333Y-56084342D02*
X172900952Y-56179580D01*
X172900952Y-56179580D02*
X172948571Y-56227200D01*
X172948571Y-56227200D02*
X173043809Y-56274819D01*
X173043809Y-56274819D02*
X173329523Y-56274819D01*
X173329523Y-56274819D02*
X173424761Y-56227200D01*
X173424761Y-56227200D02*
X173472380Y-56179580D01*
X116861904Y-117554819D02*
X116861904Y-118364342D01*
X116861904Y-118364342D02*
X116814285Y-118459580D01*
X116814285Y-118459580D02*
X116766666Y-118507200D01*
X116766666Y-118507200D02*
X116671428Y-118554819D01*
X116671428Y-118554819D02*
X116480952Y-118554819D01*
X116480952Y-118554819D02*
X116385714Y-118507200D01*
X116385714Y-118507200D02*
X116338095Y-118459580D01*
X116338095Y-118459580D02*
X116290476Y-118364342D01*
X116290476Y-118364342D02*
X116290476Y-117554819D01*
X115861904Y-117650057D02*
X115814285Y-117602438D01*
X115814285Y-117602438D02*
X115719047Y-117554819D01*
X115719047Y-117554819D02*
X115480952Y-117554819D01*
X115480952Y-117554819D02*
X115385714Y-117602438D01*
X115385714Y-117602438D02*
X115338095Y-117650057D01*
X115338095Y-117650057D02*
X115290476Y-117745295D01*
X115290476Y-117745295D02*
X115290476Y-117840533D01*
X115290476Y-117840533D02*
X115338095Y-117983390D01*
X115338095Y-117983390D02*
X115909523Y-118554819D01*
X115909523Y-118554819D02*
X115290476Y-118554819D01*
X132659580Y-55133333D02*
X132707200Y-55085714D01*
X132707200Y-55085714D02*
X132754819Y-54942857D01*
X132754819Y-54942857D02*
X132754819Y-54847619D01*
X132754819Y-54847619D02*
X132707200Y-54704762D01*
X132707200Y-54704762D02*
X132611961Y-54609524D01*
X132611961Y-54609524D02*
X132516723Y-54561905D01*
X132516723Y-54561905D02*
X132326247Y-54514286D01*
X132326247Y-54514286D02*
X132183390Y-54514286D01*
X132183390Y-54514286D02*
X131992914Y-54561905D01*
X131992914Y-54561905D02*
X131897676Y-54609524D01*
X131897676Y-54609524D02*
X131802438Y-54704762D01*
X131802438Y-54704762D02*
X131754819Y-54847619D01*
X131754819Y-54847619D02*
X131754819Y-54942857D01*
X131754819Y-54942857D02*
X131802438Y-55085714D01*
X131802438Y-55085714D02*
X131850057Y-55133333D01*
X131754819Y-55466667D02*
X131754819Y-56085714D01*
X131754819Y-56085714D02*
X132135771Y-55752381D01*
X132135771Y-55752381D02*
X132135771Y-55895238D01*
X132135771Y-55895238D02*
X132183390Y-55990476D01*
X132183390Y-55990476D02*
X132231009Y-56038095D01*
X132231009Y-56038095D02*
X132326247Y-56085714D01*
X132326247Y-56085714D02*
X132564342Y-56085714D01*
X132564342Y-56085714D02*
X132659580Y-56038095D01*
X132659580Y-56038095D02*
X132707200Y-55990476D01*
X132707200Y-55990476D02*
X132754819Y-55895238D01*
X132754819Y-55895238D02*
X132754819Y-55609524D01*
X132754819Y-55609524D02*
X132707200Y-55514286D01*
X132707200Y-55514286D02*
X132659580Y-55466667D01*
X155754819Y-134157142D02*
X155278628Y-133823809D01*
X155754819Y-133585714D02*
X154754819Y-133585714D01*
X154754819Y-133585714D02*
X154754819Y-133966666D01*
X154754819Y-133966666D02*
X154802438Y-134061904D01*
X154802438Y-134061904D02*
X154850057Y-134109523D01*
X154850057Y-134109523D02*
X154945295Y-134157142D01*
X154945295Y-134157142D02*
X155088152Y-134157142D01*
X155088152Y-134157142D02*
X155183390Y-134109523D01*
X155183390Y-134109523D02*
X155231009Y-134061904D01*
X155231009Y-134061904D02*
X155278628Y-133966666D01*
X155278628Y-133966666D02*
X155278628Y-133585714D01*
X155088152Y-135014285D02*
X155754819Y-135014285D01*
X154707200Y-134776190D02*
X155421485Y-134538095D01*
X155421485Y-134538095D02*
X155421485Y-135157142D01*
X154754819Y-135728571D02*
X154754819Y-135823809D01*
X154754819Y-135823809D02*
X154802438Y-135919047D01*
X154802438Y-135919047D02*
X154850057Y-135966666D01*
X154850057Y-135966666D02*
X154945295Y-136014285D01*
X154945295Y-136014285D02*
X155135771Y-136061904D01*
X155135771Y-136061904D02*
X155373866Y-136061904D01*
X155373866Y-136061904D02*
X155564342Y-136014285D01*
X155564342Y-136014285D02*
X155659580Y-135966666D01*
X155659580Y-135966666D02*
X155707200Y-135919047D01*
X155707200Y-135919047D02*
X155754819Y-135823809D01*
X155754819Y-135823809D02*
X155754819Y-135728571D01*
X155754819Y-135728571D02*
X155707200Y-135633333D01*
X155707200Y-135633333D02*
X155659580Y-135585714D01*
X155659580Y-135585714D02*
X155564342Y-135538095D01*
X155564342Y-135538095D02*
X155373866Y-135490476D01*
X155373866Y-135490476D02*
X155135771Y-135490476D01*
X155135771Y-135490476D02*
X154945295Y-135538095D01*
X154945295Y-135538095D02*
X154850057Y-135585714D01*
X154850057Y-135585714D02*
X154802438Y-135633333D01*
X154802438Y-135633333D02*
X154754819Y-135728571D01*
X149354819Y-114957142D02*
X148878628Y-114623809D01*
X149354819Y-114385714D02*
X148354819Y-114385714D01*
X148354819Y-114385714D02*
X148354819Y-114766666D01*
X148354819Y-114766666D02*
X148402438Y-114861904D01*
X148402438Y-114861904D02*
X148450057Y-114909523D01*
X148450057Y-114909523D02*
X148545295Y-114957142D01*
X148545295Y-114957142D02*
X148688152Y-114957142D01*
X148688152Y-114957142D02*
X148783390Y-114909523D01*
X148783390Y-114909523D02*
X148831009Y-114861904D01*
X148831009Y-114861904D02*
X148878628Y-114766666D01*
X148878628Y-114766666D02*
X148878628Y-114385714D01*
X148354819Y-115290476D02*
X148354819Y-115909523D01*
X148354819Y-115909523D02*
X148735771Y-115576190D01*
X148735771Y-115576190D02*
X148735771Y-115719047D01*
X148735771Y-115719047D02*
X148783390Y-115814285D01*
X148783390Y-115814285D02*
X148831009Y-115861904D01*
X148831009Y-115861904D02*
X148926247Y-115909523D01*
X148926247Y-115909523D02*
X149164342Y-115909523D01*
X149164342Y-115909523D02*
X149259580Y-115861904D01*
X149259580Y-115861904D02*
X149307200Y-115814285D01*
X149307200Y-115814285D02*
X149354819Y-115719047D01*
X149354819Y-115719047D02*
X149354819Y-115433333D01*
X149354819Y-115433333D02*
X149307200Y-115338095D01*
X149307200Y-115338095D02*
X149259580Y-115290476D01*
X148354819Y-116766666D02*
X148354819Y-116576190D01*
X148354819Y-116576190D02*
X148402438Y-116480952D01*
X148402438Y-116480952D02*
X148450057Y-116433333D01*
X148450057Y-116433333D02*
X148592914Y-116338095D01*
X148592914Y-116338095D02*
X148783390Y-116290476D01*
X148783390Y-116290476D02*
X149164342Y-116290476D01*
X149164342Y-116290476D02*
X149259580Y-116338095D01*
X149259580Y-116338095D02*
X149307200Y-116385714D01*
X149307200Y-116385714D02*
X149354819Y-116480952D01*
X149354819Y-116480952D02*
X149354819Y-116671428D01*
X149354819Y-116671428D02*
X149307200Y-116766666D01*
X149307200Y-116766666D02*
X149259580Y-116814285D01*
X149259580Y-116814285D02*
X149164342Y-116861904D01*
X149164342Y-116861904D02*
X148926247Y-116861904D01*
X148926247Y-116861904D02*
X148831009Y-116814285D01*
X148831009Y-116814285D02*
X148783390Y-116766666D01*
X148783390Y-116766666D02*
X148735771Y-116671428D01*
X148735771Y-116671428D02*
X148735771Y-116480952D01*
X148735771Y-116480952D02*
X148783390Y-116385714D01*
X148783390Y-116385714D02*
X148831009Y-116338095D01*
X148831009Y-116338095D02*
X148926247Y-116290476D01*
X131254819Y-92857142D02*
X130778628Y-92523809D01*
X131254819Y-92285714D02*
X130254819Y-92285714D01*
X130254819Y-92285714D02*
X130254819Y-92666666D01*
X130254819Y-92666666D02*
X130302438Y-92761904D01*
X130302438Y-92761904D02*
X130350057Y-92809523D01*
X130350057Y-92809523D02*
X130445295Y-92857142D01*
X130445295Y-92857142D02*
X130588152Y-92857142D01*
X130588152Y-92857142D02*
X130683390Y-92809523D01*
X130683390Y-92809523D02*
X130731009Y-92761904D01*
X130731009Y-92761904D02*
X130778628Y-92666666D01*
X130778628Y-92666666D02*
X130778628Y-92285714D01*
X130254819Y-93761904D02*
X130254819Y-93285714D01*
X130254819Y-93285714D02*
X130731009Y-93238095D01*
X130731009Y-93238095D02*
X130683390Y-93285714D01*
X130683390Y-93285714D02*
X130635771Y-93380952D01*
X130635771Y-93380952D02*
X130635771Y-93619047D01*
X130635771Y-93619047D02*
X130683390Y-93714285D01*
X130683390Y-93714285D02*
X130731009Y-93761904D01*
X130731009Y-93761904D02*
X130826247Y-93809523D01*
X130826247Y-93809523D02*
X131064342Y-93809523D01*
X131064342Y-93809523D02*
X131159580Y-93761904D01*
X131159580Y-93761904D02*
X131207200Y-93714285D01*
X131207200Y-93714285D02*
X131254819Y-93619047D01*
X131254819Y-93619047D02*
X131254819Y-93380952D01*
X131254819Y-93380952D02*
X131207200Y-93285714D01*
X131207200Y-93285714D02*
X131159580Y-93238095D01*
X130350057Y-94190476D02*
X130302438Y-94238095D01*
X130302438Y-94238095D02*
X130254819Y-94333333D01*
X130254819Y-94333333D02*
X130254819Y-94571428D01*
X130254819Y-94571428D02*
X130302438Y-94666666D01*
X130302438Y-94666666D02*
X130350057Y-94714285D01*
X130350057Y-94714285D02*
X130445295Y-94761904D01*
X130445295Y-94761904D02*
X130540533Y-94761904D01*
X130540533Y-94761904D02*
X130683390Y-94714285D01*
X130683390Y-94714285D02*
X131254819Y-94142857D01*
X131254819Y-94142857D02*
X131254819Y-94761904D01*
X142974819Y-53503333D02*
X142498628Y-53170000D01*
X142974819Y-52931905D02*
X141974819Y-52931905D01*
X141974819Y-52931905D02*
X141974819Y-53312857D01*
X141974819Y-53312857D02*
X142022438Y-53408095D01*
X142022438Y-53408095D02*
X142070057Y-53455714D01*
X142070057Y-53455714D02*
X142165295Y-53503333D01*
X142165295Y-53503333D02*
X142308152Y-53503333D01*
X142308152Y-53503333D02*
X142403390Y-53455714D01*
X142403390Y-53455714D02*
X142451009Y-53408095D01*
X142451009Y-53408095D02*
X142498628Y-53312857D01*
X142498628Y-53312857D02*
X142498628Y-52931905D01*
X142070057Y-53884286D02*
X142022438Y-53931905D01*
X142022438Y-53931905D02*
X141974819Y-54027143D01*
X141974819Y-54027143D02*
X141974819Y-54265238D01*
X141974819Y-54265238D02*
X142022438Y-54360476D01*
X142022438Y-54360476D02*
X142070057Y-54408095D01*
X142070057Y-54408095D02*
X142165295Y-54455714D01*
X142165295Y-54455714D02*
X142260533Y-54455714D01*
X142260533Y-54455714D02*
X142403390Y-54408095D01*
X142403390Y-54408095D02*
X142974819Y-53836667D01*
X142974819Y-53836667D02*
X142974819Y-54455714D01*
X123542857Y-110754819D02*
X123876190Y-110278628D01*
X124114285Y-110754819D02*
X124114285Y-109754819D01*
X124114285Y-109754819D02*
X123733333Y-109754819D01*
X123733333Y-109754819D02*
X123638095Y-109802438D01*
X123638095Y-109802438D02*
X123590476Y-109850057D01*
X123590476Y-109850057D02*
X123542857Y-109945295D01*
X123542857Y-109945295D02*
X123542857Y-110088152D01*
X123542857Y-110088152D02*
X123590476Y-110183390D01*
X123590476Y-110183390D02*
X123638095Y-110231009D01*
X123638095Y-110231009D02*
X123733333Y-110278628D01*
X123733333Y-110278628D02*
X124114285Y-110278628D01*
X122685714Y-110088152D02*
X122685714Y-110754819D01*
X122923809Y-109707200D02*
X123161904Y-110421485D01*
X123161904Y-110421485D02*
X122542857Y-110421485D01*
X121733333Y-109754819D02*
X121923809Y-109754819D01*
X121923809Y-109754819D02*
X122019047Y-109802438D01*
X122019047Y-109802438D02*
X122066666Y-109850057D01*
X122066666Y-109850057D02*
X122161904Y-109992914D01*
X122161904Y-109992914D02*
X122209523Y-110183390D01*
X122209523Y-110183390D02*
X122209523Y-110564342D01*
X122209523Y-110564342D02*
X122161904Y-110659580D01*
X122161904Y-110659580D02*
X122114285Y-110707200D01*
X122114285Y-110707200D02*
X122019047Y-110754819D01*
X122019047Y-110754819D02*
X121828571Y-110754819D01*
X121828571Y-110754819D02*
X121733333Y-110707200D01*
X121733333Y-110707200D02*
X121685714Y-110659580D01*
X121685714Y-110659580D02*
X121638095Y-110564342D01*
X121638095Y-110564342D02*
X121638095Y-110326247D01*
X121638095Y-110326247D02*
X121685714Y-110231009D01*
X121685714Y-110231009D02*
X121733333Y-110183390D01*
X121733333Y-110183390D02*
X121828571Y-110135771D01*
X121828571Y-110135771D02*
X122019047Y-110135771D01*
X122019047Y-110135771D02*
X122114285Y-110183390D01*
X122114285Y-110183390D02*
X122161904Y-110231009D01*
X122161904Y-110231009D02*
X122209523Y-110326247D01*
X133776190Y-115678628D02*
X133776190Y-116154819D01*
X134109523Y-115154819D02*
X133776190Y-115678628D01*
X133776190Y-115678628D02*
X133442857Y-115154819D01*
X132585714Y-116154819D02*
X133157142Y-116154819D01*
X132871428Y-116154819D02*
X132871428Y-115154819D01*
X132871428Y-115154819D02*
X132966666Y-115297676D01*
X132966666Y-115297676D02*
X133061904Y-115392914D01*
X133061904Y-115392914D02*
X133157142Y-115440533D01*
X123054819Y-92857142D02*
X122578628Y-92523809D01*
X123054819Y-92285714D02*
X122054819Y-92285714D01*
X122054819Y-92285714D02*
X122054819Y-92666666D01*
X122054819Y-92666666D02*
X122102438Y-92761904D01*
X122102438Y-92761904D02*
X122150057Y-92809523D01*
X122150057Y-92809523D02*
X122245295Y-92857142D01*
X122245295Y-92857142D02*
X122388152Y-92857142D01*
X122388152Y-92857142D02*
X122483390Y-92809523D01*
X122483390Y-92809523D02*
X122531009Y-92761904D01*
X122531009Y-92761904D02*
X122578628Y-92666666D01*
X122578628Y-92666666D02*
X122578628Y-92285714D01*
X122054819Y-93761904D02*
X122054819Y-93285714D01*
X122054819Y-93285714D02*
X122531009Y-93238095D01*
X122531009Y-93238095D02*
X122483390Y-93285714D01*
X122483390Y-93285714D02*
X122435771Y-93380952D01*
X122435771Y-93380952D02*
X122435771Y-93619047D01*
X122435771Y-93619047D02*
X122483390Y-93714285D01*
X122483390Y-93714285D02*
X122531009Y-93761904D01*
X122531009Y-93761904D02*
X122626247Y-93809523D01*
X122626247Y-93809523D02*
X122864342Y-93809523D01*
X122864342Y-93809523D02*
X122959580Y-93761904D01*
X122959580Y-93761904D02*
X123007200Y-93714285D01*
X123007200Y-93714285D02*
X123054819Y-93619047D01*
X123054819Y-93619047D02*
X123054819Y-93380952D01*
X123054819Y-93380952D02*
X123007200Y-93285714D01*
X123007200Y-93285714D02*
X122959580Y-93238095D01*
X122054819Y-94714285D02*
X122054819Y-94238095D01*
X122054819Y-94238095D02*
X122531009Y-94190476D01*
X122531009Y-94190476D02*
X122483390Y-94238095D01*
X122483390Y-94238095D02*
X122435771Y-94333333D01*
X122435771Y-94333333D02*
X122435771Y-94571428D01*
X122435771Y-94571428D02*
X122483390Y-94666666D01*
X122483390Y-94666666D02*
X122531009Y-94714285D01*
X122531009Y-94714285D02*
X122626247Y-94761904D01*
X122626247Y-94761904D02*
X122864342Y-94761904D01*
X122864342Y-94761904D02*
X122959580Y-94714285D01*
X122959580Y-94714285D02*
X123007200Y-94666666D01*
X123007200Y-94666666D02*
X123054819Y-94571428D01*
X123054819Y-94571428D02*
X123054819Y-94333333D01*
X123054819Y-94333333D02*
X123007200Y-94238095D01*
X123007200Y-94238095D02*
X122959580Y-94190476D01*
X159661904Y-74854819D02*
X159661904Y-75664342D01*
X159661904Y-75664342D02*
X159614285Y-75759580D01*
X159614285Y-75759580D02*
X159566666Y-75807200D01*
X159566666Y-75807200D02*
X159471428Y-75854819D01*
X159471428Y-75854819D02*
X159280952Y-75854819D01*
X159280952Y-75854819D02*
X159185714Y-75807200D01*
X159185714Y-75807200D02*
X159138095Y-75759580D01*
X159138095Y-75759580D02*
X159090476Y-75664342D01*
X159090476Y-75664342D02*
X159090476Y-74854819D01*
X158138095Y-74854819D02*
X158614285Y-74854819D01*
X158614285Y-74854819D02*
X158661904Y-75331009D01*
X158661904Y-75331009D02*
X158614285Y-75283390D01*
X158614285Y-75283390D02*
X158519047Y-75235771D01*
X158519047Y-75235771D02*
X158280952Y-75235771D01*
X158280952Y-75235771D02*
X158185714Y-75283390D01*
X158185714Y-75283390D02*
X158138095Y-75331009D01*
X158138095Y-75331009D02*
X158090476Y-75426247D01*
X158090476Y-75426247D02*
X158090476Y-75664342D01*
X158090476Y-75664342D02*
X158138095Y-75759580D01*
X158138095Y-75759580D02*
X158185714Y-75807200D01*
X158185714Y-75807200D02*
X158280952Y-75854819D01*
X158280952Y-75854819D02*
X158519047Y-75854819D01*
X158519047Y-75854819D02*
X158614285Y-75807200D01*
X158614285Y-75807200D02*
X158661904Y-75759580D01*
X154695238Y-68550057D02*
X154790476Y-68502438D01*
X154790476Y-68502438D02*
X154885714Y-68407200D01*
X154885714Y-68407200D02*
X155028571Y-68264342D01*
X155028571Y-68264342D02*
X155123809Y-68216723D01*
X155123809Y-68216723D02*
X155219047Y-68216723D01*
X155171428Y-68454819D02*
X155266666Y-68407200D01*
X155266666Y-68407200D02*
X155361904Y-68311961D01*
X155361904Y-68311961D02*
X155409523Y-68121485D01*
X155409523Y-68121485D02*
X155409523Y-67788152D01*
X155409523Y-67788152D02*
X155361904Y-67597676D01*
X155361904Y-67597676D02*
X155266666Y-67502438D01*
X155266666Y-67502438D02*
X155171428Y-67454819D01*
X155171428Y-67454819D02*
X154980952Y-67454819D01*
X154980952Y-67454819D02*
X154885714Y-67502438D01*
X154885714Y-67502438D02*
X154790476Y-67597676D01*
X154790476Y-67597676D02*
X154742857Y-67788152D01*
X154742857Y-67788152D02*
X154742857Y-68121485D01*
X154742857Y-68121485D02*
X154790476Y-68311961D01*
X154790476Y-68311961D02*
X154885714Y-68407200D01*
X154885714Y-68407200D02*
X154980952Y-68454819D01*
X154980952Y-68454819D02*
X155171428Y-68454819D01*
X153790476Y-68454819D02*
X154361904Y-68454819D01*
X154076190Y-68454819D02*
X154076190Y-67454819D01*
X154076190Y-67454819D02*
X154171428Y-67597676D01*
X154171428Y-67597676D02*
X154266666Y-67692914D01*
X154266666Y-67692914D02*
X154361904Y-67740533D01*
X144042857Y-72054819D02*
X144376190Y-71578628D01*
X144614285Y-72054819D02*
X144614285Y-71054819D01*
X144614285Y-71054819D02*
X144233333Y-71054819D01*
X144233333Y-71054819D02*
X144138095Y-71102438D01*
X144138095Y-71102438D02*
X144090476Y-71150057D01*
X144090476Y-71150057D02*
X144042857Y-71245295D01*
X144042857Y-71245295D02*
X144042857Y-71388152D01*
X144042857Y-71388152D02*
X144090476Y-71483390D01*
X144090476Y-71483390D02*
X144138095Y-71531009D01*
X144138095Y-71531009D02*
X144233333Y-71578628D01*
X144233333Y-71578628D02*
X144614285Y-71578628D01*
X143661904Y-71150057D02*
X143614285Y-71102438D01*
X143614285Y-71102438D02*
X143519047Y-71054819D01*
X143519047Y-71054819D02*
X143280952Y-71054819D01*
X143280952Y-71054819D02*
X143185714Y-71102438D01*
X143185714Y-71102438D02*
X143138095Y-71150057D01*
X143138095Y-71150057D02*
X143090476Y-71245295D01*
X143090476Y-71245295D02*
X143090476Y-71340533D01*
X143090476Y-71340533D02*
X143138095Y-71483390D01*
X143138095Y-71483390D02*
X143709523Y-72054819D01*
X143709523Y-72054819D02*
X143090476Y-72054819D01*
X142709523Y-71150057D02*
X142661904Y-71102438D01*
X142661904Y-71102438D02*
X142566666Y-71054819D01*
X142566666Y-71054819D02*
X142328571Y-71054819D01*
X142328571Y-71054819D02*
X142233333Y-71102438D01*
X142233333Y-71102438D02*
X142185714Y-71150057D01*
X142185714Y-71150057D02*
X142138095Y-71245295D01*
X142138095Y-71245295D02*
X142138095Y-71340533D01*
X142138095Y-71340533D02*
X142185714Y-71483390D01*
X142185714Y-71483390D02*
X142757142Y-72054819D01*
X142757142Y-72054819D02*
X142138095Y-72054819D01*
X149761904Y-75054819D02*
X149761904Y-75864342D01*
X149761904Y-75864342D02*
X149714285Y-75959580D01*
X149714285Y-75959580D02*
X149666666Y-76007200D01*
X149666666Y-76007200D02*
X149571428Y-76054819D01*
X149571428Y-76054819D02*
X149380952Y-76054819D01*
X149380952Y-76054819D02*
X149285714Y-76007200D01*
X149285714Y-76007200D02*
X149238095Y-75959580D01*
X149238095Y-75959580D02*
X149190476Y-75864342D01*
X149190476Y-75864342D02*
X149190476Y-75054819D01*
X148571428Y-75483390D02*
X148666666Y-75435771D01*
X148666666Y-75435771D02*
X148714285Y-75388152D01*
X148714285Y-75388152D02*
X148761904Y-75292914D01*
X148761904Y-75292914D02*
X148761904Y-75245295D01*
X148761904Y-75245295D02*
X148714285Y-75150057D01*
X148714285Y-75150057D02*
X148666666Y-75102438D01*
X148666666Y-75102438D02*
X148571428Y-75054819D01*
X148571428Y-75054819D02*
X148380952Y-75054819D01*
X148380952Y-75054819D02*
X148285714Y-75102438D01*
X148285714Y-75102438D02*
X148238095Y-75150057D01*
X148238095Y-75150057D02*
X148190476Y-75245295D01*
X148190476Y-75245295D02*
X148190476Y-75292914D01*
X148190476Y-75292914D02*
X148238095Y-75388152D01*
X148238095Y-75388152D02*
X148285714Y-75435771D01*
X148285714Y-75435771D02*
X148380952Y-75483390D01*
X148380952Y-75483390D02*
X148571428Y-75483390D01*
X148571428Y-75483390D02*
X148666666Y-75531009D01*
X148666666Y-75531009D02*
X148714285Y-75578628D01*
X148714285Y-75578628D02*
X148761904Y-75673866D01*
X148761904Y-75673866D02*
X148761904Y-75864342D01*
X148761904Y-75864342D02*
X148714285Y-75959580D01*
X148714285Y-75959580D02*
X148666666Y-76007200D01*
X148666666Y-76007200D02*
X148571428Y-76054819D01*
X148571428Y-76054819D02*
X148380952Y-76054819D01*
X148380952Y-76054819D02*
X148285714Y-76007200D01*
X148285714Y-76007200D02*
X148238095Y-75959580D01*
X148238095Y-75959580D02*
X148190476Y-75864342D01*
X148190476Y-75864342D02*
X148190476Y-75673866D01*
X148190476Y-75673866D02*
X148238095Y-75578628D01*
X148238095Y-75578628D02*
X148285714Y-75531009D01*
X148285714Y-75531009D02*
X148380952Y-75483390D01*
X132031009Y-126266666D02*
X132031009Y-125933333D01*
X132554819Y-125933333D02*
X131554819Y-125933333D01*
X131554819Y-125933333D02*
X131554819Y-126409523D01*
X132031009Y-127123809D02*
X132078628Y-127266666D01*
X132078628Y-127266666D02*
X132126247Y-127314285D01*
X132126247Y-127314285D02*
X132221485Y-127361904D01*
X132221485Y-127361904D02*
X132364342Y-127361904D01*
X132364342Y-127361904D02*
X132459580Y-127314285D01*
X132459580Y-127314285D02*
X132507200Y-127266666D01*
X132507200Y-127266666D02*
X132554819Y-127171428D01*
X132554819Y-127171428D02*
X132554819Y-126790476D01*
X132554819Y-126790476D02*
X131554819Y-126790476D01*
X131554819Y-126790476D02*
X131554819Y-127123809D01*
X131554819Y-127123809D02*
X131602438Y-127219047D01*
X131602438Y-127219047D02*
X131650057Y-127266666D01*
X131650057Y-127266666D02*
X131745295Y-127314285D01*
X131745295Y-127314285D02*
X131840533Y-127314285D01*
X131840533Y-127314285D02*
X131935771Y-127266666D01*
X131935771Y-127266666D02*
X131983390Y-127219047D01*
X131983390Y-127219047D02*
X132031009Y-127123809D01*
X132031009Y-127123809D02*
X132031009Y-126790476D01*
X132554819Y-128314285D02*
X132554819Y-127742857D01*
X132554819Y-128028571D02*
X131554819Y-128028571D01*
X131554819Y-128028571D02*
X131697676Y-127933333D01*
X131697676Y-127933333D02*
X131792914Y-127838095D01*
X131792914Y-127838095D02*
X131840533Y-127742857D01*
X121766666Y-116859580D02*
X121814285Y-116907200D01*
X121814285Y-116907200D02*
X121957142Y-116954819D01*
X121957142Y-116954819D02*
X122052380Y-116954819D01*
X122052380Y-116954819D02*
X122195237Y-116907200D01*
X122195237Y-116907200D02*
X122290475Y-116811961D01*
X122290475Y-116811961D02*
X122338094Y-116716723D01*
X122338094Y-116716723D02*
X122385713Y-116526247D01*
X122385713Y-116526247D02*
X122385713Y-116383390D01*
X122385713Y-116383390D02*
X122338094Y-116192914D01*
X122338094Y-116192914D02*
X122290475Y-116097676D01*
X122290475Y-116097676D02*
X122195237Y-116002438D01*
X122195237Y-116002438D02*
X122052380Y-115954819D01*
X122052380Y-115954819D02*
X121957142Y-115954819D01*
X121957142Y-115954819D02*
X121814285Y-116002438D01*
X121814285Y-116002438D02*
X121766666Y-116050057D01*
X121433332Y-115954819D02*
X120766666Y-115954819D01*
X120766666Y-115954819D02*
X121195237Y-116954819D01*
X142954819Y-57645833D02*
X142478628Y-57312500D01*
X142954819Y-57074405D02*
X141954819Y-57074405D01*
X141954819Y-57074405D02*
X141954819Y-57455357D01*
X141954819Y-57455357D02*
X142002438Y-57550595D01*
X142002438Y-57550595D02*
X142050057Y-57598214D01*
X142050057Y-57598214D02*
X142145295Y-57645833D01*
X142145295Y-57645833D02*
X142288152Y-57645833D01*
X142288152Y-57645833D02*
X142383390Y-57598214D01*
X142383390Y-57598214D02*
X142431009Y-57550595D01*
X142431009Y-57550595D02*
X142478628Y-57455357D01*
X142478628Y-57455357D02*
X142478628Y-57074405D01*
X142954819Y-58122024D02*
X142954819Y-58312500D01*
X142954819Y-58312500D02*
X142907200Y-58407738D01*
X142907200Y-58407738D02*
X142859580Y-58455357D01*
X142859580Y-58455357D02*
X142716723Y-58550595D01*
X142716723Y-58550595D02*
X142526247Y-58598214D01*
X142526247Y-58598214D02*
X142145295Y-58598214D01*
X142145295Y-58598214D02*
X142050057Y-58550595D01*
X142050057Y-58550595D02*
X142002438Y-58502976D01*
X142002438Y-58502976D02*
X141954819Y-58407738D01*
X141954819Y-58407738D02*
X141954819Y-58217262D01*
X141954819Y-58217262D02*
X142002438Y-58122024D01*
X142002438Y-58122024D02*
X142050057Y-58074405D01*
X142050057Y-58074405D02*
X142145295Y-58026786D01*
X142145295Y-58026786D02*
X142383390Y-58026786D01*
X142383390Y-58026786D02*
X142478628Y-58074405D01*
X142478628Y-58074405D02*
X142526247Y-58122024D01*
X142526247Y-58122024D02*
X142573866Y-58217262D01*
X142573866Y-58217262D02*
X142573866Y-58407738D01*
X142573866Y-58407738D02*
X142526247Y-58502976D01*
X142526247Y-58502976D02*
X142478628Y-58550595D01*
X142478628Y-58550595D02*
X142383390Y-58598214D01*
X146054819Y-68357142D02*
X145578628Y-68023809D01*
X146054819Y-67785714D02*
X145054819Y-67785714D01*
X145054819Y-67785714D02*
X145054819Y-68166666D01*
X145054819Y-68166666D02*
X145102438Y-68261904D01*
X145102438Y-68261904D02*
X145150057Y-68309523D01*
X145150057Y-68309523D02*
X145245295Y-68357142D01*
X145245295Y-68357142D02*
X145388152Y-68357142D01*
X145388152Y-68357142D02*
X145483390Y-68309523D01*
X145483390Y-68309523D02*
X145531009Y-68261904D01*
X145531009Y-68261904D02*
X145578628Y-68166666D01*
X145578628Y-68166666D02*
X145578628Y-67785714D01*
X146054819Y-69309523D02*
X146054819Y-68738095D01*
X146054819Y-69023809D02*
X145054819Y-69023809D01*
X145054819Y-69023809D02*
X145197676Y-68928571D01*
X145197676Y-68928571D02*
X145292914Y-68833333D01*
X145292914Y-68833333D02*
X145340533Y-68738095D01*
X145054819Y-69642857D02*
X145054819Y-70309523D01*
X145054819Y-70309523D02*
X146054819Y-69880952D01*
X127666666Y-120259580D02*
X127714285Y-120307200D01*
X127714285Y-120307200D02*
X127857142Y-120354819D01*
X127857142Y-120354819D02*
X127952380Y-120354819D01*
X127952380Y-120354819D02*
X128095237Y-120307200D01*
X128095237Y-120307200D02*
X128190475Y-120211961D01*
X128190475Y-120211961D02*
X128238094Y-120116723D01*
X128238094Y-120116723D02*
X128285713Y-119926247D01*
X128285713Y-119926247D02*
X128285713Y-119783390D01*
X128285713Y-119783390D02*
X128238094Y-119592914D01*
X128238094Y-119592914D02*
X128190475Y-119497676D01*
X128190475Y-119497676D02*
X128095237Y-119402438D01*
X128095237Y-119402438D02*
X127952380Y-119354819D01*
X127952380Y-119354819D02*
X127857142Y-119354819D01*
X127857142Y-119354819D02*
X127714285Y-119402438D01*
X127714285Y-119402438D02*
X127666666Y-119450057D01*
X126809523Y-119354819D02*
X126999999Y-119354819D01*
X126999999Y-119354819D02*
X127095237Y-119402438D01*
X127095237Y-119402438D02*
X127142856Y-119450057D01*
X127142856Y-119450057D02*
X127238094Y-119592914D01*
X127238094Y-119592914D02*
X127285713Y-119783390D01*
X127285713Y-119783390D02*
X127285713Y-120164342D01*
X127285713Y-120164342D02*
X127238094Y-120259580D01*
X127238094Y-120259580D02*
X127190475Y-120307200D01*
X127190475Y-120307200D02*
X127095237Y-120354819D01*
X127095237Y-120354819D02*
X126904761Y-120354819D01*
X126904761Y-120354819D02*
X126809523Y-120307200D01*
X126809523Y-120307200D02*
X126761904Y-120259580D01*
X126761904Y-120259580D02*
X126714285Y-120164342D01*
X126714285Y-120164342D02*
X126714285Y-119926247D01*
X126714285Y-119926247D02*
X126761904Y-119831009D01*
X126761904Y-119831009D02*
X126809523Y-119783390D01*
X126809523Y-119783390D02*
X126904761Y-119735771D01*
X126904761Y-119735771D02*
X127095237Y-119735771D01*
X127095237Y-119735771D02*
X127190475Y-119783390D01*
X127190475Y-119783390D02*
X127238094Y-119831009D01*
X127238094Y-119831009D02*
X127285713Y-119926247D01*
X162754819Y-123157142D02*
X162278628Y-122823809D01*
X162754819Y-122585714D02*
X161754819Y-122585714D01*
X161754819Y-122585714D02*
X161754819Y-122966666D01*
X161754819Y-122966666D02*
X161802438Y-123061904D01*
X161802438Y-123061904D02*
X161850057Y-123109523D01*
X161850057Y-123109523D02*
X161945295Y-123157142D01*
X161945295Y-123157142D02*
X162088152Y-123157142D01*
X162088152Y-123157142D02*
X162183390Y-123109523D01*
X162183390Y-123109523D02*
X162231009Y-123061904D01*
X162231009Y-123061904D02*
X162278628Y-122966666D01*
X162278628Y-122966666D02*
X162278628Y-122585714D01*
X162088152Y-124014285D02*
X162754819Y-124014285D01*
X161707200Y-123776190D02*
X162421485Y-123538095D01*
X162421485Y-123538095D02*
X162421485Y-124157142D01*
X161850057Y-124490476D02*
X161802438Y-124538095D01*
X161802438Y-124538095D02*
X161754819Y-124633333D01*
X161754819Y-124633333D02*
X161754819Y-124871428D01*
X161754819Y-124871428D02*
X161802438Y-124966666D01*
X161802438Y-124966666D02*
X161850057Y-125014285D01*
X161850057Y-125014285D02*
X161945295Y-125061904D01*
X161945295Y-125061904D02*
X162040533Y-125061904D01*
X162040533Y-125061904D02*
X162183390Y-125014285D01*
X162183390Y-125014285D02*
X162754819Y-124442857D01*
X162754819Y-124442857D02*
X162754819Y-125061904D01*
X120442857Y-110854819D02*
X120776190Y-110378628D01*
X121014285Y-110854819D02*
X121014285Y-109854819D01*
X121014285Y-109854819D02*
X120633333Y-109854819D01*
X120633333Y-109854819D02*
X120538095Y-109902438D01*
X120538095Y-109902438D02*
X120490476Y-109950057D01*
X120490476Y-109950057D02*
X120442857Y-110045295D01*
X120442857Y-110045295D02*
X120442857Y-110188152D01*
X120442857Y-110188152D02*
X120490476Y-110283390D01*
X120490476Y-110283390D02*
X120538095Y-110331009D01*
X120538095Y-110331009D02*
X120633333Y-110378628D01*
X120633333Y-110378628D02*
X121014285Y-110378628D01*
X119585714Y-110188152D02*
X119585714Y-110854819D01*
X119823809Y-109807200D02*
X120061904Y-110521485D01*
X120061904Y-110521485D02*
X119442857Y-110521485D01*
X118633333Y-110188152D02*
X118633333Y-110854819D01*
X118871428Y-109807200D02*
X119109523Y-110521485D01*
X119109523Y-110521485D02*
X118490476Y-110521485D01*
X157938094Y-66254819D02*
X157938094Y-65254819D01*
X157938094Y-65254819D02*
X157699999Y-65254819D01*
X157699999Y-65254819D02*
X157557142Y-65302438D01*
X157557142Y-65302438D02*
X157461904Y-65397676D01*
X157461904Y-65397676D02*
X157414285Y-65492914D01*
X157414285Y-65492914D02*
X157366666Y-65683390D01*
X157366666Y-65683390D02*
X157366666Y-65826247D01*
X157366666Y-65826247D02*
X157414285Y-66016723D01*
X157414285Y-66016723D02*
X157461904Y-66111961D01*
X157461904Y-66111961D02*
X157557142Y-66207200D01*
X157557142Y-66207200D02*
X157699999Y-66254819D01*
X157699999Y-66254819D02*
X157938094Y-66254819D01*
X156461904Y-65254819D02*
X156938094Y-65254819D01*
X156938094Y-65254819D02*
X156985713Y-65731009D01*
X156985713Y-65731009D02*
X156938094Y-65683390D01*
X156938094Y-65683390D02*
X156842856Y-65635771D01*
X156842856Y-65635771D02*
X156604761Y-65635771D01*
X156604761Y-65635771D02*
X156509523Y-65683390D01*
X156509523Y-65683390D02*
X156461904Y-65731009D01*
X156461904Y-65731009D02*
X156414285Y-65826247D01*
X156414285Y-65826247D02*
X156414285Y-66064342D01*
X156414285Y-66064342D02*
X156461904Y-66159580D01*
X156461904Y-66159580D02*
X156509523Y-66207200D01*
X156509523Y-66207200D02*
X156604761Y-66254819D01*
X156604761Y-66254819D02*
X156842856Y-66254819D01*
X156842856Y-66254819D02*
X156938094Y-66207200D01*
X156938094Y-66207200D02*
X156985713Y-66159580D01*
X126566666Y-54159580D02*
X126614285Y-54207200D01*
X126614285Y-54207200D02*
X126757142Y-54254819D01*
X126757142Y-54254819D02*
X126852380Y-54254819D01*
X126852380Y-54254819D02*
X126995237Y-54207200D01*
X126995237Y-54207200D02*
X127090475Y-54111961D01*
X127090475Y-54111961D02*
X127138094Y-54016723D01*
X127138094Y-54016723D02*
X127185713Y-53826247D01*
X127185713Y-53826247D02*
X127185713Y-53683390D01*
X127185713Y-53683390D02*
X127138094Y-53492914D01*
X127138094Y-53492914D02*
X127090475Y-53397676D01*
X127090475Y-53397676D02*
X126995237Y-53302438D01*
X126995237Y-53302438D02*
X126852380Y-53254819D01*
X126852380Y-53254819D02*
X126757142Y-53254819D01*
X126757142Y-53254819D02*
X126614285Y-53302438D01*
X126614285Y-53302438D02*
X126566666Y-53350057D01*
X125709523Y-53588152D02*
X125709523Y-54254819D01*
X125947618Y-53207200D02*
X126185713Y-53921485D01*
X126185713Y-53921485D02*
X125566666Y-53921485D01*
X112866666Y-127659580D02*
X112914285Y-127707200D01*
X112914285Y-127707200D02*
X113057142Y-127754819D01*
X113057142Y-127754819D02*
X113152380Y-127754819D01*
X113152380Y-127754819D02*
X113295237Y-127707200D01*
X113295237Y-127707200D02*
X113390475Y-127611961D01*
X113390475Y-127611961D02*
X113438094Y-127516723D01*
X113438094Y-127516723D02*
X113485713Y-127326247D01*
X113485713Y-127326247D02*
X113485713Y-127183390D01*
X113485713Y-127183390D02*
X113438094Y-126992914D01*
X113438094Y-126992914D02*
X113390475Y-126897676D01*
X113390475Y-126897676D02*
X113295237Y-126802438D01*
X113295237Y-126802438D02*
X113152380Y-126754819D01*
X113152380Y-126754819D02*
X113057142Y-126754819D01*
X113057142Y-126754819D02*
X112914285Y-126802438D01*
X112914285Y-126802438D02*
X112866666Y-126850057D01*
X112295237Y-127183390D02*
X112390475Y-127135771D01*
X112390475Y-127135771D02*
X112438094Y-127088152D01*
X112438094Y-127088152D02*
X112485713Y-126992914D01*
X112485713Y-126992914D02*
X112485713Y-126945295D01*
X112485713Y-126945295D02*
X112438094Y-126850057D01*
X112438094Y-126850057D02*
X112390475Y-126802438D01*
X112390475Y-126802438D02*
X112295237Y-126754819D01*
X112295237Y-126754819D02*
X112104761Y-126754819D01*
X112104761Y-126754819D02*
X112009523Y-126802438D01*
X112009523Y-126802438D02*
X111961904Y-126850057D01*
X111961904Y-126850057D02*
X111914285Y-126945295D01*
X111914285Y-126945295D02*
X111914285Y-126992914D01*
X111914285Y-126992914D02*
X111961904Y-127088152D01*
X111961904Y-127088152D02*
X112009523Y-127135771D01*
X112009523Y-127135771D02*
X112104761Y-127183390D01*
X112104761Y-127183390D02*
X112295237Y-127183390D01*
X112295237Y-127183390D02*
X112390475Y-127231009D01*
X112390475Y-127231009D02*
X112438094Y-127278628D01*
X112438094Y-127278628D02*
X112485713Y-127373866D01*
X112485713Y-127373866D02*
X112485713Y-127564342D01*
X112485713Y-127564342D02*
X112438094Y-127659580D01*
X112438094Y-127659580D02*
X112390475Y-127707200D01*
X112390475Y-127707200D02*
X112295237Y-127754819D01*
X112295237Y-127754819D02*
X112104761Y-127754819D01*
X112104761Y-127754819D02*
X112009523Y-127707200D01*
X112009523Y-127707200D02*
X111961904Y-127659580D01*
X111961904Y-127659580D02*
X111914285Y-127564342D01*
X111914285Y-127564342D02*
X111914285Y-127373866D01*
X111914285Y-127373866D02*
X111961904Y-127278628D01*
X111961904Y-127278628D02*
X112009523Y-127231009D01*
X112009523Y-127231009D02*
X112104761Y-127183390D01*
X152242857Y-105859580D02*
X152290476Y-105907200D01*
X152290476Y-105907200D02*
X152433333Y-105954819D01*
X152433333Y-105954819D02*
X152528571Y-105954819D01*
X152528571Y-105954819D02*
X152671428Y-105907200D01*
X152671428Y-105907200D02*
X152766666Y-105811961D01*
X152766666Y-105811961D02*
X152814285Y-105716723D01*
X152814285Y-105716723D02*
X152861904Y-105526247D01*
X152861904Y-105526247D02*
X152861904Y-105383390D01*
X152861904Y-105383390D02*
X152814285Y-105192914D01*
X152814285Y-105192914D02*
X152766666Y-105097676D01*
X152766666Y-105097676D02*
X152671428Y-105002438D01*
X152671428Y-105002438D02*
X152528571Y-104954819D01*
X152528571Y-104954819D02*
X152433333Y-104954819D01*
X152433333Y-104954819D02*
X152290476Y-105002438D01*
X152290476Y-105002438D02*
X152242857Y-105050057D01*
X151290476Y-105954819D02*
X151861904Y-105954819D01*
X151576190Y-105954819D02*
X151576190Y-104954819D01*
X151576190Y-104954819D02*
X151671428Y-105097676D01*
X151671428Y-105097676D02*
X151766666Y-105192914D01*
X151766666Y-105192914D02*
X151861904Y-105240533D01*
X150957142Y-104954819D02*
X150338095Y-104954819D01*
X150338095Y-104954819D02*
X150671428Y-105335771D01*
X150671428Y-105335771D02*
X150528571Y-105335771D01*
X150528571Y-105335771D02*
X150433333Y-105383390D01*
X150433333Y-105383390D02*
X150385714Y-105431009D01*
X150385714Y-105431009D02*
X150338095Y-105526247D01*
X150338095Y-105526247D02*
X150338095Y-105764342D01*
X150338095Y-105764342D02*
X150385714Y-105859580D01*
X150385714Y-105859580D02*
X150433333Y-105907200D01*
X150433333Y-105907200D02*
X150528571Y-105954819D01*
X150528571Y-105954819D02*
X150814285Y-105954819D01*
X150814285Y-105954819D02*
X150909523Y-105907200D01*
X150909523Y-105907200D02*
X150957142Y-105859580D01*
X122395238Y-50254819D02*
X122728571Y-49778628D01*
X122966666Y-50254819D02*
X122966666Y-49254819D01*
X122966666Y-49254819D02*
X122585714Y-49254819D01*
X122585714Y-49254819D02*
X122490476Y-49302438D01*
X122490476Y-49302438D02*
X122442857Y-49350057D01*
X122442857Y-49350057D02*
X122395238Y-49445295D01*
X122395238Y-49445295D02*
X122395238Y-49588152D01*
X122395238Y-49588152D02*
X122442857Y-49683390D01*
X122442857Y-49683390D02*
X122490476Y-49731009D01*
X122490476Y-49731009D02*
X122585714Y-49778628D01*
X122585714Y-49778628D02*
X122966666Y-49778628D01*
X122109523Y-49254819D02*
X121776190Y-50254819D01*
X121776190Y-50254819D02*
X121442857Y-49254819D01*
X120633333Y-49254819D02*
X121109523Y-49254819D01*
X121109523Y-49254819D02*
X121157142Y-49731009D01*
X121157142Y-49731009D02*
X121109523Y-49683390D01*
X121109523Y-49683390D02*
X121014285Y-49635771D01*
X121014285Y-49635771D02*
X120776190Y-49635771D01*
X120776190Y-49635771D02*
X120680952Y-49683390D01*
X120680952Y-49683390D02*
X120633333Y-49731009D01*
X120633333Y-49731009D02*
X120585714Y-49826247D01*
X120585714Y-49826247D02*
X120585714Y-50064342D01*
X120585714Y-50064342D02*
X120633333Y-50159580D01*
X120633333Y-50159580D02*
X120680952Y-50207200D01*
X120680952Y-50207200D02*
X120776190Y-50254819D01*
X120776190Y-50254819D02*
X121014285Y-50254819D01*
X121014285Y-50254819D02*
X121109523Y-50207200D01*
X121109523Y-50207200D02*
X121157142Y-50159580D01*
X162170238Y-59680057D02*
X162265476Y-59632438D01*
X162265476Y-59632438D02*
X162360714Y-59537200D01*
X162360714Y-59537200D02*
X162503571Y-59394342D01*
X162503571Y-59394342D02*
X162598809Y-59346723D01*
X162598809Y-59346723D02*
X162694047Y-59346723D01*
X162646428Y-59584819D02*
X162741666Y-59537200D01*
X162741666Y-59537200D02*
X162836904Y-59441961D01*
X162836904Y-59441961D02*
X162884523Y-59251485D01*
X162884523Y-59251485D02*
X162884523Y-58918152D01*
X162884523Y-58918152D02*
X162836904Y-58727676D01*
X162836904Y-58727676D02*
X162741666Y-58632438D01*
X162741666Y-58632438D02*
X162646428Y-58584819D01*
X162646428Y-58584819D02*
X162455952Y-58584819D01*
X162455952Y-58584819D02*
X162360714Y-58632438D01*
X162360714Y-58632438D02*
X162265476Y-58727676D01*
X162265476Y-58727676D02*
X162217857Y-58918152D01*
X162217857Y-58918152D02*
X162217857Y-59251485D01*
X162217857Y-59251485D02*
X162265476Y-59441961D01*
X162265476Y-59441961D02*
X162360714Y-59537200D01*
X162360714Y-59537200D02*
X162455952Y-59584819D01*
X162455952Y-59584819D02*
X162646428Y-59584819D01*
X161836904Y-58680057D02*
X161789285Y-58632438D01*
X161789285Y-58632438D02*
X161694047Y-58584819D01*
X161694047Y-58584819D02*
X161455952Y-58584819D01*
X161455952Y-58584819D02*
X161360714Y-58632438D01*
X161360714Y-58632438D02*
X161313095Y-58680057D01*
X161313095Y-58680057D02*
X161265476Y-58775295D01*
X161265476Y-58775295D02*
X161265476Y-58870533D01*
X161265476Y-58870533D02*
X161313095Y-59013390D01*
X161313095Y-59013390D02*
X161884523Y-59584819D01*
X161884523Y-59584819D02*
X161265476Y-59584819D01*
X152042857Y-79789580D02*
X152090476Y-79837200D01*
X152090476Y-79837200D02*
X152233333Y-79884819D01*
X152233333Y-79884819D02*
X152328571Y-79884819D01*
X152328571Y-79884819D02*
X152471428Y-79837200D01*
X152471428Y-79837200D02*
X152566666Y-79741961D01*
X152566666Y-79741961D02*
X152614285Y-79646723D01*
X152614285Y-79646723D02*
X152661904Y-79456247D01*
X152661904Y-79456247D02*
X152661904Y-79313390D01*
X152661904Y-79313390D02*
X152614285Y-79122914D01*
X152614285Y-79122914D02*
X152566666Y-79027676D01*
X152566666Y-79027676D02*
X152471428Y-78932438D01*
X152471428Y-78932438D02*
X152328571Y-78884819D01*
X152328571Y-78884819D02*
X152233333Y-78884819D01*
X152233333Y-78884819D02*
X152090476Y-78932438D01*
X152090476Y-78932438D02*
X152042857Y-78980057D01*
X151661904Y-78980057D02*
X151614285Y-78932438D01*
X151614285Y-78932438D02*
X151519047Y-78884819D01*
X151519047Y-78884819D02*
X151280952Y-78884819D01*
X151280952Y-78884819D02*
X151185714Y-78932438D01*
X151185714Y-78932438D02*
X151138095Y-78980057D01*
X151138095Y-78980057D02*
X151090476Y-79075295D01*
X151090476Y-79075295D02*
X151090476Y-79170533D01*
X151090476Y-79170533D02*
X151138095Y-79313390D01*
X151138095Y-79313390D02*
X151709523Y-79884819D01*
X151709523Y-79884819D02*
X151090476Y-79884819D01*
X150471428Y-78884819D02*
X150376190Y-78884819D01*
X150376190Y-78884819D02*
X150280952Y-78932438D01*
X150280952Y-78932438D02*
X150233333Y-78980057D01*
X150233333Y-78980057D02*
X150185714Y-79075295D01*
X150185714Y-79075295D02*
X150138095Y-79265771D01*
X150138095Y-79265771D02*
X150138095Y-79503866D01*
X150138095Y-79503866D02*
X150185714Y-79694342D01*
X150185714Y-79694342D02*
X150233333Y-79789580D01*
X150233333Y-79789580D02*
X150280952Y-79837200D01*
X150280952Y-79837200D02*
X150376190Y-79884819D01*
X150376190Y-79884819D02*
X150471428Y-79884819D01*
X150471428Y-79884819D02*
X150566666Y-79837200D01*
X150566666Y-79837200D02*
X150614285Y-79789580D01*
X150614285Y-79789580D02*
X150661904Y-79694342D01*
X150661904Y-79694342D02*
X150709523Y-79503866D01*
X150709523Y-79503866D02*
X150709523Y-79265771D01*
X150709523Y-79265771D02*
X150661904Y-79075295D01*
X150661904Y-79075295D02*
X150614285Y-78980057D01*
X150614285Y-78980057D02*
X150566666Y-78932438D01*
X150566666Y-78932438D02*
X150471428Y-78884819D01*
X151038094Y-63954819D02*
X151038094Y-62954819D01*
X151038094Y-62954819D02*
X150799999Y-62954819D01*
X150799999Y-62954819D02*
X150657142Y-63002438D01*
X150657142Y-63002438D02*
X150561904Y-63097676D01*
X150561904Y-63097676D02*
X150514285Y-63192914D01*
X150514285Y-63192914D02*
X150466666Y-63383390D01*
X150466666Y-63383390D02*
X150466666Y-63526247D01*
X150466666Y-63526247D02*
X150514285Y-63716723D01*
X150514285Y-63716723D02*
X150561904Y-63811961D01*
X150561904Y-63811961D02*
X150657142Y-63907200D01*
X150657142Y-63907200D02*
X150799999Y-63954819D01*
X150799999Y-63954819D02*
X151038094Y-63954819D01*
X150133332Y-62954819D02*
X149514285Y-62954819D01*
X149514285Y-62954819D02*
X149847618Y-63335771D01*
X149847618Y-63335771D02*
X149704761Y-63335771D01*
X149704761Y-63335771D02*
X149609523Y-63383390D01*
X149609523Y-63383390D02*
X149561904Y-63431009D01*
X149561904Y-63431009D02*
X149514285Y-63526247D01*
X149514285Y-63526247D02*
X149514285Y-63764342D01*
X149514285Y-63764342D02*
X149561904Y-63859580D01*
X149561904Y-63859580D02*
X149609523Y-63907200D01*
X149609523Y-63907200D02*
X149704761Y-63954819D01*
X149704761Y-63954819D02*
X149990475Y-63954819D01*
X149990475Y-63954819D02*
X150085713Y-63907200D01*
X150085713Y-63907200D02*
X150133332Y-63859580D01*
X138236904Y-48384819D02*
X138236904Y-49194342D01*
X138236904Y-49194342D02*
X138189285Y-49289580D01*
X138189285Y-49289580D02*
X138141666Y-49337200D01*
X138141666Y-49337200D02*
X138046428Y-49384819D01*
X138046428Y-49384819D02*
X137855952Y-49384819D01*
X137855952Y-49384819D02*
X137760714Y-49337200D01*
X137760714Y-49337200D02*
X137713095Y-49289580D01*
X137713095Y-49289580D02*
X137665476Y-49194342D01*
X137665476Y-49194342D02*
X137665476Y-48384819D01*
X136665476Y-49384819D02*
X137236904Y-49384819D01*
X136951190Y-49384819D02*
X136951190Y-48384819D01*
X136951190Y-48384819D02*
X137046428Y-48527676D01*
X137046428Y-48527676D02*
X137141666Y-48622914D01*
X137141666Y-48622914D02*
X137236904Y-48670533D01*
X126642857Y-57654819D02*
X126976190Y-57178628D01*
X127214285Y-57654819D02*
X127214285Y-56654819D01*
X127214285Y-56654819D02*
X126833333Y-56654819D01*
X126833333Y-56654819D02*
X126738095Y-56702438D01*
X126738095Y-56702438D02*
X126690476Y-56750057D01*
X126690476Y-56750057D02*
X126642857Y-56845295D01*
X126642857Y-56845295D02*
X126642857Y-56988152D01*
X126642857Y-56988152D02*
X126690476Y-57083390D01*
X126690476Y-57083390D02*
X126738095Y-57131009D01*
X126738095Y-57131009D02*
X126833333Y-57178628D01*
X126833333Y-57178628D02*
X127214285Y-57178628D01*
X126261904Y-56750057D02*
X126214285Y-56702438D01*
X126214285Y-56702438D02*
X126119047Y-56654819D01*
X126119047Y-56654819D02*
X125880952Y-56654819D01*
X125880952Y-56654819D02*
X125785714Y-56702438D01*
X125785714Y-56702438D02*
X125738095Y-56750057D01*
X125738095Y-56750057D02*
X125690476Y-56845295D01*
X125690476Y-56845295D02*
X125690476Y-56940533D01*
X125690476Y-56940533D02*
X125738095Y-57083390D01*
X125738095Y-57083390D02*
X126309523Y-57654819D01*
X126309523Y-57654819D02*
X125690476Y-57654819D01*
X124833333Y-56654819D02*
X125023809Y-56654819D01*
X125023809Y-56654819D02*
X125119047Y-56702438D01*
X125119047Y-56702438D02*
X125166666Y-56750057D01*
X125166666Y-56750057D02*
X125261904Y-56892914D01*
X125261904Y-56892914D02*
X125309523Y-57083390D01*
X125309523Y-57083390D02*
X125309523Y-57464342D01*
X125309523Y-57464342D02*
X125261904Y-57559580D01*
X125261904Y-57559580D02*
X125214285Y-57607200D01*
X125214285Y-57607200D02*
X125119047Y-57654819D01*
X125119047Y-57654819D02*
X124928571Y-57654819D01*
X124928571Y-57654819D02*
X124833333Y-57607200D01*
X124833333Y-57607200D02*
X124785714Y-57559580D01*
X124785714Y-57559580D02*
X124738095Y-57464342D01*
X124738095Y-57464342D02*
X124738095Y-57226247D01*
X124738095Y-57226247D02*
X124785714Y-57131009D01*
X124785714Y-57131009D02*
X124833333Y-57083390D01*
X124833333Y-57083390D02*
X124928571Y-57035771D01*
X124928571Y-57035771D02*
X125119047Y-57035771D01*
X125119047Y-57035771D02*
X125214285Y-57083390D01*
X125214285Y-57083390D02*
X125261904Y-57131009D01*
X125261904Y-57131009D02*
X125309523Y-57226247D01*
X164054819Y-61607142D02*
X163578628Y-61273809D01*
X164054819Y-61035714D02*
X163054819Y-61035714D01*
X163054819Y-61035714D02*
X163054819Y-61416666D01*
X163054819Y-61416666D02*
X163102438Y-61511904D01*
X163102438Y-61511904D02*
X163150057Y-61559523D01*
X163150057Y-61559523D02*
X163245295Y-61607142D01*
X163245295Y-61607142D02*
X163388152Y-61607142D01*
X163388152Y-61607142D02*
X163483390Y-61559523D01*
X163483390Y-61559523D02*
X163531009Y-61511904D01*
X163531009Y-61511904D02*
X163578628Y-61416666D01*
X163578628Y-61416666D02*
X163578628Y-61035714D01*
X163150057Y-61988095D02*
X163102438Y-62035714D01*
X163102438Y-62035714D02*
X163054819Y-62130952D01*
X163054819Y-62130952D02*
X163054819Y-62369047D01*
X163054819Y-62369047D02*
X163102438Y-62464285D01*
X163102438Y-62464285D02*
X163150057Y-62511904D01*
X163150057Y-62511904D02*
X163245295Y-62559523D01*
X163245295Y-62559523D02*
X163340533Y-62559523D01*
X163340533Y-62559523D02*
X163483390Y-62511904D01*
X163483390Y-62511904D02*
X164054819Y-61940476D01*
X164054819Y-61940476D02*
X164054819Y-62559523D01*
X163388152Y-63416666D02*
X164054819Y-63416666D01*
X163007200Y-63178571D02*
X163721485Y-62940476D01*
X163721485Y-62940476D02*
X163721485Y-63559523D01*
X159354819Y-130869642D02*
X158878628Y-130536309D01*
X159354819Y-130298214D02*
X158354819Y-130298214D01*
X158354819Y-130298214D02*
X158354819Y-130679166D01*
X158354819Y-130679166D02*
X158402438Y-130774404D01*
X158402438Y-130774404D02*
X158450057Y-130822023D01*
X158450057Y-130822023D02*
X158545295Y-130869642D01*
X158545295Y-130869642D02*
X158688152Y-130869642D01*
X158688152Y-130869642D02*
X158783390Y-130822023D01*
X158783390Y-130822023D02*
X158831009Y-130774404D01*
X158831009Y-130774404D02*
X158878628Y-130679166D01*
X158878628Y-130679166D02*
X158878628Y-130298214D01*
X158688152Y-131726785D02*
X159354819Y-131726785D01*
X158307200Y-131488690D02*
X159021485Y-131250595D01*
X159021485Y-131250595D02*
X159021485Y-131869642D01*
X159354819Y-132774404D02*
X159354819Y-132202976D01*
X159354819Y-132488690D02*
X158354819Y-132488690D01*
X158354819Y-132488690D02*
X158497676Y-132393452D01*
X158497676Y-132393452D02*
X158592914Y-132298214D01*
X158592914Y-132298214D02*
X158640533Y-132202976D01*
X145542857Y-60774819D02*
X145876190Y-60298628D01*
X146114285Y-60774819D02*
X146114285Y-59774819D01*
X146114285Y-59774819D02*
X145733333Y-59774819D01*
X145733333Y-59774819D02*
X145638095Y-59822438D01*
X145638095Y-59822438D02*
X145590476Y-59870057D01*
X145590476Y-59870057D02*
X145542857Y-59965295D01*
X145542857Y-59965295D02*
X145542857Y-60108152D01*
X145542857Y-60108152D02*
X145590476Y-60203390D01*
X145590476Y-60203390D02*
X145638095Y-60251009D01*
X145638095Y-60251009D02*
X145733333Y-60298628D01*
X145733333Y-60298628D02*
X146114285Y-60298628D01*
X144590476Y-60774819D02*
X145161904Y-60774819D01*
X144876190Y-60774819D02*
X144876190Y-59774819D01*
X144876190Y-59774819D02*
X144971428Y-59917676D01*
X144971428Y-59917676D02*
X145066666Y-60012914D01*
X145066666Y-60012914D02*
X145161904Y-60060533D01*
X144257142Y-59774819D02*
X143638095Y-59774819D01*
X143638095Y-59774819D02*
X143971428Y-60155771D01*
X143971428Y-60155771D02*
X143828571Y-60155771D01*
X143828571Y-60155771D02*
X143733333Y-60203390D01*
X143733333Y-60203390D02*
X143685714Y-60251009D01*
X143685714Y-60251009D02*
X143638095Y-60346247D01*
X143638095Y-60346247D02*
X143638095Y-60584342D01*
X143638095Y-60584342D02*
X143685714Y-60679580D01*
X143685714Y-60679580D02*
X143733333Y-60727200D01*
X143733333Y-60727200D02*
X143828571Y-60774819D01*
X143828571Y-60774819D02*
X144114285Y-60774819D01*
X144114285Y-60774819D02*
X144209523Y-60727200D01*
X144209523Y-60727200D02*
X144257142Y-60679580D01*
X126642857Y-61054819D02*
X126976190Y-60578628D01*
X127214285Y-61054819D02*
X127214285Y-60054819D01*
X127214285Y-60054819D02*
X126833333Y-60054819D01*
X126833333Y-60054819D02*
X126738095Y-60102438D01*
X126738095Y-60102438D02*
X126690476Y-60150057D01*
X126690476Y-60150057D02*
X126642857Y-60245295D01*
X126642857Y-60245295D02*
X126642857Y-60388152D01*
X126642857Y-60388152D02*
X126690476Y-60483390D01*
X126690476Y-60483390D02*
X126738095Y-60531009D01*
X126738095Y-60531009D02*
X126833333Y-60578628D01*
X126833333Y-60578628D02*
X127214285Y-60578628D01*
X126261904Y-60150057D02*
X126214285Y-60102438D01*
X126214285Y-60102438D02*
X126119047Y-60054819D01*
X126119047Y-60054819D02*
X125880952Y-60054819D01*
X125880952Y-60054819D02*
X125785714Y-60102438D01*
X125785714Y-60102438D02*
X125738095Y-60150057D01*
X125738095Y-60150057D02*
X125690476Y-60245295D01*
X125690476Y-60245295D02*
X125690476Y-60340533D01*
X125690476Y-60340533D02*
X125738095Y-60483390D01*
X125738095Y-60483390D02*
X126309523Y-61054819D01*
X126309523Y-61054819D02*
X125690476Y-61054819D01*
X125357142Y-60054819D02*
X124690476Y-60054819D01*
X124690476Y-60054819D02*
X125119047Y-61054819D01*
X131995238Y-68550057D02*
X132090476Y-68502438D01*
X132090476Y-68502438D02*
X132185714Y-68407200D01*
X132185714Y-68407200D02*
X132328571Y-68264342D01*
X132328571Y-68264342D02*
X132423809Y-68216723D01*
X132423809Y-68216723D02*
X132519047Y-68216723D01*
X132471428Y-68454819D02*
X132566666Y-68407200D01*
X132566666Y-68407200D02*
X132661904Y-68311961D01*
X132661904Y-68311961D02*
X132709523Y-68121485D01*
X132709523Y-68121485D02*
X132709523Y-67788152D01*
X132709523Y-67788152D02*
X132661904Y-67597676D01*
X132661904Y-67597676D02*
X132566666Y-67502438D01*
X132566666Y-67502438D02*
X132471428Y-67454819D01*
X132471428Y-67454819D02*
X132280952Y-67454819D01*
X132280952Y-67454819D02*
X132185714Y-67502438D01*
X132185714Y-67502438D02*
X132090476Y-67597676D01*
X132090476Y-67597676D02*
X132042857Y-67788152D01*
X132042857Y-67788152D02*
X132042857Y-68121485D01*
X132042857Y-68121485D02*
X132090476Y-68311961D01*
X132090476Y-68311961D02*
X132185714Y-68407200D01*
X132185714Y-68407200D02*
X132280952Y-68454819D01*
X132280952Y-68454819D02*
X132471428Y-68454819D01*
X131709523Y-67454819D02*
X131090476Y-67454819D01*
X131090476Y-67454819D02*
X131423809Y-67835771D01*
X131423809Y-67835771D02*
X131280952Y-67835771D01*
X131280952Y-67835771D02*
X131185714Y-67883390D01*
X131185714Y-67883390D02*
X131138095Y-67931009D01*
X131138095Y-67931009D02*
X131090476Y-68026247D01*
X131090476Y-68026247D02*
X131090476Y-68264342D01*
X131090476Y-68264342D02*
X131138095Y-68359580D01*
X131138095Y-68359580D02*
X131185714Y-68407200D01*
X131185714Y-68407200D02*
X131280952Y-68454819D01*
X131280952Y-68454819D02*
X131566666Y-68454819D01*
X131566666Y-68454819D02*
X131661904Y-68407200D01*
X131661904Y-68407200D02*
X131709523Y-68359580D01*
X155954819Y-110257142D02*
X155478628Y-109923809D01*
X155954819Y-109685714D02*
X154954819Y-109685714D01*
X154954819Y-109685714D02*
X154954819Y-110066666D01*
X154954819Y-110066666D02*
X155002438Y-110161904D01*
X155002438Y-110161904D02*
X155050057Y-110209523D01*
X155050057Y-110209523D02*
X155145295Y-110257142D01*
X155145295Y-110257142D02*
X155288152Y-110257142D01*
X155288152Y-110257142D02*
X155383390Y-110209523D01*
X155383390Y-110209523D02*
X155431009Y-110161904D01*
X155431009Y-110161904D02*
X155478628Y-110066666D01*
X155478628Y-110066666D02*
X155478628Y-109685714D01*
X154954819Y-110590476D02*
X154954819Y-111209523D01*
X154954819Y-111209523D02*
X155335771Y-110876190D01*
X155335771Y-110876190D02*
X155335771Y-111019047D01*
X155335771Y-111019047D02*
X155383390Y-111114285D01*
X155383390Y-111114285D02*
X155431009Y-111161904D01*
X155431009Y-111161904D02*
X155526247Y-111209523D01*
X155526247Y-111209523D02*
X155764342Y-111209523D01*
X155764342Y-111209523D02*
X155859580Y-111161904D01*
X155859580Y-111161904D02*
X155907200Y-111114285D01*
X155907200Y-111114285D02*
X155954819Y-111019047D01*
X155954819Y-111019047D02*
X155954819Y-110733333D01*
X155954819Y-110733333D02*
X155907200Y-110638095D01*
X155907200Y-110638095D02*
X155859580Y-110590476D01*
X155954819Y-112161904D02*
X155954819Y-111590476D01*
X155954819Y-111876190D02*
X154954819Y-111876190D01*
X154954819Y-111876190D02*
X155097676Y-111780952D01*
X155097676Y-111780952D02*
X155192914Y-111685714D01*
X155192914Y-111685714D02*
X155240533Y-111590476D01*
X154142857Y-60774819D02*
X154476190Y-60298628D01*
X154714285Y-60774819D02*
X154714285Y-59774819D01*
X154714285Y-59774819D02*
X154333333Y-59774819D01*
X154333333Y-59774819D02*
X154238095Y-59822438D01*
X154238095Y-59822438D02*
X154190476Y-59870057D01*
X154190476Y-59870057D02*
X154142857Y-59965295D01*
X154142857Y-59965295D02*
X154142857Y-60108152D01*
X154142857Y-60108152D02*
X154190476Y-60203390D01*
X154190476Y-60203390D02*
X154238095Y-60251009D01*
X154238095Y-60251009D02*
X154333333Y-60298628D01*
X154333333Y-60298628D02*
X154714285Y-60298628D01*
X153190476Y-60774819D02*
X153761904Y-60774819D01*
X153476190Y-60774819D02*
X153476190Y-59774819D01*
X153476190Y-59774819D02*
X153571428Y-59917676D01*
X153571428Y-59917676D02*
X153666666Y-60012914D01*
X153666666Y-60012914D02*
X153761904Y-60060533D01*
X152238095Y-60774819D02*
X152809523Y-60774819D01*
X152523809Y-60774819D02*
X152523809Y-59774819D01*
X152523809Y-59774819D02*
X152619047Y-59917676D01*
X152619047Y-59917676D02*
X152714285Y-60012914D01*
X152714285Y-60012914D02*
X152809523Y-60060533D01*
X150595238Y-68550057D02*
X150690476Y-68502438D01*
X150690476Y-68502438D02*
X150785714Y-68407200D01*
X150785714Y-68407200D02*
X150928571Y-68264342D01*
X150928571Y-68264342D02*
X151023809Y-68216723D01*
X151023809Y-68216723D02*
X151119047Y-68216723D01*
X151071428Y-68454819D02*
X151166666Y-68407200D01*
X151166666Y-68407200D02*
X151261904Y-68311961D01*
X151261904Y-68311961D02*
X151309523Y-68121485D01*
X151309523Y-68121485D02*
X151309523Y-67788152D01*
X151309523Y-67788152D02*
X151261904Y-67597676D01*
X151261904Y-67597676D02*
X151166666Y-67502438D01*
X151166666Y-67502438D02*
X151071428Y-67454819D01*
X151071428Y-67454819D02*
X150880952Y-67454819D01*
X150880952Y-67454819D02*
X150785714Y-67502438D01*
X150785714Y-67502438D02*
X150690476Y-67597676D01*
X150690476Y-67597676D02*
X150642857Y-67788152D01*
X150642857Y-67788152D02*
X150642857Y-68121485D01*
X150642857Y-68121485D02*
X150690476Y-68311961D01*
X150690476Y-68311961D02*
X150785714Y-68407200D01*
X150785714Y-68407200D02*
X150880952Y-68454819D01*
X150880952Y-68454819D02*
X151071428Y-68454819D01*
X149785714Y-67454819D02*
X149976190Y-67454819D01*
X149976190Y-67454819D02*
X150071428Y-67502438D01*
X150071428Y-67502438D02*
X150119047Y-67550057D01*
X150119047Y-67550057D02*
X150214285Y-67692914D01*
X150214285Y-67692914D02*
X150261904Y-67883390D01*
X150261904Y-67883390D02*
X150261904Y-68264342D01*
X150261904Y-68264342D02*
X150214285Y-68359580D01*
X150214285Y-68359580D02*
X150166666Y-68407200D01*
X150166666Y-68407200D02*
X150071428Y-68454819D01*
X150071428Y-68454819D02*
X149880952Y-68454819D01*
X149880952Y-68454819D02*
X149785714Y-68407200D01*
X149785714Y-68407200D02*
X149738095Y-68359580D01*
X149738095Y-68359580D02*
X149690476Y-68264342D01*
X149690476Y-68264342D02*
X149690476Y-68026247D01*
X149690476Y-68026247D02*
X149738095Y-67931009D01*
X149738095Y-67931009D02*
X149785714Y-67883390D01*
X149785714Y-67883390D02*
X149880952Y-67835771D01*
X149880952Y-67835771D02*
X150071428Y-67835771D01*
X150071428Y-67835771D02*
X150166666Y-67883390D01*
X150166666Y-67883390D02*
X150214285Y-67931009D01*
X150214285Y-67931009D02*
X150261904Y-68026247D01*
X145066666Y-49654819D02*
X145399999Y-49178628D01*
X145638094Y-49654819D02*
X145638094Y-48654819D01*
X145638094Y-48654819D02*
X145257142Y-48654819D01*
X145257142Y-48654819D02*
X145161904Y-48702438D01*
X145161904Y-48702438D02*
X145114285Y-48750057D01*
X145114285Y-48750057D02*
X145066666Y-48845295D01*
X145066666Y-48845295D02*
X145066666Y-48988152D01*
X145066666Y-48988152D02*
X145114285Y-49083390D01*
X145114285Y-49083390D02*
X145161904Y-49131009D01*
X145161904Y-49131009D02*
X145257142Y-49178628D01*
X145257142Y-49178628D02*
X145638094Y-49178628D01*
X144114285Y-49654819D02*
X144685713Y-49654819D01*
X144399999Y-49654819D02*
X144399999Y-48654819D01*
X144399999Y-48654819D02*
X144495237Y-48797676D01*
X144495237Y-48797676D02*
X144590475Y-48892914D01*
X144590475Y-48892914D02*
X144685713Y-48940533D01*
X168838094Y-98854819D02*
X168838094Y-99664342D01*
X168838094Y-99664342D02*
X168790475Y-99759580D01*
X168790475Y-99759580D02*
X168742856Y-99807200D01*
X168742856Y-99807200D02*
X168647618Y-99854819D01*
X168647618Y-99854819D02*
X168457142Y-99854819D01*
X168457142Y-99854819D02*
X168361904Y-99807200D01*
X168361904Y-99807200D02*
X168314285Y-99759580D01*
X168314285Y-99759580D02*
X168266666Y-99664342D01*
X168266666Y-99664342D02*
X168266666Y-98854819D01*
X167266666Y-99854819D02*
X167838094Y-99854819D01*
X167552380Y-99854819D02*
X167552380Y-98854819D01*
X167552380Y-98854819D02*
X167647618Y-98997676D01*
X167647618Y-98997676D02*
X167742856Y-99092914D01*
X167742856Y-99092914D02*
X167838094Y-99140533D01*
X166314285Y-99854819D02*
X166885713Y-99854819D01*
X166599999Y-99854819D02*
X166599999Y-98854819D01*
X166599999Y-98854819D02*
X166695237Y-98997676D01*
X166695237Y-98997676D02*
X166790475Y-99092914D01*
X166790475Y-99092914D02*
X166885713Y-99140533D01*
X149561904Y-121454819D02*
X149561904Y-122264342D01*
X149561904Y-122264342D02*
X149514285Y-122359580D01*
X149514285Y-122359580D02*
X149466666Y-122407200D01*
X149466666Y-122407200D02*
X149371428Y-122454819D01*
X149371428Y-122454819D02*
X149180952Y-122454819D01*
X149180952Y-122454819D02*
X149085714Y-122407200D01*
X149085714Y-122407200D02*
X149038095Y-122359580D01*
X149038095Y-122359580D02*
X148990476Y-122264342D01*
X148990476Y-122264342D02*
X148990476Y-121454819D01*
X148085714Y-121788152D02*
X148085714Y-122454819D01*
X148323809Y-121407200D02*
X148561904Y-122121485D01*
X148561904Y-122121485D02*
X147942857Y-122121485D01*
X152354819Y-110257142D02*
X151878628Y-109923809D01*
X152354819Y-109685714D02*
X151354819Y-109685714D01*
X151354819Y-109685714D02*
X151354819Y-110066666D01*
X151354819Y-110066666D02*
X151402438Y-110161904D01*
X151402438Y-110161904D02*
X151450057Y-110209523D01*
X151450057Y-110209523D02*
X151545295Y-110257142D01*
X151545295Y-110257142D02*
X151688152Y-110257142D01*
X151688152Y-110257142D02*
X151783390Y-110209523D01*
X151783390Y-110209523D02*
X151831009Y-110161904D01*
X151831009Y-110161904D02*
X151878628Y-110066666D01*
X151878628Y-110066666D02*
X151878628Y-109685714D01*
X151354819Y-110590476D02*
X151354819Y-111209523D01*
X151354819Y-111209523D02*
X151735771Y-110876190D01*
X151735771Y-110876190D02*
X151735771Y-111019047D01*
X151735771Y-111019047D02*
X151783390Y-111114285D01*
X151783390Y-111114285D02*
X151831009Y-111161904D01*
X151831009Y-111161904D02*
X151926247Y-111209523D01*
X151926247Y-111209523D02*
X152164342Y-111209523D01*
X152164342Y-111209523D02*
X152259580Y-111161904D01*
X152259580Y-111161904D02*
X152307200Y-111114285D01*
X152307200Y-111114285D02*
X152354819Y-111019047D01*
X152354819Y-111019047D02*
X152354819Y-110733333D01*
X152354819Y-110733333D02*
X152307200Y-110638095D01*
X152307200Y-110638095D02*
X152259580Y-110590476D01*
X151354819Y-112114285D02*
X151354819Y-111638095D01*
X151354819Y-111638095D02*
X151831009Y-111590476D01*
X151831009Y-111590476D02*
X151783390Y-111638095D01*
X151783390Y-111638095D02*
X151735771Y-111733333D01*
X151735771Y-111733333D02*
X151735771Y-111971428D01*
X151735771Y-111971428D02*
X151783390Y-112066666D01*
X151783390Y-112066666D02*
X151831009Y-112114285D01*
X151831009Y-112114285D02*
X151926247Y-112161904D01*
X151926247Y-112161904D02*
X152164342Y-112161904D01*
X152164342Y-112161904D02*
X152259580Y-112114285D01*
X152259580Y-112114285D02*
X152307200Y-112066666D01*
X152307200Y-112066666D02*
X152354819Y-111971428D01*
X152354819Y-111971428D02*
X152354819Y-111733333D01*
X152354819Y-111733333D02*
X152307200Y-111638095D01*
X152307200Y-111638095D02*
X152259580Y-111590476D01*
X135695238Y-63750057D02*
X135790476Y-63702438D01*
X135790476Y-63702438D02*
X135885714Y-63607200D01*
X135885714Y-63607200D02*
X136028571Y-63464342D01*
X136028571Y-63464342D02*
X136123809Y-63416723D01*
X136123809Y-63416723D02*
X136219047Y-63416723D01*
X136171428Y-63654819D02*
X136266666Y-63607200D01*
X136266666Y-63607200D02*
X136361904Y-63511961D01*
X136361904Y-63511961D02*
X136409523Y-63321485D01*
X136409523Y-63321485D02*
X136409523Y-62988152D01*
X136409523Y-62988152D02*
X136361904Y-62797676D01*
X136361904Y-62797676D02*
X136266666Y-62702438D01*
X136266666Y-62702438D02*
X136171428Y-62654819D01*
X136171428Y-62654819D02*
X135980952Y-62654819D01*
X135980952Y-62654819D02*
X135885714Y-62702438D01*
X135885714Y-62702438D02*
X135790476Y-62797676D01*
X135790476Y-62797676D02*
X135742857Y-62988152D01*
X135742857Y-62988152D02*
X135742857Y-63321485D01*
X135742857Y-63321485D02*
X135790476Y-63511961D01*
X135790476Y-63511961D02*
X135885714Y-63607200D01*
X135885714Y-63607200D02*
X135980952Y-63654819D01*
X135980952Y-63654819D02*
X136171428Y-63654819D01*
X134838095Y-62654819D02*
X135314285Y-62654819D01*
X135314285Y-62654819D02*
X135361904Y-63131009D01*
X135361904Y-63131009D02*
X135314285Y-63083390D01*
X135314285Y-63083390D02*
X135219047Y-63035771D01*
X135219047Y-63035771D02*
X134980952Y-63035771D01*
X134980952Y-63035771D02*
X134885714Y-63083390D01*
X134885714Y-63083390D02*
X134838095Y-63131009D01*
X134838095Y-63131009D02*
X134790476Y-63226247D01*
X134790476Y-63226247D02*
X134790476Y-63464342D01*
X134790476Y-63464342D02*
X134838095Y-63559580D01*
X134838095Y-63559580D02*
X134885714Y-63607200D01*
X134885714Y-63607200D02*
X134980952Y-63654819D01*
X134980952Y-63654819D02*
X135219047Y-63654819D01*
X135219047Y-63654819D02*
X135314285Y-63607200D01*
X135314285Y-63607200D02*
X135361904Y-63559580D01*
X121766666Y-115159580D02*
X121814285Y-115207200D01*
X121814285Y-115207200D02*
X121957142Y-115254819D01*
X121957142Y-115254819D02*
X122052380Y-115254819D01*
X122052380Y-115254819D02*
X122195237Y-115207200D01*
X122195237Y-115207200D02*
X122290475Y-115111961D01*
X122290475Y-115111961D02*
X122338094Y-115016723D01*
X122338094Y-115016723D02*
X122385713Y-114826247D01*
X122385713Y-114826247D02*
X122385713Y-114683390D01*
X122385713Y-114683390D02*
X122338094Y-114492914D01*
X122338094Y-114492914D02*
X122290475Y-114397676D01*
X122290475Y-114397676D02*
X122195237Y-114302438D01*
X122195237Y-114302438D02*
X122052380Y-114254819D01*
X122052380Y-114254819D02*
X121957142Y-114254819D01*
X121957142Y-114254819D02*
X121814285Y-114302438D01*
X121814285Y-114302438D02*
X121766666Y-114350057D01*
X120861904Y-114254819D02*
X121338094Y-114254819D01*
X121338094Y-114254819D02*
X121385713Y-114731009D01*
X121385713Y-114731009D02*
X121338094Y-114683390D01*
X121338094Y-114683390D02*
X121242856Y-114635771D01*
X121242856Y-114635771D02*
X121004761Y-114635771D01*
X121004761Y-114635771D02*
X120909523Y-114683390D01*
X120909523Y-114683390D02*
X120861904Y-114731009D01*
X120861904Y-114731009D02*
X120814285Y-114826247D01*
X120814285Y-114826247D02*
X120814285Y-115064342D01*
X120814285Y-115064342D02*
X120861904Y-115159580D01*
X120861904Y-115159580D02*
X120909523Y-115207200D01*
X120909523Y-115207200D02*
X121004761Y-115254819D01*
X121004761Y-115254819D02*
X121242856Y-115254819D01*
X121242856Y-115254819D02*
X121338094Y-115207200D01*
X121338094Y-115207200D02*
X121385713Y-115159580D01*
X149666666Y-51654819D02*
X149999999Y-51178628D01*
X150238094Y-51654819D02*
X150238094Y-50654819D01*
X150238094Y-50654819D02*
X149857142Y-50654819D01*
X149857142Y-50654819D02*
X149761904Y-50702438D01*
X149761904Y-50702438D02*
X149714285Y-50750057D01*
X149714285Y-50750057D02*
X149666666Y-50845295D01*
X149666666Y-50845295D02*
X149666666Y-50988152D01*
X149666666Y-50988152D02*
X149714285Y-51083390D01*
X149714285Y-51083390D02*
X149761904Y-51131009D01*
X149761904Y-51131009D02*
X149857142Y-51178628D01*
X149857142Y-51178628D02*
X150238094Y-51178628D01*
X148761904Y-50654819D02*
X149238094Y-50654819D01*
X149238094Y-50654819D02*
X149285713Y-51131009D01*
X149285713Y-51131009D02*
X149238094Y-51083390D01*
X149238094Y-51083390D02*
X149142856Y-51035771D01*
X149142856Y-51035771D02*
X148904761Y-51035771D01*
X148904761Y-51035771D02*
X148809523Y-51083390D01*
X148809523Y-51083390D02*
X148761904Y-51131009D01*
X148761904Y-51131009D02*
X148714285Y-51226247D01*
X148714285Y-51226247D02*
X148714285Y-51464342D01*
X148714285Y-51464342D02*
X148761904Y-51559580D01*
X148761904Y-51559580D02*
X148809523Y-51607200D01*
X148809523Y-51607200D02*
X148904761Y-51654819D01*
X148904761Y-51654819D02*
X149142856Y-51654819D01*
X149142856Y-51654819D02*
X149238094Y-51607200D01*
X149238094Y-51607200D02*
X149285713Y-51559580D01*
X128654819Y-92857142D02*
X128178628Y-92523809D01*
X128654819Y-92285714D02*
X127654819Y-92285714D01*
X127654819Y-92285714D02*
X127654819Y-92666666D01*
X127654819Y-92666666D02*
X127702438Y-92761904D01*
X127702438Y-92761904D02*
X127750057Y-92809523D01*
X127750057Y-92809523D02*
X127845295Y-92857142D01*
X127845295Y-92857142D02*
X127988152Y-92857142D01*
X127988152Y-92857142D02*
X128083390Y-92809523D01*
X128083390Y-92809523D02*
X128131009Y-92761904D01*
X128131009Y-92761904D02*
X128178628Y-92666666D01*
X128178628Y-92666666D02*
X128178628Y-92285714D01*
X127654819Y-93761904D02*
X127654819Y-93285714D01*
X127654819Y-93285714D02*
X128131009Y-93238095D01*
X128131009Y-93238095D02*
X128083390Y-93285714D01*
X128083390Y-93285714D02*
X128035771Y-93380952D01*
X128035771Y-93380952D02*
X128035771Y-93619047D01*
X128035771Y-93619047D02*
X128083390Y-93714285D01*
X128083390Y-93714285D02*
X128131009Y-93761904D01*
X128131009Y-93761904D02*
X128226247Y-93809523D01*
X128226247Y-93809523D02*
X128464342Y-93809523D01*
X128464342Y-93809523D02*
X128559580Y-93761904D01*
X128559580Y-93761904D02*
X128607200Y-93714285D01*
X128607200Y-93714285D02*
X128654819Y-93619047D01*
X128654819Y-93619047D02*
X128654819Y-93380952D01*
X128654819Y-93380952D02*
X128607200Y-93285714D01*
X128607200Y-93285714D02*
X128559580Y-93238095D01*
X127654819Y-94142857D02*
X127654819Y-94761904D01*
X127654819Y-94761904D02*
X128035771Y-94428571D01*
X128035771Y-94428571D02*
X128035771Y-94571428D01*
X128035771Y-94571428D02*
X128083390Y-94666666D01*
X128083390Y-94666666D02*
X128131009Y-94714285D01*
X128131009Y-94714285D02*
X128226247Y-94761904D01*
X128226247Y-94761904D02*
X128464342Y-94761904D01*
X128464342Y-94761904D02*
X128559580Y-94714285D01*
X128559580Y-94714285D02*
X128607200Y-94666666D01*
X128607200Y-94666666D02*
X128654819Y-94571428D01*
X128654819Y-94571428D02*
X128654819Y-94285714D01*
X128654819Y-94285714D02*
X128607200Y-94190476D01*
X128607200Y-94190476D02*
X128559580Y-94142857D01*
X164154819Y-70133333D02*
X163678628Y-69800000D01*
X164154819Y-69561905D02*
X163154819Y-69561905D01*
X163154819Y-69561905D02*
X163154819Y-69942857D01*
X163154819Y-69942857D02*
X163202438Y-70038095D01*
X163202438Y-70038095D02*
X163250057Y-70085714D01*
X163250057Y-70085714D02*
X163345295Y-70133333D01*
X163345295Y-70133333D02*
X163488152Y-70133333D01*
X163488152Y-70133333D02*
X163583390Y-70085714D01*
X163583390Y-70085714D02*
X163631009Y-70038095D01*
X163631009Y-70038095D02*
X163678628Y-69942857D01*
X163678628Y-69942857D02*
X163678628Y-69561905D01*
X163154819Y-70466667D02*
X163154819Y-71133333D01*
X163154819Y-71133333D02*
X164154819Y-70704762D01*
X134159580Y-126457142D02*
X134207200Y-126409523D01*
X134207200Y-126409523D02*
X134254819Y-126266666D01*
X134254819Y-126266666D02*
X134254819Y-126171428D01*
X134254819Y-126171428D02*
X134207200Y-126028571D01*
X134207200Y-126028571D02*
X134111961Y-125933333D01*
X134111961Y-125933333D02*
X134016723Y-125885714D01*
X134016723Y-125885714D02*
X133826247Y-125838095D01*
X133826247Y-125838095D02*
X133683390Y-125838095D01*
X133683390Y-125838095D02*
X133492914Y-125885714D01*
X133492914Y-125885714D02*
X133397676Y-125933333D01*
X133397676Y-125933333D02*
X133302438Y-126028571D01*
X133302438Y-126028571D02*
X133254819Y-126171428D01*
X133254819Y-126171428D02*
X133254819Y-126266666D01*
X133254819Y-126266666D02*
X133302438Y-126409523D01*
X133302438Y-126409523D02*
X133350057Y-126457142D01*
X134254819Y-127409523D02*
X134254819Y-126838095D01*
X134254819Y-127123809D02*
X133254819Y-127123809D01*
X133254819Y-127123809D02*
X133397676Y-127028571D01*
X133397676Y-127028571D02*
X133492914Y-126933333D01*
X133492914Y-126933333D02*
X133540533Y-126838095D01*
X134254819Y-128361904D02*
X134254819Y-127790476D01*
X134254819Y-128076190D02*
X133254819Y-128076190D01*
X133254819Y-128076190D02*
X133397676Y-127980952D01*
X133397676Y-127980952D02*
X133492914Y-127885714D01*
X133492914Y-127885714D02*
X133540533Y-127790476D01*
X153954819Y-134157142D02*
X153478628Y-133823809D01*
X153954819Y-133585714D02*
X152954819Y-133585714D01*
X152954819Y-133585714D02*
X152954819Y-133966666D01*
X152954819Y-133966666D02*
X153002438Y-134061904D01*
X153002438Y-134061904D02*
X153050057Y-134109523D01*
X153050057Y-134109523D02*
X153145295Y-134157142D01*
X153145295Y-134157142D02*
X153288152Y-134157142D01*
X153288152Y-134157142D02*
X153383390Y-134109523D01*
X153383390Y-134109523D02*
X153431009Y-134061904D01*
X153431009Y-134061904D02*
X153478628Y-133966666D01*
X153478628Y-133966666D02*
X153478628Y-133585714D01*
X152954819Y-134490476D02*
X152954819Y-135109523D01*
X152954819Y-135109523D02*
X153335771Y-134776190D01*
X153335771Y-134776190D02*
X153335771Y-134919047D01*
X153335771Y-134919047D02*
X153383390Y-135014285D01*
X153383390Y-135014285D02*
X153431009Y-135061904D01*
X153431009Y-135061904D02*
X153526247Y-135109523D01*
X153526247Y-135109523D02*
X153764342Y-135109523D01*
X153764342Y-135109523D02*
X153859580Y-135061904D01*
X153859580Y-135061904D02*
X153907200Y-135014285D01*
X153907200Y-135014285D02*
X153954819Y-134919047D01*
X153954819Y-134919047D02*
X153954819Y-134633333D01*
X153954819Y-134633333D02*
X153907200Y-134538095D01*
X153907200Y-134538095D02*
X153859580Y-134490476D01*
X152954819Y-135442857D02*
X152954819Y-136109523D01*
X152954819Y-136109523D02*
X153954819Y-135680952D01*
X147954819Y-68357142D02*
X147478628Y-68023809D01*
X147954819Y-67785714D02*
X146954819Y-67785714D01*
X146954819Y-67785714D02*
X146954819Y-68166666D01*
X146954819Y-68166666D02*
X147002438Y-68261904D01*
X147002438Y-68261904D02*
X147050057Y-68309523D01*
X147050057Y-68309523D02*
X147145295Y-68357142D01*
X147145295Y-68357142D02*
X147288152Y-68357142D01*
X147288152Y-68357142D02*
X147383390Y-68309523D01*
X147383390Y-68309523D02*
X147431009Y-68261904D01*
X147431009Y-68261904D02*
X147478628Y-68166666D01*
X147478628Y-68166666D02*
X147478628Y-67785714D01*
X147954819Y-69309523D02*
X147954819Y-68738095D01*
X147954819Y-69023809D02*
X146954819Y-69023809D01*
X146954819Y-69023809D02*
X147097676Y-68928571D01*
X147097676Y-68928571D02*
X147192914Y-68833333D01*
X147192914Y-68833333D02*
X147240533Y-68738095D01*
X146954819Y-70214285D02*
X146954819Y-69738095D01*
X146954819Y-69738095D02*
X147431009Y-69690476D01*
X147431009Y-69690476D02*
X147383390Y-69738095D01*
X147383390Y-69738095D02*
X147335771Y-69833333D01*
X147335771Y-69833333D02*
X147335771Y-70071428D01*
X147335771Y-70071428D02*
X147383390Y-70166666D01*
X147383390Y-70166666D02*
X147431009Y-70214285D01*
X147431009Y-70214285D02*
X147526247Y-70261904D01*
X147526247Y-70261904D02*
X147764342Y-70261904D01*
X147764342Y-70261904D02*
X147859580Y-70214285D01*
X147859580Y-70214285D02*
X147907200Y-70166666D01*
X147907200Y-70166666D02*
X147954819Y-70071428D01*
X147954819Y-70071428D02*
X147954819Y-69833333D01*
X147954819Y-69833333D02*
X147907200Y-69738095D01*
X147907200Y-69738095D02*
X147859580Y-69690476D01*
X132954819Y-61957142D02*
X132478628Y-61623809D01*
X132954819Y-61385714D02*
X131954819Y-61385714D01*
X131954819Y-61385714D02*
X131954819Y-61766666D01*
X131954819Y-61766666D02*
X132002438Y-61861904D01*
X132002438Y-61861904D02*
X132050057Y-61909523D01*
X132050057Y-61909523D02*
X132145295Y-61957142D01*
X132145295Y-61957142D02*
X132288152Y-61957142D01*
X132288152Y-61957142D02*
X132383390Y-61909523D01*
X132383390Y-61909523D02*
X132431009Y-61861904D01*
X132431009Y-61861904D02*
X132478628Y-61766666D01*
X132478628Y-61766666D02*
X132478628Y-61385714D01*
X132954819Y-62909523D02*
X132954819Y-62338095D01*
X132954819Y-62623809D02*
X131954819Y-62623809D01*
X131954819Y-62623809D02*
X132097676Y-62528571D01*
X132097676Y-62528571D02*
X132192914Y-62433333D01*
X132192914Y-62433333D02*
X132240533Y-62338095D01*
X132383390Y-63480952D02*
X132335771Y-63385714D01*
X132335771Y-63385714D02*
X132288152Y-63338095D01*
X132288152Y-63338095D02*
X132192914Y-63290476D01*
X132192914Y-63290476D02*
X132145295Y-63290476D01*
X132145295Y-63290476D02*
X132050057Y-63338095D01*
X132050057Y-63338095D02*
X132002438Y-63385714D01*
X132002438Y-63385714D02*
X131954819Y-63480952D01*
X131954819Y-63480952D02*
X131954819Y-63671428D01*
X131954819Y-63671428D02*
X132002438Y-63766666D01*
X132002438Y-63766666D02*
X132050057Y-63814285D01*
X132050057Y-63814285D02*
X132145295Y-63861904D01*
X132145295Y-63861904D02*
X132192914Y-63861904D01*
X132192914Y-63861904D02*
X132288152Y-63814285D01*
X132288152Y-63814285D02*
X132335771Y-63766666D01*
X132335771Y-63766666D02*
X132383390Y-63671428D01*
X132383390Y-63671428D02*
X132383390Y-63480952D01*
X132383390Y-63480952D02*
X132431009Y-63385714D01*
X132431009Y-63385714D02*
X132478628Y-63338095D01*
X132478628Y-63338095D02*
X132573866Y-63290476D01*
X132573866Y-63290476D02*
X132764342Y-63290476D01*
X132764342Y-63290476D02*
X132859580Y-63338095D01*
X132859580Y-63338095D02*
X132907200Y-63385714D01*
X132907200Y-63385714D02*
X132954819Y-63480952D01*
X132954819Y-63480952D02*
X132954819Y-63671428D01*
X132954819Y-63671428D02*
X132907200Y-63766666D01*
X132907200Y-63766666D02*
X132859580Y-63814285D01*
X132859580Y-63814285D02*
X132764342Y-63861904D01*
X132764342Y-63861904D02*
X132573866Y-63861904D01*
X132573866Y-63861904D02*
X132478628Y-63814285D01*
X132478628Y-63814285D02*
X132431009Y-63766666D01*
X132431009Y-63766666D02*
X132383390Y-63671428D01*
X161442857Y-54954819D02*
X161776190Y-54478628D01*
X162014285Y-54954819D02*
X162014285Y-53954819D01*
X162014285Y-53954819D02*
X161633333Y-53954819D01*
X161633333Y-53954819D02*
X161538095Y-54002438D01*
X161538095Y-54002438D02*
X161490476Y-54050057D01*
X161490476Y-54050057D02*
X161442857Y-54145295D01*
X161442857Y-54145295D02*
X161442857Y-54288152D01*
X161442857Y-54288152D02*
X161490476Y-54383390D01*
X161490476Y-54383390D02*
X161538095Y-54431009D01*
X161538095Y-54431009D02*
X161633333Y-54478628D01*
X161633333Y-54478628D02*
X162014285Y-54478628D01*
X160490476Y-54954819D02*
X161061904Y-54954819D01*
X160776190Y-54954819D02*
X160776190Y-53954819D01*
X160776190Y-53954819D02*
X160871428Y-54097676D01*
X160871428Y-54097676D02*
X160966666Y-54192914D01*
X160966666Y-54192914D02*
X161061904Y-54240533D01*
X159871428Y-53954819D02*
X159776190Y-53954819D01*
X159776190Y-53954819D02*
X159680952Y-54002438D01*
X159680952Y-54002438D02*
X159633333Y-54050057D01*
X159633333Y-54050057D02*
X159585714Y-54145295D01*
X159585714Y-54145295D02*
X159538095Y-54335771D01*
X159538095Y-54335771D02*
X159538095Y-54573866D01*
X159538095Y-54573866D02*
X159585714Y-54764342D01*
X159585714Y-54764342D02*
X159633333Y-54859580D01*
X159633333Y-54859580D02*
X159680952Y-54907200D01*
X159680952Y-54907200D02*
X159776190Y-54954819D01*
X159776190Y-54954819D02*
X159871428Y-54954819D01*
X159871428Y-54954819D02*
X159966666Y-54907200D01*
X159966666Y-54907200D02*
X160014285Y-54859580D01*
X160014285Y-54859580D02*
X160061904Y-54764342D01*
X160061904Y-54764342D02*
X160109523Y-54573866D01*
X160109523Y-54573866D02*
X160109523Y-54335771D01*
X160109523Y-54335771D02*
X160061904Y-54145295D01*
X160061904Y-54145295D02*
X160014285Y-54050057D01*
X160014285Y-54050057D02*
X159966666Y-54002438D01*
X159966666Y-54002438D02*
X159871428Y-53954819D01*
X160566666Y-53154819D02*
X160899999Y-52678628D01*
X161138094Y-53154819D02*
X161138094Y-52154819D01*
X161138094Y-52154819D02*
X160757142Y-52154819D01*
X160757142Y-52154819D02*
X160661904Y-52202438D01*
X160661904Y-52202438D02*
X160614285Y-52250057D01*
X160614285Y-52250057D02*
X160566666Y-52345295D01*
X160566666Y-52345295D02*
X160566666Y-52488152D01*
X160566666Y-52488152D02*
X160614285Y-52583390D01*
X160614285Y-52583390D02*
X160661904Y-52631009D01*
X160661904Y-52631009D02*
X160757142Y-52678628D01*
X160757142Y-52678628D02*
X161138094Y-52678628D01*
X159709523Y-52488152D02*
X159709523Y-53154819D01*
X159947618Y-52107200D02*
X160185713Y-52821485D01*
X160185713Y-52821485D02*
X159566666Y-52821485D01*
X147834819Y-53503333D02*
X147358628Y-53170000D01*
X147834819Y-52931905D02*
X146834819Y-52931905D01*
X146834819Y-52931905D02*
X146834819Y-53312857D01*
X146834819Y-53312857D02*
X146882438Y-53408095D01*
X146882438Y-53408095D02*
X146930057Y-53455714D01*
X146930057Y-53455714D02*
X147025295Y-53503333D01*
X147025295Y-53503333D02*
X147168152Y-53503333D01*
X147168152Y-53503333D02*
X147263390Y-53455714D01*
X147263390Y-53455714D02*
X147311009Y-53408095D01*
X147311009Y-53408095D02*
X147358628Y-53312857D01*
X147358628Y-53312857D02*
X147358628Y-52931905D01*
X146834819Y-53836667D02*
X146834819Y-54455714D01*
X146834819Y-54455714D02*
X147215771Y-54122381D01*
X147215771Y-54122381D02*
X147215771Y-54265238D01*
X147215771Y-54265238D02*
X147263390Y-54360476D01*
X147263390Y-54360476D02*
X147311009Y-54408095D01*
X147311009Y-54408095D02*
X147406247Y-54455714D01*
X147406247Y-54455714D02*
X147644342Y-54455714D01*
X147644342Y-54455714D02*
X147739580Y-54408095D01*
X147739580Y-54408095D02*
X147787200Y-54360476D01*
X147787200Y-54360476D02*
X147834819Y-54265238D01*
X147834819Y-54265238D02*
X147834819Y-53979524D01*
X147834819Y-53979524D02*
X147787200Y-53884286D01*
X147787200Y-53884286D02*
X147739580Y-53836667D01*
X125542857Y-71754819D02*
X125876190Y-71278628D01*
X126114285Y-71754819D02*
X126114285Y-70754819D01*
X126114285Y-70754819D02*
X125733333Y-70754819D01*
X125733333Y-70754819D02*
X125638095Y-70802438D01*
X125638095Y-70802438D02*
X125590476Y-70850057D01*
X125590476Y-70850057D02*
X125542857Y-70945295D01*
X125542857Y-70945295D02*
X125542857Y-71088152D01*
X125542857Y-71088152D02*
X125590476Y-71183390D01*
X125590476Y-71183390D02*
X125638095Y-71231009D01*
X125638095Y-71231009D02*
X125733333Y-71278628D01*
X125733333Y-71278628D02*
X126114285Y-71278628D01*
X124590476Y-71754819D02*
X125161904Y-71754819D01*
X124876190Y-71754819D02*
X124876190Y-70754819D01*
X124876190Y-70754819D02*
X124971428Y-70897676D01*
X124971428Y-70897676D02*
X125066666Y-70992914D01*
X125066666Y-70992914D02*
X125161904Y-71040533D01*
X123733333Y-70754819D02*
X123923809Y-70754819D01*
X123923809Y-70754819D02*
X124019047Y-70802438D01*
X124019047Y-70802438D02*
X124066666Y-70850057D01*
X124066666Y-70850057D02*
X124161904Y-70992914D01*
X124161904Y-70992914D02*
X124209523Y-71183390D01*
X124209523Y-71183390D02*
X124209523Y-71564342D01*
X124209523Y-71564342D02*
X124161904Y-71659580D01*
X124161904Y-71659580D02*
X124114285Y-71707200D01*
X124114285Y-71707200D02*
X124019047Y-71754819D01*
X124019047Y-71754819D02*
X123828571Y-71754819D01*
X123828571Y-71754819D02*
X123733333Y-71707200D01*
X123733333Y-71707200D02*
X123685714Y-71659580D01*
X123685714Y-71659580D02*
X123638095Y-71564342D01*
X123638095Y-71564342D02*
X123638095Y-71326247D01*
X123638095Y-71326247D02*
X123685714Y-71231009D01*
X123685714Y-71231009D02*
X123733333Y-71183390D01*
X123733333Y-71183390D02*
X123828571Y-71135771D01*
X123828571Y-71135771D02*
X124019047Y-71135771D01*
X124019047Y-71135771D02*
X124114285Y-71183390D01*
X124114285Y-71183390D02*
X124161904Y-71231009D01*
X124161904Y-71231009D02*
X124209523Y-71326247D01*
X121454819Y-130261905D02*
X120454819Y-130261905D01*
X120454819Y-130261905D02*
X120454819Y-130500000D01*
X120454819Y-130500000D02*
X120502438Y-130642857D01*
X120502438Y-130642857D02*
X120597676Y-130738095D01*
X120597676Y-130738095D02*
X120692914Y-130785714D01*
X120692914Y-130785714D02*
X120883390Y-130833333D01*
X120883390Y-130833333D02*
X121026247Y-130833333D01*
X121026247Y-130833333D02*
X121216723Y-130785714D01*
X121216723Y-130785714D02*
X121311961Y-130738095D01*
X121311961Y-130738095D02*
X121407200Y-130642857D01*
X121407200Y-130642857D02*
X121454819Y-130500000D01*
X121454819Y-130500000D02*
X121454819Y-130261905D01*
X120454819Y-131166667D02*
X120454819Y-131833333D01*
X120454819Y-131833333D02*
X121454819Y-131404762D01*
X149666666Y-56289580D02*
X149714285Y-56337200D01*
X149714285Y-56337200D02*
X149857142Y-56384819D01*
X149857142Y-56384819D02*
X149952380Y-56384819D01*
X149952380Y-56384819D02*
X150095237Y-56337200D01*
X150095237Y-56337200D02*
X150190475Y-56241961D01*
X150190475Y-56241961D02*
X150238094Y-56146723D01*
X150238094Y-56146723D02*
X150285713Y-55956247D01*
X150285713Y-55956247D02*
X150285713Y-55813390D01*
X150285713Y-55813390D02*
X150238094Y-55622914D01*
X150238094Y-55622914D02*
X150190475Y-55527676D01*
X150190475Y-55527676D02*
X150095237Y-55432438D01*
X150095237Y-55432438D02*
X149952380Y-55384819D01*
X149952380Y-55384819D02*
X149857142Y-55384819D01*
X149857142Y-55384819D02*
X149714285Y-55432438D01*
X149714285Y-55432438D02*
X149666666Y-55480057D01*
X148714285Y-56384819D02*
X149285713Y-56384819D01*
X148999999Y-56384819D02*
X148999999Y-55384819D01*
X148999999Y-55384819D02*
X149095237Y-55527676D01*
X149095237Y-55527676D02*
X149190475Y-55622914D01*
X149190475Y-55622914D02*
X149285713Y-55670533D01*
D11*
%TO.C,SW2*%
X136190000Y-104140000D02*
X136190000Y-102790000D01*
X136190000Y-112010000D02*
X136190000Y-110660000D01*
X140010000Y-109140000D02*
X140010000Y-108160000D01*
X136190000Y-109140000D02*
X136190000Y-108160000D01*
X136190000Y-102790000D02*
X140010000Y-102790000D01*
X140010000Y-106640000D02*
X140010000Y-105660000D01*
X136190000Y-106640000D02*
X136190000Y-105660000D01*
X136190000Y-112010000D02*
X140010000Y-112010000D01*
X140010000Y-102790000D02*
X140010000Y-104140000D01*
X140010000Y-112010000D02*
X140010000Y-110660000D01*
%TO.C,J4*%
X111125000Y-116055000D02*
X112455000Y-116055000D01*
X112455000Y-113455000D02*
X112455000Y-108315000D01*
X109795000Y-113455000D02*
X109795000Y-108315000D01*
X109795000Y-113455000D02*
X112455000Y-113455000D01*
X112455000Y-116055000D02*
X112455000Y-114725000D01*
X109795000Y-108315000D02*
X112455000Y-108315000D01*
%TO.C,R34*%
X153177500Y-114567224D02*
X153177500Y-114057776D01*
X154222500Y-114567224D02*
X154222500Y-114057776D01*
%TO.C,R14*%
X128504724Y-69772500D02*
X127995276Y-69772500D01*
X128504724Y-68727500D02*
X127995276Y-68727500D01*
%TO.C,D2*%
X130510000Y-65070000D02*
X130510000Y-66480000D01*
X129850000Y-66480000D02*
X130510000Y-66480000D01*
X128190000Y-66480000D02*
X128190000Y-64450000D01*
X128190000Y-66480000D02*
X128850000Y-66480000D01*
%TO.C,R49*%
X111077500Y-97454724D02*
X111077500Y-96945276D01*
X112122500Y-97454724D02*
X112122500Y-96945276D01*
%TO.C,D4*%
X154510000Y-65070000D02*
X154510000Y-66480000D01*
X153850000Y-66480000D02*
X154510000Y-66480000D01*
X152190000Y-66480000D02*
X152190000Y-64450000D01*
X152190000Y-66480000D02*
X152850000Y-66480000D01*
%TO.C,R48*%
X113877500Y-97454724D02*
X113877500Y-96945276D01*
X114922500Y-97454724D02*
X114922500Y-96945276D01*
%TO.C,C14*%
X135040000Y-123946267D02*
X135040000Y-123653733D01*
X136060000Y-123946267D02*
X136060000Y-123653733D01*
%TO.C,R45*%
X116654724Y-108722500D02*
X116145276Y-108722500D01*
X116654724Y-107677500D02*
X116145276Y-107677500D01*
%TO.C,R28*%
X129754724Y-62772500D02*
X129245276Y-62772500D01*
X129754724Y-61727500D02*
X129245276Y-61727500D01*
%TO.C,U6*%
X130240000Y-76100000D02*
X130240000Y-74700000D01*
X132560000Y-74700000D02*
X132560000Y-76600000D01*
%TO.C,R6*%
X149977500Y-58174724D02*
X149977500Y-57665276D01*
X151022500Y-58174724D02*
X151022500Y-57665276D01*
%TO.C,Q4*%
X142187500Y-67310000D02*
X142837500Y-67310000D01*
X142187500Y-67310000D02*
X141537500Y-67310000D01*
X142187500Y-64190000D02*
X143862500Y-64190000D01*
X142187500Y-64190000D02*
X141537500Y-64190000D01*
%TO.C,R54*%
X124877500Y-97454724D02*
X124877500Y-96945276D01*
X125922500Y-97454724D02*
X125922500Y-96945276D01*
%TO.C,C12*%
X161353733Y-77490000D02*
X161646267Y-77490000D01*
X161353733Y-78510000D02*
X161646267Y-78510000D01*
%TO.C,Q7*%
X153240000Y-70500000D02*
X153240000Y-71150000D01*
X153240000Y-70500000D02*
X153240000Y-69850000D01*
X156360000Y-70500000D02*
X156360000Y-72175000D01*
X156360000Y-70500000D02*
X156360000Y-69850000D01*
%TO.C,C19*%
X141253733Y-77490000D02*
X141546267Y-77490000D01*
X141253733Y-78510000D02*
X141546267Y-78510000D01*
%TO.C,R33*%
X161222500Y-119945276D02*
X161222500Y-120454724D01*
X160177500Y-119945276D02*
X160177500Y-120454724D01*
%TO.C,C9*%
X129790000Y-123946267D02*
X129790000Y-123653733D01*
X130810000Y-123946267D02*
X130810000Y-123653733D01*
%TO.C,U7*%
X140240000Y-76150000D02*
X140240000Y-74750000D01*
X142560000Y-74750000D02*
X142560000Y-76650000D01*
%TO.C,R21*%
X137272500Y-69995276D02*
X137272500Y-70504724D01*
X136227500Y-69995276D02*
X136227500Y-70504724D01*
%TO.C,R25*%
X129754724Y-59272500D02*
X129245276Y-59272500D01*
X129754724Y-58227500D02*
X129245276Y-58227500D01*
%TO.C,R43*%
X124077500Y-131254724D02*
X124077500Y-130745276D01*
X125122500Y-131254724D02*
X125122500Y-130745276D01*
%TO.C,R19*%
X135272500Y-69995276D02*
X135272500Y-70504724D01*
X134227500Y-69995276D02*
X134227500Y-70504724D01*
%TO.C,R8*%
X153754724Y-55022500D02*
X153245276Y-55022500D01*
X153754724Y-53977500D02*
X153245276Y-53977500D01*
%TO.C,C15*%
X136560000Y-118403733D02*
X136560000Y-118696267D01*
X135540000Y-118403733D02*
X135540000Y-118696267D01*
%TO.C,C16*%
X130040000Y-118696267D02*
X130040000Y-118403733D01*
X131060000Y-118696267D02*
X131060000Y-118403733D01*
%TO.C,C10*%
X128290000Y-123946267D02*
X128290000Y-123653733D01*
X129310000Y-123946267D02*
X129310000Y-123653733D01*
%TO.C,R51*%
X116477500Y-97454724D02*
X116477500Y-96945276D01*
X117522500Y-97454724D02*
X117522500Y-96945276D01*
%TO.C,R29*%
X155727064Y-101165000D02*
X155272936Y-101165000D01*
X155727064Y-102635000D02*
X155272936Y-102635000D01*
%TO.C,R20*%
X139522500Y-65495276D02*
X139522500Y-66004724D01*
X138477500Y-65495276D02*
X138477500Y-66004724D01*
%TO.C,D1*%
X148180000Y-59080000D02*
X146770000Y-59080000D01*
X146770000Y-58420000D02*
X146770000Y-59080000D01*
X146770000Y-56760000D02*
X148800000Y-56760000D01*
X146770000Y-56760000D02*
X146770000Y-57420000D01*
%TO.C,C18*%
X131253733Y-77490000D02*
X131546267Y-77490000D01*
X131253733Y-78510000D02*
X131546267Y-78510000D01*
D10*
%TO.C,U9*%
X114125000Y-105225000D02*
X114350000Y-105225000D01*
X114125000Y-105225000D02*
X114125000Y-101975000D01*
X117250000Y-105225000D02*
X117250000Y-106300000D01*
X117375000Y-105225000D02*
X117250000Y-105225000D01*
X117375000Y-105225000D02*
X117375000Y-101975000D01*
X114125000Y-101975000D02*
X114350000Y-101975000D01*
X117375000Y-101975000D02*
X117150000Y-101975000D01*
D11*
%TO.C,R50*%
X119277500Y-97454724D02*
X119277500Y-96945276D01*
X120322500Y-97454724D02*
X120322500Y-96945276D01*
%TO.C,R47*%
X126354724Y-108622500D02*
X125845276Y-108622500D01*
X126354724Y-107577500D02*
X125845276Y-107577500D01*
%TO.C,R23*%
X161477500Y-66254724D02*
X161477500Y-65745276D01*
X162522500Y-66254724D02*
X162522500Y-65745276D01*
D10*
%TO.C,U10*%
X124975000Y-105225000D02*
X125200000Y-105225000D01*
X124975000Y-105225000D02*
X124975000Y-101975000D01*
X128100000Y-105225000D02*
X128100000Y-106300000D01*
X128225000Y-105225000D02*
X128100000Y-105225000D01*
X128225000Y-105225000D02*
X128225000Y-101975000D01*
X124975000Y-101975000D02*
X125200000Y-101975000D01*
X128225000Y-101975000D02*
X128000000Y-101975000D01*
D11*
%TO.C,C17*%
X153990000Y-127946267D02*
X153990000Y-127653733D01*
X155010000Y-127946267D02*
X155010000Y-127653733D01*
%TO.C,R30*%
X133335000Y-108172936D02*
X133335000Y-108627064D01*
X131865000Y-108172936D02*
X131865000Y-108627064D01*
%TO.C,R39*%
X148377500Y-125054724D02*
X148377500Y-124545276D01*
X149422500Y-125054724D02*
X149422500Y-124545276D01*
%TO.C,D6*%
X156300000Y-104635000D02*
X153840000Y-104635000D01*
X153840000Y-104635000D02*
X153840000Y-103165000D01*
X153840000Y-103165000D02*
X156300000Y-103165000D01*
%TO.C,R32*%
X156777500Y-114542224D02*
X156777500Y-114032776D01*
X157822500Y-114542224D02*
X157822500Y-114032776D01*
%TO.C,R38*%
X152222500Y-131257776D02*
X152222500Y-131767224D01*
X151177500Y-131257776D02*
X151177500Y-131767224D01*
%TO.C,C2*%
X129353733Y-54990000D02*
X129646267Y-54990000D01*
X129353733Y-56010000D02*
X129646267Y-56010000D01*
%TO.C,R12*%
X149754724Y-62272500D02*
X149245276Y-62272500D01*
X149754724Y-61227500D02*
X149245276Y-61227500D01*
%TO.C,J3*%
X179470000Y-62420000D02*
X178470000Y-61920000D01*
X179470000Y-61420000D02*
X179470000Y-62420000D01*
X178470000Y-61920000D02*
X179470000Y-61420000D01*
X178080000Y-77290000D02*
X178080000Y-56710000D01*
X178080000Y-64950000D02*
X176770000Y-64950000D01*
X178080000Y-56710000D02*
X168960000Y-56710000D01*
X176770000Y-75990000D02*
X176770000Y-69050000D01*
X176770000Y-69050000D02*
X178080000Y-69050000D01*
X176770000Y-69050000D02*
X176770000Y-69050000D01*
X176770000Y-64950000D02*
X176770000Y-58010000D01*
X176770000Y-58010000D02*
X170270000Y-58010000D01*
X170270000Y-75990000D02*
X176770000Y-75990000D01*
X170270000Y-58010000D02*
X170270000Y-75990000D01*
X168960000Y-77290000D02*
X178080000Y-77290000D01*
X168960000Y-56710000D02*
X168960000Y-77290000D01*
%TO.C,U2*%
X124610000Y-126110000D02*
X124610000Y-125660000D01*
X124610000Y-119340000D02*
X125900000Y-119340000D01*
X124610000Y-118890000D02*
X124610000Y-119340000D01*
X124160000Y-126110000D02*
X124610000Y-126110000D01*
X124160000Y-118890000D02*
X124610000Y-118890000D01*
X117840000Y-126110000D02*
X117390000Y-126110000D01*
X117840000Y-118890000D02*
X117390000Y-118890000D01*
X117390000Y-126110000D02*
X117390000Y-125660000D01*
X117390000Y-118890000D02*
X117390000Y-119340000D01*
%TO.C,C3*%
X131740000Y-58146267D02*
X131740000Y-57853733D01*
X132760000Y-58146267D02*
X132760000Y-57853733D01*
%TO.C,R40*%
X155822500Y-131257776D02*
X155822500Y-131767224D01*
X154777500Y-131257776D02*
X154777500Y-131767224D01*
%TO.C,R36*%
X149422500Y-118945276D02*
X149422500Y-119454724D01*
X148377500Y-118945276D02*
X148377500Y-119454724D01*
%TO.C,R52*%
X130277500Y-97454724D02*
X130277500Y-96945276D01*
X131322500Y-97454724D02*
X131322500Y-96945276D01*
%TO.C,R2*%
X144472500Y-53415276D02*
X144472500Y-53924724D01*
X143427500Y-53415276D02*
X143427500Y-53924724D01*
%TO.C,R46*%
X126354724Y-110822500D02*
X125845276Y-110822500D01*
X126354724Y-109777500D02*
X125845276Y-109777500D01*
%TO.C,Y1*%
X134950000Y-116550000D02*
X134950000Y-120550000D01*
X131650000Y-116550000D02*
X134950000Y-116550000D01*
%TO.C,R55*%
X122077500Y-97454724D02*
X122077500Y-96945276D01*
X123122500Y-97454724D02*
X123122500Y-96945276D01*
%TO.C,U5*%
X160240000Y-76150000D02*
X160240000Y-74750000D01*
X162560000Y-74750000D02*
X162560000Y-76650000D01*
%TO.C,Q1*%
X160560000Y-70500000D02*
X160560000Y-69850000D01*
X160560000Y-70500000D02*
X160560000Y-71150000D01*
X157440000Y-70500000D02*
X157440000Y-68825000D01*
X157440000Y-70500000D02*
X157440000Y-71150000D01*
%TO.C,R22*%
X146495276Y-70977500D02*
X147004724Y-70977500D01*
X146495276Y-72022500D02*
X147004724Y-72022500D01*
%TO.C,U8*%
X150240000Y-76150000D02*
X150240000Y-74750000D01*
X152560000Y-74750000D02*
X152560000Y-76650000D01*
%TO.C,FB1*%
X131540000Y-123962779D02*
X131540000Y-123637221D01*
X132560000Y-123962779D02*
X132560000Y-123637221D01*
%TO.C,C7*%
X124546267Y-117010000D02*
X124253733Y-117010000D01*
X124546267Y-115990000D02*
X124253733Y-115990000D01*
%TO.C,R9*%
X143452500Y-58067224D02*
X143452500Y-57557776D01*
X144497500Y-58067224D02*
X144497500Y-57557776D01*
%TO.C,R17*%
X146022500Y-65532776D02*
X146022500Y-66042224D01*
X144977500Y-65532776D02*
X144977500Y-66042224D01*
%TO.C,C6*%
X126516233Y-117690000D02*
X126808767Y-117690000D01*
X126516233Y-118710000D02*
X126808767Y-118710000D01*
%TO.C,R42*%
X160177500Y-124054724D02*
X160177500Y-123545276D01*
X161222500Y-124054724D02*
X161222500Y-123545276D01*
%TO.C,R44*%
X116654724Y-110922500D02*
X116145276Y-110922500D01*
X116654724Y-109877500D02*
X116145276Y-109877500D01*
%TO.C,D5*%
X160660000Y-65320000D02*
X160660000Y-66730000D01*
X160000000Y-66730000D02*
X160660000Y-66730000D01*
X158340000Y-66730000D02*
X158340000Y-64700000D01*
X158340000Y-66730000D02*
X159000000Y-66730000D01*
%TO.C,C4*%
X129353733Y-53240000D02*
X129646267Y-53240000D01*
X129353733Y-54260000D02*
X129646267Y-54260000D01*
%TO.C,C8*%
X115646267Y-127810000D02*
X115353733Y-127810000D01*
X115646267Y-126790000D02*
X115353733Y-126790000D01*
%TO.C,C13*%
X155646267Y-104990000D02*
X155353733Y-104990000D01*
X155646267Y-106010000D02*
X155353733Y-106010000D01*
%TO.C,RV5*%
X123575000Y-46940000D02*
X133345000Y-46940000D01*
X123575000Y-52010000D02*
X123575000Y-46940000D01*
X123575000Y-52010000D02*
X133345000Y-52010000D01*
X133345000Y-52010000D02*
X133345000Y-46940000D01*
%TO.C,Q2*%
X159312500Y-57190000D02*
X158662500Y-57190000D01*
X159312500Y-57190000D02*
X159962500Y-57190000D01*
X159312500Y-60310000D02*
X157637500Y-60310000D01*
X159312500Y-60310000D02*
X159962500Y-60310000D01*
%TO.C,C20*%
X151253733Y-77490000D02*
X151546267Y-77490000D01*
X151253733Y-78510000D02*
X151546267Y-78510000D01*
%TO.C,D3*%
X151410000Y-65070000D02*
X151410000Y-66480000D01*
X150750000Y-66480000D02*
X151410000Y-66480000D01*
X149090000Y-66480000D02*
X149090000Y-64450000D01*
X149090000Y-66480000D02*
X149750000Y-66480000D01*
%TO.C,U1*%
X137475000Y-58645000D02*
X139425000Y-58645000D01*
X137475000Y-58645000D02*
X135525000Y-58645000D01*
X137475000Y-49775000D02*
X140925000Y-49775000D01*
X137475000Y-49775000D02*
X135525000Y-49775000D01*
%TO.C,R26*%
X129754724Y-57772500D02*
X129245276Y-57772500D01*
X129754724Y-56727500D02*
X129245276Y-56727500D01*
%TO.C,R24*%
X162522500Y-61995276D02*
X162522500Y-62504724D01*
X161477500Y-61995276D02*
X161477500Y-62504724D01*
%TO.C,R41*%
X157622500Y-131257776D02*
X157622500Y-131767224D01*
X156577500Y-131257776D02*
X156577500Y-131767224D01*
%TO.C,R13*%
X145154724Y-62272500D02*
X144645276Y-62272500D01*
X145154724Y-61227500D02*
X144645276Y-61227500D01*
%TO.C,R27*%
X129754724Y-61022500D02*
X129245276Y-61022500D01*
X129754724Y-59977500D02*
X129245276Y-59977500D01*
%TO.C,Q3*%
X133510000Y-70437500D02*
X133510000Y-69787500D01*
X133510000Y-70437500D02*
X133510000Y-71087500D01*
X130390000Y-70437500D02*
X130390000Y-68762500D01*
X130390000Y-70437500D02*
X130390000Y-71087500D01*
%TO.C,R31*%
X154977500Y-114567224D02*
X154977500Y-114057776D01*
X156022500Y-114567224D02*
X156022500Y-114057776D01*
%TO.C,R11*%
X153754724Y-62272500D02*
X153245276Y-62272500D01*
X153754724Y-61227500D02*
X153245276Y-61227500D01*
%TO.C,Q6*%
X152060000Y-70500000D02*
X152060000Y-69850000D01*
X152060000Y-70500000D02*
X152060000Y-71150000D01*
X148940000Y-70500000D02*
X148940000Y-68825000D01*
X148940000Y-70500000D02*
X148940000Y-71150000D01*
%TO.C,R1*%
X144695276Y-50147500D02*
X145204724Y-50147500D01*
X144695276Y-51192500D02*
X145204724Y-51192500D01*
%TO.C,U11*%
X165550000Y-97350000D02*
X165550000Y-103770000D01*
X158650000Y-97350000D02*
X158650000Y-103770000D01*
X165550000Y-103770000D02*
X165280000Y-103770000D01*
X165280000Y-103770000D02*
X165280000Y-106600000D01*
X158920000Y-103770000D02*
X158920000Y-104870000D01*
X158650000Y-103770000D02*
X158920000Y-103770000D01*
%TO.C,U4*%
X158935000Y-122000000D02*
X158935000Y-120050000D01*
X158935000Y-122000000D02*
X158935000Y-123950000D01*
X150065000Y-122000000D02*
X150065000Y-118550000D01*
X150065000Y-122000000D02*
X150065000Y-123950000D01*
%TO.C,R35*%
X151377500Y-114567224D02*
X151377500Y-114057776D01*
X152422500Y-114567224D02*
X152422500Y-114057776D01*
%TO.C,Q5*%
X137310000Y-66000000D02*
X137310000Y-65350000D01*
X137310000Y-66000000D02*
X137310000Y-66650000D01*
X134190000Y-66000000D02*
X134190000Y-64325000D01*
X134190000Y-66000000D02*
X134190000Y-66650000D01*
%TO.C,C5*%
X124558767Y-115310000D02*
X124266233Y-115310000D01*
X124558767Y-114290000D02*
X124266233Y-114290000D01*
%TO.C,R5*%
X149245276Y-52227500D02*
X149754724Y-52227500D01*
X149245276Y-53272500D02*
X149754724Y-53272500D01*
%TO.C,R53*%
X127677500Y-97454724D02*
X127677500Y-96945276D01*
X128722500Y-97454724D02*
X128722500Y-96945276D01*
%TO.C,R7*%
X162522500Y-70082776D02*
X162522500Y-70592224D01*
X161477500Y-70082776D02*
X161477500Y-70592224D01*
%TO.C,C11*%
X134310000Y-123653733D02*
X134310000Y-123946267D01*
X133290000Y-123653733D02*
X133290000Y-123946267D01*
%TO.C,R37*%
X154022500Y-131245276D02*
X154022500Y-131754724D01*
X152977500Y-131245276D02*
X152977500Y-131754724D01*
%TO.C,R15*%
X148022500Y-65545276D02*
X148022500Y-66054724D01*
X146977500Y-65545276D02*
X146977500Y-66054724D01*
%TO.C,R18*%
X133022500Y-65495276D02*
X133022500Y-66004724D01*
X131977500Y-65495276D02*
X131977500Y-66004724D01*
%TO.C,R10*%
X157257776Y-53977500D02*
X157767224Y-53977500D01*
X157257776Y-55022500D02*
X157767224Y-55022500D01*
%TO.C,R4*%
X157245276Y-52227500D02*
X157754724Y-52227500D01*
X157245276Y-53272500D02*
X157754724Y-53272500D01*
%TO.C,R3*%
X145427500Y-53924724D02*
X145427500Y-53415276D01*
X146472500Y-53924724D02*
X146472500Y-53415276D01*
%TO.C,R16*%
X128504724Y-71772500D02*
X127995276Y-71772500D01*
X128504724Y-70727500D02*
X127995276Y-70727500D01*
%TO.C,D7*%
X121965000Y-132660000D02*
X121965000Y-130200000D01*
X123435000Y-132660000D02*
X121965000Y-132660000D01*
X123435000Y-130200000D02*
X123435000Y-132660000D01*
%TO.C,C1*%
X149353733Y-53990000D02*
X149646267Y-53990000D01*
X149353733Y-55010000D02*
X149646267Y-55010000D01*
%TD*%
M02*
