M48
; DRILL file {KiCad 7.0.9} date Sat Jun 29 17:01:10 2024
; FORMAT={-:-/ absolute / metric / decimal}
; #@! TF.CreationDate,2024-06-29T17:01:10+12:00
; #@! TF.GenerationSoftware,Kicad,Pcbnew,7.0.9
; #@! TF.FileFunction,MixedPlating,1,2
FMAT,2
METRIC
; #@! TA.AperFunction,Plated,PTH,ViaDrill
T1C0.400
; #@! TA.AperFunction,Plated,PTH,ComponentDrill
T2C0.500
; #@! TA.AperFunction,Plated,PTH,ComponentDrill
T3C0.800
; #@! TA.AperFunction,Plated,PTH,ComponentDrill
T4C1.000
; #@! TA.AperFunction,Plated,PTH,ComponentDrill
T5C1.200
; #@! TA.AperFunction,Plated,PTH,ComponentDrill
T6C1.700
%
G90
G05
T1
X111.9Y-95.0
X113.1Y-100.0
X113.1Y-127.3
X113.5Y-120.4
X113.5Y-121.5
X114.2Y-110.4
X114.4Y-95.0
X115.833Y-102.903
X117.0Y-95.0
X117.2Y-128.7
X117.3Y-112.0
X118.3Y-115.9
X118.3Y-128.7
X118.7Y-109.0
X119.2Y-120.5
X119.301Y-124.093
X119.8Y-95.0
X121.164Y-109.421
X121.2Y-100.2
X122.6Y-95.0
X122.6Y-120.7
X122.6Y-124.5
X123.3Y-85.5
X123.4Y-109.1
X123.5Y-123.0
X123.6Y-113.6
X124.2Y-99.3
X124.3Y-85.5
X125.3Y-62.3
X125.3Y-111.5
X125.4Y-127.3
X125.6Y-95.0
X125.9Y-109.2
X126.3Y-64.7
X126.3Y-102.8
X126.582Y-114.807
X126.8Y-127.3
X126.9Y-130.9
X127.2Y-55.3
X127.6Y-122.9
X127.7Y-126.6
X127.8Y-116.7
X128.2Y-95.1
X128.7Y-106.5
X128.8Y-126.4
X128.9Y-82.4
X129.2Y-78.0
X129.3Y-83.6
X130.891Y-67.455
X131.0Y-71.7
X131.4Y-116.0
X131.5Y-95.0
X132.0Y-121.6
X132.9Y-52.9
X133.3Y-76.9
X134.2Y-105.0
X135.1Y-48.4
X135.2Y-114.4
X135.3Y-59.7
X135.3Y-62.8
X135.6Y-72.9
X137.1Y-122.9
X137.2Y-75.4
X137.382Y-116.21
X137.4Y-118.6
X137.6Y-62.3
X137.7Y-67.4
X137.9Y-53.8
X138.9Y-59.7
X139.2Y-78.0
X139.4Y-48.4
X139.7Y-70.1
X140.1Y-63.1
X141.0Y-85.5
X141.4Y-117.4
X141.4Y-127.8
X141.7Y-60.1
X141.9Y-50.4
X142.0Y-85.5
X142.1Y-73.2
X142.6Y-117.4
X142.6Y-127.8
X143.1Y-69.6
X143.3Y-76.9
X143.8Y-117.4
X143.8Y-127.8
X144.0Y-60.2
X145.0Y-117.4
X145.0Y-127.8
X145.5Y-67.9
X145.7Y-57.1
X145.8Y-115.1
X146.0Y-82.0
X146.1Y-47.9
X146.8Y-73.6
X147.1Y-50.7
X147.1Y-59.5
X147.2Y-52.1
X147.2Y-61.9
X147.5Y-82.0
X148.3Y-70.4
X149.0Y-113.1
X149.2Y-78.0
X150.0Y-73.2
X152.0Y-66.8
X152.2Y-71.9
X152.7Y-60.5
X152.7Y-63.4
X152.8Y-128.8
X153.4Y-76.9
X153.8Y-57.3
X154.0Y-116.9
X154.5Y-111.8
X154.7Y-68.2
X155.1Y-116.9
X156.0Y-128.5
X156.6Y-56.9
X156.7Y-73.1
X156.8Y-59.7
X157.0Y-63.7
X157.7Y-65.7
X158.0Y-104.6
X158.4Y-103.7
X158.8Y-61.8
X159.2Y-78.0
X159.8Y-75.4
X160.0Y-53.9
X160.4Y-71.0
X162.0Y-57.5
X163.4Y-65.1
X163.4Y-76.9
X163.5Y-75.4
X163.872Y-70.184
X164.1Y-93.5
X165.096Y-51.589
X165.1Y-89.9
X166.7Y-57.6
X167.0Y-105.0
X167.0Y-106.0
X169.8Y-51.4
X170.5Y-59.8
X172.2Y-75.0
X172.2Y-77.2
X173.0Y-89.0
X174.9Y-75.0
X174.9Y-77.3
X176.2Y-54.1
T3
X125.92Y-50.75
X128.46Y-48.21
X131.0Y-50.75
T4
X111.125Y-109.645
X111.125Y-112.185
X111.125Y-114.725
X172.25Y-61.92
X172.25Y-64.46
X172.25Y-67.0
X172.25Y-69.54
X172.25Y-72.08
X174.79Y-61.92
X174.79Y-64.46
X174.79Y-67.0
X174.79Y-69.54
X174.79Y-72.08
T5
X115.25Y-82.52
X115.25Y-141.02
X118.75Y-141.02
X133.05Y-82.39
X133.05Y-140.89
X136.55Y-140.89
X151.45Y-82.52
X151.45Y-141.02
X154.95Y-141.02
X170.25Y-82.52
X170.25Y-141.02
X173.75Y-141.02
T6
X112.8Y-87.87
X112.8Y-135.67
X121.2Y-86.67
X121.2Y-136.87
X130.6Y-87.74
X130.6Y-135.54
X139.0Y-86.54
X139.0Y-136.74
X149.0Y-87.87
X149.0Y-135.67
X157.4Y-86.67
X157.4Y-136.87
X167.8Y-87.87
X167.8Y-135.67
X176.2Y-86.67
X176.2Y-136.87
T2
G00X116.65Y-52.2
M15
G01X117.55Y-52.2
M16
G05
G00X117.55Y-60.3
M15
G01X116.65Y-60.3
M16
G05
G00X116.65Y-67.2
M15
G01X117.55Y-67.2
M16
G05
G00X117.55Y-75.3
M15
G01X116.65Y-75.3
M16
G05
G00X121.8Y-54.95
M15
G01X121.8Y-54.05
M16
G05
G00X121.8Y-69.95
M15
G01X121.8Y-69.05
M16
G05
T0
M30
