%TF.GenerationSoftware,KiCad,Pcbnew,7.0.9*%
%TF.CreationDate,2024-11-09T18:37:16+13:00*%
%TF.ProjectId,ADSR Envelope,41445352-2045-46e7-9665-6c6f70652e6b,rev?*%
%TF.SameCoordinates,Original*%
%TF.FileFunction,Soldermask,Top*%
%TF.FilePolarity,Negative*%
%FSLAX46Y46*%
G04 Gerber Fmt 4.6, Leading zero omitted, Abs format (unit mm)*
G04 Created by KiCad (PCBNEW 7.0.9) date 2024-11-09 18:37:16*
%MOMM*%
%LPD*%
G01*
G04 APERTURE LIST*
G04 Aperture macros list*
%AMRoundRect*
0 Rectangle with rounded corners*
0 $1 Rounding radius*
0 $2 $3 $4 $5 $6 $7 $8 $9 X,Y pos of 4 corners*
0 Add a 4 corners polygon primitive as box body*
4,1,4,$2,$3,$4,$5,$6,$7,$8,$9,$2,$3,0*
0 Add four circle primitives for the rounded corners*
1,1,$1+$1,$2,$3*
1,1,$1+$1,$4,$5*
1,1,$1+$1,$6,$7*
1,1,$1+$1,$8,$9*
0 Add four rect primitives between the rounded corners*
20,1,$1+$1,$2,$3,$4,$5,0*
20,1,$1+$1,$4,$5,$6,$7,0*
20,1,$1+$1,$6,$7,$8,$9,0*
20,1,$1+$1,$8,$9,$2,$3,0*%
G04 Aperture macros list end*
%ADD10C,1.000000*%
%ADD11R,1.750000X1.750000*%
%ADD12C,1.750000*%
%ADD13C,2.700000*%
%ADD14RoundRect,0.150000X0.200000X-0.150000X0.200000X0.150000X-0.200000X0.150000X-0.200000X-0.150000X0*%
%ADD15RoundRect,0.150000X-0.200000X0.150000X-0.200000X-0.150000X0.200000X-0.150000X0.200000X0.150000X0*%
%ADD16O,2.200000X1.200000*%
%ADD17O,1.200000X2.200000*%
%ADD18C,4.000000*%
%ADD19RoundRect,0.250000X0.600000X0.600000X-0.600000X0.600000X-0.600000X-0.600000X0.600000X-0.600000X0*%
%ADD20C,1.700000*%
%ADD21C,1.440000*%
%ADD22R,1.700000X1.700000*%
%ADD23O,1.700000X1.700000*%
G04 APERTURE END LIST*
D10*
%TO.C,TP33*%
X141500000Y-71500000D03*
%TD*%
%TO.C,TP36*%
X132200000Y-74800000D03*
%TD*%
%TO.C,TP29*%
X163900000Y-74000000D03*
%TD*%
D11*
%TO.C,RV9*%
X170250000Y-141020000D03*
D12*
X173750000Y-141020000D03*
X170250000Y-82520000D03*
D13*
X176200000Y-136870000D03*
X167800000Y-135670000D03*
X167800000Y-87870000D03*
X176200000Y-86670000D03*
%TD*%
D10*
%TO.C,TP19*%
X164000000Y-140600000D03*
%TD*%
%TO.C,TP14*%
X160500000Y-104500000D03*
%TD*%
%TO.C,TP26*%
X135300000Y-58200000D03*
%TD*%
%TO.C,TP30*%
X135600000Y-74800000D03*
%TD*%
%TO.C,TP32*%
X160500000Y-108000000D03*
%TD*%
%TO.C,TP11*%
X145500000Y-84000000D03*
%TD*%
D14*
%TO.C,D8*%
X174800000Y-57600000D03*
X174800000Y-59000000D03*
%TD*%
D10*
%TO.C,TP20*%
X160600000Y-140600000D03*
%TD*%
%TO.C,TP34*%
X157000000Y-61700000D03*
%TD*%
D15*
%TO.C,D9*%
X172300000Y-59000000D03*
X172300000Y-57600000D03*
%TD*%
D10*
%TO.C,TP3*%
X127500000Y-107700000D03*
%TD*%
%TO.C,TP22*%
X141400000Y-130000000D03*
%TD*%
%TO.C,TP17*%
X124000000Y-129400000D03*
%TD*%
D16*
%TO.C,J2*%
X117100000Y-67200000D03*
X117100000Y-75300000D03*
D17*
X121800000Y-69500000D03*
%TD*%
D11*
%TO.C,RV6*%
X115250000Y-141020000D03*
D12*
X118750000Y-141020000D03*
X115250000Y-82520000D03*
D13*
X121200000Y-136870000D03*
X112800000Y-135670000D03*
X112800000Y-87870000D03*
X121200000Y-86670000D03*
%TD*%
D10*
%TO.C,TP5*%
X124500000Y-84000000D03*
%TD*%
%TO.C,TP15*%
X127500000Y-129400000D03*
%TD*%
%TO.C,TP2*%
X110400000Y-102800000D03*
%TD*%
%TO.C,TP35*%
X158400000Y-73000000D03*
%TD*%
%TO.C,TP23*%
X141900000Y-49000000D03*
%TD*%
%TO.C,TP27*%
X150400000Y-66800000D03*
%TD*%
%TO.C,TP28*%
X163900000Y-71800000D03*
%TD*%
%TO.C,TP9*%
X142000000Y-84000000D03*
%TD*%
D11*
%TO.C,RV7*%
X133050000Y-140890000D03*
D12*
X136550000Y-140890000D03*
X133050000Y-82390000D03*
D13*
X139000000Y-136740000D03*
X130600000Y-135540000D03*
X130600000Y-87740000D03*
X139000000Y-86540000D03*
%TD*%
D10*
%TO.C,TP25*%
X145700000Y-58300000D03*
%TD*%
%TO.C,TP37*%
X141600000Y-68700000D03*
%TD*%
%TO.C,TP10*%
X142000000Y-87000000D03*
%TD*%
%TO.C,TP7*%
X127500000Y-83900000D03*
%TD*%
%TO.C,TP16*%
X127500000Y-132500000D03*
%TD*%
%TO.C,TP21*%
X145000000Y-130000000D03*
%TD*%
%TO.C,TP24*%
X141700000Y-61600000D03*
%TD*%
%TO.C,TP18*%
X124000000Y-132500000D03*
%TD*%
D16*
%TO.C,J1*%
X117100000Y-52200000D03*
X117100000Y-60300000D03*
D17*
X121800000Y-54500000D03*
%TD*%
D10*
%TO.C,TP38*%
X125300000Y-60300000D03*
%TD*%
%TO.C,TP13*%
X160500000Y-101000000D03*
%TD*%
D11*
%TO.C,RV8*%
X151450000Y-141020000D03*
D12*
X154950000Y-141020000D03*
X151450000Y-82520000D03*
D13*
X157400000Y-136870000D03*
X149000000Y-135670000D03*
X149000000Y-87870000D03*
X157400000Y-86670000D03*
%TD*%
D18*
%TO.C,REF\u002A\u002A*%
X162750000Y-129000000D03*
%TD*%
D10*
%TO.C,TP1*%
X110400000Y-106000000D03*
%TD*%
%TO.C,TP12*%
X145500000Y-87000000D03*
%TD*%
%TO.C,TP31*%
X160500000Y-97500000D03*
%TD*%
%TO.C,TP8*%
X127500000Y-87000000D03*
%TD*%
%TO.C,TP6*%
X124500000Y-87000000D03*
%TD*%
%TO.C,TP4*%
X127500000Y-111000000D03*
%TD*%
D19*
%TO.C,J3*%
X174790000Y-61920000D03*
D20*
X172250000Y-61920000D03*
X174790000Y-64460000D03*
X172250000Y-64460000D03*
X174790000Y-67000000D03*
X172250000Y-67000000D03*
X174790000Y-69540000D03*
X172250000Y-69540000D03*
X174790000Y-72080000D03*
X172250000Y-72080000D03*
%TD*%
D21*
%TO.C,RV5*%
X131000000Y-50750000D03*
X128460000Y-48210000D03*
X125920000Y-50750000D03*
%TD*%
D22*
%TO.C,J4*%
X111125000Y-114725000D03*
D23*
X111125000Y-112185000D03*
X111125000Y-109645000D03*
%TD*%
M02*
